<svg id="automotiveBER" xmlns="http://www.w3.org/2000/svg" viewBox="29.77 27.22 165.46 93.52">
  <title>logo_hpi</title>
  <g id="container">
    <rect width="225" height="148" fill="none"></rect>
  </g>
  <g>
    <path
      d="M114.7,60.64h2.21a.45.45,0,0,0,.45-.45V53.36h6.33v6.83a.45.45,0,0,0,.45.45h2.21a.45.45,0,0,0,.45-.45V44.49a.43.43,0,0,0-.45-.43h-2.21a.44.44,0,0,0-.45.43v6.15h-6.33V44.49a.43.43,0,0,0-.45-.43H114.7a.43.43,0,0,0-.44.43v15.7a.45.45,0,0,0,.44.45Zm18.61.18a6,6,0,0,0,3.15-1v.36a.45.45,0,0,0,.44.45h1.9a.45.45,0,0,0,.45-.45v-8c0-2.86-1.74-4.26-4.91-4.26a19.11,19.11,0,0,0-3.73.36.45.45,0,0,0-.42.46v1.43c0,.31.18.38.4.38h.11a35,35,0,0,1,3.64-.18c1.31,0,2,.36,2,1.81v1h-1.4c-3.89,0-5.45,1.32-5.45,3.86v.09c0,3,2,3.73,3.86,3.73ZM132.42,57c0-1.25.44-1.9,2.48-1.9h1.4v2.75a4.84,4.84,0,0,1-2.27.62c-1.12,0-1.61-.29-1.61-1.38V57Zm11.15-2.68,3.06,1.88c.71.44,1,.71,1,1.14,0,.6-.2,1.07-1.58,1.07-.67,0-2.68-.11-3.75-.25h-.09a.38.38,0,0,0-.38.36v1.34a.51.51,0,0,0,.42.51,18.86,18.86,0,0,0,4,.45c2.92,0,4.37-1.54,4.37-3.48,0-1.14-.27-2.26-2.14-3.39l-2.92-1.79c-.56-.33-.9-.56-.9-.92,0-.69.47-.93,1.54-.93a32.32,32.32,0,0,1,3.68.27H150c.23,0,.36-.16.36-.43V48.86a.49.49,0,0,0-.4-.52,16.84,16.84,0,0,0-4-.44q-4.24,0-4.24,3.34a3.67,3.67,0,0,0,1.87,3.08Zm15.8-.37-2.92-1.79c-.56-.33-.9-.56-.9-.92,0-.69.47-.93,1.54-.93a32.92,32.92,0,0,1,3.69.27h.08c.23,0,.36-.16.36-.43V48.86a.49.49,0,0,0-.4-.52,16.84,16.84,0,0,0-4-.44c-2.84,0-4.24,1.11-4.24,3.34a3.67,3.67,0,0,0,1.87,3.08l3.06,1.88c.71.44,1,.71,1,1.14,0,.6-.2,1.07-1.58,1.07-.67,0-2.68-.11-3.75-.25h-.09a.38.38,0,0,0-.38.36v1.34a.51.51,0,0,0,.42.51,18.86,18.86,0,0,0,4,.45c2.92,0,4.37-1.54,4.37-3.48,0-1.14-.27-2.26-2.14-3.39Zm9.55,6.87c3.5,0,5.33-2.37,5.33-5.56V53.45c0-3.19-1.83-5.55-5.33-5.55s-5.33,2.36-5.33,5.55v1.81c0,3.19,1.83,5.56,5.33,5.56Zm-2.39-7.37c0-1.83.83-3,2.39-3s2.39,1.18,2.39,3v1.81c0,1.83-.83,3-2.39,3s-2.39-1.18-2.39-3V53.45ZM125.77,70.87v-.2c0-4-3-5.15-6.43-5.15a30.3,30.3,0,0,0-4.37.29c-.44.06-.71.22-.71.67V81.83a.44.44,0,0,0,.44.44h2.23a.43.43,0,0,0,.43-.44V76c.51,0,1.4.09,2,.09,3.44,0,6.43-1.27,6.43-5.22Zm-3.08,0c0,1.79-.94,2.68-3.35,2.68-.37,0-1.62,0-2-.07V68.17c.4,0,1.52-.09,2-.09,2.23,0,3.35.72,3.35,2.59v.2Zm5.71,11.4h2.08a.45.45,0,0,0,.42-.47V65.74a.44.44,0,0,0-.42-.45H128.4a.45.45,0,0,0-.44.45V81.8a.46.46,0,0,0,.44.47Zm11.89-.8v.36a.45.45,0,0,0,.45.44h1.9a.44.44,0,0,0,.44-.44v-8c0-2.85-1.74-4.26-4.91-4.26a19,19,0,0,0-3.72.36c-.29.07-.42.22-.42.47v1.43c0,.31.17.38.4.38h.11a34.81,34.81,0,0,1,3.63-.18c1.32,0,2,.35,2,1.8v1h-1.41c-3.88,0-5.44,1.31-5.44,3.86v.09c0,3,2,3.72,3.86,3.72a6.05,6.05,0,0,0,3.14-1Zm-4-2.74v-.09c0-1.25.44-1.9,2.47-1.9h1.41v2.74a4.86,4.86,0,0,1-2.28.63c-1.11,0-1.6-.29-1.6-1.38Zm10.7.17c0,3,1,3.55,3.55,3.55a9.25,9.25,0,0,0,1.52-.16c.29,0,.42-.17.42-.4v-1.4c0-.23-.18-.34-.46-.34H150.8c-.8,0-.87-.13-.87-1.25v-7h1.37a.45.45,0,0,0,.44-.45V70.14a.45.45,0,0,0-.44-.45h-1.37v-2.3a.32.32,0,0,0-.35-.33h-.09l-2.08.35c-.24,0-.45.2-.45.45v1.83h-2.09a.45.45,0,0,0-.45.45v1c0,.25.2.4.45.45l2.09.31v7Zm13.28,1.25h-1.18c-.81,0-.87-.13-.87-1.25v-7h2a.45.45,0,0,0,.45-.45V70.14a.45.45,0,0,0-.45-.45h-2v-2.3a.32.32,0,0,0-.36-.33h-.09l-2.07.35c-.25,0-.45.2-.45.45v1.83h-1.45a.45.45,0,0,0-.45.45v1c0,.25.2.4.45.45l1.45.31v7c0,3,1,3.55,3.55,3.55a9,9,0,0,0,1.51-.16c.29,0,.43-.17.43-.4v-1.4c0-.23-.18-.34-.47-.34Zm13.19,1.65V74.53c0-2.83-.65-5-3.86-5A5.81,5.81,0,0,0,166,70.6v-.46a.45.45,0,0,0-.44-.45h-1.95a.45.45,0,0,0-.44.45V81.8a.46.46,0,0,0,.44.47h2.06a.46.46,0,0,0,.44-.47v-9a5.72,5.72,0,0,1,2.52-.8c1.72,0,1.9.56,1.9,2.5V81.8a.47.47,0,0,0,.45.47h2a.47.47,0,0,0,.45-.47ZM186,77c.31,0,.44-.2.44-.56V75.2c0-3.32-1.87-5.67-5.3-5.67s-5.36,2.19-5.36,5.67v1.65c0,4.4,3.17,5.6,5.4,5.6a19.7,19.7,0,0,0,4.33-.38c.4-.07.47-.22.47-.58V80c0-.22-.18-.34-.41-.34h-.06c-.94.09-2.48.23-4.11.23a2.52,2.52,0,0,1-2.68-2.84V77Zm-7.25-2.19c0-1.76,1-2.74,2.39-2.74s2.34,1,2.34,2.74v.09h-4.73v-.09Zm16.08-5.29a5.26,5.26,0,0,0-3.19,1.07v-.46a.45.45,0,0,0-.44-.45h-1.94a.45.45,0,0,0-.45.45V81.8a.47.47,0,0,0,.45.47h2a.46.46,0,0,0,.44-.47v-9a6.35,6.35,0,0,1,3.08-.8.45.45,0,0,0,.45-.44V70a.45.45,0,0,0-.45-.45ZM117,87.33h-2.23a.43.43,0,0,0-.45.42v15.71a.45.45,0,0,0,.45.45H117a.45.45,0,0,0,.45-.45V87.75a.44.44,0,0,0-.45-.42Zm10.79,3.84a5.85,5.85,0,0,0-3.65,1.07v-.47a.45.45,0,0,0-.45-.45h-2a.45.45,0,0,0-.45.45v11.67a.47.47,0,0,0,.45.47h2.07a.47.47,0,0,0,.45-.47v-9a5.79,5.79,0,0,1,2.55-.8c1.73,0,1.91.55,1.91,2.49v7.28a.48.48,0,0,0,.45.47h2.08a.47.47,0,0,0,.45-.47V96.16c0-2.83-.65-5-3.9-5Zm13.88,6-2.95-1.78c-.57-.34-.9-.56-.9-.91,0-.7.47-.94,1.55-.94a33.57,33.57,0,0,1,3.72.26h.09c.23,0,.36-.15.36-.42V92.13a.49.49,0,0,0-.41-.52,17.15,17.15,0,0,0-4-.44c-2.86,0-4.28,1.11-4.28,3.35a3.66,3.66,0,0,0,1.9,3.07l3.08,1.88c.72.44,1,.71,1,1.14,0,.6-.2,1.07-1.6,1.07-.67,0-2.7-.12-3.78-.25h-.09a.37.37,0,0,0-.38.36v1.34a.5.5,0,0,0,.42.51,19.2,19.2,0,0,0,4,.44c3,0,4.41-1.53,4.41-3.47,0-1.14-.27-2.26-2.16-3.4Zm11.72,4.58h-1.2c-.81,0-.88-.14-.88-1.25v-7h2a.45.45,0,0,0,.45-.44V91.77a.45.45,0,0,0-.45-.45h-2V89a.32.32,0,0,0-.36-.33h-.09l-2.09.36a.47.47,0,0,0-.45.44v1.83h-2.12a.45.45,0,0,0-.45.45v1a.48.48,0,0,0,.45.45l2.12.31v7c0,3,1,3.54,3.58,3.54a9.21,9.21,0,0,0,1.53-.15c.3-.05.43-.18.43-.4v-1.41c0-.22-.18-.33-.47-.33Zm5.77-10.47H157a.45.45,0,0,0-.45.45v11.67a.47.47,0,0,0,.45.47h2.08a.48.48,0,0,0,.45-.47V91.77a.45.45,0,0,0-.45-.45Zm.06-4.53H157a.47.47,0,0,0-.47.45v2a.47.47,0,0,0,.47.45h2.18a.45.45,0,0,0,.45-.45v-2a.45.45,0,0,0-.45-.45Zm10.68,15h-1.19c-.81,0-.88-.14-.88-1.25v-7h2a.45.45,0,0,0,.45-.44V91.77a.45.45,0,0,0-.45-.45h-2V89a.32.32,0,0,0-.36-.33h-.09l-2.1.36a.48.48,0,0,0-.45.44v1.83h-2.11a.45.45,0,0,0-.45.45v1a.48.48,0,0,0,.45.45l2.11.31v7c0,3,1,3.54,3.59,3.54a9.31,9.31,0,0,0,1.53-.15c.29-.05.43-.18.43-.4v-1.41c0-.22-.18-.33-.48-.33ZM183,91.32h-2.07a.47.47,0,0,0-.45.47v8.93a6.51,6.51,0,0,1-2.55.89,2,2,0,0,1-1.4-.4c-.42-.38-.51-1-.51-2.14V91.79a.48.48,0,0,0-.45-.47h-2.08a.47.47,0,0,0-.45.47v7.28c0,1.85.29,3.23,1.13,4.06a3.88,3.88,0,0,0,2.77.93,5.84,5.84,0,0,0,3.54-1.11v.51a.45.45,0,0,0,.45.45H183a.45.45,0,0,0,.45-.45V91.79a.47.47,0,0,0-.45-.47Zm10.68,10.47h-1.19c-.81,0-.88-.14-.88-1.25v-7h2a.45.45,0,0,0,.45-.44V91.77a.45.45,0,0,0-.45-.45h-2V89a.32.32,0,0,0-.36-.33h-.09l-2.1.36a.48.48,0,0,0-.45.44v1.83h-2.12a.45.45,0,0,0-.45.45v1a.48.48,0,0,0,.45.45l2.12.31v7c0,3,1,3.54,3.59,3.54a9.31,9.31,0,0,0,1.53-.15c.29-.05.43-.18.43-.4v-1.41c0-.22-.19-.33-.48-.33Z"
      fill="#5a5f62"></path>
    <polygon points="96.87 103.88 29.8 103.88 29.8 36.8 96.87 36.8 96.87 103.88 96.87 103.88" fill="#b00835"></polygon>
    <polygon points="106.45 84.71 48.96 84.71 48.96 27.22 106.45 27.22 106.45 84.71 106.45 84.71" fill="#f7a600">
    </polygon>
    <polygon points="48.96 84.71 96.87 84.71 96.87 36.8 48.96 36.8 48.96 84.71 48.96 84.71" fill="#de6106"></polygon>
    <path
      d="M68.45,44.24H66.24a.43.43,0,0,0-.45.43v6.15H59.46V44.67a.43.43,0,0,0-.45-.43H56.8a.43.43,0,0,0-.44.43v15.7a.45.45,0,0,0,.44.45H59a.45.45,0,0,0,.45-.45V53.55h6.33v6.82a.45.45,0,0,0,.45.45h2.21a.45.45,0,0,0,.44-.45V44.67a.43.43,0,0,0-.44-.43Zm8.92-.17a32,32,0,0,0-4.38.28c-.44.07-.71.23-.71.67V60.37a.45.45,0,0,0,.44.45H75a.43.43,0,0,0,.42-.45V54.55c.51,0,1.41.09,2,.09,3.43,0,6.42-1.27,6.42-5.22v-.2c0-3.95-3-5.15-6.42-5.15Zm3.34,5.35c0,1.78-.94,2.68-3.34,2.68-.38,0-1.63-.05-2-.07V46.72c.4,0,1.52-.09,2-.09,2.23,0,3.34.71,3.34,2.59v.2ZM89,44.24H86.82a.43.43,0,0,0-.45.43v15.7a.45.45,0,0,0,.45.45H89a.45.45,0,0,0,.45-.45V44.67a.44.44,0,0,0-.45-.43Z"
      fill="#fff"></path>
    <path
      d="M194.38,118.77v-3.25c0-1.27-.66-1.68-1.48-1.68a3.76,3.76,0,0,0-1.51.37,1.12,1.12,0,0,0-.91-.37,2.53,2.53,0,0,0-1.33.43v-.17a.18.18,0,0,0-.18-.19h-.45a.18.18,0,0,0-.18.19v4.67a.17.17,0,0,0,.16.18H189a.18.18,0,0,0,.17-.18V114.9a2.76,2.76,0,0,1,1.11-.36c.47,0,.7.17.7,1v3.26a.16.16,0,0,0,.16.18h.48a.17.17,0,0,0,.16-.18v-3.26a2.55,2.55,0,0,0-.08-.72,3.13,3.13,0,0,1,1.07-.25c.47,0,.83.21.83,1v3.25a.18.18,0,0,0,.18.18h.44a.18.18,0,0,0,.18-.18m-8.09-.78a2.52,2.52,0,0,1-1.23.37c-.53,0-.84-.18-.84-.84v-.11c0-.65.29-.9,1.39-.9h.68Zm.8.78v-3.2c0-1.08-.51-1.72-1.78-1.72a7.24,7.24,0,0,0-1.41.12c-.13,0-.19.07-.19.17v.32c0,.12.08.15.16.15h0a12,12,0,0,1,1.39-.08c.71,0,1,.27,1,1v.37h-.68c-1.62,0-2.19.49-2.19,1.48v.11A1.33,1.33,0,0,0,184.9,119a2.78,2.78,0,0,0,1.4-.44v.2a.19.19,0,0,0,.19.18h.42A.18.18,0,0,0,187.09,118.77Zm-5.5-.52c-.31,0-.76.06-1.07.06-.9,0-1.18-.56-1.18-1.56v-.66c0-1,.29-1.54,1.18-1.54a6.48,6.48,0,0,1,1.07.07Zm.8.4v-6.41a.16.16,0,0,0-.16-.18h-.47a.17.17,0,0,0-.17.18v1.7a7.22,7.22,0,0,0-1.07-.09c-1.33,0-2,.8-2,2.24v.66c0,1.38.63,2.26,2,2.26a8.75,8.75,0,0,0,1.68-.15c.16,0,.19-.09.19-.21m-4.78-1c0-.54-.25-.94-1-1.39l-.9-.54c-.42-.25-.63-.42-.63-.69,0-.47.33-.54.84-.54s1.1,0,1.42.08h0a.14.14,0,0,0,.16-.16v-.3c0-.1-.06-.16-.17-.18a7.87,7.87,0,0,0-1.43-.12c-.93,0-1.65.26-1.65,1.22a1.58,1.58,0,0,0,.93,1.31l.92.55c.53.31.69.48.69.76,0,.49-.31.65-.9.65-.33,0-1,0-1.43-.1h0c-.09,0-.17.05-.17.13v.32c0,.1.08.16.2.19a6.93,6.93,0,0,0,1.44.13c1,0,1.7-.39,1.7-1.32m-4.17,1.12v-.32c0-.09-.06-.13-.19-.13h-.51c-.37,0-.49-.07-.49-.57v-3.2h1a.18.18,0,0,0,.18-.18v-.31a.18.18,0,0,0-.18-.19h-1v-1a.15.15,0,0,0-.14-.15h0l-.47.07a.18.18,0,0,0-.16.18v.9h-.89a.16.16,0,0,0-.17.17v.24c0,.11.07.16.17.17l.89.1v3.2c0,1,.4,1.22,1.23,1.22a4.12,4.12,0,0,0,.6,0c.11,0,.16-.07.16-.16m-4.47-2c0,.94-.39,1.53-1.23,1.53s-1.23-.6-1.23-1.53v-.7c0-.94.38-1.53,1.23-1.53s1.23.6,1.23,1.53Zm.8,0v-.7a2,2,0,1,0-4.06,0v.7a2,2,0,1,0,4.06,0M164,114.19c0,1-.47,1.35-1.72,1.35l-.91,0v-2.69c.22,0,.63,0,.91,0,1.18,0,1.72.36,1.72,1.29Zm.83,0v-.12c0-1.48-1.07-2-2.55-2-.53,0-1.12,0-1.51.07a.22.22,0,0,0-.22.23v6.39a.17.17,0,0,0,.16.18h.5a.17.17,0,0,0,.16-.18v-2.58c.24,0,.62,0,.91,0,1.48,0,2.55-.52,2.55-2m-7.56,4.62v-.32c0-.09-.07-.13-.19-.13h-.51c-.37,0-.5-.07-.5-.57v-3.2h1a.18.18,0,0,0,.18-.18v-.31a.18.18,0,0,0-.18-.19h-1v-1a.14.14,0,0,0-.13-.15h0l-.47.07a.19.19,0,0,0-.17.18v.9h-.88a.17.17,0,0,0-.18.17v.24c0,.11.08.16.18.17l.88.1v3.2c0,1,.4,1.22,1.24,1.22a4,4,0,0,0,.59,0c.12,0,.17-.07.17-.16m-6-5.91v-.74a.19.19,0,0,0-.18-.18h-.36a.19.19,0,0,0-.18.18v.74a.19.19,0,0,0,.18.18h.36a.19.19,0,0,0,.18-.18m1.59,0v-.74a.19.19,0,0,0-.18-.18h-.35a.19.19,0,0,0-.18.18v.74a.19.19,0,0,0,.18.18h.35a.19.19,0,0,0,.18-.18m-.22,5.09a2.49,2.49,0,0,1-1.23.37c-.53,0-.84-.18-.84-.84v-.11c0-.65.29-.9,1.39-.9h.68Zm.8.78v-3.2c0-1.08-.51-1.72-1.78-1.72a7.24,7.24,0,0,0-1.41.12c-.13,0-.19.07-.19.17v.32c0,.12.08.15.16.15h.05a12,12,0,0,1,1.39-.08c.71,0,1,.27,1,1v.37H152c-1.62,0-2.19.49-2.19,1.48v.11a1.33,1.33,0,0,0,1.48,1.48,2.78,2.78,0,0,0,1.4-.44v.2a.19.19,0,0,0,.19.18h.42A.18.18,0,0,0,153.44,118.77Zm-4.43,0v-.32c0-.09-.06-.13-.19-.13h-.51c-.36,0-.49-.07-.49-.57v-3.2h1a.19.19,0,0,0,.19-.18v-.31a.19.19,0,0,0-.19-.19h-1v-1a.15.15,0,0,0-.14-.15h0l-.48.07a.18.18,0,0,0-.16.18v.9h-.89a.16.16,0,0,0-.17.17v.24c0,.11.07.16.17.17l.89.1v3.2c0,1,.4,1.22,1.24,1.22a4,4,0,0,0,.59,0c.12,0,.16-.07.16-.16m-4,0V114.1a.18.18,0,0,0-.18-.19h-.44a.19.19,0,0,0-.18.19v4.67a.19.19,0,0,0,.18.18h.44a.18.18,0,0,0,.18-.18m0-5.85v-.73a.18.18,0,0,0-.18-.18h-.46a.19.19,0,0,0-.19.18v.73a.19.19,0,0,0,.19.18h.46a.18.18,0,0,0,.18-.18m-1.9,4.77c0-.54-.24-.94-1-1.39l-.9-.54c-.42-.25-.63-.42-.63-.69,0-.47.34-.54.85-.54s1.09,0,1.41.08h0a.14.14,0,0,0,.15-.16v-.3c0-.1-.05-.16-.17-.18a7.83,7.83,0,0,0-1.42-.12c-.94,0-1.65.26-1.65,1.22a1.56,1.56,0,0,0,.93,1.31l.92.55c.52.31.68.48.68.76,0,.49-.31.65-.9.65-.33,0-1,0-1.43-.1h0c-.09,0-.16.05-.16.13v.32c0,.1.07.16.19.19a7,7,0,0,0,1.44.13c1,0,1.7-.39,1.7-1.32m-4.14-3.3V114c0-.11-.06-.16-.19-.16a2.2,2.2,0,0,0-1.29.44v-.19a.17.17,0,0,0-.17-.19h-.43a.17.17,0,0,0-.17.19v4.67a.18.18,0,0,0,.17.18h.45a.19.19,0,0,0,.18-.18v-3.84a2.31,2.31,0,0,1,1.26-.39c.13,0,.19-.05.19-.15m-4.13,1.68h-2.42V116c0-1,.44-1.44,1.22-1.44s1.2.4,1.2,1.44Zm.81.42V116a2,2,0,1,0-4,0v.83a1.91,1.91,0,0,0,2.07,2.19,8.29,8.29,0,0,0,1.63-.15c.14,0,.18-.09.18-.21v-.31c0-.09-.07-.13-.15-.13h0a13.28,13.28,0,0,1-1.62.1c-.84,0-1.27-.4-1.27-1.49v-.13h3.05a.18.18,0,0,0,.18-.2m-4.75-2.42a.15.15,0,0,0-.15-.16h-.5c-.07,0-.14.06-.17.18l-1.05,4c-.06.22-.11.27-.19.27s-.14,0-.19-.27l-1.05-4c0-.12-.1-.18-.17-.18h-.51a.14.14,0,0,0-.14.16.15.15,0,0,0,0,.06l1.23,4.36a.91.91,0,0,0,1.64,0l1.23-4.36a.15.15,0,0,0,0-.06m-5.15,4.7V114.1a.18.18,0,0,0-.18-.19h-.44a.18.18,0,0,0-.18.19v4.67a.18.18,0,0,0,.18.18h.44a.18.18,0,0,0,.18-.18m0-5.85v-.73a.18.18,0,0,0-.18-.18h-.47a.18.18,0,0,0-.18.18v.73a.18.18,0,0,0,.18.18h.47a.18.18,0,0,0,.18-.18m-2.12,5.85v-3c0-1.22-.49-1.9-1.58-1.9a2.82,2.82,0,0,0-1.46.42v-.17a.17.17,0,0,0-.17-.19H120a.18.18,0,0,0-.18.19v4.67a.19.19,0,0,0,.18.18h.44a.19.19,0,0,0,.18-.18V114.9a2.9,2.9,0,0,1,1.24-.36c.69,0,1,.29,1,1.21v3a.18.18,0,0,0,.18.18h.44a.18.18,0,0,0,.18-.18m-5.14-2.29v-4.16a.18.18,0,0,0-.18-.18h-.49a.18.18,0,0,0-.17.18v4.16c0,1.19-.36,1.82-1.49,1.82s-1.5-.64-1.5-1.82v-4.16a.18.18,0,0,0-.17-.18H114a.18.18,0,0,0-.18.18v4.16c0,1.75.86,2.53,2.34,2.53s2.33-.78,2.33-2.53m-8.27,0a.3.3,0,0,1-.3.3h-.78a.3.3,0,0,1-.3-.3v-1.22a.31.31,0,0,1,.3-.31h.78a.31.31,0,0,1,.3.31v1.22m-5.59,2.85c0,.51-.24.8-1.29.8s-1.32-.32-1.32-.83v-.09a1.11,1.11,0,0,1,.45-.93l1,.26c.83.22,1.12.36,1.12.72Zm-.08-3.75c0,.55-.24.93-1.23.93s-1.24-.53-1.24-.93v-.08c0-.51.21-1,1.24-1s1.23.43,1.23,1Zm1-1.26v-.24a.21.21,0,0,0-.21-.2h-2c-1.58,0-2,.81-2,1.62v.08a1.37,1.37,0,0,0,.42,1.06.76.76,0,0,0-.37.66h0a.76.76,0,0,0,.42.71l.06,0a1.49,1.49,0,0,0-.57,1.16v.09c0,.89.66,1.45,2.1,1.45s2.09-.54,2.09-1.42v-.07c0-.86-.86-1.12-1.76-1.35l-1.36-.35c-.21,0-.29-.13-.29-.29a.34.34,0,0,1,.23-.31,2.68,2.68,0,0,0,1.07.18c1.41,0,2-.56,2-1.56v-.08a1.3,1.3,0,0,0-.31-.94l.33-.06c.1,0,.16-.06.16-.18m-5.43,4.42v-3c0-1.22-.49-1.9-1.59-1.9a2.82,2.82,0,0,0-1.46.42v-.17a.17.17,0,0,0-.17-.19h-.46a.17.17,0,0,0-.17.19v4.67a.18.18,0,0,0,.17.18h.45a.19.19,0,0,0,.18-.18V114.9a2.9,2.9,0,0,1,1.24-.36c.7,0,1,.29,1,1.21v3a.18.18,0,0,0,.18.18h.44a.18.18,0,0,0,.18-.18m-5.22,0V114.1a.18.18,0,0,0-.18-.19h-.44a.18.18,0,0,0-.18.19v4.67a.18.18,0,0,0,.18.18h.44a.18.18,0,0,0,.18-.18m0-5.85v-.73a.18.18,0,0,0-.18-.18h-.47a.18.18,0,0,0-.18.18v.73a.18.18,0,0,0,.18.18h.47a.18.18,0,0,0,.18-.18m-1.85,1.47V114c0-.11-.06-.16-.19-.16a2.2,2.2,0,0,0-1.29.44v-.19a.18.18,0,0,0-.18-.19H91a.17.17,0,0,0-.17.19v4.67A.18.18,0,0,0,91,119h.45a.2.2,0,0,0,.19-.18v-3.84a2.28,2.28,0,0,1,1.26-.39c.13,0,.19-.05.19-.15m-4.2,1.68H86.44V116c0-1,.44-1.44,1.23-1.44s1.2.41,1.2,1.44Zm.81.42V116a1.89,1.89,0,0,0-2-2.14,1.91,1.91,0,0,0-2,2.14v.83A1.92,1.92,0,0,0,87.72,119a8.47,8.47,0,0,0,1.64-.15c.14,0,.18-.09.18-.21v-.31a.14.14,0,0,0-.15-.13h0a13.32,13.32,0,0,1-1.63.1c-.85,0-1.28-.4-1.28-1.49v-.13h3.07c.11,0,.17-.08.17-.2m-5.87-.42H81.38V116c0-1,.44-1.44,1.23-1.44s1.2.41,1.2,1.44Zm.81.42V116a1.89,1.89,0,0,0-2-2.14,1.91,1.91,0,0,0-2,2.14v.83A1.92,1.92,0,0,0,82.66,119a8.29,8.29,0,0,0,1.63-.15c.15,0,.19-.09.19-.21v-.31a.14.14,0,0,0-.15-.13h0a13.45,13.45,0,0,1-1.63.1c-.85,0-1.28-.4-1.28-1.49v-.13h3.07c.11,0,.17-.08.17-.2m-5.19,2.28v-3c0-1.22-.49-1.9-1.59-1.9a2.82,2.82,0,0,0-1.46.42v-.17a.17.17,0,0,0-.17-.19h-.46a.17.17,0,0,0-.17.19v4.67a.18.18,0,0,0,.17.18h.45a.19.19,0,0,0,.18-.18V114.9a2.9,2.9,0,0,1,1.24-.36c.69,0,1,.29,1,1.21v3a.18.18,0,0,0,.18.18h.44a.18.18,0,0,0,.18-.18m-5.22,0V114.1a.18.18,0,0,0-.18-.19h-.44a.18.18,0,0,0-.18.19v4.67a.18.18,0,0,0,.18.18H74a.18.18,0,0,0,.18-.18m0-5.85v-.73a.18.18,0,0,0-.18-.18h-.47a.18.18,0,0,0-.18.18v.73a.18.18,0,0,0,.18.18h.47a.18.18,0,0,0,.18-.18m-2.8,6.44c0,.51-.24.8-1.28.8s-1.32-.32-1.32-.83v-.09a1.08,1.08,0,0,1,.45-.93l1,.26c.83.22,1.12.36,1.12.72Zm-.07-3.75c0,.55-.25.93-1.24.93s-1.24-.53-1.24-.93v-.08c0-.51.21-1,1.24-1s1.24.43,1.24,1Zm1-1.26v-.24a.21.21,0,0,0-.21-.2h-2c-1.58,0-2,.81-2,1.62v.08a1.34,1.34,0,0,0,.42,1.06.75.75,0,0,0-.38.66h0a.76.76,0,0,0,.42.71l.07,0a1.46,1.46,0,0,0-.58,1.16v.09c0,.89.66,1.45,2.11,1.45s2.08-.54,2.08-1.42v-.07c0-.86-.86-1.12-1.75-1.35l-1.37-.35c-.21,0-.28-.13-.28-.29a.32.32,0,0,1,.23-.31,2.6,2.6,0,0,0,1.06.18c1.41,0,2-.56,2-1.56v-.08a1.26,1.26,0,0,0-.31-.94l.33-.06c.1,0,.16-.06.16-.18m-5.43,4.42v-3c0-1.22-.49-1.9-1.59-1.9a2.82,2.82,0,0,0-1.46.42v-.17a.17.17,0,0,0-.17-.19h-.46a.17.17,0,0,0-.17.19v4.67a.18.18,0,0,0,.17.18h.45a.19.19,0,0,0,.18-.18V114.9a3,3,0,0,1,1.24-.36c.7,0,1,.29,1,1.21v3a.18.18,0,0,0,.18.18h.44a.18.18,0,0,0,.18-.18m-5,.07v-.47a.1.1,0,0,0-.1-.11H60c-1,0-1.13-.25-1.13-1v-1.54h2.81a.18.18,0,0,0,.19-.18v-.35a.18.18,0,0,0-.19-.18H58.9v-1.28c0-.69.16-1,1.13-1H61.8a.1.1,0,0,0,.1-.11v-.46c0-.05,0-.12-.09-.12-.39,0-1.25-.06-1.79-.06-1.28,0-2,.48-2,1.7v3.53c0,1.22.67,1.7,2,1.7.54,0,1.44,0,1.79,0a.13.13,0,0,0,.09-.13m-7.62-.07v-6.53a.17.17,0,0,0-.16-.18h-.48a.16.16,0,0,0-.16.18v6.53a.17.17,0,0,0,.16.18h.48a.17.17,0,0,0,.16-.18M51.37,118a2.52,2.52,0,0,1-1.24.37c-.53,0-.85-.18-.85-.84v-.11c0-.65.3-.9,1.41-.9h.68Zm.8.78v-3.2c0-1.08-.51-1.72-1.79-1.72A7.43,7.43,0,0,0,49,114c-.12,0-.19.07-.19.17v.32c0,.12.08.15.17.15h0a12.33,12.33,0,0,1,1.4-.08c.72,0,1,.27,1,1v.37h-.68c-1.63,0-2.21.49-2.21,1.48v.11A1.33,1.33,0,0,0,50,119a2.82,2.82,0,0,0,1.41-.44v.2a.19.19,0,0,0,.19.18H52a.18.18,0,0,0,.18-.18Zm-4.45,0v-.32c0-.09-.06-.13-.19-.13H47c-.37,0-.5-.07-.5-.57v-3.2h1a.19.19,0,0,0,.19-.18v-.31a.19.19,0,0,0-.19-.19h-1v-1a.14.14,0,0,0-.13-.15h0l-.48.07a.18.18,0,0,0-.16.18v.9h-.89a.17.17,0,0,0-.18.17v.24a.18.18,0,0,0,.18.17l.89.1v3.2c0,1,.4,1.22,1.24,1.22a4.12,4.12,0,0,0,.6,0c.12,0,.16-.07.16-.16m-4,0V114.1a.18.18,0,0,0-.18-.19h-.44a.18.18,0,0,0-.18.19v4.67a.18.18,0,0,0,.18.18h.44a.18.18,0,0,0,.18-.18m0-5.85v-.73a.18.18,0,0,0-.18-.18h-.47a.18.18,0,0,0-.18.18v.73a.18.18,0,0,0,.18.18h.47a.18.18,0,0,0,.18-.18M41,119.36c0,.51-.24.8-1.29.8s-1.32-.32-1.32-.83v-.09a1.11,1.11,0,0,1,.45-.93l1,.26c.82.22,1.12.36,1.12.72Zm-.08-3.75c0,.55-.24.93-1.23.93s-1.24-.53-1.24-.93v-.08c0-.51.21-1,1.24-1s1.23.43,1.23,1Zm1-1.26v-.24a.21.21,0,0,0-.21-.2h-2c-1.58,0-2,.81-2,1.62v.08a1.37,1.37,0,0,0,.42,1.06.76.76,0,0,0-.37.66h0a.76.76,0,0,0,.42.71l.06,0a1.49,1.49,0,0,0-.57,1.16v.09c0,.89.66,1.45,2.1,1.45s2.09-.54,2.09-1.42v-.07c0-.86-.86-1.12-1.76-1.35l-1.36-.35c-.21,0-.29-.13-.29-.29a.34.34,0,0,1,.23-.31,2.68,2.68,0,0,0,1.07.18c1.41,0,2-.56,2-1.56v-.08a1.3,1.3,0,0,0-.31-.94l.33-.06c.1,0,.16-.06.16-.18m-5.45,4.42V114.1a.18.18,0,0,0-.18-.19h-.44a.19.19,0,0,0-.19.19v4.67a.19.19,0,0,0,.19.18h.44a.18.18,0,0,0,.18-.18m0-5.85v-.73a.19.19,0,0,0-.19-.18h-.46a.19.19,0,0,0-.19.18v.73a.19.19,0,0,0,.19.18h.46a.19.19,0,0,0,.19-.18m-2.91,3.25c0,1.65-.84,2.13-1.94,2.13-.43,0-.72,0-1,0v-5.46c.3,0,.59,0,1,0,1.1,0,1.94.48,1.94,2.14Zm.83,0v-1.24a2.51,2.51,0,0,0-2.77-2.85,14.25,14.25,0,0,0-1.67.09.21.21,0,0,0-.19.23v6.29a.21.21,0,0,0,.19.23,12.31,12.31,0,0,0,1.67.09,2.51,2.51,0,0,0,2.77-2.84"
      fill="#5a5f62"></path>
  </g>
</svg>