<svg id="german_upa" data-name="german upa" xmlns="http://www.w3.org/2000/svg" viewBox="0 0 225 148">
  <title>Logo_German-UPA</title>
  <g id="container">
    <rect width="225" height="148" fill="none"/>
  </g>
  <g>
    <path d="M54.07,80.49v13l-22.49,13L20.34,100,54.07,80.49" fill="#ffaf54"/>
    <g>
      <path d="M64.65,67.59A4.32,4.32,0,0,1,63,66.49a4.93,4.93,0,0,1-1-1.75,6.74,6.74,0,0,1-.37-2.33,6.65,6.65,0,0,1,.37-2.3,4.61,4.61,0,0,1,1-1.74,4.41,4.41,0,0,1,1.64-1.09,5.69,5.69,0,0,1,2.16-.39,6.13,6.13,0,0,1,1.54.17,5.62,5.62,0,0,1,1.06.37,3.67,3.67,0,0,1,.66.4,1.77,1.77,0,0,0,.38.24.28.28,0,0,0,.15,0,.24.24,0,0,0,.22-.13l.23-.38a5.66,5.66,0,0,0-.85-.63,4.91,4.91,0,0,0-1-.46,6.45,6.45,0,0,0-1.11-.29,8.75,8.75,0,0,0-1.3-.09,7,7,0,0,0-2.56.45,5.39,5.39,0,0,0-1.94,1.26,5.72,5.72,0,0,0-1.23,2,7.37,7.37,0,0,0-.44,2.59A7.27,7.27,0,0,0,61.14,65a5.65,5.65,0,0,0,1.22,2,5.34,5.34,0,0,0,1.88,1.27,6.37,6.37,0,0,0,2.43.44,8.93,8.93,0,0,0,1.42-.09,7.29,7.29,0,0,0,1.22-.26,5.85,5.85,0,0,0,1.06-.42,8.24,8.24,0,0,0,.95-.57V63H67.93v.49a.2.2,0,0,0,.06.14.25.25,0,0,0,.17.06h2.36V67l-.82.42a5.33,5.33,0,0,1-.85.31,5.43,5.43,0,0,1-1,.2,10.31,10.31,0,0,1-1.16.06,5.39,5.39,0,0,1-2.08-.38m9.72-11.32V68.56h7.37v-.74H75.27V62.69h5.38V62H75.27V57h6.47v-.74ZM86.84,63a1.18,1.18,0,0,1,.52.08.94.94,0,0,1,.32.26l3.93,5a.6.6,0,0,0,.2.17.43.43,0,0,0,.24.06h.77l-4.23-5.32a1.53,1.53,0,0,0-.37-.35,4.61,4.61,0,0,0,1.45-.37,3.5,3.5,0,0,0,1.1-.72,3,3,0,0,0,.69-1,3.11,3.11,0,0,0,.25-1.28,2.88,2.88,0,0,0-1-2.41,5.1,5.1,0,0,0-3.18-.82H84.34V68.56h.89V63Zm-1.61-6h2.25a4.12,4.12,0,0,1,2.5.64,2.26,2.26,0,0,1,.86,1.94,2.89,2.89,0,0,1-.23,1.16,2.42,2.42,0,0,1-.69.87,3,3,0,0,1-1.09.56,5.05,5.05,0,0,1-1.46.2H85.23Zm15.64,8-5-8.55a.39.39,0,0,0-.15-.14l-.19,0H95V68.56h.77V58.08a4,4,0,0,0,0-.48l5,8.6a.37.37,0,0,0,.34.22h.14a.38.38,0,0,0,.35-.22l4.84-8.59a3.83,3.83,0,0,0,0,.47V68.56h.78V56.27h-.61l-.2,0a.36.36,0,0,0-.13.14L101.33,65a2.1,2.1,0,0,0-.13.26l-.11.27a3.53,3.53,0,0,0-.22-.52M115,56.27h-.89l-5,12.29h.67a.38.38,0,0,0,.21-.07.33.33,0,0,0,.12-.17l1.45-3.57h6L119,68.32a.43.43,0,0,0,.12.17.35.35,0,0,0,.2.07h.69Zm-.69,1.62c0-.1.09-.22.13-.34l.12-.4.12.4c0,.12.08.24.12.33l2.51,6.21h-5.51Zm8.15-1.62h-.43V68.56h.77V58.21a4.29,4.29,0,0,0,0-.49l8,10.66a.39.39,0,0,0,.33.18h.42V56.27h-.78V66.58a4.32,4.32,0,0,0,0,.5l-8-10.65a.35.35,0,0,0-.15-.13.47.47,0,0,0-.19,0m19.34,10.18a2.46,2.46,0,0,1-.9-.64,3,3,0,0,1-.56-1,4,4,0,0,1-.2-1.3V56h-2.33v7.52a5.77,5.77,0,0,0,.36,2.07,4.6,4.6,0,0,0,2.67,2.72,6.39,6.39,0,0,0,4.34,0,4.78,4.78,0,0,0,1.64-1.08,4.73,4.73,0,0,0,1-1.64,5.77,5.77,0,0,0,.36-2.07V56H145.9v7.52a4.08,4.08,0,0,1-.19,1.3,2.68,2.68,0,0,1-.57,1,2.46,2.46,0,0,1-.9.64,3.11,3.11,0,0,1-1.21.22,3.07,3.07,0,0,1-1.21-.22m12.93-2.31a6.85,6.85,0,0,0,2.14-.31,4.21,4.21,0,0,0,1.52-.85,3.33,3.33,0,0,0,.91-1.31,4.63,4.63,0,0,0,0-3.28,3.15,3.15,0,0,0-.89-1.27,4.17,4.17,0,0,0-1.52-.83,7.38,7.38,0,0,0-2.18-.29h-4.09V68.56H153V64.14ZM153,57.81h1.75a3.7,3.7,0,0,1,1.12.15,1.89,1.89,0,0,1,.79.44,1.73,1.73,0,0,1,.47.69,2.42,2.42,0,0,1,.16.91,2.61,2.61,0,0,1-.16,1,1.81,1.81,0,0,1-.47.73,2,2,0,0,1-.79.46,3.4,3.4,0,0,1-1.12.16H153ZM166.38,56H164l-4.93,12.56h1.81a.76.76,0,0,0,.5-.17.84.84,0,0,0,.28-.36l.93-2.57h5.21l.93,2.57a.87.87,0,0,0,.29.37.73.73,0,0,0,.5.16h1.8Zm-1.67,3.65c.08-.19.15-.41.23-.66s.16-.53.24-.83c.08.3.16.57.25.82s.16.47.23.66l1.53,4.17h-4Z" fill="#4e4e47"/>
      <path d="M61.13,88.13v2.92a2.28,2.28,0,0,0,.1.72,1.54,1.54,0,0,0,.28.54,1.3,1.3,0,0,0,.48.35,1.69,1.69,0,0,0,.66.12,1.84,1.84,0,0,0,.93-.24,2.63,2.63,0,0,0,.74-.64l0,.69c0,.08,0,.11.13.11h.24V88.13h-.44v3.44a2.4,2.4,0,0,1-.69.63,1.66,1.66,0,0,1-.84.23,1.08,1.08,0,0,1-.9-.37,1.6,1.6,0,0,1-.29-1V88.13Zm5.51,4.57V89.27a2.41,2.41,0,0,1,.69-.63,1.56,1.56,0,0,1,.84-.23,1.1,1.1,0,0,1,.9.36,1.54,1.54,0,0,1,.29,1V92.7h.44V89.78a2.28,2.28,0,0,0-.1-.72,1.54,1.54,0,0,0-.28-.54,1.27,1.27,0,0,0-.48-.34,1.69,1.69,0,0,0-.66-.12,1.84,1.84,0,0,0-.93.24,2.59,2.59,0,0,0-.73.64l0-.69a.13.13,0,0,0-.14-.12h-.23V92.7Zm8.12,0V86h-.43v2.71a1.89,1.89,0,0,0-.59-.51,1.86,1.86,0,0,0-.81-.17,1.78,1.78,0,0,0-.85.19,1.82,1.82,0,0,0-.63.5,2.23,2.23,0,0,0-.39.75,3.5,3.5,0,0,0-.13.94,2.77,2.77,0,0,0,.47,1.75,1.61,1.61,0,0,0,1.32.58,1.74,1.74,0,0,0,.91-.24,2.33,2.33,0,0,0,.71-.66l0,.73a.12.12,0,0,0,.13.11Zm-3-.77a2.43,2.43,0,0,1-.38-1.5,3.09,3.09,0,0,1,.11-.83A1.82,1.82,0,0,1,71.8,89a1.36,1.36,0,0,1,.5-.42A1.76,1.76,0,0,1,73,88.4a1.6,1.6,0,0,1,.73.16,1.68,1.68,0,0,1,.59.55v2.41a2.58,2.58,0,0,1-.66.66,1.57,1.57,0,0,1-.83.23,1.29,1.29,0,0,1-1.08-.48m8.1.27a1.81,1.81,0,0,1-.63-.45,1.94,1.94,0,0,1-.39-.69,2.55,2.55,0,0,1-.13-.84v-4h-.48v4a3.06,3.06,0,0,0,.17,1,2.54,2.54,0,0,0,.49.81,2.44,2.44,0,0,0,.78.55,2.59,2.59,0,0,0,1,.19,2.63,2.63,0,0,0,1-.19A2.4,2.4,0,0,0,82.5,92a2.38,2.38,0,0,0,.49-.81,2.82,2.82,0,0,0,.17-1v-4h-.47v4a2.57,2.57,0,0,1-.13.85,1.86,1.86,0,0,1-.4.68,1.76,1.76,0,0,1-.62.46,2.06,2.06,0,0,1-.84.16,2,2,0,0,1-.84-.17m7.49-3.65a1.72,1.72,0,0,0-.6-.37,2.13,2.13,0,0,0-.74-.12,1.81,1.81,0,0,0-.63.1,1.58,1.58,0,0,0-.48.27,1.14,1.14,0,0,0-.3.39,1.1,1.1,0,0,0-.1.47.9.9,0,0,0,.11.48,1,1,0,0,0,.29.32,1.41,1.41,0,0,0,.4.22,4.34,4.34,0,0,0,.47.16l.47.15a2.2,2.2,0,0,1,.41.18,1,1,0,0,1,.29.26.66.66,0,0,1,.11.38,1,1,0,0,1-.08.39.83.83,0,0,1-.22.33,1.21,1.21,0,0,1-.37.22,1.6,1.6,0,0,1-.51.08,1.58,1.58,0,0,1-.52-.08,1.92,1.92,0,0,1-.35-.16c-.09,0-.16-.11-.22-.15a.28.28,0,0,0-.15-.08l-.08,0s0,0,0,.06l-.11.15a2.32,2.32,0,0,0,.63.4,1.92,1.92,0,0,0,.83.16,2,2,0,0,0,.68-.11,1.6,1.6,0,0,0,.51-.3,1.39,1.39,0,0,0,.31-.45,1.42,1.42,0,0,0,.11-.55,1,1,0,0,0-.11-.47,1.15,1.15,0,0,0-.29-.33,1.78,1.78,0,0,0-.41-.22l-.47-.16L85.72,90a2.2,2.2,0,0,1-.41-.18.76.76,0,0,1-.29-.24.57.57,0,0,1-.11-.36.8.8,0,0,1,.08-.33.86.86,0,0,1,.23-.28,1.06,1.06,0,0,1,.35-.19,1.62,1.62,0,0,1,.91,0,1.75,1.75,0,0,1,.33.13l.21.13a.21.21,0,0,0,.13.05.11.11,0,0,0,.1-.06Zm2.24-.32a1.81,1.81,0,0,0-.65.47,2,2,0,0,0-.4.72,2.61,2.61,0,0,0-.14.9,3.3,3.3,0,0,0,.15,1,2.28,2.28,0,0,0,.42.77,2,2,0,0,0,.67.47,2.11,2.11,0,0,0,.85.16,2.35,2.35,0,0,0,.52-.05,3.62,3.62,0,0,0,.47-.13,2.25,2.25,0,0,0,.41-.21,1.22,1.22,0,0,0,.29-.25L92.06,92a.11.11,0,0,0-.09,0,.36.36,0,0,0-.15.08l-.27.17a2.57,2.57,0,0,1-.43.17,2.15,2.15,0,0,1-.6.07,1.7,1.7,0,0,1-.69-.13,1.41,1.41,0,0,1-.54-.4,1.9,1.9,0,0,1-.34-.65,3.09,3.09,0,0,1-.12-.91v-.08h3.3a.13.13,0,0,0,.1,0,.24.24,0,0,0,0-.14,2.44,2.44,0,0,0-.14-.85,1.66,1.66,0,0,0-.38-.63,1.61,1.61,0,0,0-.57-.39,1.8,1.8,0,0,0-.71-.13,2,2,0,0,0-.87.17m1.44.26a1.29,1.29,0,0,1,.45.31,1.51,1.51,0,0,1,.28.5,1.89,1.89,0,0,1,.1.65h-3a2.15,2.15,0,0,1,.17-.64,1.48,1.48,0,0,1,.81-.82,1.83,1.83,0,0,1,.64-.11,1.47,1.47,0,0,1,.56.11m2.84,4.21v-3a2.36,2.36,0,0,1,.54-.93,1.2,1.2,0,0,1,.85-.32l.26,0,.18,0,.13,0,.08,0a.09.09,0,0,0,.09-.07l.06-.31a2.26,2.26,0,0,0-.33-.13,2.33,2.33,0,0,0-.38,0,1.37,1.37,0,0,0-.91.32,2.16,2.16,0,0,0-.59.87l0-1a.12.12,0,0,0,0-.11.16.16,0,0,0-.11,0h-.23V92.7Zm5.21-6.5v6.5H103v-.39H99.55V89.6h2.85v-.38H99.55V86.59H103V86.2ZM104,92.7h.39a.14.14,0,0,0,.09,0l.06-.07,1.34-1.88a.52.52,0,0,0,.07-.15l1.38,2,.06.08a.18.18,0,0,0,.11,0h.41l-1.66-2.36,1.6-2.21h-.41a.13.13,0,0,0-.08,0,.18.18,0,0,0,0,.07L106,90a.6.6,0,0,0-.08.16l-1.34-1.94,0-.06a.13.13,0,0,0-.1,0H104l1.59,2.23Zm5.33,1.62V92.09a1.65,1.65,0,0,0,.59.5,1.73,1.73,0,0,0,.81.17,1.9,1.9,0,0,0,.85-.18,1.82,1.82,0,0,0,.63-.5,2.58,2.58,0,0,0,.38-.76,3.12,3.12,0,0,0,.13-.93,2.75,2.75,0,0,0-.47-1.75,1.59,1.59,0,0,0-1.31-.59,1.8,1.8,0,0,0-.92.24,2.77,2.77,0,0,0-.71.66l0-.7s0-.08,0-.09a.15.15,0,0,0-.1,0h-.23v6.19Zm2.56-5.43a2.43,2.43,0,0,1,.38,1.5,3,3,0,0,1-.1.82,2.06,2.06,0,0,1-.31.65,1.45,1.45,0,0,1-.51.41,1.58,1.58,0,0,1-.71.15,1.43,1.43,0,0,1-1.31-.72V89.3a2.3,2.3,0,0,1,.66-.66,1.45,1.45,0,0,1,.82-.23,1.29,1.29,0,0,1,1.08.48m2.92-.66a1.81,1.81,0,0,0-.65.47,2.1,2.1,0,0,0-.4.72,2.88,2.88,0,0,0-.14.9,3.3,3.3,0,0,0,.15,1,2.14,2.14,0,0,0,.43.77,1.85,1.85,0,0,0,.66.47,2.15,2.15,0,0,0,.85.16,2.24,2.24,0,0,0,.52-.05,3.36,3.36,0,0,0,.48-.13,2.52,2.52,0,0,0,.4-.21,1.22,1.22,0,0,0,.29-.25l-.12-.15a.11.11,0,0,0-.09,0A.36.36,0,0,0,117,92a1.85,1.85,0,0,1-.27.17,2.57,2.57,0,0,1-.43.17,2.08,2.08,0,0,1-.59.07,1.75,1.75,0,0,1-.7-.13,1.41,1.41,0,0,1-.54-.4,1.9,1.9,0,0,1-.34-.65,3.09,3.09,0,0,1-.12-.91v-.08h3.31a.13.13,0,0,0,.09,0,.24.24,0,0,0,0-.14,2.44,2.44,0,0,0-.14-.85,1.78,1.78,0,0,0-.37-.63,1.61,1.61,0,0,0-.57-.39,1.88,1.88,0,0,0-.72-.13,2,2,0,0,0-.87.17m1.45.26a1.25,1.25,0,0,1,.44.31,1.35,1.35,0,0,1,.28.5,1.89,1.89,0,0,1,.1.65h-3a2.5,2.5,0,0,1,.17-.64,1.61,1.61,0,0,1,.33-.5,1.49,1.49,0,0,1,.49-.32,1.73,1.73,0,0,1,.63-.11,1.48,1.48,0,0,1,.57.11M119,92.7v-3a2.36,2.36,0,0,1,.54-.93,1.2,1.2,0,0,1,.85-.32l.26,0,.18,0,.13,0,.08,0a.09.09,0,0,0,.09-.07l.06-.31a1.62,1.62,0,0,0-.33-.13,2.33,2.33,0,0,0-.38,0,1.37,1.37,0,0,0-.91.32,2.27,2.27,0,0,0-.59.87l0-1a.23.23,0,0,0,0-.11.19.19,0,0,0-.12,0h-.22V92.7Zm3.3,0h.44V88.13h-.44Zm.59-6.31a.57.57,0,0,0-.08-.13l-.13-.08a.47.47,0,0,0-.16,0,.42.42,0,0,0-.16,0,.33.33,0,0,0-.21.21.5.5,0,0,0,0,.16.41.41,0,0,0,0,.16.5.5,0,0,0,.08.12.38.38,0,0,0,.13.09.41.41,0,0,0,.16,0,.45.45,0,0,0,.16,0,.51.51,0,0,0,.13-.09.5.5,0,0,0,.08-.12.29.29,0,0,0,0-.16.34.34,0,0,0,0-.16m2.29,1.84a1.73,1.73,0,0,0-.65.47,2.12,2.12,0,0,0-.41.72,2.88,2.88,0,0,0-.14.9,3.3,3.3,0,0,0,.15,1,2.3,2.3,0,0,0,.43.77,1.94,1.94,0,0,0,.66.47,2.47,2.47,0,0,0,1.37.11,3.36,3.36,0,0,0,.48-.13,2.15,2.15,0,0,0,.4-.21,1.53,1.53,0,0,0,.3-.25l-.12-.15a.14.14,0,0,0-.1,0s-.07,0-.14.08a2,2,0,0,1-.28.17,2,2,0,0,1-1,.24,1.75,1.75,0,0,1-.7-.13,1.38,1.38,0,0,1-.53-.4,1.74,1.74,0,0,1-.34-.65,3.09,3.09,0,0,1-.12-.91v-.08h3.3a.13.13,0,0,0,.09,0,.24.24,0,0,0,0-.14,2.45,2.45,0,0,0-.13-.85,1.8,1.8,0,0,0-.38-.63,1.61,1.61,0,0,0-.57-.39,1.87,1.87,0,0,0-.71-.13,2,2,0,0,0-.87.17m1.44.26a1.25,1.25,0,0,1,.44.31,1.37,1.37,0,0,1,.29.5,1.89,1.89,0,0,1,.1.65h-3a2.15,2.15,0,0,1,.16-.64,1.64,1.64,0,0,1,.34-.5,1.35,1.35,0,0,1,.48-.32,1.81,1.81,0,0,1,.63-.11,1.48,1.48,0,0,1,.57.11m2.84,4.21V89.27a2.41,2.41,0,0,1,.69-.63,1.51,1.51,0,0,1,.83-.23,1.08,1.08,0,0,1,.9.36,1.54,1.54,0,0,1,.3,1V92.7h.43V89.78a2.63,2.63,0,0,0-.09-.72,1.56,1.56,0,0,0-.29-.54,1.17,1.17,0,0,0-.47-.34,1.74,1.74,0,0,0-.67-.12,1.78,1.78,0,0,0-.92.24,2.46,2.46,0,0,0-.73.64l0-.69a.13.13,0,0,0-.14-.12h-.24V92.7Zm7.75-4.11a1.73,1.73,0,0,0-.6-.39,2.33,2.33,0,0,0-1.67,0,1.75,1.75,0,0,0-.65.48,2.26,2.26,0,0,0-.41.75,3.23,3.23,0,0,0-.13,1,3,3,0,0,0,.14,1,2.21,2.21,0,0,0,.41.74,1.76,1.76,0,0,0,.62.46,2,2,0,0,0,.79.15,2.74,2.74,0,0,0,.5,0,2.83,2.83,0,0,0,.44-.14,2.12,2.12,0,0,0,.36-.21,1.31,1.31,0,0,0,.27-.25L137.2,92a.11.11,0,0,0-.09,0S137,92,137,92a1.72,1.72,0,0,1-.23.17,1.84,1.84,0,0,1-.37.17,1.73,1.73,0,0,1-.55.08,1.76,1.76,0,0,1-.66-.13,1.45,1.45,0,0,1-.5-.39,2.07,2.07,0,0,1-.32-.63,3.3,3.3,0,0,1,0-1.69,2,2,0,0,1,.32-.64,1.37,1.37,0,0,1,.52-.4,1.68,1.68,0,0,1,.7-.14,1.65,1.65,0,0,1,.48.06,1.59,1.59,0,0,1,.34.14,1,1,0,0,1,.21.14.24.24,0,0,0,.13.06l.05,0,0,0Zm1.9-.36a1.78,1.78,0,0,0-.64.47,2,2,0,0,0-.41.72,2.88,2.88,0,0,0-.14.9,3.3,3.3,0,0,0,.15,1,2.14,2.14,0,0,0,.43.77,1.85,1.85,0,0,0,.66.47,2.16,2.16,0,0,0,.86.16,2.21,2.21,0,0,0,.51-.05,3.36,3.36,0,0,0,.48-.13,2.15,2.15,0,0,0,.4-.21,1.22,1.22,0,0,0,.29-.25l-.11-.15a.14.14,0,0,0-.1,0,.29.29,0,0,0-.14.08,2,2,0,0,1-.28.17,2,2,0,0,1-1,.24,1.75,1.75,0,0,1-.7-.13,1.31,1.31,0,0,1-.53-.4,1.74,1.74,0,0,1-.34-.65,3.09,3.09,0,0,1-.12-.91v-.08h3.3a.13.13,0,0,0,.09,0,.24.24,0,0,0,0-.14,2.45,2.45,0,0,0-.13-.85,1.8,1.8,0,0,0-.38-.63,1.61,1.61,0,0,0-.57-.39,1.88,1.88,0,0,0-.72-.13,2,2,0,0,0-.87.17m1.45.26a1.25,1.25,0,0,1,.44.31,1.53,1.53,0,0,1,.29.5,2.16,2.16,0,0,1,.1.65h-3a2.15,2.15,0,0,1,.16-.64,1.81,1.81,0,0,1,.33-.5,1.49,1.49,0,0,1,.49-.32,1.81,1.81,0,0,1,.63-.11,1.48,1.48,0,0,1,.57.11m6.21,1.59a3,3,0,0,0,1-.14,2.12,2.12,0,0,0,.72-.41,1.62,1.62,0,0,0,.46-.61,1.86,1.86,0,0,0,.16-.79,1.77,1.77,0,0,0-.58-1.43,2.61,2.61,0,0,0-1.73-.5h-1.68v6.5h.47V90.08Zm-1.21-3.51h1.21a2,2,0,0,1,1.38.41,1.44,1.44,0,0,1,.46,1.15,1.45,1.45,0,0,1-.13.63,1.36,1.36,0,0,1-.36.5,1.72,1.72,0,0,1-.58.33,2.26,2.26,0,0,1-.77.12H145.6Zm5.13,6.13v-3a2.14,2.14,0,0,1,.54-.93,1.18,1.18,0,0,1,.85-.32l.25,0,.19,0,.13,0,.07,0a.08.08,0,0,0,.09-.07l.06-.31a1.62,1.62,0,0,0-.33-.13,2.11,2.11,0,0,0-.38,0,1.32,1.32,0,0,0-.9.32,2.16,2.16,0,0,0-.59.87l0-1a.12.12,0,0,0,0-.11.16.16,0,0,0-.11,0h-.23V92.7Zm4-4.48a1.87,1.87,0,0,0-.66.48,2.21,2.21,0,0,0-.41.74,3.31,3.31,0,0,0-.14,1,3.18,3.18,0,0,0,.14,1,2.26,2.26,0,0,0,.41.75,1.85,1.85,0,0,0,.66.47,2.5,2.5,0,0,0,1.76,0,1.85,1.85,0,0,0,.66-.47,2.24,2.24,0,0,0,.4-.75,2.89,2.89,0,0,0,.14-1,3,3,0,0,0-.14-1,2.19,2.19,0,0,0-.4-.74,1.87,1.87,0,0,0-.66-.48,2.5,2.5,0,0,0-1.76,0m.16,4.06a1.42,1.42,0,0,1-.51-.4,2,2,0,0,1-.3-.64,3,3,0,0,1-.11-.82,3,3,0,0,1,.11-.83,2,2,0,0,1,.3-.64,1.45,1.45,0,0,1,.51-.41,1.92,1.92,0,0,1,1.44,0,1.45,1.45,0,0,1,.51.41,2,2,0,0,1,.3.64,3,3,0,0,1,.1.83,3,3,0,0,1-.1.82,2,2,0,0,1-.3.64,1.42,1.42,0,0,1-.51.4,1.92,1.92,0,0,1-1.44,0m4.55.42V88.6h1.47v-.33h-1.48v-.56a1.92,1.92,0,0,1,.07-.58,1,1,0,0,1,.22-.39.72.72,0,0,1,.33-.21,1.07,1.07,0,0,1,.41-.07h.24l.14,0c.06,0,.09,0,.09-.07v-.21a1.26,1.26,0,0,0-.25-.07,1.42,1.42,0,0,0-.29,0,1.7,1.7,0,0,0-.57.09,1.23,1.23,0,0,0-.44.3,1.29,1.29,0,0,0-.29.5,2,2,0,0,0-.1.68v.58h-.78v.18c0,.07.05.11.14.12l.64,0V92.7Zm3.22-4.47a1.81,1.81,0,0,0-.65.47,2.12,2.12,0,0,0-.41.72,2.88,2.88,0,0,0-.14.9,3.3,3.3,0,0,0,.15,1,2.49,2.49,0,0,0,.43.77,2,2,0,0,0,.67.47,2.11,2.11,0,0,0,.85.16,2.21,2.21,0,0,0,.51-.05,3.36,3.36,0,0,0,.48-.13,2.63,2.63,0,0,0,.41-.21,1.45,1.45,0,0,0,.29-.25l-.12-.15a.11.11,0,0,0-.09,0s-.08,0-.15.08l-.27.17a2.57,2.57,0,0,1-.43.17,2.15,2.15,0,0,1-.6.07,1.78,1.78,0,0,1-.7-.13,1.38,1.38,0,0,1-.53-.4,1.74,1.74,0,0,1-.34-.65,3.09,3.09,0,0,1-.12-.91v-.08h3.3a.15.15,0,0,0,.1,0,.24.24,0,0,0,0-.14,2.44,2.44,0,0,0-.14-.85,1.8,1.8,0,0,0-.38-.63,1.61,1.61,0,0,0-.57-.39,1.83,1.83,0,0,0-.71-.13,2,2,0,0,0-.87.17m1.44.26a1.17,1.17,0,0,1,.44.31,1.37,1.37,0,0,1,.29.5,1.89,1.89,0,0,1,.1.65h-3a2.15,2.15,0,0,1,.17-.64,1.45,1.45,0,0,1,.33-.5,1.35,1.35,0,0,1,.48-.32,1.81,1.81,0,0,1,.63-.11,1.48,1.48,0,0,1,.57.11m5.09.06a1.72,1.72,0,0,0-.6-.37,2.09,2.09,0,0,0-.74-.12,1.81,1.81,0,0,0-.63.1,1.58,1.58,0,0,0-.48.27,1.14,1.14,0,0,0-.3.39,1.1,1.1,0,0,0-.1.47.9.9,0,0,0,.11.48,1,1,0,0,0,.29.32,1.41,1.41,0,0,0,.4.22,4.34,4.34,0,0,0,.47.16l.47.15a2.2,2.2,0,0,1,.41.18.92.92,0,0,1,.29.26.66.66,0,0,1,.11.38,1,1,0,0,1-.08.39.83.83,0,0,1-.22.33,1.21,1.21,0,0,1-.37.22,1.52,1.52,0,0,1-.51.08,1.58,1.58,0,0,1-.52-.08,1.55,1.55,0,0,1-.34-.16,1.85,1.85,0,0,1-.23-.15.28.28,0,0,0-.15-.08l-.08,0s0,0-.05.06l-.1.15a2.13,2.13,0,0,0,.62.4,1.92,1.92,0,0,0,.83.16,2,2,0,0,0,.68-.11,1.6,1.6,0,0,0,.51-.3,1.39,1.39,0,0,0,.31-.45,1.42,1.42,0,0,0,.11-.55,1,1,0,0,0-.11-.47,1.15,1.15,0,0,0-.29-.33,1.78,1.78,0,0,0-.41-.22l-.47-.16-.46-.15a2.2,2.2,0,0,1-.41-.18.85.85,0,0,1-.29-.24.57.57,0,0,1-.11-.36.8.8,0,0,1,.08-.33,1,1,0,0,1,.23-.28,1.06,1.06,0,0,1,.35-.19,1.52,1.52,0,0,1,.45-.07,1.63,1.63,0,0,1,.47.06,1.93,1.93,0,0,1,.32.13l.21.13a.21.21,0,0,0,.13.05.1.1,0,0,0,.1-.06Zm4,0a1.77,1.77,0,0,0-.59-.37,2.19,2.19,0,0,0-.75-.12,1.81,1.81,0,0,0-.63.1,1.65,1.65,0,0,0-.47.27,1.3,1.3,0,0,0-.31.39,1.28,1.28,0,0,0-.1.47,1,1,0,0,0,.11.48,1,1,0,0,0,.29.32,1.34,1.34,0,0,0,.41.22,3.24,3.24,0,0,0,.47.16l.47.15a2.1,2.1,0,0,1,.4.18.92.92,0,0,1,.29.26.66.66,0,0,1,.11.38,1,1,0,0,1-.07.39.86.86,0,0,1-.23.33,1.1,1.1,0,0,1-.37.22,1.67,1.67,0,0,1-1,0,1.65,1.65,0,0,1-.35-.16,1.85,1.85,0,0,1-.23-.15.28.28,0,0,0-.15-.08l-.07,0a.17.17,0,0,0-.06.06l-.1.15a2.13,2.13,0,0,0,.62.4,2,2,0,0,0,.84.16,2.06,2.06,0,0,0,.68-.11,1.55,1.55,0,0,0,.5-.3,1.25,1.25,0,0,0,.31-.45,1.42,1.42,0,0,0,.11-.55,1,1,0,0,0-.11-.47,1,1,0,0,0-.29-.33,1.6,1.6,0,0,0-.41-.22l-.46-.16-.47-.15a2.2,2.2,0,0,1-.41-.18.85.85,0,0,1-.29-.24.57.57,0,0,1-.11-.36.68.68,0,0,1,.09-.33.83.83,0,0,1,.22-.28,1.17,1.17,0,0,1,.35-.19,1.66,1.66,0,0,1,.92,0,1.63,1.63,0,0,1,.32.13l.21.13a.21.21,0,0,0,.13.05.1.1,0,0,0,.1-.06Zm1.33,4.15h.44V88.13h-.44Zm.6-6.31a.38.38,0,0,0-.09-.13.57.57,0,0,0-.13-.08.32.32,0,0,0-.31,0,.57.57,0,0,0-.13.08.38.38,0,0,0-.09.13.5.5,0,0,0,0,.16.41.41,0,0,0,0,.16.34.34,0,0,0,.09.12.38.38,0,0,0,.13.09.4.4,0,0,0,.15,0,.41.41,0,0,0,.16,0,.38.38,0,0,0,.13-.09.34.34,0,0,0,.09-.12.41.41,0,0,0,0-.16.5.5,0,0,0,0-.16m2.29,1.83a1.84,1.84,0,0,0-.65.48,2.05,2.05,0,0,0-.41.74,3,3,0,0,0-.14,1,2.89,2.89,0,0,0,.14,1,2.1,2.1,0,0,0,.41.75,1.81,1.81,0,0,0,.65.47,2.26,2.26,0,0,0,.88.16,2.23,2.23,0,0,0,.88-.16,1.85,1.85,0,0,0,.66-.47,2.26,2.26,0,0,0,.41-.75,3.18,3.18,0,0,0,.14-1,3.31,3.31,0,0,0-.14-1,2.21,2.21,0,0,0-.41-.74,1.87,1.87,0,0,0-.66-.48,2.23,2.23,0,0,0-.88-.16,2.26,2.26,0,0,0-.88.16m.17,4.06a1.34,1.34,0,0,1-.51-.4,1.82,1.82,0,0,1-.31-.64,3,3,0,0,1-.1-.82,3,3,0,0,1,.1-.83A1.82,1.82,0,0,1,177,89a1.36,1.36,0,0,1,.51-.41,1.9,1.9,0,0,1,1.43,0,1.45,1.45,0,0,1,.51.41,1.82,1.82,0,0,1,.31.64,3.5,3.5,0,0,1,.1.83,3.41,3.41,0,0,1-.1.82,1.82,1.82,0,0,1-.31.64,1.42,1.42,0,0,1-.51.4,1.9,1.9,0,0,1-1.43,0m4.43.42V89.27a2.41,2.41,0,0,1,.69-.63,1.56,1.56,0,0,1,.84-.23,1.1,1.1,0,0,1,.9.36,1.54,1.54,0,0,1,.29,1V92.7h.44V89.78a2.28,2.28,0,0,0-.1-.72,1.54,1.54,0,0,0-.28-.54,1.2,1.2,0,0,0-.48-.34,1.69,1.69,0,0,0-.66-.12,1.84,1.84,0,0,0-.93.24,2.46,2.46,0,0,0-.73.64l0-.69a.13.13,0,0,0-.14-.12h-.23V92.7Zm7.61,0v-3a2.53,2.53,0,0,0-.09-.7,1.78,1.78,0,0,0-.28-.53,1.21,1.21,0,0,0-.46-.33,1.59,1.59,0,0,0-.64-.12,2,2,0,0,0-.9.19,2.63,2.63,0,0,0-.75.54l.08.13a.13.13,0,0,0,.14.08.31.31,0,0,0,.17-.09,1.58,1.58,0,0,1,.26-.2,2,2,0,0,1,.39-.2,1.57,1.57,0,0,1,.56-.09,1,1,0,0,1,.82.34,1.55,1.55,0,0,1,.27,1v.47a9.2,9.2,0,0,0-1.33.13,3.46,3.46,0,0,0-.91.3,1.3,1.3,0,0,0-.51.43.87.87,0,0,0-.17.54,1.22,1.22,0,0,0,.1.53,1,1,0,0,0,.28.37,1.22,1.22,0,0,0,.39.21,1.37,1.37,0,0,0,.45.07,2.78,2.78,0,0,0,.52,0,2.16,2.16,0,0,0,.82-.41c.13-.1.25-.21.38-.33l.06.59a.16.16,0,0,0,.17.12Zm-2.36-.29a.75.75,0,0,1-.29-.16.79.79,0,0,1-.2-.27,1,1,0,0,1-.08-.4.69.69,0,0,1,.15-.44,1.19,1.19,0,0,1,.45-.33,3.13,3.13,0,0,1,.77-.21,7.07,7.07,0,0,1,1.13-.1v1.19l-.33.31a2.71,2.71,0,0,1-.35.24,1.92,1.92,0,0,1-.42.16,1.88,1.88,0,0,1-.49.06,1.27,1.27,0,0,1-.34,0m3.84.29h.44V86H191Zm4.57-4.15a1.72,1.72,0,0,0-.6-.37,2.09,2.09,0,0,0-.74-.12,1.81,1.81,0,0,0-.63.1,1.58,1.58,0,0,0-.48.27,1.14,1.14,0,0,0-.3.39,1.1,1.1,0,0,0-.1.47.9.9,0,0,0,.11.48,1,1,0,0,0,.29.32,1.41,1.41,0,0,0,.4.22,4.34,4.34,0,0,0,.47.16l.47.15a2.2,2.2,0,0,1,.41.18,1,1,0,0,1,.29.26.66.66,0,0,1,.11.38,1,1,0,0,1-.08.39.83.83,0,0,1-.22.33,1.21,1.21,0,0,1-.37.22,1.56,1.56,0,0,1-.51.08,1.58,1.58,0,0,1-.52-.08,1.92,1.92,0,0,1-.35-.16c-.09,0-.16-.11-.22-.15a.28.28,0,0,0-.15-.08l-.08,0s0,0-.05.06l-.1.15a2.13,2.13,0,0,0,.62.4,1.92,1.92,0,0,0,.83.16,2,2,0,0,0,.68-.11,1.6,1.6,0,0,0,.51-.3,1.39,1.39,0,0,0,.31-.45,1.42,1.42,0,0,0,.11-.55,1,1,0,0,0-.11-.47,1.15,1.15,0,0,0-.29-.33,1.78,1.78,0,0,0-.41-.22l-.47-.16L194,90a2.2,2.2,0,0,1-.41-.18.85.85,0,0,1-.29-.24.57.57,0,0,1-.11-.36.8.8,0,0,1,.08-.33,1,1,0,0,1,.23-.28,1.06,1.06,0,0,1,.35-.19,1.52,1.52,0,0,1,.45-.07,1.63,1.63,0,0,1,.47.06,1.93,1.93,0,0,1,.32.13l.21.13a.21.21,0,0,0,.13.05.1.1,0,0,0,.1-.06Z" fill="#777772"/>
      <path d="M63.58,81.67a3.26,3.26,0,0,0,.92-.12,1.87,1.87,0,0,0,.69-.35,1.56,1.56,0,0,0,.43-.56,1.79,1.79,0,0,0,.15-.75,1.39,1.39,0,0,0-.41-1,2.08,2.08,0,0,0-1.19-.51,2.06,2.06,0,0,0,.57-.23,1.76,1.76,0,0,0,.41-.35,1.44,1.44,0,0,0,.35-.94,1.75,1.75,0,0,0-.13-.7,1.35,1.35,0,0,0-.4-.52,1.74,1.74,0,0,0-.67-.32,3.4,3.4,0,0,0-1-.12H61.47v6.51Zm0-3.12a2.34,2.34,0,0,1,.73.1,1.36,1.36,0,0,1,.54.26,1.07,1.07,0,0,1,.34.42,1.23,1.23,0,0,1,.12.55,1.28,1.28,0,0,1-.44,1,1.93,1.93,0,0,1-1.29.37H61.93V78.55Zm-1.64-3h1.41a2,2,0,0,1,1.28.34,1.18,1.18,0,0,1,.42,1,1.19,1.19,0,0,1-.1.49,1.12,1.12,0,0,1-.3.43,1.4,1.4,0,0,1-.52.3,2.22,2.22,0,0,1-.77.12H61.93Zm6.17,1.65a2,2,0,0,0-.65.47,2.19,2.19,0,0,0-.4.72,2.94,2.94,0,0,0-.14.91,3.35,3.35,0,0,0,.15,1,2.09,2.09,0,0,0,.43.76,1.76,1.76,0,0,0,.66.48,2.34,2.34,0,0,0,.85.16,3,3,0,0,0,.52,0,3.36,3.36,0,0,0,.48-.14,1.66,1.66,0,0,0,.4-.2,1.24,1.24,0,0,0,.29-.26l-.12-.15a.1.1,0,0,0-.09,0,.31.31,0,0,0-.15.07,1.05,1.05,0,0,1-.27.17,2.11,2.11,0,0,1-1,.25,1.75,1.75,0,0,1-.7-.13,1.31,1.31,0,0,1-.53-.4,1.79,1.79,0,0,1-.34-.66,3.06,3.06,0,0,1-.12-.9V79.2h3.3a.12.12,0,0,0,.09,0,.24.24,0,0,0,0-.14,2.55,2.55,0,0,0-.13-.86,2,2,0,0,0-.38-.63,1.47,1.47,0,0,0-.57-.38A1.89,1.89,0,0,0,69,77a2.21,2.21,0,0,0-.87.17m1.45.27a1.14,1.14,0,0,1,.44.31,1.31,1.31,0,0,1,.28.49,2,2,0,0,1,.1.66h-3a2.58,2.58,0,0,1,.17-.65,1.75,1.75,0,0,1,.33-.49,1.34,1.34,0,0,1,.49-.32,1.73,1.73,0,0,1,.63-.11,1.32,1.32,0,0,1,.57.11m2.83,4.21v-3a2.29,2.29,0,0,1,.54-.93,1.16,1.16,0,0,1,.86-.32H74l.18,0,.13,0,.08,0a.09.09,0,0,0,.09-.08l.06-.3a1.2,1.2,0,0,0-.33-.13,1.53,1.53,0,0,0-.38,0,1.36,1.36,0,0,0-.91.31,2.27,2.27,0,0,0-.59.87l0-1a.23.23,0,0,0,0-.11.17.17,0,0,0-.12,0H72v4.57Zm3.17-4.57V80a2.61,2.61,0,0,0,.1.72,1.56,1.56,0,0,0,.29.54,1.17,1.17,0,0,0,.47.34,1.71,1.71,0,0,0,.67.12A1.84,1.84,0,0,0,78,81.5a2.72,2.72,0,0,0,.73-.63l0,.68a.12.12,0,0,0,.13.12h.24V77.1h-.43v3.43a2.33,2.33,0,0,1-.7.64,1.64,1.64,0,0,1-.83.22,1.08,1.08,0,0,1-.9-.36,1.54,1.54,0,0,1-.3-1V77.1Zm5.78,4.57v-4.1h1.48v-.33H81.32v-.57a1.93,1.93,0,0,1,.08-.58,1,1,0,0,1,.21-.38.91.91,0,0,1,.33-.22,1.42,1.42,0,0,1,.42-.06h.38a.08.08,0,0,0,.09-.06v-.21a.91.91,0,0,0-.25-.07l-.29,0a1.7,1.7,0,0,0-.57.1,1.19,1.19,0,0,0-.45.3A1.24,1.24,0,0,0,81,76a2.09,2.09,0,0,0-.1.69v.58h-.78v.18c0,.07,0,.11.13.11l.65,0v4.1Zm5.1-4.16a2,2,0,0,0-.59-.37A2.17,2.17,0,0,0,85.1,77a2,2,0,0,0-.63.1,1.41,1.41,0,0,0-.48.28,1.14,1.14,0,0,0-.3.39,1.12,1.12,0,0,0-.11.47.93.93,0,0,0,.11.47,1.15,1.15,0,0,0,.29.33,1.78,1.78,0,0,0,.41.22l.47.16.47.15a1.85,1.85,0,0,1,.4.18A.89.89,0,0,1,86,80a.62.62,0,0,1,.11.39,1,1,0,0,1-.07.39,1,1,0,0,1-.22.32.91.91,0,0,1-.37.22,1.37,1.37,0,0,1-.51.08,1.56,1.56,0,0,1-.52-.07,1.65,1.65,0,0,1-.35-.16L83.86,81a.21.21,0,0,0-.14-.07s-.06,0-.08,0a.12.12,0,0,0,0,0l-.11.16a2.41,2.41,0,0,0,.63.4,2.09,2.09,0,0,0,.83.15,1.83,1.83,0,0,0,.68-.11,1.31,1.31,0,0,0,.5-.3,1.28,1.28,0,0,0,.32-.44,1.47,1.47,0,0,0,.1-.56.88.88,0,0,0-.11-.47,1,1,0,0,0-.29-.32,1.74,1.74,0,0,0-.4-.23l-.47-.16L84.8,79a2.09,2.09,0,0,1-.4-.17,1,1,0,0,1-.29-.24.55.55,0,0,1-.11-.36.62.62,0,0,1,.08-.33.85.85,0,0,1,.22-.28,1.17,1.17,0,0,1,.35-.19,1.33,1.33,0,0,1,.45-.07,2,2,0,0,1,.47,0,2.1,2.1,0,0,1,.32.13l.21.13a.27.27,0,0,0,.14.06.11.11,0,0,0,.1-.06Zm5.08-.41h-.33a.17.17,0,0,0-.1,0,.12.12,0,0,0-.06.08L89.5,80.82a.66.66,0,0,0-.06.2,1.33,1.33,0,0,0,0,.19c0-.06,0-.13,0-.19a.8.8,0,0,0-.07-.2l-1.51-3.61a.22.22,0,0,0-.05-.08.18.18,0,0,0-.11,0h-.34l1.93,4.57h.39Zm1.69.09a1.85,1.85,0,0,0-.65.47,2.22,2.22,0,0,0-.41.72,2.94,2.94,0,0,0-.14.91,3.35,3.35,0,0,0,.15,1,2.25,2.25,0,0,0,.43.76,1.93,1.93,0,0,0,.66.48,2.39,2.39,0,0,0,.86.16,2.94,2.94,0,0,0,.51,0,3.36,3.36,0,0,0,.48-.14,2,2,0,0,0,.41-.2,1.48,1.48,0,0,0,.29-.26l-.12-.15a.12.12,0,0,0-.1,0,.29.29,0,0,0-.14.07,1.59,1.59,0,0,1-.27.17,1.93,1.93,0,0,1-.43.17,1.82,1.82,0,0,1-.6.08,1.75,1.75,0,0,1-.7-.13,1.38,1.38,0,0,1-.53-.4,1.79,1.79,0,0,1-.34-.66,3.06,3.06,0,0,1-.12-.9V79.2h3.3a.15.15,0,0,0,.1,0,.41.41,0,0,0,0-.14,2.55,2.55,0,0,0-.13-.86,1.8,1.8,0,0,0-.38-.63,1.47,1.47,0,0,0-.57-.38,1.87,1.87,0,0,0-.71-.14,2.14,2.14,0,0,0-.87.17m1.44.27a1.14,1.14,0,0,1,.44.31,1.33,1.33,0,0,1,.29.49,2,2,0,0,1,.1.66h-3a2.21,2.21,0,0,1,.16-.65,1.59,1.59,0,0,1,.34-.49,1.23,1.23,0,0,1,.48-.32,1.81,1.81,0,0,1,.63-.11,1.32,1.32,0,0,1,.57.11m2.84,4.21v-3a2.18,2.18,0,0,1,.54-.93,1.14,1.14,0,0,1,.85-.32h.25l.19,0,.12,0,.08,0c.06,0,.09,0,.09-.08l.06-.3a1.2,1.2,0,0,0-.33-.13A1.48,1.48,0,0,0,99,77a1.31,1.31,0,0,0-.9.31,2.16,2.16,0,0,0-.59.87l0-1a.12.12,0,0,0,0-.11.16.16,0,0,0-.11,0H97v4.57Zm3.51,0a.12.12,0,0,0,.13-.12l0-.56a1.63,1.63,0,0,0,1.42.74,2,2,0,0,0,.86-.18A1.91,1.91,0,0,0,104,81a2.23,2.23,0,0,0,.39-.75,3.14,3.14,0,0,0,.13-.94,2.77,2.77,0,0,0-.47-1.75,1.61,1.61,0,0,0-1.31-.58,1.68,1.68,0,0,0-.9.24,2.36,2.36,0,0,0-.71.63V75h-.44v6.69Zm2.74-3.82a2.43,2.43,0,0,1,.38,1.5,3.1,3.1,0,0,1-.1.83,2,2,0,0,1-.31.64,1.48,1.48,0,0,1-.51.42,1.58,1.58,0,0,1-.71.14,1.67,1.67,0,0,1-.73-.15,1.53,1.53,0,0,1-.58-.56V78.26a2.15,2.15,0,0,1,.66-.65,1.46,1.46,0,0,1,.82-.24,1.29,1.29,0,0,1,1.08.48m5.09,3.82v-3a2.5,2.5,0,0,0-.09-.69,1.47,1.47,0,0,0-.27-.53,1.11,1.11,0,0,0-.46-.33,1.59,1.59,0,0,0-.64-.12,2.13,2.13,0,0,0-.9.18,2.63,2.63,0,0,0-.75.54l.08.14a.14.14,0,0,0,.13.08.26.26,0,0,0,.17-.09,2.37,2.37,0,0,1,.27-.2,1.75,1.75,0,0,1,.39-.21,1.53,1.53,0,0,1,.56-.09,1,1,0,0,1,.81.34,1.51,1.51,0,0,1,.28,1v.48a7,7,0,0,0-1.33.13,3.36,3.36,0,0,0-.91.29,1.43,1.43,0,0,0-.52.43,1,1,0,0,0-.16.54,1.27,1.27,0,0,0,.1.54,1,1,0,0,0,.27.36,1,1,0,0,0,.4.21,1.33,1.33,0,0,0,.45.07,2.14,2.14,0,0,0,.52,0,1.57,1.57,0,0,0,.43-.15,2,2,0,0,0,.39-.25l.38-.33.06.58a.16.16,0,0,0,.17.13Zm-2.35-.29a.9.9,0,0,1-.29-.16.72.72,0,0,1-.2-.28,1,1,0,0,1-.08-.4.74.74,0,0,1,.14-.43,1.12,1.12,0,0,1,.46-.33,3.6,3.6,0,0,1,.77-.22,10.55,10.55,0,0,1,1.13-.1v1.19c-.11.11-.22.22-.33.31a1.78,1.78,0,0,1-.36.25,1.67,1.67,0,0,1-.41.16,1.88,1.88,0,0,1-.49.06,1.27,1.27,0,0,1-.34-.05m4.2.29V78.24a2.75,2.75,0,0,1,.69-.64,1.66,1.66,0,0,1,.84-.23,1.06,1.06,0,0,1,.9.37,1.54,1.54,0,0,1,.3,1v2.92h.43V78.75a2.63,2.63,0,0,0-.09-.72,1.56,1.56,0,0,0-.29-.54,1.15,1.15,0,0,0-.48-.35,1.69,1.69,0,0,0-.66-.12,1.84,1.84,0,0,0-.93.24,2.57,2.57,0,0,0-.72.64l0-.69c0-.08,0-.11-.13-.11h-.24v4.57Zm8.12,0V75h-.43v2.71a1.65,1.65,0,0,0-.59-.5A1.73,1.73,0,0,0,117,77a1.93,1.93,0,0,0-.85.18,1.73,1.73,0,0,0-.63.51,2,2,0,0,0-.38.75,3.14,3.14,0,0,0-.14.94,2.73,2.73,0,0,0,.48,1.75,1.58,1.58,0,0,0,1.31.58,1.74,1.74,0,0,0,.91-.24,2.5,2.5,0,0,0,.72-.66l0,.72a.12.12,0,0,0,.13.12Zm-3-.77a2.45,2.45,0,0,1-.38-1.5,3.09,3.09,0,0,1,.11-.83,1.74,1.74,0,0,1,.31-.64,1.31,1.31,0,0,1,.51-.42,1.58,1.58,0,0,1,.71-.15,1.69,1.69,0,0,1,.72.16,1.63,1.63,0,0,1,.59.56v2.41a2.39,2.39,0,0,1-.66.65,1.49,1.49,0,0,1-.83.24,1.29,1.29,0,0,1-1.08-.48m9.8.77V75h-.44v2.71a1.57,1.57,0,0,0-.59-.5,1.66,1.66,0,0,0-.8-.17,2,2,0,0,0-.86.18,1.79,1.79,0,0,0-.62.51,2.23,2.23,0,0,0-.39.75,3.14,3.14,0,0,0-.13.94,2.79,2.79,0,0,0,.47,1.75,1.6,1.6,0,0,0,1.32.58,1.77,1.77,0,0,0,.91-.24,2.47,2.47,0,0,0,.71-.66l0,.72a.12.12,0,0,0,.13.12Zm-3-.77a2.45,2.45,0,0,1-.38-1.5,3.56,3.56,0,0,1,.1-.83,1.91,1.91,0,0,1,.31-.64,1.48,1.48,0,0,1,.51-.42,1.58,1.58,0,0,1,.71-.15,1.74,1.74,0,0,1,.73.16,1.61,1.61,0,0,1,.58.56v2.41a2.26,2.26,0,0,1-.66.65,1.46,1.46,0,0,1-.82.24,1.29,1.29,0,0,1-1.08-.48M128,77.19a1.85,1.85,0,0,0-.65.47,2.22,2.22,0,0,0-.41.72,2.94,2.94,0,0,0-.14.91,3.35,3.35,0,0,0,.15,1,2.25,2.25,0,0,0,.43.76,1.93,1.93,0,0,0,.66.48,2.39,2.39,0,0,0,.86.16,2.94,2.94,0,0,0,.51,0,3.36,3.36,0,0,0,.48-.14,1.66,1.66,0,0,0,.4-.2,1.31,1.31,0,0,0,.3-.26l-.12-.15a.1.1,0,0,0-.09,0,.27.27,0,0,0-.15.07,1.37,1.37,0,0,1-.28.17,1.66,1.66,0,0,1-.42.17,1.82,1.82,0,0,1-.6.08,1.75,1.75,0,0,1-.7-.13,1.38,1.38,0,0,1-.53-.4,1.79,1.79,0,0,1-.34-.66,3.06,3.06,0,0,1-.12-.9V79.2h3.3s.08,0,.09,0a.24.24,0,0,0,0-.14,2.55,2.55,0,0,0-.13-.86,1.8,1.8,0,0,0-.38-.63,1.47,1.47,0,0,0-.57-.38,1.83,1.83,0,0,0-.71-.14,2.14,2.14,0,0,0-.87.17m1.44.27a1.14,1.14,0,0,1,.44.31,1.33,1.33,0,0,1,.29.49,2,2,0,0,1,.1.66h-3a2.22,2.22,0,0,1,.17-.65,1.41,1.41,0,0,1,.33-.49,1.23,1.23,0,0,1,.48-.32,1.81,1.81,0,0,1,.63-.11,1.32,1.32,0,0,1,.57.11m2.84,4.21v-3a2.08,2.08,0,0,1,.54-.93,1.14,1.14,0,0,1,.85-.32h.25l.19,0,.13,0,.07,0a.09.09,0,0,0,.1-.08l.06-.3a1.4,1.4,0,0,0-.34-.13,1.48,1.48,0,0,0-.38,0,1.31,1.31,0,0,0-.9.31,2.16,2.16,0,0,0-.59.87l0-1a.12.12,0,0,0,0-.11.16.16,0,0,0-.11,0h-.23v4.57Zm10.46-4.61a3,3,0,0,0-.64-1,2.76,2.76,0,0,0-1-.65,3.4,3.4,0,0,0-1.26-.23H137.5v6.51h2.37a3.4,3.4,0,0,0,1.26-.22,2.76,2.76,0,0,0,1-.65,3.09,3.09,0,0,0,.64-1,3.82,3.82,0,0,0,.22-1.35,3.88,3.88,0,0,0-.22-1.36m-.45,2.57a2.51,2.51,0,0,1-.54.9,2.17,2.17,0,0,1-.82.57,2.83,2.83,0,0,1-1.07.19H138V75.55h1.9a2.83,2.83,0,0,1,1.07.19,2.26,2.26,0,0,1,.82.56,2.7,2.7,0,0,1,.54.9,3.82,3.82,0,0,1,.18,1.22,3.76,3.76,0,0,1-.18,1.21m3-2.44a1.85,1.85,0,0,0-.65.47,2.22,2.22,0,0,0-.41.72,2.94,2.94,0,0,0-.14.91,3.35,3.35,0,0,0,.15,1,2.25,2.25,0,0,0,.43.76,1.93,1.93,0,0,0,.66.48,2.39,2.39,0,0,0,.86.16,2.94,2.94,0,0,0,.51,0,3.36,3.36,0,0,0,.48-.14,2,2,0,0,0,.41-.2,1.48,1.48,0,0,0,.29-.26l-.12-.15a.12.12,0,0,0-.1,0,.29.29,0,0,0-.14.07,1.59,1.59,0,0,1-.27.17,1.93,1.93,0,0,1-.43.17,1.82,1.82,0,0,1-.6.08,1.75,1.75,0,0,1-.7-.13,1.38,1.38,0,0,1-.53-.4,1.79,1.79,0,0,1-.34-.66,3.06,3.06,0,0,1-.12-.9V79.2h3.3a.17.17,0,0,0,.1,0,.41.41,0,0,0,0-.14,2.55,2.55,0,0,0-.13-.86,1.8,1.8,0,0,0-.38-.63,1.47,1.47,0,0,0-.57-.38,1.87,1.87,0,0,0-.71-.14,2.14,2.14,0,0,0-.87.17m1.44.27a1.14,1.14,0,0,1,.44.31,1.33,1.33,0,0,1,.29.49,2,2,0,0,1,.1.66h-3a2.22,2.22,0,0,1,.17-.65,1.41,1.41,0,0,1,.33-.49,1.23,1.23,0,0,1,.48-.32,1.81,1.81,0,0,1,.63-.11,1.32,1.32,0,0,1,.57.11M149,77.1V80a2.28,2.28,0,0,0,.1.72,1.39,1.39,0,0,0,.28.54,1.24,1.24,0,0,0,.47.34,1.74,1.74,0,0,0,.67.12,1.84,1.84,0,0,0,.93-.24,2.57,2.57,0,0,0,.73-.63l.05.68c0,.08,0,.12.13.12h.24V77.1h-.44v3.43a2.33,2.33,0,0,1-.7.64,1.59,1.59,0,0,1-.83.22,1.1,1.1,0,0,1-.9-.36,1.54,1.54,0,0,1-.3-1V77.1ZM156,81.63a1.29,1.29,0,0,0,.44-.31l-.12-.2a.09.09,0,0,0-.07,0s0,0-.09,0l-.14.1-.21.11a.79.79,0,0,1-.28,0,.66.66,0,0,1-.25,0,.45.45,0,0,1-.2-.12.74.74,0,0,1-.14-.23,1,1,0,0,1,0-.32v-3.1h1.44v-.33h-1.44V75.49h-.2a.11.11,0,0,0-.08,0,.13.13,0,0,0,0,.08l-.11,1.63-.78.06v.17a.1.1,0,0,0,.11.11h.66v3.12a1.07,1.07,0,0,0,.26.8,1,1,0,0,0,.72.25,1.36,1.36,0,0,0,.56-.11m4.26-4.12a1.88,1.88,0,0,0-.6-.37,2.13,2.13,0,0,0-.74-.12,2.08,2.08,0,0,0-.63.1,1.41,1.41,0,0,0-.48.28,1.14,1.14,0,0,0-.3.39,1.1,1.1,0,0,0-.1.47.84.84,0,0,0,.11.47,1,1,0,0,0,.29.33,1.71,1.71,0,0,0,.4.22l.47.16.47.15a2.2,2.2,0,0,1,.41.18,1,1,0,0,1,.29.25.69.69,0,0,1,.11.39,1,1,0,0,1-.08.39.87.87,0,0,1-.22.32.91.91,0,0,1-.37.22,1.37,1.37,0,0,1-.51.08,1.56,1.56,0,0,1-.52-.07,1.92,1.92,0,0,1-.35-.16,1.58,1.58,0,0,1-.22-.16.25.25,0,0,0-.15-.07.11.11,0,0,0-.08,0s0,0,0,0l-.1.16a2.36,2.36,0,0,0,.62.4,2.09,2.09,0,0,0,.83.15,1.8,1.8,0,0,0,.68-.11,1.44,1.44,0,0,0,.51-.3,1.25,1.25,0,0,0,.31-.44,1.47,1.47,0,0,0,.11-.56,1,1,0,0,0-.11-.47,1.11,1.11,0,0,0-.29-.32,1.81,1.81,0,0,0-.41-.23l-.47-.16-.46-.15a1.94,1.94,0,0,1-.41-.17,1,1,0,0,1-.29-.24.61.61,0,0,1-.11-.36.73.73,0,0,1,.08-.33.77.77,0,0,1,.23-.28,1.11,1.11,0,0,1,.34-.19,1.35,1.35,0,0,1,.46-.07,2,2,0,0,1,.46,0,2.85,2.85,0,0,1,.33.13l.21.13a.22.22,0,0,0,.13.06.11.11,0,0,0,.1-.06Zm4.52,0a2,2,0,0,0-1.4-.53,2.19,2.19,0,0,0-.88.17,1.86,1.86,0,0,0-.65.49,2.12,2.12,0,0,0-.4.74,3.22,3.22,0,0,0-.14,1,3,3,0,0,0,.15,1,2.1,2.1,0,0,0,.4.74,1.65,1.65,0,0,0,.62.46,1.91,1.91,0,0,0,.8.16,2.63,2.63,0,0,0,.49,0,1.89,1.89,0,0,0,.44-.13,1.55,1.55,0,0,0,.36-.21,1.34,1.34,0,0,0,.27-.26l-.12-.15a.1.1,0,0,0-.09,0,.29.29,0,0,0-.14.08,1.24,1.24,0,0,1-.23.17,1.52,1.52,0,0,1-.36.17,1.82,1.82,0,0,1-.56.07,1.51,1.51,0,0,1-.65-.13,1.36,1.36,0,0,1-.5-.39,1.74,1.74,0,0,1-.32-.62,2.85,2.85,0,0,1-.11-.86,2.76,2.76,0,0,1,.11-.84,1.78,1.78,0,0,1,.32-.63,1.32,1.32,0,0,1,.51-.4,1.56,1.56,0,0,1,.7-.14,1.77,1.77,0,0,1,.49.06,1.72,1.72,0,0,1,.33.14,1,1,0,0,1,.21.13.28.28,0,0,0,.13.06h.06l0,0Zm1.53,4.12V78.24a2.56,2.56,0,0,1,.68-.64,1.66,1.66,0,0,1,.84-.23,1.06,1.06,0,0,1,.9.37,1.54,1.54,0,0,1,.3,1v2.92h.43V78.75a2.63,2.63,0,0,0-.09-.72,1.56,1.56,0,0,0-.29-.54,1.19,1.19,0,0,0-.47-.35,1.78,1.78,0,0,0-.67-.12,1.84,1.84,0,0,0-.91.23,2.68,2.68,0,0,0-.72.63V75h-.44v6.69Zm5.48-4.48a1.94,1.94,0,0,0-.65.47,2,2,0,0,0-.4.72,2.67,2.67,0,0,0-.15.91,3.34,3.34,0,0,0,.16,1,2.23,2.23,0,0,0,.42.76,1.88,1.88,0,0,0,.67.48,2.3,2.3,0,0,0,.85.16,2.94,2.94,0,0,0,.51,0,3.36,3.36,0,0,0,.48-.14,1.74,1.74,0,0,0,.41-.2,1.24,1.24,0,0,0,.29-.26l-.12-.15a.1.1,0,0,0-.09,0A.31.31,0,0,0,174,81a1.59,1.59,0,0,1-.27.17,1.93,1.93,0,0,1-.43.17,1.82,1.82,0,0,1-.6.08,1.7,1.7,0,0,1-.69-.13,1.41,1.41,0,0,1-.54-.4,1.79,1.79,0,0,1-.34-.66,3.06,3.06,0,0,1-.12-.9V79.2h3.3a.13.13,0,0,0,.1,0,.24.24,0,0,0,0-.14,2.54,2.54,0,0,0-.14-.86,1.66,1.66,0,0,0-.38-.63,1.47,1.47,0,0,0-.57-.38,1.8,1.8,0,0,0-.71-.14,2.14,2.14,0,0,0-.87.17m1.45.27a1.22,1.22,0,0,1,.44.31,1.46,1.46,0,0,1,.28.49,2,2,0,0,1,.1.66h-3a2.22,2.22,0,0,1,.17-.65,1.41,1.41,0,0,1,.33-.49,1.31,1.31,0,0,1,.48-.32,1.83,1.83,0,0,1,.64-.11,1.38,1.38,0,0,1,.57.11M176,81.67V78.24a2.45,2.45,0,0,1,.69-.64,1.66,1.66,0,0,1,.84-.23,1.08,1.08,0,0,1,.9.37,1.6,1.6,0,0,1,.29,1v2.92h.44V78.75a2.28,2.28,0,0,0-.1-.72,1.54,1.54,0,0,0-.28-.54,1.3,1.3,0,0,0-.48-.35,1.69,1.69,0,0,0-.66-.12,1.84,1.84,0,0,0-.93.24,2.61,2.61,0,0,0-.73.64l0-.69c0-.08-.06-.11-.14-.11h-.24v4.57Zm8.1-.5a1.71,1.71,0,0,1-.63-.46,2,2,0,0,1-.39-.68,2.57,2.57,0,0,1-.13-.85v-4h-.48v4a3,3,0,0,0,.17,1,2.71,2.71,0,0,0,.49.82,2.27,2.27,0,0,0,.78.54,2.59,2.59,0,0,0,1,.2,2.54,2.54,0,0,0,1-.2,2.18,2.18,0,0,0,.78-.54,2.52,2.52,0,0,0,.49-.82,3,3,0,0,0,.17-1v-4H187v4a2.65,2.65,0,0,1-.13.85,2.18,2.18,0,0,1-.4.68,1.87,1.87,0,0,1-.62.45,2.06,2.06,0,0,1-.84.16,2,2,0,0,1-.84-.16m7.48-3.66a1.83,1.83,0,0,0-.59-.37,2.13,2.13,0,0,0-.74-.12,2,2,0,0,0-.63.1,1.41,1.41,0,0,0-.48.28,1.14,1.14,0,0,0-.3.39,1.12,1.12,0,0,0-.11.47.84.84,0,0,0,.12.47,1,1,0,0,0,.29.33,1.53,1.53,0,0,0,.4.22l.47.16.47.15a2.2,2.2,0,0,1,.41.18,1,1,0,0,1,.29.25.69.69,0,0,1,.11.39,1,1,0,0,1-.08.39,1,1,0,0,1-.22.32.91.91,0,0,1-.37.22,1.37,1.37,0,0,1-.51.08,1.56,1.56,0,0,1-.52-.07,1.92,1.92,0,0,1-.35-.16A1.58,1.58,0,0,1,189,81a.25.25,0,0,0-.15-.07s-.06,0-.08,0,0,0-.05,0l-.11.16a2.59,2.59,0,0,0,.63.4,2.09,2.09,0,0,0,.83.15,1.8,1.8,0,0,0,.68-.11,1.44,1.44,0,0,0,.51-.3,1.25,1.25,0,0,0,.31-.44,1.47,1.47,0,0,0,.11-.56.89.89,0,0,0-.12-.47,1,1,0,0,0-.28-.32,1.81,1.81,0,0,0-.41-.23l-.47-.16L190,79a1.94,1.94,0,0,1-.41-.17,1,1,0,0,1-.29-.24.61.61,0,0,1-.11-.36.73.73,0,0,1,.08-.33.85.85,0,0,1,.22-.28,1.31,1.31,0,0,1,.35-.19,1.35,1.35,0,0,1,.46-.07,2,2,0,0,1,.46,0,2.85,2.85,0,0,1,.33.13l.21.13a.22.22,0,0,0,.13.06.11.11,0,0,0,.1-.06Zm4.48,4.16v-3A2.5,2.5,0,0,0,196,78a1.49,1.49,0,0,0-.28-.53,1.15,1.15,0,0,0-.45-.33,1.64,1.64,0,0,0-.65-.12,2.11,2.11,0,0,0-.89.18,2.53,2.53,0,0,0-.76.54l.08.14a.16.16,0,0,0,.14.08.31.31,0,0,0,.17-.09,2.17,2.17,0,0,1,.26-.2,2.35,2.35,0,0,1,.39-.21,1.62,1.62,0,0,1,.57-.09,1,1,0,0,1,.81.34,1.57,1.57,0,0,1,.27,1v.48a7,7,0,0,0-1.33.13,3.28,3.28,0,0,0-.9.29,1.35,1.35,0,0,0-.52.43,1,1,0,0,0-.17.54,1.27,1.27,0,0,0,.11.54.9.9,0,0,0,.27.36.92.92,0,0,0,.39.21,1.43,1.43,0,0,0,.46.07,2.05,2.05,0,0,0,.51,0,1.63,1.63,0,0,0,.44-.15,2.84,2.84,0,0,0,.39-.25l.37-.33.06.58a.17.17,0,0,0,.18.13Zm-2.36-.29a.9.9,0,0,1-.29-.16.84.84,0,0,1-.2-.28,1,1,0,0,1-.07-.4.67.67,0,0,1,.14-.43,1.15,1.15,0,0,1,.45-.33,3.54,3.54,0,0,1,.78-.22,10.34,10.34,0,0,1,1.12-.1v1.19c-.11.11-.21.22-.32.31a1.78,1.78,0,0,1-.36.25,2.05,2.05,0,0,1-.41.16,1.93,1.93,0,0,1-.49.06,1.34,1.34,0,0,1-.35-.05m4.06.29a.11.11,0,0,0,.12-.12l0-.56a1.57,1.57,0,0,0,.6.55,1.61,1.61,0,0,0,.82.19,1.9,1.9,0,0,0,.85-.18,1.84,1.84,0,0,0,.63-.51,2,2,0,0,0,.38-.75,3.14,3.14,0,0,0,.14-.94,2.77,2.77,0,0,0-.47-1.75,1.64,1.64,0,0,0-1.32-.58,1.73,1.73,0,0,0-.9.24,2.45,2.45,0,0,0-.7.63V75h-.43v6.69Zm2.74-3.82a2.43,2.43,0,0,1,.38,1.5,3.09,3.09,0,0,1-.11.83,1.82,1.82,0,0,1-.31.64,1.36,1.36,0,0,1-.5.42,1.61,1.61,0,0,1-.71.14,1.75,1.75,0,0,1-.74-.15,1.61,1.61,0,0,1-.58-.56V78.26a2.39,2.39,0,0,1,.66-.65,1.49,1.49,0,0,1,.83-.24,1.29,1.29,0,0,1,1.08.48m2.09,3.82H203V77.1h-.43Zm.59-6.31a.38.38,0,0,0-.09-.13.3.3,0,0,0-.13-.09.4.4,0,0,0-.15,0,.41.41,0,0,0-.16,0,.38.38,0,0,0-.13.09.6.6,0,0,0-.09.13.41.41,0,0,0,0,.16.4.4,0,0,0,0,.15.6.6,0,0,0,.09.13.38.38,0,0,0,.13.09.41.41,0,0,0,.16,0,.4.4,0,0,0,.15,0,.3.3,0,0,0,.13-.09.38.38,0,0,0,.09-.13.32.32,0,0,0,0-.31m1.46,6.31h.43V75h-.43Zm2.06,0h.43V77.1h-.43Zm.59-6.31a.38.38,0,0,0-.09-.13.3.3,0,0,0-.13-.09.4.4,0,0,0-.15,0,.41.41,0,0,0-.16,0,.38.38,0,0,0-.13.09l-.09.13a.41.41,0,0,0,0,.16.4.4,0,0,0,0,.15l.09.13a.38.38,0,0,0,.13.09.41.41,0,0,0,.16,0,.4.4,0,0,0,.15,0,.3.3,0,0,0,.13-.09.38.38,0,0,0,.09-.13.32.32,0,0,0,0-.31m3.24,6.27a1.34,1.34,0,0,0,.45-.31l-.12-.2a.1.1,0,0,0-.08,0,.14.14,0,0,0-.09,0l-.14.1-.2.11a.85.85,0,0,1-.29,0,.69.69,0,0,1-.25,0,.59.59,0,0,1-.2-.12.58.58,0,0,1-.13-.23,1,1,0,0,1-.05-.32v-3.1h1.44v-.33h-1.44V75.49h-.2a.1.1,0,0,0-.08,0s0,0,0,.08L209,77.23l-.78.06v.17a.11.11,0,0,0,0,.08.12.12,0,0,0,.09,0H209v3.12a1.11,1.11,0,0,0,.26.8,1,1,0,0,0,.72.25,1.33,1.33,0,0,0,.56-.11m5.36-4.53h-.34a.16.16,0,0,0-.09,0,.19.19,0,0,0-.07.08l-1.52,3.55s0,.1,0,.14,0,.1-.05.15a.83.83,0,0,0,0-.15,1.21,1.21,0,0,0-.05-.14l-1.54-3.55a.22.22,0,0,0,0-.08.2.2,0,0,0-.11,0h-.36l1.93,4.4-.8,1.79h.31a.25.25,0,0,0,.13,0l.07-.11Z" fill="#777772"/>
    </g>
    <polygon points="54.07 54.52 54.07 80.49 31.58 93.47 9.1 80.49 9.1 54.52 20.34 61.02 20.34 74 31.58 80.49 42.83 74 42.83 61.02 54.07 54.52" fill="#ff9a21"/>
    <polygon points="31.58 41.54 54.07 54.53 42.83 61.02 31.58 54.53 20.34 61.02 9.09 54.53 31.58 41.54" fill="#ffaf54"/>
  </g>
</svg>
