<svg id="sisa" xmlns="http://www.w3.org/2000/svg" xmlns:xlink="http://www.w3.org/1999/xlink" viewBox="0 0 225 148">
  <defs>
    <clipPath id="clip-path">
      <path d="M86,75.27H75.47V56.35c.3,0,.72,0,1.22.07l.86.07.77,0,1.31-.12V73.27h.06c1.14,0,2.14,0,3-.09s2-.16,3.32-.3c0,.19-.07.4-.1.64a5.09,5.09,0,0,0,0,.56,3.9,3.9,0,0,0,.05.58c0,.26.07.46.09.61Zm-15.3.14h0q-.45,0-.78,0l-1.3-.11c-.31,0-.71,0-1.23.07l-.86.07V56.35c.32,0,.72,0,1.23.07l.86.07.77,0c.87-.09,1.24-.12,1.31-.12V75.4Zm23.13,0h0q-.45,0-.78,0l-1.3-.11c-.31,0-.71,0-1.22.07l-.86.07V56.35c.31,0,.71,0,1.22.07l.86.07.78,0,1.3-.12V75.4Zm48.77,0h0l-1.12-.14-1.1.08v-19h2.75c1.14,1.25,2.44,2.65,4,4.28.77.81,2.07,2.2,4.06,4.36s3.24,3.53,4,4.36v-13l1.11.08,1.11-.08V75.4l-2.36,0c-1.58-1.75-3.16-3.52-4.69-5.25s-3.19-3.5-4.67-5.05l-3-3.17V75.4ZM126.65,57.52a5.21,5.21,0,0,0-4.53,2.22c-1.09,1.54-1.64,3.87-1.64,6.9a9.14,9.14,0,0,0,1.33,5.07,5.07,5.07,0,0,0,4.48,2.36A5.26,5.26,0,0,0,131,71.38a11.7,11.7,0,0,0,1.5-6.18A9.57,9.57,0,0,0,131.14,60a5,5,0,0,0-4.49-2.49Zm-.5,18.22a10.62,10.62,0,0,1-7.49-2.6,9.55,9.55,0,0,1-2.79-7.3,9.48,9.48,0,0,1,2.86-7.07,11.15,11.15,0,0,1,8.08-2.91c3.58,0,6.31,1.12,8.11,3.33a10.08,10.08,0,0,1,2.17,6.54,9.5,9.5,0,0,1-2.92,7,11.11,11.11,0,0,1-8,3Zm-70.4,0a10.07,10.07,0,0,1-2.38-.29,7.37,7.37,0,0,1-2.1-.9c.23-.78.39-1.4.5-1.88s.22-1,.31-1.62h.53a3.65,3.65,0,0,0,1.33,2.23,4,4,0,0,0,2.5.8,3.64,3.64,0,0,0,2.31-.75,2.55,2.55,0,0,0,.93-2.14,3.37,3.37,0,0,0-2.13-2.93l-4-2.11a5.33,5.33,0,0,1-2.16-4.47A5.52,5.52,0,0,1,53,57.58a6.61,6.61,0,0,1,4.8-1.72,8.31,8.31,0,0,1,2.62.42,4.91,4.91,0,0,1,1.77.92c-.2.53-.36,1-.48,1.33L61.32,60h-.4a3.93,3.93,0,0,0-1.22-1.78,3.65,3.65,0,0,0-4.27.1,2.6,2.6,0,0,0-.75,2c0,1,.72,1.9,2.16,2.69,2.7,1.48,4,2.2,4.08,2.27a5.4,5.4,0,0,1,2.2,4.44A5.48,5.48,0,0,1,61.06,74a8.08,8.08,0,0,1-5.31,1.71Zm51.79,0a10.9,10.9,0,0,1-7.44-2.53,8.61,8.61,0,0,1-3-6.82c0-3.44,1.09-6.13,3.25-8a11.64,11.64,0,0,1,7.8-2.55,13.45,13.45,0,0,1,3,.35,11.07,11.07,0,0,1,2.71,1c-.12.47-.22.9-.32,1.35s-.22,1-.32,1.51h-.39a6.07,6.07,0,0,0-2-1.84,5.08,5.08,0,0,0-2.58-.71,5.61,5.61,0,0,0-5,2.71,10.46,10.46,0,0,0-1.5,5.77,9.23,9.23,0,0,0,1.72,5.86,5.84,5.84,0,0,0,4.89,2.21,6.92,6.92,0,0,0,2.65-.56A7.68,7.68,0,0,0,113.29,72l.36.16L113,74.55a10.62,10.62,0,0,1-2.61.9,14.76,14.76,0,0,1-2.89.29Zm48,19.72h0V81.85a2.77,2.77,0,0,0,.85.12,2.52,2.52,0,0,0,.86-.12V95.46a3.11,3.11,0,0,0-1.71,0ZM66.76,84.33h0l-2,4.79h4ZM62.27,95.46h0a1.68,1.68,0,0,0-.5-.07l-.36,0h-.19l-.22,0-.27,0L66.91,81.7h.47l6,13.76h0a1.85,1.85,0,0,1-.3,0h-.27l-.27,0-.5,0a4.4,4.4,0,0,0-.8.07l-2.16-5.41h-4.8l-2,5.41Zm14.54,0h0a1.38,1.38,0,0,0-.56-.12,2.62,2.62,0,0,0-.68.12V81.85h.93l9.43,10.36V81.85a1.66,1.66,0,0,0,1.24,0V95.46h-.78L76.81,84.79V95.46Zm-22.12.31a5,5,0,0,1-1.82-.37,4.25,4.25,0,0,1-1.42-.87,4,4,0,0,0,.26-.9,7.66,7.66,0,0,0,0-.95h.31a6.53,6.53,0,0,0,1.2,1.37,2.62,2.62,0,0,0,.95.53,3.71,3.71,0,0,0,.94.1,2.62,2.62,0,0,0,1.42-.36,2.43,2.43,0,0,0,.91-1,2.76,2.76,0,0,0,.31-1.29,2.69,2.69,0,0,0-.44-1.51,2.41,2.41,0,0,0-1.27-1l-2-.92a4.74,4.74,0,0,1-1.6-1.09,2.67,2.67,0,0,1-.61-1.15,8.13,8.13,0,0,1-.11-1.48,3.58,3.58,0,0,1,1.47-2.58A4.79,4.79,0,0,1,56,81.53a5.22,5.22,0,0,1,1.84.3,2.38,2.38,0,0,1,1.17.8,3.11,3.11,0,0,0-.62,1.54H58.1a2,2,0,0,0-.39-.75,2.59,2.59,0,0,0-.84-.67,2.72,2.72,0,0,0-1.25-.28,2,2,0,0,0-1.07.33,2.61,2.61,0,0,0-.84.88,2.25,2.25,0,0,0-.33,1.15,2.61,2.61,0,0,0,1.78,2.28l2.17.93A3.66,3.66,0,0,1,59,89.36a3.4,3.4,0,0,1,.56,1.88A4.23,4.23,0,0,1,59,93.4a4.93,4.93,0,0,1-4.26,2.37Zm38.35,0a5,5,0,0,1-1.82-.37,4.25,4.25,0,0,1-1.42-.87,4,4,0,0,0,.26-.9c0-.32,0-.64,0-.95h.31a6.53,6.53,0,0,0,1.2,1.37,2.62,2.62,0,0,0,.95.53,3.71,3.71,0,0,0,.94.1,2.56,2.56,0,0,0,1.41-.36,2.45,2.45,0,0,0,.92-1,2.88,2.88,0,0,0,.31-1.29,2.77,2.77,0,0,0-.44-1.51,2.41,2.41,0,0,0-1.27-1l-2-.92a4.74,4.74,0,0,1-1.6-1.09,2.57,2.57,0,0,1-.61-1.15,7.33,7.33,0,0,1-.12-1.48,3.59,3.59,0,0,1,1.48-2.58,4.76,4.76,0,0,1,2.79-.83,5.21,5.21,0,0,1,1.83.3,2.38,2.38,0,0,1,1.17.8,3.21,3.21,0,0,0-.62,1.54h-.31a1.86,1.86,0,0,0-.39-.75,2.49,2.49,0,0,0-.84-.67A2.65,2.65,0,0,0,94,82.47a2,2,0,0,0-1.07.33,2.75,2.75,0,0,0-.85.88,2.24,2.24,0,0,0-.32,1.15,2.59,2.59,0,0,0,1.78,2.28l2.16.93a3.64,3.64,0,0,1,1.7,1.32,3.4,3.4,0,0,1,.56,1.88,4.23,4.23,0,0,1-.62,2.16,4.93,4.93,0,0,1-4.26,2.37Zm9.9,0a5,5,0,0,1-1.82-.37,4.25,4.25,0,0,1-1.42-.87,4,4,0,0,0,.26-.9c0-.32.05-.64.05-.95h.31a6.25,6.25,0,0,0,1.2,1.37,2.62,2.62,0,0,0,1,.53,3.71,3.71,0,0,0,.94.1,2.61,2.61,0,0,0,1.41-.36,2.45,2.45,0,0,0,.92-1,2.88,2.88,0,0,0,.31-1.29,2.77,2.77,0,0,0-.44-1.51,2.41,2.41,0,0,0-1.27-1l-2-.92a4.65,4.65,0,0,1-1.6-1.09,2.57,2.57,0,0,1-.61-1.15,8.13,8.13,0,0,1-.11-1.48,3.58,3.58,0,0,1,1.47-2.58,4.76,4.76,0,0,1,2.79-.83,5.26,5.26,0,0,1,1.84.3,2.35,2.35,0,0,1,1.16.8,3.1,3.1,0,0,0-.61,1.54h-.31a2,2,0,0,0-.4-.75,2.4,2.4,0,0,0-.84-.67,2.65,2.65,0,0,0-1.24-.28,2,2,0,0,0-1.07.33,2.75,2.75,0,0,0-.85.88,2.24,2.24,0,0,0-.32,1.15,2.61,2.61,0,0,0,1.78,2.28l2.16.93a3.64,3.64,0,0,1,1.7,1.32,3.4,3.4,0,0,1,.56,1.88,4.23,4.23,0,0,1-.62,2.16,4.86,4.86,0,0,1-1.75,1.71A4.92,4.92,0,0,1,102.94,95.77ZM117,82.32a4.64,4.64,0,0,0-2.36.58A5,5,0,0,0,113,84.42a7.71,7.71,0,0,0-1,2,12.78,12.78,0,0,0-.47,2.21,6.64,6.64,0,0,0,1.55,4.64,5.2,5.2,0,0,0,4,1.7,5.1,5.1,0,0,0,2-.42,4.88,4.88,0,0,0,1.66-1.26,6.21,6.21,0,0,0,1.16-2,10,10,0,0,0,.55-2.65,3,3,0,0,0,0-.34,6.83,6.83,0,0,0-.41-2.37A6,6,0,0,0,121,84a5.17,5.17,0,0,0-1.77-1.26A5.42,5.42,0,0,0,117,82.32Zm.18,13.46h-.33a8.54,8.54,0,0,1-2.51-.39A7.47,7.47,0,0,1,112,94.15a6.36,6.36,0,0,1-1.75-2.23,7.42,7.42,0,0,1-.66-3.25,7.08,7.08,0,0,1,.49-2.58,6.8,6.8,0,0,1,3.81-3.93,8.38,8.38,0,0,1,3.28-.61,9.6,9.6,0,0,1,3.59.7A5.81,5.81,0,0,1,123,83.91a6.59,6.59,0,0,1,1.16,2.17,10.47,10.47,0,0,1,.41,2.43v.27a7,7,0,0,1-.59,2.88,6.61,6.61,0,0,1-1.66,2.22A7.49,7.49,0,0,1,120,95.3a8.2,8.2,0,0,1-2.77.48Zm15.23,0a6.27,6.27,0,0,1-3.28-.76,4.22,4.22,0,0,1-1.73-2,7.73,7.73,0,0,1-.5-2.82V81.85a5.58,5.58,0,0,0,1,.12,3.26,3.26,0,0,0,.87-.12v8a6.61,6.61,0,0,0,.52,2.84,3.39,3.39,0,0,0,1.44,1.6,4.75,4.75,0,0,0,2.21.51,4.84,4.84,0,0,0,2.45-.55,3.25,3.25,0,0,0,1.37-1.6,8,8,0,0,0,.51-2.65v-8.2a1.8,1.8,0,0,0,1.24,0v7.88a8.27,8.27,0,0,1-.57,3.19,4.28,4.28,0,0,1-1.86,2.1,6.51,6.51,0,0,1-3.3.75h-.2l-.16,0Zm16,.15h-.23a7.3,7.3,0,0,1-2.57-.5,6.68,6.68,0,0,1-3.81-3.71,7.6,7.6,0,0,1-.55-2.91,6.93,6.93,0,0,1,.52-2.66,6.65,6.65,0,0,1,3.76-3.74,7.82,7.82,0,0,1,3-.56,9,9,0,0,1,4.64.93l-.47,1.55h-.15a6.35,6.35,0,0,0-1.28-1,5.64,5.64,0,0,0-1.32-.54,5.4,5.4,0,0,0-1.38-.19,5.14,5.14,0,0,0-2.62.72A5.25,5.25,0,0,0,144,85.43a6.5,6.5,0,0,0-.74,3.15v.23a8.38,8.38,0,0,0,.49,2.8,5.34,5.34,0,0,0,1.2,1.9,4.64,4.64,0,0,0,1.7,1.09,5.76,5.76,0,0,0,2,.35,6.78,6.78,0,0,0,2.27-.4,6.52,6.52,0,0,0,2-1.1l-.16,1.23a9.41,9.41,0,0,1-1.43.69,8.07,8.07,0,0,1-1.51.42A7.52,7.52,0,0,1,148.45,95.93Z" fill="none"/>
    </clipPath>
    <clipPath id="clip-path-2">
      <path d="M177.63,57.48H176V49.57h1.59v7.91Zm5.3,0h-1.59V50.81h-2.27V49.57h6.13v1.24h-2.27v6.67Zm-3.19-14.12a10,10,0,0,0-9.68,12.38,10,10,0,0,0,9.66,7.55A10.07,10.07,0,0,0,184.57,62a10,10,0,0,0-4.83-18.69Zm-13.23,32h0s-.4-5.23-.41-11.15v-.52a87.21,87.21,0,0,1,.48-9.69c.4-3.35,1-5.77,1.88-7.2a13,13,0,0,1,11-6.31h.29A13,13,0,0,1,191,47.13a13,13,0,0,1,1.67,6.27v.23a13.08,13.08,0,0,1-1.86,6.56,18.79,18.79,0,0,1-5.35,5,84.75,84.75,0,0,1-8.17,4.93c-5.52,3-10.7,5.25-10.75,5.27Z" fill="none"/>
    </clipPath>
  </defs>
  <title>Logo_SiSa</title>
  <g id="container">
    <rect width="225" height="148" fill="none"/>
  </g>
  <g>
    <g clip-path="url(#clip-path)">
      <rect x="46.27" y="50.84" width="116.06" height="50.09" fill="#1c1c1b"/>
    </g>
    <g clip-path="url(#clip-path-2)">
      <rect x="161.1" y="35.49" width="36.54" height="44.87" fill="#e40063"/>
    </g>
  </g>
</svg>
