<svg id="automotiveBER" xmlns="http://www.w3.org/2000/svg" viewBox="0 0 225 148">
  <title>logo_automotive-ber</title>
  <g id="container">
    <rect width="225" height="148" fill="none"/>
  </g>
  <g>
    <path d="M123.36,84.32a2.12,2.12,0,0,0-1.82.83,4,4,0,0,0-.63,2.44v.19a3.24,3.24,0,0,0,.61,2.08,2,2,0,0,0,1.65.75,2,2,0,0,0,1.7-.83,4.25,4.25,0,0,0,.58-2.44,3.83,3.83,0,0,0-.56-2.22A1.74,1.74,0,0,0,123.36,84.32Z" fill="none"/>
    <path d="M147.93,84.32a2.06,2.06,0,0,0-1.65.65,2.83,2.83,0,0,0-.56,1.91,3.19,3.19,0,0,0,.58,2,2,2,0,0,0,1.62.73,1.91,1.91,0,0,0,1.61-.81,3.38,3.38,0,0,0,.61-2.12,2.52,2.52,0,0,0-.58-1.77A2.14,2.14,0,0,0,147.93,84.32Z" fill="none"/>
    <path d="M147.22,62.93a3.1,3.1,0,0,0-2.74,1.24,4,4,0,0,0-.54,1.13h5.82a5.31,5.31,0,0,0-.64-1.89A3.66,3.66,0,0,0,147.22,62.93Z" fill="none"/>
    <path d="M103.44,70.75a6.88,6.88,0,0,0,1-4,6.36,6.36,0,0,0-.7-3.27,4.32,4.32,0,0,0-2.17-.51,3.31,3.31,0,0,0-2.84,1.28,6.42,6.42,0,0,0-1,3.9,6.05,6.05,0,0,0,.87,3.42,3.57,3.57,0,0,0,2,.55A3.25,3.25,0,0,0,103.44,70.75Z" fill="none"/>
    <path d="M179,57.62l.09.13a19.07,19.07,0,0,1,22.6,2.2l0,0A18.95,18.95,0,0,0,179,57.62Z" fill="none"/>
    <path d="M204.28,62.8q-.65-.87-1.38-1.68v0a18.54,18.54,0,0,1,1.38,1.67Z" fill="none"/>
    <path d="M173.33,85.2a18.67,18.67,0,0,0,1.38,1.68l.11-.11a19.67,19.67,0,0,1-1.36-1.66Z" fill="none"/>
    <path d="M104.79,84.32a2,2,0,0,0-1.74.79,3.1,3.1,0,0,0-.51,1.47H107a3.19,3.19,0,0,0-.51-1.48A2,2,0,0,0,104.79,84.32Z" fill="none"/>
    <path d="M177.58,58.55a18.67,18.67,0,0,0-1.68,1.38L176,60a19.67,19.67,0,0,1,1.66-1.36Z" fill="none"/>
    <path d="M202.89,86.85l0,0a19.82,19.82,0,0,0,1.8-2.28A17.9,17.9,0,0,1,202.89,86.85Z" fill="none"/>
    <path d="M64.68,70.75a6.88,6.88,0,0,0,1-4A6.47,6.47,0,0,0,65,63.44a4.38,4.38,0,0,0-2.17-.51A3.32,3.32,0,0,0,60,64.21a6.42,6.42,0,0,0-1,3.9,6.05,6.05,0,0,0,.87,3.42,3.57,3.57,0,0,0,2,.55A3.25,3.25,0,0,0,64.68,70.75Z" fill="none"/>
    <path d="M76.74,88a3.34,3.34,0,0,0-1.23.64,1.25,1.25,0,0,0-.34.92,1.1,1.1,0,0,0,.33.85,1.29,1.29,0,0,0,.9.31A2.1,2.1,0,0,0,78.07,90a2.89,2.89,0,0,0,.64-1.94v-.85a2,2,0,0,1-.65.36Z" fill="none"/>
    <path d="M21.79,85.46a1.29,1.29,0,0,0,.47-1.07,1.24,1.24,0,0,0-.41-1A2.17,2.17,0,0,0,20.53,83H18.24v2.8h2.21A2.12,2.12,0,0,0,21.79,85.46Z" fill="none"/>
    <path d="M20.61,70.23a1.82,1.82,0,0,0-.49,1.37,2,2,0,0,0,.09.63,2.53,2.53,0,0,0,.76.11,3.27,3.27,0,0,0,2.63-1.16,4.43,4.43,0,0,0,1-2.66l-2,.68A5.41,5.41,0,0,0,20.61,70.23Z" fill="none"/>
    <path d="M20.53,87.15H18.24v3.16H20.4a2.38,2.38,0,0,0,1.53-.39,1.49,1.49,0,0,0,.47-1.25,1.37,1.37,0,0,0-.48-1.12A2.19,2.19,0,0,0,20.53,87.15Z" fill="none"/>
    <path d="M29.41,84.32a2,2,0,0,0-1.74.79,3.21,3.21,0,0,0-.51,1.47h4.5a3.19,3.19,0,0,0-.51-1.48A2,2,0,0,0,29.41,84.32Z" fill="none"/>
    <path d="M172.4,83.79l.13-.08a18.8,18.8,0,0,1,2.28-22.48l-.1-.11a19,19,0,0,0-2.31,22.67Z" fill="none"/>
    <path d="M62.44,87.15H60.15v3.16h2.17a2.38,2.38,0,0,0,1.53-.39,1.52,1.52,0,0,0,.47-1.25,1.35,1.35,0,0,0-.49-1.12A2.17,2.17,0,0,0,62.44,87.15Z" fill="none"/>
    <path d="M63.71,85.46a1.29,1.29,0,0,0,.47-1.07,1.24,1.24,0,0,0-.41-1A2.18,2.18,0,0,0,62.44,83H60.15v2.8h2.22A2.14,2.14,0,0,0,63.71,85.46Z" fill="none"/>
    <path d="M95.3,84.28a2,2,0,0,0-1.69.78A3.65,3.65,0,0,0,93,87.3a4.39,4.39,0,0,0,.56,2.4,1.78,1.78,0,0,0,1.57.87A2.1,2.1,0,0,0,97,89.74a4.08,4.08,0,0,0,.62-2.44v-.19A3.18,3.18,0,0,0,97,85,2,2,0,0,0,95.3,84.28Z" fill="none"/>
    <path d="M200,89.45a20,20,0,0,0,1.67-1.38l0,0A18.37,18.37,0,0,1,200,89.39Z" fill="none"/>
    <path d="M198.63,90.38l0-.07A19.05,19.05,0,0,1,176,88l-.12.12a19,19,0,0,0,22.73,2.3Z" fill="none"/>
    <path d="M207.93,74a19.07,19.07,0,0,0-2.72-9.79l-.81.53a.48.48,0,0,0-.19.31l-2.11,10.3V85.86a.41.41,0,0,0,.13.33l.66.66a17.9,17.9,0,0,0,1.82-2.25A19,19,0,0,0,207.93,74Z" fill="#fff"/>
    <path d="M178.11,59.35l-.44-.67A19.67,19.67,0,0,0,176,60l.54.53a.41.41,0,0,0,.31.14H178l.21-1A.46.46,0,0,0,178.11,59.35Z" fill="#fff"/>
    <path d="M179.08,57.75l.41.63a.44.44,0,0,0,.28.2l10.39,2.13h10.59a.41.41,0,0,0,.31-.14l.62-.62a19.07,19.07,0,0,0-22.6-2.2Z" fill="#fff"/>
    <path d="M203.51,63.31l.76-.5a18.54,18.54,0,0,0-1.38-1.67l-.66.66a.42.42,0,0,0-.13.34v1l1.08.22A.48.48,0,0,0,203.51,63.31Z" fill="#fff"/>
    <path d="M172.53,83.71l.68-.45a.51.51,0,0,0,.19-.31l2.11-10.3V62.14a.46.46,0,0,0-.12-.34l-.58-.57a18.8,18.8,0,0,0-2.28,22.48Z" fill="#fff"/>
    <path d="M174.1,84.69l-.64.42a19.67,19.67,0,0,0,1.36,1.66l.57-.57a.5.5,0,0,0,.12-.34v-1l-1.08-.22A.54.54,0,0,0,174.1,84.69Z" fill="#fff"/>
    <path d="M199.5,88.64l.5.75A18.37,18.37,0,0,0,201.68,88l-.62-.62a.45.45,0,0,0-.31-.14h-1.1l-.21,1A.47.47,0,0,0,199.5,88.64Z" fill="#fff"/>
    <path d="M198.58,90.31l-.46-.7a.47.47,0,0,0-.28-.2l-10.39-2.12H176.86a.52.52,0,0,0-.31.14L176,88a19.05,19.05,0,0,0,22.56,2.35Z" fill="#fff"/>
    <g>
      <path d="M86.66,82.9a2.89,2.89,0,0,0-2.35,1.36,6,6,0,0,0-.41.65V83.1H82.48v8.51h1.41V87.43a3.88,3.88,0,0,1,.6-2.32,2,2,0,0,1,1.73-.81,1.36,1.36,0,0,1,1.18.53,2.88,2.88,0,0,1,.37,1.65v5.13h1.41V85.8a3.11,3.11,0,0,0-.67-2.13A2.3,2.3,0,0,0,86.66,82.9Z" fill="#1d1d1b"/>
      <path d="M45.34,83.1v8.51h1.41V83.1a2.1,2.1,0,0,1-.7.15A2.15,2.15,0,0,1,45.34,83.1Z" fill="#1d1d1b"/>
      <path d="M63.46,86.43a2.82,2.82,0,0,0,1.37-.59,2.33,2.33,0,0,0,.8-1.9,2.19,2.19,0,0,0-.7-1.75,2.84,2.84,0,0,0-2-.61H58.7v10h4.16A3.07,3.07,0,0,0,65,90.9a2.62,2.62,0,0,0,.75-2A2.24,2.24,0,0,0,65,87,3.11,3.11,0,0,0,63.46,86.43ZM60.15,83h2.29a2.18,2.18,0,0,1,1.33.32,1.24,1.24,0,0,1,.41,1,1.29,1.29,0,0,1-.47,1.07,2.14,2.14,0,0,1-1.34.38H60.15Zm3.7,6.88a2.38,2.38,0,0,1-1.53.39H60.15V87.15h2.29a2.17,2.17,0,0,1,1.39.4,1.35,1.35,0,0,1,.49,1.12A1.52,1.52,0,0,1,63.85,89.92Z" fill="#1d1d1b"/>
      <path d="M46.05,80.91a1.18,1.18,0,0,0-.71.17.61.61,0,0,0-.24.52.59.59,0,0,0,.24.51,1.18,1.18,0,0,0,.71.17,1.22,1.22,0,0,0,.72-.17A.59.59,0,0,0,47,81.6a.61.61,0,0,0-.24-.52A1.22,1.22,0,0,0,46.05,80.91Z" fill="#1d1d1b"/>
      <path d="M104.78,82.9a3.29,3.29,0,0,0-2.66,1.22,4.91,4.91,0,0,0-1,3.24,5,5,0,0,0,1,3.27,3.36,3.36,0,0,0,2.73,1.18,3.58,3.58,0,0,0,1.51-.35,5.36,5.36,0,0,0,1.43-1l-.11-1.48a5.12,5.12,0,0,1-1.32,1.26,2.6,2.6,0,0,1-1.37.41,2.23,2.23,0,0,1-1.82-.82,3.45,3.45,0,0,1-.65-2h5.6l0-.43v0a5.6,5.6,0,0,0-.8-3.35A3,3,0,0,0,104.78,82.9Zm-2.24,3.68a3.1,3.1,0,0,1,.51-1.47,2.32,2.32,0,0,1,3.48,0,3.19,3.19,0,0,1,.51,1.48Z" fill="#1d1d1b"/>
      <path d="M97.47,84.19,97.34,84a2.92,2.92,0,0,0-2.43-1.12,2.86,2.86,0,0,0-2.38,1.17,5,5,0,0,0-.91,3.11,6.19,6.19,0,0,0,.8,3.4,2.53,2.53,0,0,0,2.22,1.23,3.28,3.28,0,0,0,2.67-1.24,4.15,4.15,0,0,0,.3-.43v1.47h1.26V81.07h-1.4Zm.1,3.11A4.08,4.08,0,0,1,97,89.74a2.1,2.1,0,0,1-1.79.83,1.78,1.78,0,0,1-1.57-.87A4.39,4.39,0,0,1,93,87.3a3.65,3.65,0,0,1,.58-2.24,2,2,0,0,1,1.69-.78A2,2,0,0,1,97,85a3.18,3.18,0,0,1,.61,2.08Z" fill="#1d1d1b"/>
      <path d="M77.33,82.9a4.44,4.44,0,0,0-1.73.32,4.15,4.15,0,0,0-1.39,1v1.38a4.14,4.14,0,0,1,1.28-1A3.48,3.48,0,0,1,77,84.25a2,2,0,0,1,1.25.36,1.14,1.14,0,0,1,.45.69,1,1,0,0,1,0,.53,1.1,1.1,0,0,1-.32.46,1.72,1.72,0,0,1-.6.37l-1.66.57a5.24,5.24,0,0,0-1.8.94,1.72,1.72,0,0,0-.52,1.29,2.15,2.15,0,0,0,2.35,2.35,3,3,0,0,0,2.38-1,2.65,2.65,0,0,0,.21-.26v1.11h1.37V85.26a2.17,2.17,0,0,0-.73-1.74A3,3,0,0,0,77.33,82.9Zm1.38,5.18A2.89,2.89,0,0,1,78.07,90a2.1,2.1,0,0,1-1.67.74,1.29,1.29,0,0,1-.9-.31,1.1,1.1,0,0,1-.33-.85,1.25,1.25,0,0,1,.34-.92A3.34,3.34,0,0,1,76.74,88l1.32-.45a2,2,0,0,0,.65-.36Z" fill="#1d1d1b"/>
      <path d="M71.39,82.9c-.68,0-1.27.45-1.78,1.36a5.59,5.59,0,0,0-.3.6V83.1H68v8.51h1.4V87.43a4.55,4.55,0,0,1,.48-2.36,1.62,1.62,0,0,1,1.49-.77,2,2,0,0,1,.83.16,1.79,1.79,0,0,1,.62.48V83.36a1.48,1.48,0,0,0-.61-.35A2.59,2.59,0,0,0,71.39,82.9Z" fill="#1d1d1b"/>
      <path d="M134.48,87.92a3,3,0,0,1-.61,2,2.15,2.15,0,0,1-1.72.71,1.4,1.4,0,0,1-1.18-.48,2.33,2.33,0,0,1-.38-1.49V83.1h-1.41v5.83a3.13,3.13,0,0,0,.67,2.12,2.33,2.33,0,0,0,1.84.77,3,3,0,0,0,2.38-1.11,3.59,3.59,0,0,0,.55-.86v1.76h1.27V83.1h-1.41Z" fill="#1d1d1b"/>
      <path d="M114.4,82.9a2.9,2.9,0,0,0-2.34,1.36,4.77,4.77,0,0,0-.41.65V83.1h-1.42v8.51h1.41V87.43a3.88,3.88,0,0,1,.6-2.32A2,2,0,0,1,114,84.3a1.35,1.35,0,0,1,1.18.53,2.88,2.88,0,0,1,.37,1.65v5.13h1.41V85.8a3.11,3.11,0,0,0-.67-2.13A2.31,2.31,0,0,0,114.4,82.9Z" fill="#1d1d1b"/>
      <path d="M141.78,82.9c-.68,0-1.28.45-1.79,1.36a4.15,4.15,0,0,0-.29.6V83.1h-1.3v8.51h1.41V87.43a4.55,4.55,0,0,1,.48-2.36,1.61,1.61,0,0,1,1.48-.77,2,2,0,0,1,.83.16,1.7,1.7,0,0,1,.62.48V83.36a1.51,1.51,0,0,0-.6-.35A2.59,2.59,0,0,0,141.78,82.9Z" fill="#1d1d1b"/>
      <path d="M123.89,82.9a3,3,0,0,0-2.46,1.29,6.26,6.26,0,0,0-.42.63V81.07h-1.4V91.61h1.27V90.22l.29.44a2.58,2.58,0,0,0,2.14,1.15,3.07,3.07,0,0,0,2.57-1.27,5.38,5.38,0,0,0,1-3.36,5.52,5.52,0,0,0-.78-3.15A2.52,2.52,0,0,0,123.89,82.9Zm1,6.88a2,2,0,0,1-1.7.83,2,2,0,0,1-1.65-.75,3.24,3.24,0,0,1-.61-2.08v-.19a4,4,0,0,1,.63-2.44,2.12,2.12,0,0,1,1.82-.83,1.74,1.74,0,0,1,1.53.8,3.83,3.83,0,0,1,.56,2.22A4.25,4.25,0,0,1,124.87,89.78Z" fill="#1d1d1b"/>
      <path d="M150.18,84.31a2.21,2.21,0,0,0-.28-.4,3,3,0,0,0-2.37-1A2.85,2.85,0,0,0,145.26,84a4.06,4.06,0,0,0-.95,2.69,4.76,4.76,0,0,0,.87,3,3,3,0,0,0,4.73-.11,3.31,3.31,0,0,0,.25-.35v.93a2.12,2.12,0,0,1-.61,1.57,2.19,2.19,0,0,1-1.6.6,5.2,5.2,0,0,1-1.57-.24,3.21,3.21,0,0,1-1.2-.61v1.29a3.67,3.67,0,0,0,1.27.55,6.89,6.89,0,0,0,1.73.21,3.58,3.58,0,0,0,2.36-.85,2.53,2.53,0,0,0,1-2V83.1h-1.38Zm-.65,4.53a1.91,1.91,0,0,1-1.61.81,2,2,0,0,1-1.62-.73,3.19,3.19,0,0,1-.58-2,2.83,2.83,0,0,1,.56-1.91,2.06,2.06,0,0,1,1.65-.65,2.14,2.14,0,0,1,1.63.63,2.52,2.52,0,0,1,.58,1.77A3.38,3.38,0,0,1,149.53,88.84Z" fill="#1d1d1b"/>
      <path d="M53.68,82.9a2.89,2.89,0,0,0-2.34,1.36,4.77,4.77,0,0,0-.41.65V83.1H49.51v8.51h1.41V87.43a3.88,3.88,0,0,1,.6-2.32,2,2,0,0,1,1.73-.81,1.37,1.37,0,0,1,1.18.53,2.88,2.88,0,0,1,.37,1.65v5.13h1.41V85.8a3.16,3.16,0,0,0-.67-2.13A2.32,2.32,0,0,0,53.68,82.9Z" fill="#1d1d1b"/>
      <path d="M21.55,86.43a2.83,2.83,0,0,0,1.36-.59,2.3,2.3,0,0,0,.8-1.9A2.22,2.22,0,0,0,23,82.19a2.89,2.89,0,0,0-2-.61H16.79v10h4.15a3,3,0,0,0,2.16-.71,2.62,2.62,0,0,0,.75-2A2.24,2.24,0,0,0,23,87,3.11,3.11,0,0,0,21.55,86.43ZM18.24,83h2.29a2.17,2.17,0,0,1,1.32.32,1.24,1.24,0,0,1,.41,1,1.29,1.29,0,0,1-.47,1.07,2.12,2.12,0,0,1-1.34.38H18.24Zm3.69,6.88a2.38,2.38,0,0,1-1.53.39H18.24V87.15h2.29a2.19,2.19,0,0,1,1.39.4,1.37,1.37,0,0,1,.48,1.12A1.49,1.49,0,0,1,21.93,89.92Z" fill="#1d1d1b"/>
      <rect x="41.35" y="81.07" width="1.41" height="10.53" fill="#1d1d1b"/>
      <path d="M38.15,82.9c-.68,0-1.28.45-1.79,1.36-.1.19-.2.39-.29.6V83.1h-1.3v8.51h1.41V87.43a4.55,4.55,0,0,1,.48-2.36,1.62,1.62,0,0,1,1.48-.77,2,2,0,0,1,.83.16,1.7,1.7,0,0,1,.62.48V83.36A1.51,1.51,0,0,0,39,83,2.59,2.59,0,0,0,38.15,82.9Z" fill="#1d1d1b"/>
      <path d="M29.4,82.9a3.29,3.29,0,0,0-2.66,1.22,4.91,4.91,0,0,0-1,3.24,5,5,0,0,0,1,3.27,3.36,3.36,0,0,0,2.72,1.18A3.59,3.59,0,0,0,31,91.46a5.36,5.36,0,0,0,1.43-1l-.11-1.48A5.12,5.12,0,0,1,31,90.2a2.6,2.6,0,0,1-1.37.41,2.23,2.23,0,0,1-1.82-.82,3.45,3.45,0,0,1-.65-2h5.6l0-.43v0a5.6,5.6,0,0,0-.8-3.35A3,3,0,0,0,29.4,82.9Zm-2.24,3.68a3.21,3.21,0,0,1,.51-1.47,2.32,2.32,0,0,1,3.48,0,3.19,3.19,0,0,1,.51,1.48Z" fill="#1d1d1b"/>
      <path d="M208.72,74a19.75,19.75,0,0,0-2.86-10.22l-.29.19-.07,0-.29.19a19,19,0,0,1-.5,20.39,19.82,19.82,0,0,1-1.8,2.28l0,0-.66-.66a.41.41,0,0,1-.13-.33V62.14a.42.42,0,0,1,.13-.34l.67-.68q.73.81,1.38,1.68l.29-.19.07,0,.3-.19a21.24,21.24,0,0,0-1.48-1.81l2.3-2.29-1.2-1.2-2.29,2.3A19.75,19.75,0,0,0,178.55,57l.2.29.05.08.19.29a18.95,18.95,0,0,1,22.72,2.31l0,0-.62.62a.41.41,0,0,1-.31.14H176.86a.41.41,0,0,1-.31-.14L176,60l-.11-.11a18.67,18.67,0,0,1,1.68-1.38l-.19-.29,0-.08-.19-.29a18.52,18.52,0,0,0-1.81,1.48l-2.29-2.3-1.2,1.2,2.3,2.29a19.75,19.75,0,0,0-2.4,23.66L172,84l.07,0,.29-.19a19,19,0,0,1,2.31-22.67l.1.11.58.57a.46.46,0,0,1,.12.34V85.86a.5.5,0,0,1-.12.34l-.68.68a18.67,18.67,0,0,1-1.38-1.68l-.29.19-.07,0-.3.19a21.24,21.24,0,0,0,1.48,1.81l-2.3,2.29,1.2,1.2,2.29-2.3A19.75,19.75,0,0,0,199.06,91l-.19-.29-.05-.08-.19-.29a19,19,0,0,1-22.73-2.3L176,88l.53-.53a.52.52,0,0,1,.31-.14h23.89a.45.45,0,0,1,.31.14l.62.62,0,0A20,20,0,0,1,200,89.45l.19.29.05.07.19.3a19.66,19.66,0,0,0,1.8-1.48l2.29,2.29,1.2-1.19-2.3-2.3A19.76,19.76,0,0,0,208.72,74Zm-7.61,12.31H176.49V61.69h24.62V62h0v2.66h0Z" fill="#1d1d1b"/>
    </g>
    <path d="M188.34,85.6a6,6,0,0,0-11.85-1.72V78.71l.19-.46A3.38,3.38,0,0,1,179,76.52l13-3.25A4.17,4.17,0,0,0,194.09,72a63.16,63.16,0,0,1,7-7.41V62l-.14.1-.43.34-.42.34-.41.34-.39.35-.39.35-.38.35-.37.34-.37.35-.35.35-.34.34-.33.34-.33.34-.31.33-.31.33-.29.32-.28.32-.28.31-.26.3-.26.29-.24.29L194,69l-.23.26-.21.25-.2.24-.19.23-.18.2-.16.2-.15.17-.13.15-.05,0-.05.05,0,0-.06,0,0,0-.06,0-.07,0-.07,0-.07,0-.07,0-.07,0-.07,0-.08,0-.07,0-.08,0-.09,0-13,3.26-.24.07-.26.08-.27.1-.26.11-.26.12-.25.13-.26.15-.2.13V61.69h0V86.31H188.3A5.63,5.63,0,0,0,188.34,85.6Zm-3.27.71h-5.55a2.82,2.82,0,0,1-.09-.71,2.87,2.87,0,1,1,5.73,0A2.82,2.82,0,0,1,185.07,86.31Z" fill="#fff"/>
    <g>
      <path d="M114.16,71.6a1.51,1.51,0,0,0,.63.4,4,4,0,0,1-.23-.89,63.43,63.43,0,0,1,0-8.13h5V60.39h-1V62h-5a62.62,62.62,0,0,0,0,8.13A2.7,2.7,0,0,0,114.16,71.6Z" fill="#c6c6c5"/>
      <path d="M74.37,61.11c.16-.19.33-.36.49-.53v-.19h-1v1.37a6.62,6.62,0,0,1,.46-.62Z" fill="#c6c6c5"/>
      <polygon points="132.24 71.48 132.49 70.62 129.48 60.56 129.43 60.39 128.75 60.39 128.89 60.88 132.15 71.77 132.24 71.48" fill="#c6c6c5"/>
      <path d="M33.8,71.47a1.63,1.63,0,0,0,.66.47,4.77,4.77,0,0,1-.31-1.9V60.39h-1v8.67a3.86,3.86,0,0,0,.58,2.36Z" fill="#c6c6c5"/>
      <path d="M49.56,71.58a1.55,1.55,0,0,0,.63.42,4,4,0,0,1-.22-.89A62.7,62.7,0,0,1,50,63h5V60.39H54V62H49a63.36,63.36,0,0,0,0,8.13A2.82,2.82,0,0,0,49.56,71.58Z" fill="#c6c6c5"/>
      <path d="M67.09,61.28A6.17,6.17,0,0,1,68,63a10.91,10.91,0,0,1,.5,3.47,9.2,9.2,0,0,1-1.72,6,6.06,6.06,0,0,1-4.94,2.13,7.39,7.39,0,0,1-2.26-.34,5.58,5.58,0,0,1-1.76-.92.78.78,0,0,0,.1.15,6.12,6.12,0,0,0,4.9,2.08,6,6,0,0,0,4.93-2.12,9.22,9.22,0,0,0,1.72-6,8.13,8.13,0,0,0-1.65-5.54A4.58,4.58,0,0,0,67.09,61.28Z" fill="#c6c6c5"/>
      <path d="M124.41,57a1.77,1.77,0,0,0-.5-.23,1.65,1.65,0,0,1,0,.32,1.46,1.46,0,0,1,0,.22,1.17,1.17,0,0,1-.49.85,2.21,2.21,0,0,1-1.34.34,2.61,2.61,0,0,1-.31,0,2.19,2.19,0,0,1-.54-.08,1.15,1.15,0,0,0,.48.75,2.16,2.16,0,0,0,1.25.33l.2-.06.33-.12v.14a1.85,1.85,0,0,0,.91-.29,1.22,1.22,0,0,0,.51-1.06A1.25,1.25,0,0,0,124.41,57Z" fill="#c6c6c5"/>
      <path d="M150.73,61a5.63,5.63,0,0,1,.79,1.59,13.21,13.21,0,0,1,.56,4.15l0,1h-9.44a5.81,5.81,0,0,0,.78,2.6c.09.13.16.26.25.38a3.3,3.3,0,0,0,.8.7,5.75,5.75,0,0,1-.86-2.71H153l0-1c0-2.62-.46-4.57-1.38-5.8A4.51,4.51,0,0,0,150.73,61Z" fill="#c6c6c5"/>
      <path d="M105.85,61.28a5.85,5.85,0,0,1,.9,1.74,10.91,10.91,0,0,1,.51,3.48,9.2,9.2,0,0,1-1.72,6,6.06,6.06,0,0,1-4.94,2.13,7.34,7.34,0,0,1-2.26-.34,5.63,5.63,0,0,1-1.77-.92c0,.05.07.11.11.15a6.8,6.8,0,0,0,9.83,0,9.22,9.22,0,0,0,1.72-6,8.15,8.15,0,0,0-1.65-5.54A5.06,5.06,0,0,0,105.85,61.28Z" fill="#c6c6c5"/>
      <path d="M22.6,69.2l2-.68c0-.15,0-.3,0-.45v-1a3.61,3.61,0,0,1-.77.35l-2.21.76a5.39,5.39,0,0,0-2,1,1.87,1.87,0,0,0-.5,1.38,1.62,1.62,0,0,0,.48,1.25l0,0a1.55,1.55,0,0,0,.56.32,2,2,0,0,1-.09-.63,1.82,1.82,0,0,1,.49-1.37A5.41,5.41,0,0,1,22.6,69.2Z" fill="#c6c6c5"/>
      <path d="M38.48,73.18a5.25,5.25,0,0,1-3.69,1.44,5,5,0,0,1-1.38-.21,3.69,3.69,0,0,1-1.16-.51,3.46,3.46,0,0,0,.22.31,4.13,4.13,0,0,0,3.3,1.38,5.26,5.26,0,0,0,3.72-1.47V72a6.24,6.24,0,0,1-.51.67C38.82,72.84,38.65,73,38.48,73.18Z" fill="#c6c6c5"/>
      <path d="M26.76,60.94a3.89,3.89,0,0,1,.49,1.12,4.81,4.81,0,0,1,.17,1.23v11H25.59v1h2.8v-11a3.9,3.9,0,0,0-1.31-3.11C27,61.08,26.86,61,26.76,60.94Z" fill="#c6c6c5"/>
      <polygon points="42.11 74.26 40.46 74.26 40.46 75.24 43.09 75.24 43.09 60.39 42.11 60.39 42.11 74.26" fill="#c6c6c5"/>
      <path d="M20.52,63.35a5.65,5.65,0,0,1,2.41-.53,3.52,3.52,0,0,1,1.52.3,1.72,1.72,0,0,0-.51-.67l0-.05A3.13,3.13,0,0,0,22,61.85a5.65,5.65,0,0,0-2.41.52,6.5,6.5,0,0,0-1.06.64c-.16.13-.33.26-.49.41v1.34l.43.17A6.71,6.71,0,0,1,20.52,63.35Z" fill="#c6c6c5"/>
      <path d="M24.61,72.84a5.54,5.54,0,0,1-5.5,1.58,4,4,0,0,1-1.17-.5,3.78,3.78,0,0,0,.43.54,4.23,4.23,0,0,0,3.09,1.12,5.36,5.36,0,0,0,3.62-1.32h-.47Z" fill="#c6c6c5"/>
      <path d="M109.7,62v1h1c0-.16,0-.32,0-.49s0-.32,0-.49Z" fill="#c6c6c5"/>
      <rect x="113.71" y="56.8" width="0.97" height="2.61" fill="#c6c6c5"/>
      <path d="M119.16,71.8a3.56,3.56,0,0,1-.45.42V73l-.07.07a5.34,5.34,0,0,1-3.9,1.52,5.53,5.53,0,0,1-1.27-.15,3.81,3.81,0,0,1-1-.44,3.56,3.56,0,0,0,3.29,1.56,5.3,5.3,0,0,0,3.9-1.52l.08-.07V71.86l-.43-.16Z" fill="#c6c6c5"/>
      <path d="M59,70.8a3.53,3.53,0,0,0,.82.73A6.05,6.05,0,0,1,59,68.11a6.42,6.42,0,0,1,1-3.9,3.32,3.32,0,0,1,2.85-1.28,4.38,4.38,0,0,1,2.17.51c-.08-.12-.15-.26-.24-.37a3.05,3.05,0,0,0-.45-.43A4,4,0,0,0,61.84,62,3.31,3.31,0,0,0,59,63.24a6.41,6.41,0,0,0-1,3.89,6.25,6.25,0,0,0,.79,3.29C58.87,70.54,58.94,70.68,59,70.8Z" fill="#c6c6c5"/>
      <path d="M97.79,70.8a3.53,3.53,0,0,0,.82.73,6.05,6.05,0,0,1-.87-3.42,6.42,6.42,0,0,1,1-3.9,3.31,3.31,0,0,1,2.84-1.28,4.32,4.32,0,0,1,2.17.51,2.85,2.85,0,0,0-.23-.37,2.69,2.69,0,0,0-.46-.43A4,4,0,0,0,100.6,62a3.31,3.31,0,0,0-2.84,1.28,6.41,6.41,0,0,0-1,3.89,6.25,6.25,0,0,0,.79,3.29C97.63,70.54,97.7,70.68,97.79,70.8Z" fill="#c6c6c5"/>
      <path d="M151.84,70.34c-.14.19-.29.36-.43.52l.05.68,0,.56-.08.08A8.93,8.93,0,0,1,148.94,74a6.2,6.2,0,0,1-2.66.62,7.28,7.28,0,0,1-2.14-.31,5.78,5.78,0,0,1-1.74-.91l.07.11a5.92,5.92,0,0,0,4.79,2.08,6.19,6.19,0,0,0,2.65-.62,9.07,9.07,0,0,0,2.49-1.8l.08-.08-.2-2.61Z" fill="#c6c6c5"/>
      <path d="M45.1,62v1h1c0-.16,0-.32,0-.49s0-.32,0-.49Z" fill="#c6c6c5"/>
      <polygon points="138.28 60.88 134.16 74.26 130.73 74.26 131.03 75.24 135.13 75.24 139.71 60.39 138.44 60.39 138.28 60.88" fill="#c6c6c5"/>
      <path d="M143.94,65.3a4,4,0,0,1,.54-1.13,3.1,3.1,0,0,1,2.74-1.24,3.66,3.66,0,0,1,1.9.48c-.05-.07-.09-.16-.14-.23a2.9,2.9,0,0,0-.58-.58,3.39,3.39,0,0,0-2.16-.64,3.08,3.08,0,0,0-2.73,1.23,4.8,4.8,0,0,0-.78,2.11Z" fill="#c6c6c5"/>
      <path d="M123.5,60.59V74.26h-1.89v1h2.87v-15l-.33.13A5.43,5.43,0,0,1,123.5,60.59Z" fill="#c6c6c5"/>
      <rect x="49.12" y="56.8" width="0.97" height="2.61" fill="#c6c6c5"/>
      <path d="M79,62.46a2.18,2.18,0,0,0-1.57-.53,3,3,0,0,0-1.69.48A3.09,3.09,0,0,0,75,63a4.39,4.39,0,0,0-.44.68,4.93,4.93,0,0,0-.47,2.23v8.35H72.24v1H75.1V66.88A4.41,4.41,0,0,1,76,64a2.89,2.89,0,0,1,2.37-1.08,2.67,2.67,0,0,1,1,.18,2.43,2.43,0,0,0-.2-.36A2,2,0,0,0,79,62.46Z" fill="#c6c6c5"/>
      <path d="M54.57,71.8a4.18,4.18,0,0,1-.45.41V73l-.08.07a5.34,5.34,0,0,1-3.9,1.52,5.44,5.44,0,0,1-1.26-.15A3.57,3.57,0,0,1,47.83,74a3.55,3.55,0,0,0,3.29,1.56A5.3,5.3,0,0,0,55,74.06l.07-.07V71.86l-.43-.16Z" fill="#c6c6c5"/>
      <path d="M90.28,60.73A4.48,4.48,0,0,1,91,62.12,7,7,0,0,1,91.2,64V74.26H89.31v1h2.87V65A5.35,5.35,0,0,0,91,61.38,3.85,3.85,0,0,0,90.28,60.73Z" fill="#c6c6c5"/>
      <path d="M87.51,62.46a2.22,2.22,0,0,0-1.58-.53,3,3,0,0,0-1.69.49,3,3,0,0,0-.66.58,3.07,3.07,0,0,0-.38.56,4.89,4.89,0,0,0-.53,2.35v8.35H80.78v1h2.86V66.88a4.41,4.41,0,0,1,.91-2.9A2.87,2.87,0,0,1,86.9,62.9a2.69,2.69,0,0,1,1,.18,1.77,1.77,0,0,0-.2-.36A1.94,1.94,0,0,0,87.51,62.46Z" fill="#c6c6c5"/>
      <path d="M82.6,61.52s-.06-.1-.1-.14a3.74,3.74,0,0,0-.74-.64,4.18,4.18,0,0,1,.59,1.13C82.42,61.75,82.52,61.64,82.6,61.52Z" fill="#c6c6c5"/>
      <path d="M177.34,58.18l0,.08.19.29.09.13.44.67a.46.46,0,0,1,.06.36l-.21,1h12.2l-10.39-2.13a.44.44,0,0,1-.28-.2l-.41-.63-.09-.13-.19-.29-.05-.08-.2-.29-1.78-2.71-1.41.93,1.79,2.71Z" fill="#c6c6c5"/>
      <path d="M207.64,60.58l-2.7,1.79-.3.19-.07,0-.29.19h0l-.76.5a.48.48,0,0,1-.33.07l-1.08-.22V75.35l2.11-10.3a.48.48,0,0,1,.19-.31l.81-.53.29-.19.07,0,.29-.19L208.57,62Z" fill="#c6c6c5"/>
      <path d="M173.21,83.26l-.68.45-.13.08-.29.19L172,84l-.29.19L169,86l.93,1.41,2.7-1.79.3-.19.07,0,.29-.19.13-.09.64-.42a.54.54,0,0,1,.33-.07l1.08.22V72.65L173.4,83A.51.51,0,0,1,173.21,83.26Z" fill="#c6c6c5"/>
      <path d="M200.28,89.81l-.05-.07-.19-.29,0-.06-.5-.75a.47.47,0,0,1-.06-.35l.21-1h-12.2l10.39,2.12a.47.47,0,0,1,.28.2l.46.7,0,.07.19.29.05.08.19.29,1.78,2.7,1.41-.93-1.78-2.7Z" fill="#c6c6c5"/>
      <polygon points="191.59 71.24 191.66 71.21 191.74 71.19 191.82 71.16 191.89 71.13 191.97 71.09 192.03 71.06 192.1 71.02 192.17 70.98 192.24 70.93 192.3 70.89 192.35 70.84 192.41 70.8 192.46 70.75 192.5 70.71 192.55 70.66 192.68 70.51 192.83 70.34 192.99 70.14 193.17 69.94 193.36 69.71 193.56 69.47 193.77 69.22 194 68.96 194.23 68.69 194.47 68.4 194.73 68.11 194.99 67.81 195.27 67.5 195.55 67.19 195.84 66.86 196.15 66.53 196.46 66.2 196.79 65.86 197.12 65.52 197.46 65.18 197.81 64.83 198.18 64.48 198.54 64.14 198.93 63.79 199.32 63.44 199.72 63.09 200.12 62.75 200.54 62.41 200.97 62.07 201.11 61.97 201.11 61.97 201.11 61.69 176.49 61.69 176.49 75.41 176.69 75.28 176.95 75.13 177.2 75 177.46 74.88 177.72 74.77 177.99 74.67 178.25 74.59 178.49 74.52 191.5 71.26 191.59 71.24" fill="#c6c6c5"/>
    </g>
    <path d="M196,72.43c-.17.24.08.53.34.53h4.78l0-6.3A29.29,29.29,0,0,0,196,72.43Z" fill="#fff"/>
    <g>
      <path d="M201.11,64.63a63.16,63.16,0,0,0-7,7.41A4.17,4.17,0,0,1,192,73.27l-13,3.25a3.38,3.38,0,0,0-2.34,1.73l-.19.46v5.17a6,6,0,0,1,11.85,1.72,5.63,5.63,0,0,1,0,.71h12.81V64.63ZM196.32,73c-.26,0-.51-.29-.34-.53a29.29,29.29,0,0,1,5.09-5.76l0,6.3Z" fill="#d41317"/>
      <path d="M182.29,82.73a2.87,2.87,0,0,0-2.86,2.87,2.82,2.82,0,0,0,.09.71h5.55a2.82,2.82,0,0,0,.09-.71A2.88,2.88,0,0,0,182.29,82.73Z" fill="#d41317"/>
      <path d="M53.59,70.83a3.59,3.59,0,0,1-2.79,1.26,2,2,0,0,1-.61-.09,1.55,1.55,0,0,1-.63-.42A2.82,2.82,0,0,1,49,70.13,63.36,63.36,0,0,1,49,62h5V59.42H49.12V55.83H47.7l-.05.17a7.72,7.72,0,0,1-1.23,2.48,8,8,0,0,1-2.17,1.71l-.13.07V62h2c0,.17,0,.32,0,.49s0,.33,0,.49a46.22,46.22,0,0,0,.28,8.86A3.37,3.37,0,0,0,47.83,74a3.57,3.57,0,0,0,1.05.44,5.44,5.44,0,0,0,1.26.15A5.34,5.34,0,0,0,54,73.09l.08-.07V70.88l-.43-.16Z" fill="#d41317"/>
      <path d="M90.28,60.73c-.08-.1-.14-.22-.23-.32a4,4,0,0,0-3.19-1.34,5,5,0,0,0-4,2.06c-.11.13-.19.26-.29.39s-.18.23-.25.35a4.18,4.18,0,0,0-.59-1.13c-.08-.11-.15-.23-.24-.34a4,4,0,0,0-3.19-1.33,4.85,4.85,0,0,0-3.47,1.51c-.16.17-.33.34-.49.53l0,0a6.62,6.62,0,0,0-.46.62V59.42H71.27V74.26h2.86V65.91a4.93,4.93,0,0,1,.47-2.23A4.39,4.39,0,0,1,75,63a3.09,3.09,0,0,1,.67-.59,3,3,0,0,1,1.69-.48,2.18,2.18,0,0,1,1.57.53,2,2,0,0,1,.24.26,2.43,2.43,0,0,1,.2.36,5.73,5.73,0,0,1,.39,2.31v8.87h2.87V65.91a4.89,4.89,0,0,1,.53-2.35,3.07,3.07,0,0,1,.38-.56,3,3,0,0,1,.66-.58,3,3,0,0,1,1.69-.49,2.22,2.22,0,0,1,1.58.53,1.94,1.94,0,0,1,.23.26,1.77,1.77,0,0,1,.2.36,5.54,5.54,0,0,1,.4,2.31v8.87H91.2V64A7,7,0,0,0,91,62.12,4.48,4.48,0,0,0,90.28,60.73Z" fill="#d41317"/>
      <path d="M118.19,70.83a3.63,3.63,0,0,1-2.79,1.26,2,2,0,0,1-.61-.09,1.51,1.51,0,0,1-.63-.4,2.7,2.7,0,0,1-.57-1.47,62.62,62.62,0,0,1,0-8.13h5V59.42h-4.84V55.83H112.3l-.06.17A7.53,7.53,0,0,1,111,58.48a7.72,7.72,0,0,1-2.18,1.71l-.12.07V62h2c0,.17,0,.32,0,.49s0,.33,0,.49a46.79,46.79,0,0,0,.29,8.86A3.36,3.36,0,0,0,112.42,74a3.81,3.81,0,0,0,1,.44,5.53,5.53,0,0,0,1.27.15,5.34,5.34,0,0,0,3.9-1.52l.07-.07V70.88l-.43-.16Z" fill="#d41317"/>
      <polygon points="132.49 70.62 132.24 71.48 132.15 71.77 128.89 60.88 128.75 60.39 128.51 59.59 128.46 59.41 125.47 59.41 130.06 74.26 134.16 74.26 138.28 60.88 138.44 60.39 138.74 59.41 135.78 59.41 132.49 70.62" fill="#d41317"/>
      <path d="M39.25,67.78a4.89,4.89,0,0,1-1,3.25,3.38,3.38,0,0,1-2.73,1.1,2.8,2.8,0,0,1-1.09-.19,1.63,1.63,0,0,1-.66-.47l0,0a3.86,3.86,0,0,1-.58-2.36V59.42H30.31V69.49a5.56,5.56,0,0,0,1.18,3.75,4,4,0,0,0,.76.66,3.69,3.69,0,0,0,1.16.51,5,5,0,0,0,1.38.21,5.25,5.25,0,0,0,3.69-1.44c.17-.17.34-.34.5-.52a6.24,6.24,0,0,0,.51-.67v2.27h2.62V59.42H39.25Z" fill="#d41317"/>
      <path d="M26.76,60.94a3.9,3.9,0,0,0-.66-.75,5.29,5.29,0,0,0-3.56-1.12,7.87,7.87,0,0,0-3,.56,7.09,7.09,0,0,0-2.44,1.67l-.07.07v2.42l.42.16c.18-.19.37-.37.55-.53s.33-.28.49-.41a6.5,6.5,0,0,1,1.06-.64A5.65,5.65,0,0,1,22,61.85a3.13,3.13,0,0,1,1.95.55l0,.05a1.72,1.72,0,0,1,.51.67,1.57,1.57,0,0,1,.12.3,1.43,1.43,0,0,1,0,.77,1.86,1.86,0,0,1-.48.68,2.57,2.57,0,0,1-.92.57l-2.81,1A8.61,8.61,0,0,0,17.24,68a3.12,3.12,0,0,0-1,2.36,4.23,4.23,0,0,0,1.12,3.09,3.78,3.78,0,0,0,.54.43,4,4,0,0,0,1.17.5,5.54,5.54,0,0,0,5.5-1.58v1.42h2.81v-11a4.81,4.81,0,0,0-.17-1.23A3.89,3.89,0,0,0,26.76,60.94ZM21,72.34a2.53,2.53,0,0,1-.76-.11,1.55,1.55,0,0,1-.56-.32l0,0a1.62,1.62,0,0,1-.48-1.25,1.87,1.87,0,0,1,.5-1.38,5.39,5.39,0,0,1,2-1l2.21-.76a3.61,3.61,0,0,0,.77-.35v1c0,.15,0,.3,0,.45a4.43,4.43,0,0,1-1,2.66A3.27,3.27,0,0,1,21,72.34Z" fill="#d41317"/>
      <path d="M123,59.49a3,3,0,0,1-.89.18,3.27,3.27,0,0,1-1.11-.24l-.33-.12v15h2.86v-15l-.33.12Z" fill="#d41317"/>
      <path d="M67.09,61.28,66.85,61a6.42,6.42,0,0,0-5-1.89,6.12,6.12,0,0,0-4.92,2,8.57,8.57,0,0,0-1.73,5.72,8.56,8.56,0,0,0,1.75,5.69,5.67,5.67,0,0,0,.88.82,5.58,5.58,0,0,0,1.76.92,7.39,7.39,0,0,0,2.26.34,6.06,6.06,0,0,0,4.94-2.13,9.2,9.2,0,0,0,1.72-6A10.91,10.91,0,0,0,68,63,6.17,6.17,0,0,0,67.09,61.28Zm-5.25,10.8a3.57,3.57,0,0,1-2-.55A3.53,3.53,0,0,1,59,70.8c-.09-.12-.16-.26-.24-.38A6.25,6.25,0,0,1,58,67.13a6.41,6.41,0,0,1,1-3.89A3.31,3.31,0,0,1,61.84,62a4,4,0,0,1,2.46.68,3.05,3.05,0,0,1,.45.43c.09.11.16.25.24.37a6.47,6.47,0,0,1,.69,3.27,6.88,6.88,0,0,1-1,4A3.25,3.25,0,0,1,61.84,72.08Z" fill="#d41317"/>
      <path d="M123.44,56.05a2.85,2.85,0,0,0-2.7,0,1.25,1.25,0,0,0-.51,1.07,1.27,1.27,0,0,0,.51,1.07,1.76,1.76,0,0,0,.5.22,2.19,2.19,0,0,0,.54.08,2.61,2.61,0,0,0,.31,0,2.21,2.21,0,0,0,1.34-.34,1.17,1.17,0,0,0,.49-.85,1.46,1.46,0,0,0,0-.22,1.65,1.65,0,0,0,0-.32A1.2,1.2,0,0,0,123.44,56.05Z" fill="#d41317"/>
      <path d="M105.85,61.28a3.92,3.92,0,0,0-.25-.32,6.38,6.38,0,0,0-5-1.89,6.12,6.12,0,0,0-4.92,2,8.57,8.57,0,0,0-1.74,5.72,8.51,8.51,0,0,0,1.76,5.69,6.09,6.09,0,0,0,.87.82,5.63,5.63,0,0,0,1.77.92,7.34,7.34,0,0,0,2.26.34,6.06,6.06,0,0,0,4.94-2.13,9.2,9.2,0,0,0,1.72-6,10.91,10.91,0,0,0-.51-3.48A5.85,5.85,0,0,0,105.85,61.28Zm-5.25,10.8a3.57,3.57,0,0,1-2-.55,3.53,3.53,0,0,1-.82-.73c-.09-.12-.16-.26-.24-.38a6.25,6.25,0,0,1-.79-3.29,6.41,6.41,0,0,1,1-3.89A3.31,3.31,0,0,1,100.6,62a4,4,0,0,1,2.45.68,2.69,2.69,0,0,1,.46.43,2.85,2.85,0,0,1,.23.37,6.36,6.36,0,0,1,.7,3.27,6.88,6.88,0,0,1-1,4A3.25,3.25,0,0,1,100.6,72.08Z" fill="#d41317"/>
      <path d="M150.73,61a.21.21,0,0,0,0-.06,5.26,5.26,0,0,0-4.47-1.91,5.79,5.79,0,0,0-4.68,2.16,8.58,8.58,0,0,0-1.76,5.61,8.62,8.62,0,0,0,1.72,5.68,5.68,5.68,0,0,0,.9.87,5.78,5.78,0,0,0,1.74.91,7.28,7.28,0,0,0,2.14.31,6.2,6.2,0,0,0,2.66-.62,8.93,8.93,0,0,0,2.48-1.81l.08-.08,0-.56-.05-.68-.1-1.36-.44-.13a8.4,8.4,0,0,1-2.17,2.06,4.09,4.09,0,0,1-2.17.65,3.68,3.68,0,0,1-2.08-.58,3.3,3.3,0,0,1-.8-.7c-.09-.12-.16-.25-.25-.38a5.81,5.81,0,0,1-.78-2.6h9.44l0-1a13.21,13.21,0,0,0-.56-4.15A5.63,5.63,0,0,0,150.73,61ZM149,63.18c.05.07.09.16.14.23a5.31,5.31,0,0,1,.64,1.89h-7a4.8,4.8,0,0,1,.78-2.11A3.08,3.08,0,0,1,146.24,62a3.39,3.39,0,0,1,2.16.64A2.9,2.9,0,0,1,149,63.18Z" fill="#d41317"/>
    </g>
  </g>
</svg>
