<svg id="dschool" xmlns="http://www.w3.org/2000/svg" viewBox="0 0 225 148">
  <title>logo_hpi_dschool</title>
  <g id="container">
    <rect width="225" height="148" fill="none"/>
  </g>
  <g>
    <g>
      <g>
        <g>
          <path d="M68.64,47.16A4.34,4.34,0,0,0,66,48.51c-.27,0-.33.05-.3.25-3.89,2.83.93,5.69,1.59,8.47.83,1.6-1.26,3.25-2.19,4.63.36.45,1,.18,1.62.25a4.26,4.26,0,0,0,2.78-2.43,4.75,4.75,0,0,0-.75-5.51c-.45-1.6-3.2-3-1.46-4.78.62.3.41-.6.89-.15,0,.25.42.07.57.15.36-.6,1.71-.8,1.47-1.7-.48-.3-1-1.23-1.59-.53Z" fill="#5a5f62"/>
          <path d="M72.73,60.4l.26.28a2.23,2.23,0,0,0,1.65,1h0c.5.29,1.24-.19,1.78-.54l.23-.14a1.26,1.26,0,0,1,.14-.43,1.44,1.44,0,0,0,.15-.46A.11.11,0,0,0,77,60c0-.05-.16-.06-.38,0-1.26-.31-1.8-1.55-2.2-2.82a1.66,1.66,0,0,1-.21-.77c0-.67.57-1.11,1.13-1.54a3.07,3.07,0,0,0,1.23-1.42,1.09,1.09,0,0,0,.19-.59.4.4,0,0,0,0-.17.21.21,0,0,0-.18-.11h-.14l.09-.11c.18-.23.18-.29.18-.29a.57.57,0,0,0-.23,0c-.23,0-.57,0-.68-.25-2.14.6-3,2.72-3.43,4.51a7.21,7.21,0,0,0-.2,1.6,4.8,4.8,0,0,0,.63,2.42Z" fill="#5a5f62"/>
          <path d="M82.28,59.35a5.72,5.72,0,0,1-.19-1.23,2.41,2.41,0,0,1,.09-.64l0,0,0,0a1.21,1.21,0,0,1,1.06.07c.43.3.46,1,.48,1.72a3.33,3.33,0,0,0,.3,1.54c.13,0,.19.11.23.19s.06.1.08.1a3.1,3.1,0,0,1,.85-.1c.67,0,1.3,0,1.38-.75A6.66,6.66,0,0,1,85.84,57,7.63,7.63,0,0,1,86,55.37l0-.06h0a0,0,0,0,0,0,0,2.8,2.8,0,0,1-.43-1.12A2.61,2.61,0,0,0,85.15,53a.66.66,0,0,0-.49-.21c-.22,0-.39.29-.58.57a1.64,1.64,0,0,1-.73.72c0,.08,0,.31,0,.31a1.77,1.77,0,0,0,0,.23.57.57,0,0,0,.11.38l0,0v0c-.08.6-.7.56-1.15.53a1.28,1.28,0,0,0-.44,0l-.09,0v-.08a2.82,2.82,0,0,1,0-.4,4.48,4.48,0,0,1,.12-1,4.07,4.07,0,0,0,.11-.78,2.17,2.17,0,0,0-.1-.64c0-.07-.11-.09-.22-.11s-.21,0-.26-.11l0-.13h-.18c-.56,0-1-.05-1.22.41v0h0c-1.06.56-.72,2.06-.47,3.16l0,.17a12.18,12.18,0,0,1,.1,1.74c0,1.42,0,3,.75,3.61a1,1,0,0,0,.86.21c1-.28,1.22-.75,1.22-1.32a5.17,5.17,0,0,0-.16-1Z" fill="#5a5f62"/>
          <path d="M94.11,59.21a2.77,2.77,0,0,1-2.38.71h0l0,0c-.24-.27-1-1.23-.58-2.09a.71.71,0,0,0,.13-.51c0-.27,0-.57.36-.64a2.73,2.73,0,0,1,2.43.69l.47.32a.62.62,0,0,1,.15.55c0,.18,0,.34.11.44l.08.07-.73.49Zm2.4-3.55h0a2.1,2.1,0,0,0-.93-.74,2.17,2.17,0,0,1-.74-.52A1.32,1.32,0,0,1,94,54a1.44,1.44,0,0,0-.65-.38.41.41,0,0,1-.08.13l-.14.2-.05-.11c-.09-.17-.17-.26-.24-.28s-.17.06-.27.14a.77.77,0,0,1-.82.19A8.72,8.72,0,0,0,89,58l-.15.35a6.69,6.69,0,0,0-.18,1.47A2.92,2.92,0,0,0,89,61.17c2.2,1.18,4.6.58,7.33-1.8a5.69,5.69,0,0,0,.6-2.3,2.37,2.37,0,0,0-.41-1.41Z" fill="#5a5f62"/>
          <path d="M104.24,59.21a2.78,2.78,0,0,1-2.38.71h0l0,0c-.24-.27-1-1.23-.57-2.09a.77.77,0,0,0,.13-.51c0-.27,0-.57.36-.64a2.7,2.7,0,0,1,2.42.69l.48.32a.62.62,0,0,1,.15.55c0,.18,0,.34.11.44l.07.07-.72.49Zm2.4-3.55h0a2.16,2.16,0,0,0-.93-.74,2.31,2.31,0,0,1-.75-.52,1.29,1.29,0,0,1-.81-.42,1.5,1.5,0,0,0-.65-.38.41.41,0,0,1-.08.13l-.14.2-.06-.11c-.08-.17-.16-.26-.23-.28s-.17.06-.28.14a.77.77,0,0,1-.82.19A8.79,8.79,0,0,0,99.15,58l-.14.35a6.69,6.69,0,0,0-.18,1.47,2.92,2.92,0,0,0,.29,1.39c2.2,1.18,4.6.58,7.33-1.8a5.69,5.69,0,0,0,.6-2.3,2.44,2.44,0,0,0-.41-1.41Z" fill="#5a5f62"/>
          <path d="M114.55,59.4h-.1a1.89,1.89,0,0,0-1.1.25c-.38.18-.74.51-1.26,0l0,0v0a10.93,10.93,0,0,1-.06-1.15,24.4,24.4,0,0,1,.31-3.4,18.42,18.42,0,0,0,.21-2.17.5.5,0,0,1-.23,0c-.17,0-.26-.23-.34-.39s-.16-.33-.29-.36a.43.43,0,0,0-.34.08,3.71,3.71,0,0,0-1,.84s-.36.38-.41.42v0a14.55,14.55,0,0,1-.32,2.67,13.9,13.9,0,0,0-.3,2.44,4.67,4.67,0,0,0,.71,2.56,1.79,1.79,0,0,0,1.61.44c.32,0,1.06,0,1.34-.21a2.38,2.38,0,0,1,1.54-.49,2.33,2.33,0,0,0,1.21-.28h.09a.86.86,0,0,0,.89,0,1.75,1.75,0,0,0,.07-.51.52.52,0,0,0-.07-.25h0c-.31-.59-1.47-.54-2.15-.51Z" fill="#5a5f62"/>
        </g>
        <g>
          <path d="M129,58.73a2.76,2.76,0,0,1-2.39.71h0l0,0c-.24-.28-1-1.24-.57-2.1a.83.83,0,0,0,.13-.51c0-.27,0-.57.35-.64a2.75,2.75,0,0,1,2.43.69l.48.33a.63.63,0,0,1,.14.54c0,.18,0,.34.11.45l.08.07-.72.48Zm2.4-3.54h0a2.14,2.14,0,0,0-.94-.75,2.4,2.4,0,0,1-.74-.51,1.38,1.38,0,0,1-.82-.43,1.43,1.43,0,0,0-.65-.37.57.57,0,0,1-.08.13l-.13.19-.06-.11c-.09-.17-.16-.26-.23-.28s-.17.06-.28.15a.75.75,0,0,1-.82.18,8.72,8.72,0,0,0-2.74,4.09l-.15.36a6.58,6.58,0,0,0-.18,1.46,3,3,0,0,0,.3,1.4c2.19,1.18,4.6.58,7.33-1.81a5.62,5.62,0,0,0,.59-2.3,2.4,2.4,0,0,0-.4-1.4Z" fill="#5a5f62"/>
          <path d="M134.85,51.63a.54.54,0,0,0-.19,0,2.64,2.64,0,0,0-1,2,2.4,2.4,0,0,0,.05.46,1.2,1.2,0,0,1,.56,1.1,5.47,5.47,0,0,1-.24,1.32s-.15.63-.16.66a1.89,1.89,0,0,1,.17.8,5.75,5.75,0,0,1-.19,1.2,5.85,5.85,0,0,0-.2,1.32,2.93,2.93,0,0,0,.06.58.71.71,0,0,0,.74.26,1.91,1.91,0,0,1,.53,0,1.28,1.28,0,0,0,1.14-1.49c0-.28,0-.58-.06-.88s-.06-.6-.06-.89a2.28,2.28,0,0,1,.18-1,3.41,3.41,0,0,1,2.55-.94l.53-.05a.62.62,0,0,1,.54-.17H140c.13-.22.47-.28.8-.32s.53-.07.57-.19v0c0-.06,0-.18-.26-.41l-.1-.1.14,0a.76.76,0,0,0,.41-.21l.12-.09-.67,0a9.55,9.55,0,0,0-2.43.06,1.94,1.94,0,0,0-.82.2,1,1,0,0,1-1.2-.07l0,0v0c.12-1.16.91-1.16,1.75-1.14A2.22,2.22,0,0,0,140.2,53v0h0c.41-.13.52-.24.53-.32h0c0-.11-.15-.24-.3-.37s-.43-.37-.43-.61h0a.51.51,0,0,1,.17-.33,14,14,0,0,0-5,.16.32.32,0,0,1-.36.13Z" fill="#5a5f62"/>
        </g>
      </g>
      <g>
        <g>
          <path d="M78.12,65c-.65.51-1,0-1.64.44-1.88-.25-3.43.46-5.16.22-.52.46-1.57.46-1.63,1.34-.44.51.21.93.4,1.37a1.45,1.45,0,0,0,1.63-.29c.68.09,1.09-.52,1.49.19-.37,1.93-.37,5.13-.53,7,.34,1.22-.74,2.59.4,3.45,1,0,1.64-.66,2.35-.86.31-.68-.18-1.15-.43-1.76,0-2.24-.13-6,.12-8.25.93-.88,1.58.34,2.6-.1.74-.46,2.07-.93,1.63-2.07A2.22,2.22,0,0,0,78.12,65Z" fill="#5a5f62"/>
          <path d="M89.94,70.16a.29.29,0,0,0-.06.21v.09H89.8c-.31,0-.38.14-.48.39a.9.9,0,0,1-.43.54c0,.08,0,2,0,2q0,.75,0,1.47a14.18,14.18,0,0,0,.33,3.34,0,0,0,0,0,0,0s0,0,.1.09a.29.29,0,0,1,.19.25,0,0,0,0,0,0,0,3.71,3.71,0,0,0,2.38-.7,12.26,12.26,0,0,1-.27-3V73.44a13.18,13.18,0,0,0-.24-2.93.4.4,0,0,1-.37,0,.54.54,0,0,1-.33-.39l-.29,0c-.16,0-.32,0-.39,0Z" fill="#5a5f62"/>
          <path d="M94.13,71.26a1,1,0,0,0,.45.76l.39.38,0,0v0a24.2,24.2,0,0,0-.17,2.84A26.58,26.58,0,0,0,95,78.25c.06.06.17.07.33.07s.43,0,.5.26h.08c.25,0,.41,0,.5-.22l0-.07.08,0a.74.74,0,0,0,.62-.06c.18-.17.14-.57.1-1A1.9,1.9,0,0,1,97.38,76l.08-.12.09.12c.71.92,1.59,1.87,2.77,1.85h.05c.21.1.34,0,.54-.09a1.17,1.17,0,0,1,.58-.19,10,10,0,0,0,.68-2.82h0a.69.69,0,0,0-.12.1h-.21a2.4,2.4,0,0,1,0-.46,5.13,5.13,0,0,1,.22-1.29,5.72,5.72,0,0,0,.22-1.26,1.59,1.59,0,0,1-.13-.73.92.92,0,0,0-.15-.65.67.67,0,0,0-.45-.1,2.72,2.72,0,0,1-.46.34.44.44,0,0,1-.55.19h-.12s0,0,0,.18a.22.22,0,0,0,0,.08,12.15,12.15,0,0,0-.16,1.27,11.77,11.77,0,0,1-.38,2.29l-.07.24-.62-1.11A6.15,6.15,0,0,0,98,72.17l-.28-.44c-.24-.38-.51-.81-.77-.88h0l0,0a1.66,1.66,0,0,0-1.33-.68l-.48.33a3.13,3.13,0,0,0-.93.81Z" fill="#5a5f62"/>
          <path d="M105.13,70.19h-.06a.25.25,0,0,0-.2.1.91.91,0,0,0-.14.54,2.11,2.11,0,0,0,0,.25,17.24,17.24,0,0,1,.55,4.46c0,.84.06,1.7.15,2.5a2.77,2.77,0,0,0,2.27.11c.67-.28.55-.81.42-1.42a1.9,1.9,0,0,1,0-1.2l.09-.21,0,.23c0,.2.21.24.49.29s.48.09.58.33a4.22,4.22,0,0,1,2.28,1.23,4.33,4.33,0,0,0,2.26,1.2c.07-.28.34-.3.54-.31a.51.51,0,0,0,.35-.08.26.26,0,0,0,0-.17.09.09,0,0,0,0-.05v-.14l.13.09a.27.27,0,0,1,.15.19.28.28,0,0,0,.17-.12.51.51,0,0,0,.06-.25.54.54,0,0,0-.08-.28h-.07c-.13,0-.28,0-.34-.17l0,0c-.12-.15-.27-.29-.45-.24h0l0,0a12.68,12.68,0,0,0-2.3-1.81,13.12,13.12,0,0,1-2.33-1.81l0,0,0,0a.83.83,0,0,1,.84-.32h.08a6.26,6.26,0,0,1,1.07-.62,5.83,5.83,0,0,0,1.36-.87,1.81,1.81,0,0,1-.15-.48,1.14,1.14,0,0,0-.34-.79.65.65,0,0,0-.5,0c-.84.44-1.69.8-2.5,1.15l-.9.39c-.43.13-.71.13-.89,0a.71.71,0,0,1-.2-.59,3.64,3.64,0,0,1,0-.45c0-.16,0-.32,0-.48a.87.87,0,0,0-.23-.69c-.11.11-.2.17-.29.16s-.21-.18-.29-.34-.16-.35-.3-.39a.46.46,0,0,0-.31.08l-.12.08c-.43.27-.77.48-.86,1v.06Z" fill="#5a5f62"/>
          <path d="M117.57,70.16a.36.36,0,0,0,0,.21v.09h-.09c-.31,0-.38.14-.48.39a.9.9,0,0,1-.43.54c0,.08,0,2,0,2q0,.75,0,1.47a14.18,14.18,0,0,0,.33,3.34,0,0,0,0,0,0,0s0,0,.1.09a.29.29,0,0,1,.19.25,0,0,0,0,0,0,0,3.71,3.71,0,0,0,2.38-.7,12.26,12.26,0,0,1-.27-3V73.45a13.22,13.22,0,0,0-.24-2.94.4.4,0,0,1-.37,0,.54.54,0,0,1-.33-.39l-.29,0a.64.64,0,0,0-.4,0Z" fill="#5a5f62"/>
          <path d="M121.94,71.26a1,1,0,0,0,.46.76l.39.38,0,0v0a24.56,24.56,0,0,0,0,5.77c0,.06.16.07.32.07s.43,0,.5.26h.08c.26,0,.41,0,.51-.22l0-.07.08,0a.72.72,0,0,0,.61-.06c.19-.17.15-.57.11-1A1.9,1.9,0,0,1,125.2,76l.08-.12.09.12c.7.92,1.58,1.87,2.77,1.85h0c.22.1.35,0,.54-.09a1.25,1.25,0,0,1,.59-.19,10.69,10.69,0,0,0,.68-2.82h0a.85.85,0,0,0-.13.1h-.2a1.8,1.8,0,0,1-.05-.46,5.61,5.61,0,0,1,.21-1.29,4.75,4.75,0,0,0,.22-1.26,1.58,1.58,0,0,1-.12-.73c0-.26,0-.52-.15-.65a.68.68,0,0,0-.45-.1,2.72,2.72,0,0,1-.46.34.44.44,0,0,1-.55.19h-.12s0,0,0,.18v.08c-.07.35-.11.8-.16,1.27a11.07,11.07,0,0,1-.37,2.29l-.07.24-.62-1.11a6.38,6.38,0,0,0-1.13-1.67l-.29-.44c-.23-.38-.5-.81-.76-.88h0l0,0a1.68,1.68,0,0,0-1.34-.68l-.47.33a3,3,0,0,0-.94.81Z" fill="#5a5f62"/>
          <path d="M82.05,76.2A6,6,0,0,1,81.87,75,2,2,0,0,1,82,74.3v0h0a1.2,1.2,0,0,1,1.06.07c.43.31.46,1,.49,1.75a3.15,3.15,0,0,0,.3,1.56.27.27,0,0,1,.22.2c0,.1.07.11.09.1a3,3,0,0,1,.84-.1c.67,0,1.3,0,1.38-.76a6.82,6.82,0,0,1-.77-3.23,8.11,8.11,0,0,1,.18-1.7l0,0a0,0,0,0,1,0,0,2.73,2.73,0,0,1-.43-1.15,2.77,2.77,0,0,0-.46-1.19.62.62,0,0,0-.49-.21c-.23,0-.4.29-.58.57a1.63,1.63,0,0,1-.74.73c0,.09,0,.32,0,.32s0,.16,0,.23a.61.61,0,0,0,.11.39l0,0v0c-.07.61-.69.57-1.14.54a1.34,1.34,0,0,0-.45,0l-.08,0v-.09a2.8,2.8,0,0,1,0-.4,4.76,4.76,0,0,1,.12-1,3.42,3.42,0,0,0,.11-.79,2.29,2.29,0,0,0-.1-.65c0-.07-.1-.09-.22-.11a.31.31,0,0,1-.26-.11,1.13,1.13,0,0,1,0-.14H81c-.56,0-1,0-1.22.41v0h0c-1.06.56-.72,2.09-.47,3.21l0,.17a12.54,12.54,0,0,1,.1,1.77c0,1.44.05,3.08.75,3.68a1.06,1.06,0,0,0,.87.21c1-.29,1.21-.76,1.21-1.35a5.26,5.26,0,0,0-.16-1Z" fill="#5a5f62"/>
          <path d="M137.24,77a1.34,1.34,0,0,0-.31.25l-.05.06-.06,0a5.08,5.08,0,0,1-1.57-2.56l0-.08.08,0a2.49,2.49,0,0,1,2.67.76l.21.19v0c.12.68-.52,1.13-.94,1.42Zm4-4.86c-.93-.69-3-.21-4.44.14l-1.2.26-.5.47,0-.1a2.57,2.57,0,0,1-.23-1,3.7,3.7,0,0,1,.42-1.52,3.66,3.66,0,0,0,.38-1.39,2,2,0,0,0-.1-.61l-.05.05c-.09.09-.2.2-.34.18a.29.29,0,0,1-.21-.16c-.18-.11-.55-.33-.85-.15l-.13.2a7.28,7.28,0,0,0-1.3,3.18c-.79,2.26.68,5,2.37,6.64a2.48,2.48,0,0,0,2.45,0l.2,0c.1,0,.15.16.19.25l0-.08h0c.66-.11,1.14-.93,1.46-1.47l.14-.22a2,2,0,0,0,.45-1.22,2.19,2.19,0,0,0-.68-1.5l-.08-.08.11,0a4.4,4.4,0,0,1,.94-.16c.66-.07,1.48-.15,1.48-.53v0a1.31,1.31,0,0,0-.5-1.06Z" fill="#5a5f62"/>
        </g>
        <g>
          <path d="M24.71,73.89a2,2,0,0,1-.17.73,1.16,1.16,0,0,0-.12.45.74.74,0,0,0,.24.5c.83.07,1,.8,1.1,1.5a2.21,2.21,0,0,0,.44,1.17c1.09.86,2.78.23,3.71-.23a5.29,5.29,0,0,1,.27-.85,2.76,2.76,0,0,0,.22-.78.38.38,0,0,0,0-.15l-.05,0c-.09.09-.21.22-.38.13l-.1-.09a.43.43,0,0,1-.19-.26.63.63,0,0,1-.36-.1.46.46,0,0,1-.1-.07v0a.73.73,0,0,0,0,.18v0l0,0c-.35.35-.6.12-.82-.08a1,1,0,0,0-.34-.25h0v0a1.27,1.27,0,0,1-.17-.57.45.45,0,0,1,0-.2c.11-.25.43-.33.76-.41a1.74,1.74,0,0,0,.89-.41h0a.74.74,0,0,1,0-.12V74l-.08,0,0-.05a.23.23,0,0,1-.06-.16.29.29,0,0,1,0-.09.82.82,0,0,1,.28-.38A13.12,13.12,0,0,1,28,73.22l-.27,0,.08-.11c.07-.07.07-.21.08-.36a.77.77,0,0,1,.2-.62,1.14,1.14,0,0,1,.85-.16,1.16,1.16,0,0,0,.87-.15,1.34,1.34,0,0,1,1.06-.12.7.7,0,0,1,.36-.48c.1-.07.19-.13.2-.21v0a.55.55,0,0,0-.15-.3c-.39-.07-.47-.12-.47-.2h0c0-.11.13-.12.4-.16h0l-.22,0h0a1.94,1.94,0,0,0-1.79-.09l-1.1.13a8,8,0,0,1-1.93.13,3,3,0,0,0-1.52,2.71,5.4,5.4,0,0,0,0,.56,1.8,1.8,0,0,1,0,.22Z" fill="#5a5f62"/>
          <path d="M36.75,73.66a8.58,8.58,0,0,1-.87-1c-.45-.26-.67-.52-.7-.8s.36-.78.79-1.16.91-.82.89-1.3v0a.28.28,0,0,0,0-.37.8.8,0,0,0-.88-.13,3.84,3.84,0,0,0-2.82,2l-.13.62a5.76,5.76,0,0,0-.2,1.3,1.61,1.61,0,0,0,.4,1.14l.49.66A3.35,3.35,0,0,0,34,75l0,.06,0-.06a1.47,1.47,0,0,1,.44.55,1.52,1.52,0,0,0,.63.69l.07,0,0,.07a2.59,2.59,0,0,1-.62.65,2.79,2.79,0,0,0-.6.63,1.28,1.28,0,0,0,1.18,1,3.47,3.47,0,0,0,3-1.76c.4-1.54-.44-2.37-1.32-3.25Z" fill="#5a5f62"/>
          <path d="M41.24,70.21a.29.29,0,0,0-.06.21v.09H41.1c-.31,0-.39.14-.48.39a.9.9,0,0,1-.43.54c0,.09,0,2,0,2,0,.5,0,1,0,1.48a14.09,14.09,0,0,0,.33,3.33v0s0,0,.1.09a.3.3,0,0,1,.19.25v0a3.65,3.65,0,0,0,2.38-.7,12.21,12.21,0,0,1-.27-3V73.5a13.9,13.9,0,0,0-.24-2.94.4.4,0,0,1-.37,0,.52.52,0,0,1-.33-.39l-.29,0c-.16,0-.32,0-.39,0Z" fill="#5a5f62"/>
          <path d="M49.83,77.05a1.61,1.61,0,0,0-.31.25l0,.06-.06,0a5,5,0,0,1-1.57-2.56l0-.08.08,0a2.47,2.47,0,0,1,2.66.76l.21.18v0c.12.68-.52,1.12-1,1.42Zm4-4.86c-.93-.69-3-.21-4.44.14,0,0-1.15.24-1.19.26l-.51.47,0-.1a2.42,2.42,0,0,1-.23-1,4,4,0,0,1,.41-1.53A3.41,3.41,0,0,0,48.25,69a2,2,0,0,0-.11-.61l0,0c-.09.09-.2.2-.34.18a.29.29,0,0,1-.21-.16c-.19-.12-.54-.33-.85-.15l-.13.21a7.31,7.31,0,0,0-1.3,3.17c-.78,2.26.69,5,2.38,6.64a2.48,2.48,0,0,0,2.45,0l.19,0a.44.44,0,0,1,.2.25l0-.07h0c.65-.11,1.13-.92,1.45-1.47l.14-.23a1.89,1.89,0,0,0,.46-1.2,2.17,2.17,0,0,0-.69-1.51L51.83,74l.11,0a4,4,0,0,1,.94-.16c.66-.06,1.49-.15,1.49-.53v0a1.34,1.34,0,0,0-.51-1.06Z" fill="#5a5f62"/>
          <path d="M55.37,71.31a1,1,0,0,0,.46.77l.38.38,0,0v.05a22,22,0,0,0-.18,2.84,26.55,26.55,0,0,0,.17,2.92c.06.07.17.08.33.08s.43,0,.5.26h.08c.25,0,.41,0,.51-.21l0-.07h.08c.3.06.51,0,.62-.06s.14-.57.11-1a1.94,1.94,0,0,1,.13-1.26l.09-.11.08.11c.71.93,1.59,1.87,2.77,1.85h0c.21.1.34,0,.54-.08a1.21,1.21,0,0,1,.58-.2,10,10,0,0,0,.68-2.82h0s-.11.08-.12.11h-.21a2.5,2.5,0,0,1,0-.47,5.05,5.05,0,0,1,.22-1.28,5.94,5.94,0,0,0,.22-1.26,1.79,1.79,0,0,1-.13-.73,1,1,0,0,0-.14-.65.63.63,0,0,0-.45-.11,2.72,2.72,0,0,1-.47.35.46.46,0,0,1-.55.19l-.12,0a.45.45,0,0,0,0,.19v.08a12.15,12.15,0,0,0-.16,1.27A12,12,0,0,1,61,74.77L61,75l-.62-1.11a6,6,0,0,0-1.13-1.68l-.28-.44c-.24-.38-.51-.81-.77-.88h0l0,0a1.64,1.64,0,0,0-1.33-.69l-.48.33a3.28,3.28,0,0,0-.93.81Z" fill="#5a5f62"/>
          <path d="M22.86,71.09c-.06-.4-.13-.46-.17-.46h-.05l-.16-.29a12.76,12.76,0,0,0-1.4-2.16A9.86,9.86,0,0,1,20,67.13s-.49-.51-.46-.49a4.78,4.78,0,0,1-1.18-1,2.46,2.46,0,0,0-1.92-1,3,3,0,0,1-.63.47c-.41.26-.81.51-.81.91a1.09,1.09,0,0,0,0,.24.51.51,0,0,1,.35.53c0,.2,0,.33.3.34h.07v.06c.2,1.77.25,3.58.31,5.33s.1,3.41.28,5.14v0a.84.84,0,0,1-.31.31c-.12.08-.21.14-.21.27a.78.78,0,0,0,0,.14v0a.35.35,0,0,0,0,.13c0,.13.12.19.31.27l.18.08a1.36,1.36,0,0,0,1.18,0,3.43,3.43,0,0,1,1.06-.16,1.25,1.25,0,0,1,.24-.4.9.9,0,0,0,.25-.52.39.39,0,0,0-.05-.2v0l0,0a18.44,18.44,0,0,1,1.45-1.62c1.26-1.3,2.46-2.53,2.46-4.39a4.12,4.12,0,0,0,0-.48.62.62,0,0,1,0-.1ZM20,73.35h0l-.39.71a4.4,4.4,0,0,1-1,1.45l-.08.07,0-.1a4.59,4.59,0,0,1-.23-1.94,3.77,3.77,0,0,0-.35-2.11v-1a8.5,8.5,0,0,0-.1-2l0-.21.16.14c1.81,1.53,2.5,3.2,2.07,5Z" fill="#5a5f62"/>
        </g>
      </g>
    </g>
    <g>
      <path d="M57,93.22h-.43a.18.18,0,0,1-.17-.17V90.24H53.52v2.81a.18.18,0,0,1-.17.17h-.43a.17.17,0,0,1-.17-.17v-6a.17.17,0,0,1,.17-.17h.43a.18.18,0,0,1,.17.17v2.45h2.89V87.1a.18.18,0,0,1,.17-.17H57a.18.18,0,0,1,.17.17v6A.18.18,0,0,1,57,93.22Z" fill="#5a5f62"/>
      <path d="M61.57,93.22h-.39a.18.18,0,0,1-.17-.17v-.19a2.52,2.52,0,0,1-1.3.41,1.23,1.23,0,0,1-1.38-1.36V91.8c0-.91.53-1.37,2-1.37H61V90.1c0-.71-.24-1-.9-1a10.88,10.88,0,0,0-1.3.07h0a.13.13,0,0,1-.15-.14v-.29c0-.1.06-.15.18-.16a7.1,7.1,0,0,1,1.31-.11c1.17,0,1.65.59,1.65,1.59v3A.18.18,0,0,1,61.57,93.22ZM61,91h-.62c-1,0-1.3.23-1.3.83v.1c0,.61.29.77.78.77A2.3,2.3,0,0,0,61,92.33Z" fill="#5a5f62"/>
      <path d="M64.33,93.27A6.55,6.55,0,0,1,63,93.15c-.11,0-.18-.08-.18-.17v-.3a.14.14,0,0,1,.15-.12h0c.4,0,1,.09,1.32.09.55,0,.84-.14.84-.6,0-.25-.15-.41-.63-.7l-.86-.51a1.45,1.45,0,0,1-.86-1.21c0-.88.66-1.12,1.53-1.12a7.74,7.74,0,0,1,1.32.11.15.15,0,0,1,.16.17v.27c0,.11-.06.15-.14.15h0c-.3,0-.84-.07-1.31-.07s-.79.06-.79.49c0,.26.2.42.59.64l.83.5c.71.42.93.78.93,1.28C65.91,92.91,65.28,93.27,64.33,93.27Z" fill="#5a5f62"/>
      <path d="M68.36,93.27A6.65,6.65,0,0,1,67,93.15c-.11,0-.18-.08-.18-.17v-.3c0-.07.07-.12.16-.12h0c.41,0,1,.09,1.33.09.55,0,.84-.14.84-.6,0-.25-.16-.41-.64-.7l-.85-.51a1.44,1.44,0,0,1-.87-1.21c0-.88.66-1.12,1.53-1.12a7.57,7.57,0,0,1,1.32.11.15.15,0,0,1,.16.17v.27c0,.11-.06.15-.14.15h0c-.3,0-.84-.07-1.32-.07s-.78.06-.78.49c0,.26.19.42.58.64l.84.5c.7.42.93.78.93,1.28C69.94,92.91,69.3,93.27,68.36,93.27Z" fill="#5a5f62"/>
      <path d="M72.75,93.27c-1.25,0-1.88-.81-1.88-2.06v-.64a1.89,1.89,0,1,1,3.76,0v.64A1.8,1.8,0,0,1,72.75,93.27Zm1.14-2.7c0-.86-.35-1.41-1.14-1.41s-1.14.54-1.14,1.41v.64c0,.86.34,1.41,1.14,1.41s1.14-.54,1.14-1.41Z" fill="#5a5f62"/>
      <path d="M77.39,91.05H75.71c-.1,0-.17,0-.17-.14v-.33a.15.15,0,0,1,.17-.15h1.68a.15.15,0,0,1,.16.15v.33A.15.15,0,0,1,77.39,91.05Z" fill="#5a5f62"/>
      <path d="M80.31,90.71c-.28,0-.63,0-.85,0v2.38a.16.16,0,0,1-.15.17h-.46a.17.17,0,0,1-.15-.17v-5.9a.21.21,0,0,1,.2-.21,14.1,14.1,0,0,1,1.41-.07c1.36,0,2.36.48,2.36,1.84v.11C82.67,90.23,81.67,90.71,80.31,90.71Zm1.59-2c0-.85-.5-1.18-1.59-1.18-.27,0-.65,0-.85,0V90l.85,0c1.15,0,1.59-.37,1.59-1.25Z" fill="#5a5f62"/>
      <path d="M84.39,93.22H84a.16.16,0,0,1-.15-.17V87a.15.15,0,0,1,.15-.16h.44a.15.15,0,0,1,.15.16v6A.16.16,0,0,1,84.39,93.22Z" fill="#5a5f62"/>
      <path d="M88.93,93.22h-.39a.18.18,0,0,1-.17-.17v-.19a2.52,2.52,0,0,1-1.3.41,1.23,1.23,0,0,1-1.38-1.36V91.8c0-.91.54-1.37,2-1.37h.63V90.1c0-.71-.25-1-.91-1a10.69,10.69,0,0,0-1.29.07h0a.13.13,0,0,1-.15-.14v-.29c0-.1.06-.15.18-.16a7.27,7.27,0,0,1,1.31-.11c1.18,0,1.65.59,1.65,1.59v3A.18.18,0,0,1,88.93,93.22ZM88.36,91h-.63c-1,0-1.29.23-1.29.83v.1c0,.61.28.77.77.77a2.37,2.37,0,0,0,1.15-.34Z" fill="#5a5f62"/>
      <path d="M92.44,93.23a3.27,3.27,0,0,1-.54,0c-.78,0-1.15-.2-1.15-1.13v-3l-.82-.09c-.1,0-.17-.06-.17-.16v-.22a.15.15,0,0,1,.17-.15h.82v-.83a.16.16,0,0,1,.15-.17l.44-.07h0a.13.13,0,0,1,.13.14v.93h.91a.16.16,0,0,1,.17.16V89a.17.17,0,0,1-.17.17h-.91v3c0,.47.12.53.46.53h.47q.18,0,.18.12v.3C92.6,93.17,92.56,93.22,92.44,93.23Z" fill="#5a5f62"/>
      <path d="M95.79,93.23a3.48,3.48,0,0,1-.55,0c-.78,0-1.15-.2-1.15-1.13v-3l-.82-.09c-.1,0-.17-.06-.17-.16v-.22a.15.15,0,0,1,.17-.15h.82v-.83a.16.16,0,0,1,.15-.17l.44-.07h0a.13.13,0,0,1,.13.14v.93h.91a.16.16,0,0,1,.17.16V89a.17.17,0,0,1-.17.17h-.91v3c0,.47.12.53.46.53h.47q.18,0,.18.12v.3C95.94,93.17,95.9,93.22,95.79,93.23Z" fill="#5a5f62"/>
      <path d="M100.37,93.22H100a.18.18,0,0,1-.17-.17V90.27c0-.86-.28-1.12-.93-1.12a2.62,2.62,0,0,0-1.14.33v3.57a.18.18,0,0,1-.17.17h-.41a.17.17,0,0,1-.16-.17V88.73a.16.16,0,0,1,.16-.16h.42a.16.16,0,0,1,.16.16v.17a2.51,2.51,0,0,1,1.35-.39c1,0,1.47.63,1.47,1.76v2.78A.18.18,0,0,1,100.37,93.22Z" fill="#5a5f62"/>
      <path d="M105.28,91.13h-2.83v.12c0,1,.4,1.37,1.17,1.37a11.57,11.57,0,0,0,1.51-.09h0a.13.13,0,0,1,.14.12v.29c0,.11,0,.17-.17.19a7.94,7.94,0,0,1-1.52.14,1.77,1.77,0,0,1-1.92-2v-.76a1.77,1.77,0,0,1,1.88-2,1.74,1.74,0,0,1,1.86,2v.45C105.44,91.05,105.38,91.13,105.28,91.13Zm-.59-.64c0-1-.36-1.33-1.11-1.33s-1.13.41-1.13,1.33v.07h2.24Z" fill="#5a5f62"/>
      <path d="M108.45,89.15a2.21,2.21,0,0,0-1.17.35v3.55a.17.17,0,0,1-.16.17h-.42a.17.17,0,0,1-.16-.17V88.73a.16.16,0,0,1,.16-.16h.4a.16.16,0,0,1,.16.16v.18a2,2,0,0,1,1.19-.4q.18,0,.18.15V89Q108.63,89.15,108.45,89.15Z" fill="#5a5f62"/>
      <path d="M111.19,91.05h-1.68c-.1,0-.16,0-.16-.14v-.33a.14.14,0,0,1,.16-.15h1.68a.15.15,0,0,1,.16.15v.33A.15.15,0,0,1,111.19,91.05Z" fill="#5a5f62"/>
      <path d="M113.37,93.22h-.46a.16.16,0,0,1-.15-.17v-6a.15.15,0,0,1,.15-.16h.46a.16.16,0,0,1,.16.16v6A.17.17,0,0,1,113.37,93.22Z" fill="#5a5f62"/>
      <path d="M118.49,93.22h-.41a.18.18,0,0,1-.17-.17V90.27c0-.86-.28-1.12-.93-1.12a2.62,2.62,0,0,0-1.14.33v3.57a.18.18,0,0,1-.17.17h-.41a.17.17,0,0,1-.16-.17V88.73a.16.16,0,0,1,.16-.16h.42a.16.16,0,0,1,.16.16v.17a2.51,2.51,0,0,1,1.35-.39c1,0,1.47.63,1.47,1.76v2.78A.18.18,0,0,1,118.49,93.22Z" fill="#5a5f62"/>
      <path d="M121.25,93.27a6.55,6.55,0,0,1-1.33-.12c-.11,0-.18-.08-.18-.17v-.3a.14.14,0,0,1,.15-.12h0c.41,0,1,.09,1.33.09.55,0,.84-.14.84-.6,0-.25-.15-.41-.63-.7l-.86-.51a1.45,1.45,0,0,1-.86-1.21c0-.88.66-1.12,1.53-1.12a7.74,7.74,0,0,1,1.32.11.15.15,0,0,1,.16.17v.27a.13.13,0,0,1-.15.15h0c-.29,0-.84-.07-1.31-.07s-.79.06-.79.49c0,.26.2.42.59.64l.83.5c.7.42.93.78.93,1.28C122.83,92.91,122.2,93.27,121.25,93.27Z" fill="#5a5f62"/>
      <path d="M126.12,93.23a3.48,3.48,0,0,1-.55,0c-.78,0-1.15-.2-1.15-1.13v-3l-.82-.09a.16.16,0,0,1-.16-.16v-.22a.15.15,0,0,1,.16-.15h.82v-.83a.17.17,0,0,1,.16-.17l.43-.07h0a.13.13,0,0,1,.13.14v.93h.91a.17.17,0,0,1,.17.16V89a.18.18,0,0,1-.17.17h-.91v3c0,.47.11.53.45.53h.48c.11,0,.17,0,.17.12v.3C126.27,93.17,126.23,93.22,126.12,93.23Z" fill="#5a5f62"/>
      <path d="M127.91,87.82h-.43a.18.18,0,0,1-.17-.17V87a.17.17,0,0,1,.17-.17h.43a.16.16,0,0,1,.17.17v.67A.17.17,0,0,1,127.91,87.82Zm0,5.4h-.41a.18.18,0,0,1-.17-.17V88.73a.17.17,0,0,1,.17-.16h.41a.17.17,0,0,1,.17.16v4.32A.18.18,0,0,1,127.9,93.22Z" fill="#5a5f62"/>
      <path d="M131.8,93.23a3.39,3.39,0,0,1-.55,0c-.77,0-1.14-.2-1.14-1.13v-3l-.83-.09a.16.16,0,0,1-.16-.16v-.22a.15.15,0,0,1,.16-.15h.83v-.83a.16.16,0,0,1,.15-.17l.44-.07h0a.13.13,0,0,1,.13.14v.93h.91a.16.16,0,0,1,.17.16V89a.17.17,0,0,1-.17.17h-.91v3c0,.47.12.53.46.53h.47q.18,0,.18.12v.3C132,93.17,131.91,93.22,131.8,93.23Z" fill="#5a5f62"/>
      <path d="M136.31,93.22h-.42a.17.17,0,0,1-.16-.17v-.16a2.58,2.58,0,0,1-1.35.38c-1,0-1.47-.63-1.47-1.75V88.73a.17.17,0,0,1,.17-.16h.41a.17.17,0,0,1,.17.16v2.79c0,.85.28,1.11.93,1.11a2.62,2.62,0,0,0,1.14-.33V88.73a.17.17,0,0,1,.17-.16h.41a.16.16,0,0,1,.16.16v4.32A.17.17,0,0,1,136.31,93.22Z" fill="#5a5f62"/>
      <path d="M140,93.23a3.48,3.48,0,0,1-.55,0c-.78,0-1.15-.2-1.15-1.13v-3l-.82-.09a.16.16,0,0,1-.16-.16v-.22a.15.15,0,0,1,.16-.15h.82v-.83a.17.17,0,0,1,.16-.17l.43-.07h0a.13.13,0,0,1,.13.14v.93H140a.17.17,0,0,1,.17.16V89a.18.18,0,0,1-.17.17h-.91v3c0,.47.11.53.45.53H140c.11,0,.18,0,.18.12v.3C140.18,93.17,140.13,93.22,140,93.23Z" fill="#5a5f62"/>
      <path d="M65.09,103.85c-1.37,0-2.16-.72-2.16-2.34V97.67a.16.16,0,0,1,.16-.16h.46a.16.16,0,0,1,.16.16v3.84c0,1.09.33,1.68,1.38,1.68s1.39-.58,1.39-1.68V97.67a.16.16,0,0,1,.16-.16h.46a.16.16,0,0,1,.16.16v3.84C67.26,103.13,66.46,103.85,65.09,103.85Z" fill="#5a5f62"/>
      <path d="M72,103.79h-.4a.17.17,0,0,1-.17-.16v-2.79c0-.85-.29-1.11-.93-1.11a2.58,2.58,0,0,0-1.14.33v3.57a.17.17,0,0,1-.17.16h-.42a.16.16,0,0,1-.16-.16V99.31a.17.17,0,0,1,.16-.17h.43a.17.17,0,0,1,.16.17v.16a2.53,2.53,0,0,1,1.34-.38c1,0,1.47.63,1.47,1.75v2.79A.16.16,0,0,1,72,103.79Z" fill="#5a5f62"/>
      <path d="M74.24,98.4h-.43a.18.18,0,0,1-.17-.17v-.68a.18.18,0,0,1,.17-.17h.43a.18.18,0,0,1,.17.17v.68A.18.18,0,0,1,74.24,98.4Zm0,5.39h-.41a.16.16,0,0,1-.17-.16V99.31a.17.17,0,0,1,.17-.17h.41a.17.17,0,0,1,.16.17v4.32A.16.16,0,0,1,74.23,103.79Z" fill="#5a5f62"/>
      <path d="M79.72,99.35l-1.14,4a.84.84,0,0,1-1.52,0l-1.14-4a.18.18,0,0,1,0-.06.13.13,0,0,1,.13-.15h.47c.06,0,.13,0,.16.16l1,3.69c0,.2.09.25.18.25s.13,0,.18-.25l1-3.69c0-.11.09-.16.16-.16h.46a.13.13,0,0,1,.14.15A.18.18,0,0,1,79.72,99.35Z" fill="#5a5f62"/>
      <path d="M84,101.71H81.18v.11c0,1,.4,1.38,1.18,1.38a11.41,11.41,0,0,0,1.5-.09h0a.12.12,0,0,1,.13.12v.29c0,.11,0,.16-.17.19a7.83,7.83,0,0,1-1.51.14,1.77,1.77,0,0,1-1.92-2v-.76a1.77,1.77,0,0,1,1.88-2,1.75,1.75,0,0,1,1.86,2v.46C84.18,101.63,84.12,101.71,84,101.71Zm-.6-.65c0-1-.36-1.32-1.1-1.32s-1.14.41-1.14,1.32v.08h2.24Z" fill="#5a5f62"/>
      <path d="M87.23,99.73a2.21,2.21,0,0,0-1.17.35v3.55a.17.17,0,0,1-.17.16h-.41a.16.16,0,0,1-.16-.16V99.31a.17.17,0,0,1,.16-.17h.4a.17.17,0,0,1,.16.17v.18a2,2,0,0,1,1.19-.4q.18,0,.18.15v.34Q87.41,99.73,87.23,99.73Z" fill="#5a5f62"/>
      <path d="M89.7,103.85a6.65,6.65,0,0,1-1.34-.12c-.11,0-.18-.08-.18-.17v-.3c0-.07.07-.12.16-.12h0c.41,0,1,.09,1.33.09.55,0,.84-.15.84-.6,0-.26-.16-.42-.64-.7l-.85-.51a1.44,1.44,0,0,1-.87-1.21c0-.88.66-1.12,1.53-1.12a8.76,8.76,0,0,1,1.32.1c.11,0,.16.08.16.17v.28a.13.13,0,0,1-.14.15h0c-.3,0-.84-.07-1.32-.07s-.78.06-.78.49c0,.25.19.41.58.64l.84.5c.7.42.93.78.93,1.28C91.28,103.49,90.64,103.85,89.7,103.85Z" fill="#5a5f62"/>
      <path d="M93.3,98.4h-.43a.18.18,0,0,1-.17-.17v-.68a.18.18,0,0,1,.17-.17h.43a.18.18,0,0,1,.17.17v.68A.18.18,0,0,1,93.3,98.4Zm0,5.39h-.4a.16.16,0,0,1-.17-.16V99.31a.17.17,0,0,1,.17-.17h.4a.17.17,0,0,1,.17.17v4.32A.16.16,0,0,1,93.28,103.79Z" fill="#5a5f62"/>
      <path d="M97.1,103.81a3.31,3.31,0,0,1-.55,0c-.77,0-1.15-.2-1.15-1.13v-3l-.82-.09a.16.16,0,0,1-.16-.16V99.3a.15.15,0,0,1,.16-.16h.82v-.83a.16.16,0,0,1,.16-.16l.44-.07h0a.13.13,0,0,1,.13.14v.92h.91a.18.18,0,0,1,.17.17v.29a.18.18,0,0,1-.17.17h-.91v3c0,.47.12.53.46.53h.47q.18,0,.18.12v.3C97.26,103.74,97.21,103.79,97.1,103.81Z" fill="#5a5f62"/>
      <path d="M101.24,103.79h-.39a.17.17,0,0,1-.17-.16v-.19a2.52,2.52,0,0,1-1.3.41A1.23,1.23,0,0,1,98,102.49v-.11c0-.91.53-1.37,2-1.37h.62v-.34c0-.7-.24-1-.9-1a10.57,10.57,0,0,0-1.29.07h0a.13.13,0,0,1-.15-.14v-.29c0-.1.06-.15.18-.17a8.41,8.41,0,0,1,1.31-.1c1.17,0,1.65.59,1.65,1.58v3A.17.17,0,0,1,101.24,103.79Zm-2-5.41H98.9a.17.17,0,0,1-.17-.17v-.68a.18.18,0,0,1,.17-.17h.33a.18.18,0,0,1,.17.17v.68A.18.18,0,0,1,99.23,98.38Zm1.43,3.17H100c-1,0-1.29.22-1.29.82v.11c0,.6.28.76.77.76a2.29,2.29,0,0,0,1.14-.33Zm0-3.17h-.33a.17.17,0,0,1-.17-.17v-.68a.18.18,0,0,1,.17-.17h.33a.18.18,0,0,1,.17.17v.68A.18.18,0,0,1,100.71,98.38Z" fill="#5a5f62"/>
      <path d="M104.8,103.81a3.48,3.48,0,0,1-.55,0c-.78,0-1.15-.2-1.15-1.13v-3l-.82-.09c-.1,0-.16-.06-.16-.16V99.3a.15.15,0,0,1,.16-.16h.82v-.83a.16.16,0,0,1,.15-.16l.44-.07h0a.13.13,0,0,1,.12.14v.92h.92a.17.17,0,0,1,.16.17v.29a.17.17,0,0,1-.16.17h-.92v3c0,.47.12.53.46.53h.47q.18,0,.18.12v.3C105,103.74,104.91,103.79,104.8,103.81Z" fill="#5a5f62"/>
      <path d="M109.77,101.29c-.27,0-.63,0-.85,0v2.38a.16.16,0,0,1-.15.16h-.46a.16.16,0,0,1-.15-.16v-5.9c0-.12.08-.19.21-.21.36,0,.91-.07,1.4-.07,1.37,0,2.37.48,2.37,1.84v.11C112.14,100.81,111.14,101.29,109.77,101.29Zm1.6-2c0-.86-.51-1.19-1.6-1.19-.26,0-.64,0-.85,0v2.48l.85,0c1.16,0,1.6-.37,1.6-1.25Z" fill="#5a5f62"/>
      <path d="M114.79,103.85a1.81,1.81,0,0,1-1.88-2.06v-.64a1.89,1.89,0,1,1,3.77,0v.64A1.81,1.81,0,0,1,114.79,103.85Zm1.14-2.7c0-.86-.34-1.41-1.14-1.41s-1.13.54-1.13,1.41v.64c0,.86.34,1.41,1.13,1.41s1.14-.54,1.14-1.41Z" fill="#5a5f62"/>
      <path d="M119.87,103.81a3.48,3.48,0,0,1-.55,0c-.78,0-1.16-.2-1.16-1.13v-3l-.82-.09a.16.16,0,0,1-.16-.16V99.3a.15.15,0,0,1,.16-.16h.82v-.83a.17.17,0,0,1,.16-.16l.44-.07h0a.13.13,0,0,1,.13.14v.92h.91a.18.18,0,0,1,.17.17v.29a.18.18,0,0,1-.17.17h-.91v3c0,.47.12.53.46.53h.47q.18,0,.18.12v.3C120,103.74,120,103.79,119.87,103.81Z" fill="#5a5f62"/>
      <path d="M122.29,103.85a6.55,6.55,0,0,1-1.33-.12c-.11,0-.18-.08-.18-.17v-.3a.14.14,0,0,1,.15-.12h0c.41,0,1,.09,1.33.09.55,0,.84-.15.84-.6,0-.26-.15-.42-.64-.7l-.85-.51a1.43,1.43,0,0,1-.86-1.21c0-.88.66-1.12,1.53-1.12a9,9,0,0,1,1.32.1c.11,0,.16.08.16.17v.28a.14.14,0,0,1-.15.15h0c-.3,0-.84-.07-1.31-.07s-.79.06-.79.49c0,.25.2.41.58.64l.84.5c.7.42.93.78.93,1.28C123.87,103.49,123.24,103.85,122.29,103.85Z" fill="#5a5f62"/>
      <path d="M128.24,103.71a8.2,8.2,0,0,1-1.55.14c-1.26,0-1.85-.82-1.85-2.08v-.61c0-1.33.61-2.07,1.85-2.07a6.06,6.06,0,0,1,1,.08V97.6a.15.15,0,0,1,.16-.16h.43a.15.15,0,0,1,.15.16v5.92C128.42,103.63,128.39,103.68,128.24,103.71Zm-.56-3.91a5.54,5.54,0,0,0-1-.06c-.83,0-1.1.51-1.1,1.42v.61c0,.92.26,1.43,1.1,1.43.29,0,.7,0,1,0Z" fill="#5a5f62"/>
      <path d="M132.77,103.79h-.39a.17.17,0,0,1-.17-.16v-.19a2.55,2.55,0,0,1-1.3.41,1.23,1.23,0,0,1-1.38-1.36v-.11c0-.91.53-1.37,2-1.37h.62v-.34c0-.7-.24-1-.9-1a10.88,10.88,0,0,0-1.3.07h0c-.08,0-.15,0-.15-.14v-.29c0-.1.06-.15.18-.17a8.31,8.31,0,0,1,1.31-.1c1.17,0,1.65.59,1.65,1.58v3A.17.17,0,0,1,132.77,103.79Zm-.58-2.24h-.62c-1,0-1.3.22-1.3.82v.11c0,.6.29.76.78.76a2.29,2.29,0,0,0,1.14-.33Z" fill="#5a5f62"/>
      <path d="M139.64,103.79h-.4a.16.16,0,0,1-.17-.16v-3c0-.71-.33-.9-.77-.9a2.84,2.84,0,0,0-1,.23,2.52,2.52,0,0,1,.07.66v3a.16.16,0,0,1-.15.16h-.45a.15.15,0,0,1-.14-.16v-3c0-.74-.21-.89-.65-.89a2.47,2.47,0,0,0-1,.33v3.57a.16.16,0,0,1-.15.16h-.45a.15.15,0,0,1-.15-.16V99.31a.17.17,0,0,1,.16-.17h.43a.17.17,0,0,1,.16.17v.16a2.39,2.39,0,0,1,1.23-.39,1,1,0,0,1,.85.34,3.34,3.34,0,0,1,1.4-.34c.76,0,1.37.38,1.37,1.55v3A.16.16,0,0,1,139.64,103.79Z" fill="#5a5f62"/>
    </g>
    <g>
      <polygon points="202.54 103.85 150.29 103.85 150.29 51.61 202.54 51.61 202.54 103.85 202.54 103.85 202.54 103.85" fill="#b00835"/>
      <polygon points="210 88.93 165.22 88.93 165.22 44.15 210 44.15 210 88.93 210 88.93 210 88.93" fill="#f7a600"/>
      <polygon points="165.22 88.93 202.54 88.93 202.54 51.61 165.22 51.61 165.22 88.93 165.22 88.93 165.22 88.93" fill="#de6106"/>
      <path d="M196.44,57.4h-1.72a.34.34,0,0,0-.35.33V70a.35.35,0,0,0,.35.35h1.72a.35.35,0,0,0,.35-.35V57.73a.34.34,0,0,0-.35-.33Zm-6.47,4c0,1.39-.73,2.08-2.6,2.08-.29,0-1.26,0-1.54,0V59.33c.31,0,1.18-.07,1.54-.07,1.74,0,2.6.55,2.6,2v.16Zm-2.6-4.17a23.5,23.5,0,0,0-3.4.23c-.34,0-.55.17-.55.52V70a.35.35,0,0,0,.35.35h1.73a.34.34,0,0,0,.33-.35V65.42c.4,0,1.09.07,1.54.07,2.67,0,5-1,5-4.06v-.16c0-3.07-2.32-4-5-4Zm-6.93.14h-1.71a.33.33,0,0,0-.35.33v4.79h-4.92V57.73a.34.34,0,0,0-.35-.33h-1.72a.33.33,0,0,0-.34.33V70a.35.35,0,0,0,.34.35h1.72a.35.35,0,0,0,.35-.35V64.64h4.92V70a.35.35,0,0,0,.35.35h1.71a.35.35,0,0,0,.35-.35V57.73a.34.34,0,0,0-.35-.33Z" fill="#fff"/>
    </g>
  </g>
</svg>
