<svg xmlns="http://www.w3.org/2000/svg" viewBox="0 0 225 148">
  <title>logo-xing</title>
  <g id="box">
    <rect width="225" height="148" fill="#fff"/>
  </g>
  <g id="xing">
    <g>
      <path id="path19359" d="M150.78,55.05a.7.7,0,0,0-.66,1.11l3.45,6s0,0,0,0l-5.43,9.58a.82.82,0,0,0,0,.79.75.75,0,0,0,.67.35h5.11a1.56,1.56,0,0,0,1.39-1s5.31-9.39,5.52-9.75L157.32,56a1.6,1.6,0,0,0-1.43-1ZM128.42,66.21c-7.93,0-12.28,4.64-12.28,13.05v8.68c0,8,3.81,12.06,11.33,12.06a28.09,28.09,0,0,0,11.37-2.55V81.67a.84.84,0,0,0-.84-.84H127.88a.84.84,0,0,0-.84.84v4.09a.85.85,0,0,0,.84.84h4.65s0,0,0,0v6.83s0,0,0,0a15.79,15.79,0,0,1-4.92.83c-3.57,0-5.31-2.22-5.31-6.77V79.21a8.31,8.31,0,0,1,1.41-5.29c1-1.31,2.62-1.94,4.86-1.94h1.07a23.43,23.43,0,0,1,7.4,1.25.67.67,0,0,0,.64-.09.75.75,0,0,0,.26-.61v-3.9c0-.44-.22-.69-.87-1a16.47,16.47,0,0,0-7.32-1.4Zm-80.49.38a.59.59,0,0,0-.52.26.72.72,0,0,0,0,.67L55.69,82.6v.06L47,98.49a.67.67,0,0,0,0,.67.56.56,0,0,0,.52.26h5.64c.65,0,.88-.36,1.13-.87L60,87.9s0,0,0,0l0,0,5.82,10.65c.25.51.45.87,1.1.87h5.67a.57.57,0,0,0,.52-.26.59.59,0,0,0,.09-.32.79.79,0,0,0-.09-.35L64.43,82.66V82.6l8.31-15.08a.76.76,0,0,0,.09-.35.59.59,0,0,0-.09-.32.59.59,0,0,0-.52-.26H66.54c-.64,0-.87.37-1.13.87l-5.32,9.9s0,0,0,0,0,0,0,0l-5.33-9.9c-.21-.42-.43-.87-1.12-.87Zm28.59.84V98.58a.85.85,0,0,0,.84.84h4.47a.84.84,0,0,0,.84-.84V67.43a.84.84,0,0,0-.84-.84H77.36A.85.85,0,0,0,76.52,67.43Zm12.92-.84a.87.87,0,0,0-.87.87V98.58a.85.85,0,0,0,.84.84h4.48a.85.85,0,0,0,.84-.84V79.79s0,0,0,0l0,0,9.7,18.76a1.3,1.3,0,0,0,1.13.87h4.68a.85.85,0,0,0,.84-.84V67.43a.85.85,0,0,0-.84-.84h-4.47a.84.84,0,0,0-.84.84V86.19a0,0,0,0,1,0,0s0,0-.06,0L95.21,67.46c-.22-.42-.43-.87-1.13-.87Z"/>
      <path id="path19375" d="M172.21,48a1.49,1.49,0,0,0-1.37,1L159.48,69.11l7.25,13.31a1.62,1.62,0,0,0,1.43,1h5.1a.76.76,0,0,0,.68-.33.8.8,0,0,0,0-.78l-7.2-13.15a0,0,0,0,1,0,0l11.3-20a.78.78,0,0,0,0-.78.76.76,0,0,0-.68-.33Z"/>
    </g>
  </g>
</svg>
