<svg xmlns="http://www.w3.org/2000/svg" viewBox="0 0 225 148">
  <title>logo-ilb</title>
  <g id="box">
    <rect width="225" height="148" fill="#fff"/>
  </g>
  <g id="ilb">
    <g>
      <path id="path3073" d="M155.51,83.39v5a.7.7,0,0,1-.7.7H137.72a.7.7,0,0,1-.7-.7V57.92a.7.7,0,0,1,.7-.71H143a.71.71,0,0,1,.71.71V82.68h11.15a.7.7,0,0,1,.71.7M129.91,57.92V88.38a.71.71,0,0,1-.71.7h-5.28a.7.7,0,0,1-.7-.7V57.92a.71.71,0,0,1,.7-.71h5.28a.71.71,0,0,1,.71.71"/>
      <path id="path3077" d="M173,83.1h-7V75.42h7.07c2.85,0,4.53,1.34,4.53,3.74S176.2,83.1,173,83.1m3.41-16.77c0,2.2-1.29,3.4-3.82,3.4H166V63h6.06c2.75,0,4.3.82,4.3,3.29m3.16,6h0c-.25-.11-.49-.21-.76-.3a1.55,1.55,0,0,1,.22-.12h0A7.93,7.93,0,0,0,183.3,65c0-5.5-3.84-7.79-9.67-7.79H160.06a.7.7,0,0,0-.7.7V88.38a.7.7,0,0,0,.7.7h14.22c5.91,0,10-3.26,10-9.39a7.41,7.41,0,0,0-4.77-7.28"/>
      <path id="path3079" d="M40.7,57.35h1.14v7.54H40.7Z"/>
      <path id="path3083" d="M47,62.05a1.75,1.75,0,0,0-.2-1,1.13,1.13,0,0,0-1-.47,1.75,1.75,0,0,0-1.17.43v3.93h-1V59.66l.72-.17h.27v.57h.09a2.19,2.19,0,0,1,1.4-.49,1.92,1.92,0,0,1,1.52.64A2.46,2.46,0,0,1,48,61.67v3.08H47v-2.7Z"/>
      <path id="path3087" d="M48.81,59.72v-.09h1.11l1.39,4,1.35-4h1v.09l-2,5-.42.12h-.53Z"/>
      <path id="path3091" d="M55.12,61.55l2.51-.11v-.12a.92.92,0,0,0-1-1,1.44,1.44,0,0,0-1.47,1.19v.06Zm-1.18.68a2.51,2.51,0,0,1,2.58-2.71,1.75,1.75,0,0,1,2,1.77,4.92,4.92,0,0,1-.09.86L55,62.27a1.62,1.62,0,0,0,1.72,1.85,3.17,3.17,0,0,0,1.44-.36h.08v.86a3.66,3.66,0,0,1-1.68.32,2.43,2.43,0,0,1-2.58-2.71"/>
      <path id="path3095" d="M59.34,64.61v-.85h.09a4.11,4.11,0,0,0,1.56.36c.63,0,1.21-.17,1.21-.74s-.39-.58-.84-.7l-.65-.17c-.84-.2-1.37-.69-1.37-1.47,0-1.08,1-1.53,2.07-1.53a4.48,4.48,0,0,1,1.49.25v.87h-.09a3.46,3.46,0,0,0-1.41-.3c-.53,0-1.06.13-1.06.66s.3.57.78.7l.91.25a1.37,1.37,0,0,1,1.15,1.36c0,1.11-.94,1.65-2.19,1.65a4.81,4.81,0,0,1-1.65-.3"/>
      <path id="path3099" d="M63.89,59.63h.71V58.38l.75-.17h.39v1.42h1.43v.85H65.74V63.4c0,.58.24.75.63.75a1.3,1.3,0,0,0,.75-.25h0v.82a2.43,2.43,0,0,1-1.12.25c-.86,0-1.45-.41-1.45-1.19v-3.3h-.71v-.85Z"/>
      <path id="path3103" d="M68.16,59.66l.72-.17h.28v5.4h-1Zm-.07-2.12a.58.58,0,0,1,1.16,0,.58.58,0,1,1-1.16,0"/>
      <path id="path3107" d="M70.15,59.63h.71V58.38l.75-.17H72v1.42h1.43v.85H72V63.4c0,.58.24.75.63.75a1.3,1.3,0,0,0,.75-.25h.05v.82a2.43,2.43,0,0,1-1.12.25c-.86,0-1.45-.41-1.45-1.19v-3.3h-.71v-.85Z"/>
      <path id="path3111" d="M74.42,59.66l.72-.17h.28v5.4h-1Zm0-2.12a.58.58,0,0,1,1.15,0,.58.58,0,1,1-1.15,0"/>
      <path id="path3115" d="M80.59,62.22c0-1.19-.45-1.89-1.44-1.89s-1.47.7-1.47,1.89.49,1.89,1.47,1.89,1.44-.71,1.44-1.89m-3.94,0a2.45,2.45,0,0,1,2.5-2.71c1.52,0,2.47.94,2.47,2.71a2.49,2.49,0,1,1-5,0"/>
      <path id="path3119" d="M86.23,62.05A1.74,1.74,0,0,0,86,61a1.11,1.11,0,0,0-1-.47,1.73,1.73,0,0,0-1.16.43v3.93h-1V59.66l.73-.17h.27v.57h.09a2.19,2.19,0,0,1,1.4-.49,1.89,1.89,0,0,1,1.51.64,2.39,2.39,0,0,1,.42,1.46v3.08h-1v-2.7Z"/>
      <path id="path3123" d="M88.51,64.61v-.85h.08a4.16,4.16,0,0,0,1.57.36c.62,0,1.21-.17,1.21-.74s-.4-.58-.84-.7l-.66-.17A1.52,1.52,0,0,1,88.51,61c0-1.08,1-1.53,2.06-1.53a4.43,4.43,0,0,1,1.49.25v.87H92a3.41,3.41,0,0,0-1.4-.3c-.53,0-1.07.13-1.07.66s.31.57.78.7l.91.25a1.36,1.36,0,0,1,1.15,1.36c0,1.11-.94,1.65-2.19,1.65a4.79,4.79,0,0,1-1.64-.3"/>
      <path id="path3127" d="M94.62,60.77V64h.65a1.69,1.69,0,0,0,1.81-1.89c0-1.1-.45-1.72-1.4-1.72a1.82,1.82,0,0,0-1.06.33m-1.05-4.12.75-.14h.3v3.56h0A2.2,2.2,0,0,1,96,59.65c1.31,0,2,1,2,2.38a2.6,2.6,0,0,1-2.81,2.86H93.63V56.64Z"/>
      <path id="path3131" d="M101.88,63.76V62.48h-.74c-.73,0-1.27.29-1.27.9s.41.82,1,.82a1.55,1.55,0,0,0,1-.41m-3-.39c0-1.14,1.2-1.64,2.3-1.64h.71v-.61c0-.69-.44-.92-1.18-.92a3.13,3.13,0,0,0-1.39.4h0v-.87a4.7,4.7,0,0,1,1.63-.32c1.17,0,1.77.49,1.92.94v3.24s.1.49.43.56h.29v.66a3.23,3.23,0,0,1-.7.09,1.83,1.83,0,0,1-.91-.46h0a2.11,2.11,0,0,1-1.43.49c-1,0-1.65-.45-1.65-1.52"/>
      <path id="path3135" d="M108,62.05a1.75,1.75,0,0,0-.2-1,1.11,1.11,0,0,0-1.05-.47,1.73,1.73,0,0,0-1.16.43v3.93h-1V59.66l.72-.17h.28v.57h.09a2.19,2.19,0,0,1,1.4-.49,1.92,1.92,0,0,1,1.51.64,2.46,2.46,0,0,1,.41,1.46v3.08h-1v-2.7Z"/>
      <path id="path3139" d="M112,62.48h-.28v2.41h-1V56.67l.72-.17h.28v5.12h.16l1.92-2h1v.13l-2,2.09L115,64.76v.13h-1.18L112,62.48Z"/>
      <path id="path3143" d="M68.3,75.85V72.56a1.9,1.9,0,0,0-.73-.11c-1,0-1.73.58-1.73,2,0,1.18.54,1.72,1.43,1.72a2,2,0,0,0,1-.32m-3.56-1.34a2.62,2.62,0,0,1,2.71-2.79,1.88,1.88,0,0,1,.78.17h.07V68.76l.68-.17h.32v8.22l-.6.18h-.4v-.43h-.07a2,2,0,0,1-1.36.41c-1.27,0-2.13-1-2.13-2.54"/>
      <path id="path3147" d="M71.48,73.58l2.51-.1v-.13a.92.92,0,0,0-1-1,1.44,1.44,0,0,0-1.47,1.2v.06Zm-1,.75A2.51,2.51,0,0,1,73,71.62a1.74,1.74,0,0,1,2,1.76,4.92,4.92,0,0,1-.09.86l-3.44.13a1.61,1.61,0,0,0,1.72,1.85,3.12,3.12,0,0,0,1.44-.37h.08v.86A3.72,3.72,0,0,1,73,77a2.43,2.43,0,0,1-2.58-2.71"/>
      <path id="path3151" d="M75.84,76.7v-.85h.09a3.94,3.94,0,0,0,1.57.37c.62,0,1.2-.17,1.2-.75s-.39-.58-.83-.7l-.66-.17a1.52,1.52,0,0,1-1.36-1.47c0-1.07,1-1.53,2.06-1.53a4.24,4.24,0,0,1,1.49.26v.86h-.09a3.44,3.44,0,0,0-1.4-.3c-.53,0-1.07.13-1.07.67s.31.57.78.69l.91.26a1.36,1.36,0,0,1,1.15,1.36c0,1.1-.94,1.64-2.19,1.64a4.81,4.81,0,0,1-1.65-.3"/>
      <path id="path3155" d="M83.67,76.84V69.3h1.14V76h2.84v.85Z"/>
      <path id="path3159" d="M91.07,75.85V74.57h-.74c-.73,0-1.27.29-1.27.9s.41.82,1,.82a1.57,1.57,0,0,0,1-.41m-3-.39c0-1.14,1.2-1.63,2.3-1.63h.66v-.62c0-.69-.44-.91-1.18-.91a3.13,3.13,0,0,0-1.39.39h0v-.86a4.41,4.41,0,0,1,1.62-.33c1.18,0,1.77.5,1.93,1v3.17s.16.5.48.48h.23v.75a2.25,2.25,0,0,1-.64.09c-.4,0-.91-.55-.91-.55h0a2.11,2.11,0,0,1-1.43.49c-1,0-1.65-.45-1.65-1.52"/>
      <path id="path3163" d="M97.32,74a1.93,1.93,0,0,0-.2-1.11,1.08,1.08,0,0,0-1.05-.49,1.66,1.66,0,0,0-1.16.45V77h-1V71.75l.72-.17h.28v.57H95a2.19,2.19,0,0,1,1.4-.49,1.92,1.92,0,0,1,1.51.64,2.5,2.5,0,0,1,.41,1.47v3.07h-1V74Z"/>
      <path id="path3167" d="M103,75.85V72.56a1.92,1.92,0,0,0-.74-.11c-1,0-1.72.58-1.72,2,0,1.18.53,1.72,1.43,1.72a2,2,0,0,0,1-.32m-3.49-1.34a2.62,2.62,0,0,1,2.71-2.79,1.84,1.84,0,0,1,.78.17h0V68.76l.68-.17H104v8.22l-.6.18H103v-.43h0a2,2,0,0,1-1.35.41c-1.28,0-2.14-1-2.14-2.54"/>
      <path id="path3171" d="M106.34,73.58l2.51-.1v-.13a.92.92,0,0,0-1-1,1.44,1.44,0,0,0-1.47,1.2v.06Zm-1,.75a2.51,2.51,0,0,1,2.58-2.71,1.74,1.74,0,0,1,2,1.76,4.91,4.91,0,0,1-.08.86l-3.45.13a1.62,1.62,0,0,0,1.73,1.85,3,3,0,0,0,1.43-.37h.08v.86a3.68,3.68,0,0,1-1.68.33,2.43,2.43,0,0,1-2.58-2.71"/>
      <path id="path3175" d="M110.7,76.7v-.85h.09a3.89,3.89,0,0,0,1.56.37c.63,0,1.21-.17,1.21-.75s-.39-.58-.84-.7l-.65-.17c-.84-.2-1.37-.69-1.37-1.47,0-1.07,1-1.53,2.07-1.53a4.24,4.24,0,0,1,1.49.26v.86h-.09a3.46,3.46,0,0,0-1.41-.3c-.53,0-1.07.13-1.07.67s.31.57.79.69l.91.26a1.37,1.37,0,0,1,1.15,1.36c0,1.1-.94,1.64-2.19,1.64a4.81,4.81,0,0,1-1.65-.3"/>
      <path id="path3179" d="M57.35,88.08h1.58a1.38,1.38,0,0,0,1.38-1.48c-.08-.83-.72-1.08-1.7-1.08H57.35Zm0-3.41h1.76a1.5,1.5,0,0,0,.77-1.35c0-.82-.57-1.07-1.35-1.07H57.35v2.42Zm-1.14,4.27V81.4h2.3c1.51,0,2.37.62,2.37,1.89a1.88,1.88,0,0,1-1,1.59,1.79,1.79,0,0,1,1.47,1.93,2.2,2.2,0,0,1-2.41,2.13Z"/>
      <path id="path3183" d="M62.63,83.75l.74-.22h.24v.71h.14A3.29,3.29,0,0,1,65,83.67a1.64,1.64,0,0,1,.44.09v.91h-.65c-.41,0-1.06.44-1.06.44v3.83H62.61V83.76Z"/>
      <path id="path3187" d="M68.73,87.8V86.52H68c-.73,0-1.27.29-1.27.9s.41.82,1,.82a1.55,1.55,0,0,0,1-.41m-2.93-.38c0-1.15,1.2-1.64,2.3-1.64h.63v-.62c0-.69-.43-.91-1.17-.91a3.18,3.18,0,0,0-1.4.39h.15v-.86a4.51,4.51,0,0,1,1.63-.33c1.18,0,1.77.5,1.93,1v3.26s0,.5.36.54h.35v.69a4.65,4.65,0,0,1-.76.09,1.83,1.83,0,0,1-.92-.5h0a2.09,2.09,0,0,1-1.43.49,1.44,1.44,0,0,1-1.64-1.52"/>
      <path id="path3191" d="M75,86.09a1.9,1.9,0,0,0-.21-1.1,1.08,1.08,0,0,0-1-.5,1.73,1.73,0,0,0-1.17.45v4h-1V83.7l.72-.17h.27v.71h.09a2.18,2.18,0,0,1,1.4-.48,1.89,1.89,0,0,1,1.52.64A2.46,2.46,0,0,1,76,85.86v3.08H75V86.09Z"/>
      <path id="path3195" d="M80.68,87.94V84.59a2.14,2.14,0,0,0-.73-.1c-1,0-1.73.58-1.73,2,0,1.19.54,1.73,1.43,1.73a2,2,0,0,0,1-.32m-3.46-1.43a2.62,2.62,0,0,1,2.71-2.79,1.88,1.88,0,0,1,.78.17h.11V80.71l.69-.17h.31V88.9l-.6.18h-.4v-.43h-.11a2,2,0,0,1-1.36.41c-1.27,0-2.13-.94-2.13-2.54"/>
      <path id="path3199" d="M84,85.62l2.51-.1v-.13a.92.92,0,0,0-1-1A1.44,1.44,0,0,0,84,85.56v.06Zm-1,.66a2.51,2.51,0,0,1,2.58-2.71,1.74,1.74,0,0,1,2,1.76,4.92,4.92,0,0,1-.09.86L84,86.32a1.61,1.61,0,0,0,1.72,1.85,3.12,3.12,0,0,0,1.44-.37h.08v.86a3.72,3.72,0,0,1-1.69.33A2.43,2.43,0,0,1,83,86.28"/>
      <path id="path3203" d="M92.2,86.09A1.91,1.91,0,0,0,92,85a1.1,1.1,0,0,0-1-.5,1.69,1.69,0,0,0-1.16.45v4h-1V83.7l.72-.17h.28v.71h.08a2.2,2.2,0,0,1,1.4-.48,1.89,1.89,0,0,1,1.52.64,2.46,2.46,0,0,1,.41,1.46v3.08h-1V86.09Z"/>
      <path id="path3207" d="M95.9,84.81v3.27h.65a1.68,1.68,0,0,0,1.81-1.89c0-1.1-.45-1.72-1.4-1.72a1.83,1.83,0,0,0-1.06.34m-1.06-4,.75-.14h.31V84.1h0a2.22,2.22,0,0,1,1.31-.41c1.31,0,2,1,2,2.38a2.61,2.61,0,0,1-2.81,2.87H94.91V80.83Z"/>
      <path id="path3211" d="M101,88.3a2.26,2.26,0,0,1-.37-1.43V83.7l.7-.17h.29v3a2,2,0,0,0,.21,1.12,1.06,1.06,0,0,0,1,.49,1.72,1.72,0,0,0,1.19-.49V83.7l.68-.17H105v5.31l-.56.1H104v-.43h-.08a2.37,2.37,0,0,1-1.48.49,1.94,1.94,0,0,1-1.53-.7"/>
      <path id="path3215" d="M106.71,83.7l.72-.17h.28v.71h.08a3.37,3.37,0,0,1,1.27-.57.8.8,0,0,1,.36.09v.91h-.57a2.47,2.47,0,0,0-1.14.44v3.83h-1V83.7Z"/>
      <path id="path3219" d="M113.13,85.48c0-.67-.3-1.12-1.07-1.12a1.11,1.11,0,1,0,0,2.22,1,1,0,0,0,1.07-1.1M111.61,89l-.12.07a1.07,1.07,0,0,0-.75,1c0,.54.41.83,1.16.83s1.76-.33,1.76-1.11c0-.37-.12-.57-.74-.62l-1-.07a1.44,1.44,0,0,1-.36-.07m-1.88,1.12c0-.78.82-1.19,1.32-1.37a.82.82,0,0,1-.3-.67,1.15,1.15,0,0,1,.66-.87v0s-1.44-.8-1.44-1.73a1.85,1.85,0,0,1,2.09-1.81,2.5,2.5,0,0,1,1.2.29h.06l1.11-.14h.4v.56h-1A1.85,1.85,0,0,1,112,87.23h-.1a.86.86,0,0,0-.28.57c0,.25.21.4.53.41l1.11.09c.86.07,1.39.45,1.39,1.24,0,1.1-1.39,2-2.87,2-1.15,0-2.08-.37-2.08-1.4"/>
    </g>
  </g>
</svg>
