<svg xmlns="http://www.w3.org/2000/svg" viewBox="0 0 225 148">
  <title>logo-westnetz</title>
  <g id="box">
    <rect width="225" height="148" fill="#fff"/>
  </g>
  <g id="westnetz">
    <path d="M190.65,64.49H175.08v4.19h4.68c2.05,0,2.54,0,4.39-.14l0,.08c-1.31,1.34-1.65,1.71-3,3.2l-6.71,7.64v4.05h16.57V79.24h-5.76c-2.08,0-2.54,0-4.36.11l0-.09c1.28-1.31,1.51-1.57,2.94-3.19l6.81-7.85Z" fill="#1d1d1b"/>
    <path d="M172.49,64.49H156.18v4.3h5.08a1.36,1.36,0,0,0,.65-.11,1.84,1.84,0,0,0-.08.66V83.51h4.93V69.34a1.65,1.65,0,0,0-.09-.66,1.48,1.48,0,0,0,.69.11h5.13Z" fill="#1d1d1b"/>
    <path d="M153.25,64.49H138v19h15.46V79.44h-10a1.9,1.9,0,0,0-.65.08,1.38,1.38,0,0,0,.11-.66V76.21a1.54,1.54,0,0,0-.11-.71,1.42,1.42,0,0,0,.65.11h8.85V71.79h-8.85a1.9,1.9,0,0,0-.65.08,1.42,1.42,0,0,0,.11-.68v-2a1.42,1.42,0,0,0-.11-.68,1.9,1.9,0,0,0,.65.08h9.73Z" fill="#1d1d1b"/>
    <path d="M134.26,64.49h-4.82v5.79c0,2.94,0,3.62.2,6.33l-.15,0c-1.22-2.51-1.54-3.11-3.08-5.76l-3.65-6.39h-5v19h4.82V77.67c0-2.91,0-3.63-.2-6.34h.12c1.25,2.46,1.57,3,3.11,5.65l3.82,6.53h4.82Z" fill="#1d1d1b"/>
    <path d="M114.73,64.49H98.42v4.3h5.07a1.38,1.38,0,0,0,.66-.11,1.84,1.84,0,0,0-.08.66V83.51H109V69.34a1.65,1.65,0,0,0-.09-.66,1.46,1.46,0,0,0,.69.11h5.13Z" fill="#1d1d1b"/>
    <path d="M96.15,70.19C96,66.25,93.3,64,88.65,64S81,66.28,81,69.82a4.57,4.57,0,0,0,2.73,4.51,17.91,17.91,0,0,0,3.63,1.22c4,1.15,4.53,1.46,4.53,2.69s-1,1.91-3.14,1.91-3.36-1-3.48-3h-5c.12,4.31,3.2,6.88,8.36,6.88a9.65,9.65,0,0,0,5.88-1.54,5.71,5.71,0,0,0,2.39-4.57,4.76,4.76,0,0,0-2.25-4.5,13.77,13.77,0,0,0-4.45-1.66,17.57,17.57,0,0,0-1.91-.48,10.52,10.52,0,0,1-1.83-.6,1.21,1.21,0,0,1-.68-1.14c0-1.12.91-1.66,2.76-1.66,1.69,0,2.8.94,2.88,2.34Z" fill="#1d1d1b"/>
    <path d="M77.5,64.49H62.27v19H77.73V79.44h-10a1.87,1.87,0,0,0-.65.08,1.38,1.38,0,0,0,.11-.66V76.21a1.54,1.54,0,0,0-.11-.71,1.4,1.4,0,0,0,.65.11h8.84V71.79H67.77a1.87,1.87,0,0,0-.65.08,1.42,1.42,0,0,0,.11-.68v-2a1.42,1.42,0,0,0-.11-.68,1.87,1.87,0,0,0,.65.08H77.5Z" fill="#1d1d1b"/>
    <path d="M59.56,64.49h-5l-1.39,6.33c-.69,3.17-.83,3.88-1.32,6.82h-.14c-.45-2.94-.63-3.74-1.28-6.82l-1.37-6.33H44.33l-1.4,6.33c-.69,3.14-.83,3.88-1.31,6.82h-.15c-.48-2.94-.63-3.77-1.28-6.82l-1.4-6.33h-5l5.19,19h5l1.28-6.07c.66-3,.8-3.74,1.26-6.56h.11c.49,2.82.66,3.53,1.31,6.56l1.37,6.07h5Z" fill="#1d1d1b"/>
  </g>
</svg>
