<svg xmlns="http://www.w3.org/2000/svg" xmlns:xlink="http://www.w3.org/1999/xlink" viewBox="0 0 240.91 148">
  <defs>
    <clipPath id="clip-path" transform="translate(7.95)">
      <path d="M74.26,74a18.61,18.61,0,1,1-18.6-18.61A18.61,18.61,0,0,1,74.26,74" fill="none" clip-rule="evenodd"/>
    </clipPath>
    <clipPath id="clip-path-2" transform="translate(7.95)">
      <path d="M55.8,84.38C50.69,84.39,45.37,80,45.35,73A15.81,15.81,0,0,1,51,61.28,18.71,18.71,0,0,1,62.29,57a4.67,4.67,0,0,1,1.34.15,7.73,7.73,0,0,0-6.07,7.43,2,2,0,0,0,0,.3c5.67,1.38,8.24,4.8,8.25,9.53a10,10,0,0,1-10,9.94" fill="none" clip-rule="evenodd"/>
    </clipPath>
    <clipPath id="clip-path-3" transform="translate(7.95)">
      <polygon points="86.28 81.7 80.59 68.13 84.31 68.13 87.85 77.14 91.29 68.13 94.84 68.13 89.32 81.7 86.28 81.7" fill="none" clip-rule="evenodd"/>
    </clipPath>
    <clipPath id="clip-path-4" transform="translate(7.95)">
      <path d="M108.18,74.86a8.58,8.58,0,0,1-.41,2.61,7.08,7.08,0,0,1-1.21,2.29,6,6,0,0,1-2,1.64,6.91,6.91,0,0,1-5.72,0,6,6,0,0,1-2-1.64,7.27,7.27,0,0,1-1.21-2.29,8.65,8.65,0,0,1,0-5.2A7.39,7.39,0,0,1,96.78,70a6.07,6.07,0,0,1,2-1.6,6.44,6.44,0,0,1,2.86-.61,6.37,6.37,0,0,1,2.85.61,6.13,6.13,0,0,1,2,1.6,6.85,6.85,0,0,1,1.23,2.27,8.5,8.5,0,0,1,.41,2.59m-3.44,0a6,6,0,0,0-.2-1.61,3.8,3.8,0,0,0-.59-1.32,3.07,3.07,0,0,0-1-.87,2.81,2.81,0,0,0-2.64,0,3.07,3.07,0,0,0-1,.87,4,4,0,0,0-.59,1.32,6.66,6.66,0,0,0,0,3.24,4.45,4.45,0,0,0,.57,1.31,3,3,0,0,0,1,.89,2.62,2.62,0,0,0,1.33.32,2.53,2.53,0,0,0,1.32-.32,3,3,0,0,0,1-.89,4,4,0,0,0,.59-1.31,6.07,6.07,0,0,0,.2-1.63" fill="none"/>
    </clipPath>
    <clipPath id="clip-path-5" transform="translate(7.95)">
      <path d="M119,81.71l-.14-1a4.42,4.42,0,0,1-1.27.94,4,4,0,0,1-1.85.41,5.07,5.07,0,0,1-2.47-.59,5.68,5.68,0,0,1-1.8-1.58,7.56,7.56,0,0,1-1.11-2.28,9.74,9.74,0,0,1-.37-2.71,8.74,8.74,0,0,1,.39-2.59A6.94,6.94,0,0,1,111.52,70a6,6,0,0,1,2-1.6,6.28,6.28,0,0,1,2.83-.61,7.74,7.74,0,0,1,2.31.4V62.92h3.49V81.71Zm-.28-10.59a5,5,0,0,0-1.88-.4,3.33,3.33,0,0,0-1.54.34,3.07,3.07,0,0,0-1.07.92,4.24,4.24,0,0,0-.63,1.3,5.31,5.31,0,0,0-.21,1.49,6.65,6.65,0,0,0,.19,1.62,4.06,4.06,0,0,0,.56,1.36,3.12,3.12,0,0,0,1,.93,2.6,2.6,0,0,0,1.36.35,2.9,2.9,0,0,0,1.32-.35,2.47,2.47,0,0,0,1-.83Z" fill="none"/>
    </clipPath>
    <clipPath id="clip-path-6" transform="translate(7.95)">
      <path d="M132.27,81.7l-.14-1a3.65,3.65,0,0,1-1.44,1,5,5,0,0,1-1.92.36,4.76,4.76,0,0,1-1.68-.3,4.38,4.38,0,0,1-1.43-.85,4,4,0,0,1-1-1.35,4.07,4.07,0,0,1-.38-1.81,3.75,3.75,0,0,1,1.47-3.1,5.7,5.7,0,0,1,1.55-.87,9.25,9.25,0,0,1,1.84-.51,14.24,14.24,0,0,1,1.48-.21l1.34-.13v-.2a2,2,0,0,0-.58-1.6,2.41,2.41,0,0,0-1.59-.48,4.78,4.78,0,0,0-2.1.49,8.39,8.39,0,0,0-.75.42c-.22.15-.39.27-.52.38l-1.16-2.44A4.59,4.59,0,0,1,126,69a7.47,7.47,0,0,1,1.13-.55,9,9,0,0,1,1.49-.45,7.8,7.8,0,0,1,1.79-.19,6.59,6.59,0,0,1,2,.3A4.23,4.23,0,0,1,134,69a4.35,4.35,0,0,1,1.06,1.6,6.54,6.54,0,0,1,.38,2.35V81.7ZM132,75.34c-.38,0-.76,0-1.16.1s-.77.11-1.13.18a2.61,2.61,0,0,0-1.58.78,1.89,1.89,0,0,0-.44,1.2,1.34,1.34,0,0,0,.5,1.08,2.16,2.16,0,0,0,1.4.41,3.33,3.33,0,0,0,1.32-.28A4,4,0,0,0,132,78.1Z" fill="none"/>
    </clipPath>
    <clipPath id="clip-path-7" transform="translate(7.95)">
      <path d="M146.25,66a5.1,5.1,0,0,0-.66-.24,4.7,4.7,0,0,0-1.32-.16,1.79,1.79,0,0,0-1.22.44,1.81,1.81,0,0,0-.49,1.42v.65h2.93V71h-2.9V81.71h-3.5V71h-1.8V68.13h1.8V67.4a6.4,6.4,0,0,1,.34-2.24,3.92,3.92,0,0,1,.94-1.49,3.71,3.71,0,0,1,1.43-.85,5.57,5.57,0,0,1,1.77-.27,7.73,7.73,0,0,1,2.1.24,5.79,5.79,0,0,1,1,.33Z" fill="none" clip-rule="evenodd"/>
    </clipPath>
    <clipPath id="clip-path-8" transform="translate(7.95)">
      <path d="M159.2,74.86a8.28,8.28,0,0,1-.41,2.61,6.89,6.89,0,0,1-1.21,2.29,5.92,5.92,0,0,1-2,1.64,6.91,6.91,0,0,1-5.72,0,6,6,0,0,1-2-1.64,7.08,7.08,0,0,1-1.21-2.29,8.45,8.45,0,0,1,0-5.2A7.19,7.19,0,0,1,147.81,70a6,6,0,0,1,2-1.6,7,7,0,0,1,5.7,0,6.07,6.07,0,0,1,2,1.6,6.83,6.83,0,0,1,1.22,2.27,8.2,8.2,0,0,1,.41,2.59m-3.43,0a6.46,6.46,0,0,0-.2-1.61,4,4,0,0,0-.59-1.32,3.18,3.18,0,0,0-1-.87,2.83,2.83,0,0,0-2.65,0,3.31,3.31,0,0,0-1,.87,4.2,4.2,0,0,0-.59,1.32,7,7,0,0,0,0,3.24,4.74,4.74,0,0,0,.58,1.31,2.82,2.82,0,0,0,1,.89,2.63,2.63,0,0,0,1.34.32,2.58,2.58,0,0,0,1.32-.32,3.13,3.13,0,0,0,1-.89,4.23,4.23,0,0,0,.59-1.31,6.5,6.5,0,0,0,.2-1.63" fill="none"/>
    </clipPath>
    <clipPath id="clip-path-9" transform="translate(7.95)">
      <path d="M170,81.71V74a3.86,3.86,0,0,0-.64-2.39,2.18,2.18,0,0,0-1.81-.85,2.75,2.75,0,0,0-1.5.43,6.37,6.37,0,0,0-1.2.93v9.63H161.4V68.13h3.18l.17,1.07a6,6,0,0,1,1.84-1,6.27,6.27,0,0,1,2.07-.36,5.66,5.66,0,0,1,2,.32,3.81,3.81,0,0,1,1.55,1,4.56,4.56,0,0,1,1,1.82,9,9,0,0,1,.36,2.71v8Z" fill="none" clip-rule="evenodd"/>
    </clipPath>
    <clipPath id="clip-path-10" transform="translate(7.95)">
      <path d="M179.14,75.79a3.25,3.25,0,0,0,1.07,2.48,3.87,3.87,0,0,0,2.49.76,6.89,6.89,0,0,0,1.32-.12,6.68,6.68,0,0,0,1.11-.33,7.09,7.09,0,0,0,.82-.39,3.24,3.24,0,0,0,.51-.37l.93,2.85c-.13.09-.35.21-.64.38a7.2,7.2,0,0,1-1.08.45,11,11,0,0,1-1.52.36,10.35,10.35,0,0,1-1.92.16,7.57,7.57,0,0,1-2.52-.42,5.64,5.64,0,0,1-2.09-1.32,6.14,6.14,0,0,1-1.44-2.21,8.3,8.3,0,0,1-.54-3.15,8.85,8.85,0,0,1,.49-3,6.39,6.39,0,0,1,1.36-2.23,5.88,5.88,0,0,1,2-1.38,6.2,6.2,0,0,1,2.43-.48,6.69,6.69,0,0,1,2.4.43,4.85,4.85,0,0,1,1.9,1.31,6.2,6.2,0,0,1,1.26,2.29,10.46,10.46,0,0,1,.47,3.35v.62Zm5.26-2.5a3.7,3.7,0,0,0-.3-1.23,2.57,2.57,0,0,0-.59-.84,2.31,2.31,0,0,0-.76-.48,2.28,2.28,0,0,0-.84-.16,2.69,2.69,0,0,0-1.73.68,2.88,2.88,0,0,0-1,2Z" fill="none"/>
    </clipPath>
  </defs>
  <title>logo-vodafon</title>
  <g id="box">
    <rect x="7.95" width="225" height="148" fill="#fff"/>
  </g>
  <g id="vodafon">
    <g>
      <g clip-path="url(#clip-path)">
        <rect y="10.39" width="127.22" height="127.22"/>
      </g>
      <g clip-path="url(#clip-path-2)">
        <rect x="8.3" y="12.03" width="110.49" height="117.35" fill="#fff"/>
      </g>
      <g clip-path="url(#clip-path-3)">
        <rect x="43.54" y="23.13" width="104.26" height="103.58"/>
      </g>
      <g clip-path="url(#clip-path-4)">
        <rect x="58.12" y="22.79" width="103.02" height="104.23"/>
      </g>
      <g clip-path="url(#clip-path-5)">
        <rect x="72.89" y="17.92" width="102.23" height="109.11"/>
      </g>
      <g clip-path="url(#clip-path-6)">
        <rect x="87.22" y="22.79" width="101.19" height="104.23"/>
      </g>
      <g clip-path="url(#clip-path-7)">
        <rect x="100.24" y="17.55" width="99.36" height="109.16"/>
      </g>
      <g clip-path="url(#clip-path-8)">
        <rect x="109.14" y="22.79" width="103.02" height="104.23"/>
      </g>
      <g clip-path="url(#clip-path-9)">
        <rect x="124.35" y="22.79" width="102.15" height="103.92"/>
      </g>
      <g clip-path="url(#clip-path-10)">
        <rect x="138.59" y="22.79" width="102.32" height="104.23"/>
      </g>
    </g>
  </g>
</svg>
