<svg xmlns="http://www.w3.org/2000/svg" viewBox="0 0 225 148">
  <title>logo-bwb</title>
  <g id="box">
    <rect width="225" height="148" fill="#fff"/>
  </g>
  <g id="berliner-wasserbetriebe">
    <g>
      <path id="Pfad_23757" data-name="Pfad 23757" d="M67.9,73.06c-11.82-2.61-13.57,3.56-25.07.15L41,82.59,28.5,66.31l19-17.13-1.73,8.64c11.5,3.41,13.09-2.14,24.9.47Z" fill-rule="evenodd"/>
      <path id="Pfad_23763" data-name="Pfad 23763" d="M28.5,66.31l19-17.13-1.73,8.64a23,23,0,0,0,12.8.44,26,26,0,0,1,12.1,0L67.89,73.06a24.07,24.07,0,0,0-12.21.27c-3.51.83-6.86,1.66-12.86-.12L41,82.59Z"/>
      <path id="Pfad_23759" data-name="Pfad 23759" d="M44.12,75c11.82,2.61,13.5-3.56,25-.15L71,65.43,83.39,81.71,64.26,98.82,66,90.21c-11.51-3.41-13,2.71-24.79.1Z" fill-rule="evenodd"/>
      <path id="Pfad_23764" data-name="Pfad 23764" d="M66,90.21a21,21,0,0,0-12.71-.15,23.67,23.67,0,0,1-12.08.25L44.12,75a23.84,23.84,0,0,0,12.18-.28,21.28,21.28,0,0,1,12.83.13L71,65.43,83.39,81.71,64.26,98.82Z"/>
      <path id="Pfad_23761" data-name="Pfad 23761" d="M134.55,60.3c-1.52-.23-2.48,1-3.4,2.76h0a15.75,15.75,0,0,0,.78-2.59h-1.7c-.22,1.14-.5,2.57-.72,3.65l-.84,4h1.76l.35-1.7c.49-2.35,2-4.9,3.43-4.53Zm-6.71,1.8c0-.91-.65-1.8-2.56-1.8-2.67,0-4.61,2.36-4.61,5.43,0,1.73.87,2.54,2.87,2.54a9.26,9.26,0,0,0,3-.47V66.5a6.89,6.89,0,0,1-2.38.45c-1.25,0-1.67-.28-1.67-1.33a6.68,6.68,0,0,1,.07-.77c3.43-.11,5.32-1,5.32-2.74Zm-1.75.22c0,.88-1.07,1.31-3.35,1.38a2.62,2.62,0,0,1,2.34-2.17c.62,0,1,.28,1,.79Zm-6.92.55c.31-1.56-.19-2.59-1.76-2.59s-2.91,1.4-3.7,2.92l0,0a20.06,20.06,0,0,0,.85-2.73h-1.74c-.19,1-.45,2.38-.72,3.66l-.84,4H113l.37-1.81c.37-1.86,2-4.61,3.34-4.61.66,0,.87.47.64,1.56l-1,4.86h1.76ZM111,58.22a1,1,0,0,0-1-1h0a1.17,1.17,0,0,0-1.22,1.08,1,1,0,0,0,1,1h0A1.16,1.16,0,0,0,111,58.22Zm-.7,2.24h-1.76l-1.59,7.66h1.76Zm-3.56-3.6H105l-2.32,11.26h1.75Zm-4,3.44c-1.52-.23-2.47,1-3.4,2.76h0a15.78,15.78,0,0,0,.79-2.59H98.33c-.22,1.14-.5,2.57-.72,3.65l-.84,4h1.76l.35-1.7c.49-2.35,2-4.9,3.43-4.53ZM96,62.1c0-.91-.66-1.8-2.56-1.8-2.68,0-4.62,2.36-4.62,5.43,0,1.73.87,2.54,2.88,2.54a9,9,0,0,0,3-.47V66.5a6.89,6.89,0,0,1-2.38.45c-1.25,0-1.67-.28-1.67-1.33a6.68,6.68,0,0,1,.07-.77c3.43-.11,5.32-1,5.32-2.74Zm-1.76.22c0,.88-1.07,1.31-3.34,1.38a2.6,2.6,0,0,1,2.34-2.17c.61,0,1,.28,1,.79Zm-6-2.6c0-1.32-1.09-2.06-3.25-2.06-1.27,0-2.54,0-3.41.05L79.37,68.12c1.22,0,2.34,0,3.06,0,3.18,0,5-1.69,5-3.63a1.94,1.94,0,0,0-1.59-1.91v0A3.14,3.14,0,0,0,88.17,59.72Zm-1.91.37c0,1.3-1.27,2-3,2-.34,0-.59,0-.89,0L83,59c.42,0,.9,0,1.43,0C85.83,59,86.26,59.44,86.26,60.09Zm-.75,4.58c0,1.14-1,2.12-2.83,2.12a8.59,8.59,0,0,1-1.24-.07l.69-3.32h1.22C84.82,63.39,85.51,63.83,85.51,64.67Zm111,11.19c0,1.73-1.89,2.64-5.32,2.75a6.48,6.48,0,0,0-.07.77c0,1.05.42,1.32,1.68,1.32a7.11,7.11,0,0,0,2.37-.44v1.3a9.26,9.26,0,0,1-3,.47c-2,0-2.88-.81-2.88-2.54,0-3.07,1.94-5.43,4.62-5.43C195.85,74.06,196.5,75,196.5,75.86Zm-1.76.22c0-.51-.38-.79-1-.79a2.62,2.62,0,0,0-2.34,2.17c2.27-.07,3.34-.5,3.34-1.38Zm-6.43.34c0,2.85-1.63,5.58-5.27,5.58a13.38,13.38,0,0,1-2.76-.26l2.3-11.12h1.74l-.72,3.51a21.76,21.76,0,0,1-.91,2.87l0,0c.84-1.7,2.09-3,3.68-3,1.24,0,1.91.74,1.91,2.38Zm-1.81.29c0-.88-.29-1.25-.75-1.25-1.4,0-3,2.82-3.36,4.53l-.12.59a4.3,4.3,0,0,0,1.07.14C185.56,80.72,186.5,78.48,186.5,76.71Zm-7.06-.85c0,1.73-1.89,2.64-5.32,2.75a6.48,6.48,0,0,0-.07.77c0,1.05.42,1.32,1.68,1.32a7.11,7.11,0,0,0,2.37-.44v1.3a9.26,9.26,0,0,1-3,.47c-2,0-2.88-.81-2.88-2.54,0-3.07,2-5.43,4.62-5.43,1.91,0,2.56.89,2.56,1.8Zm-1.75.22c0-.51-.39-.79-1-.79a2.62,2.62,0,0,0-2.35,2.17c2.27-.07,3.34-.5,3.34-1.38ZM172,72a1.17,1.17,0,0,1-1.21,1.09,1,1,0,0,1-1.06-.94v0A1.2,1.2,0,0,1,170.9,71a1,1,0,0,1,1,.93v0Zm-2.29,9.9H167.9l1.59-7.67h1.76ZM168,74.06c-1.53-.23-2.48,1-3.4,2.76l0,0a15.49,15.49,0,0,0,.79-2.59H163.6c-.21,1.14-.5,2.58-.72,3.66l-.83,4h1.75l.36-1.7c.48-2.35,2-4.91,3.43-4.54Zm-6.21.15h-2.14l.59-2.79-1.83.35-.5,2.44h-1.56L156,75.49h1.57l-.82,4c-.38,1.79.1,2.54,1.84,2.54a8.72,8.72,0,0,0,1.62-.16l.14-1.35a5.07,5.07,0,0,1-1.1.11c-.75,0-.92-.29-.7-1.36l.77-3.76h2.12Zm-6.62,1.65c0,1.73-1.89,2.64-5.32,2.75a6.48,6.48,0,0,0-.07.77c0,1.05.42,1.32,1.67,1.32a6.88,6.88,0,0,0,2.38-.44v1.3a9.08,9.08,0,0,1-3,.47c-2,0-2.88-.81-2.88-2.54,0-3.07,1.94-5.43,4.62-5.43,1.9,0,2.56.89,2.56,1.8Zm-1.76.22c0-.51-.38-.79-1-.79A2.61,2.61,0,0,0,150,77.47c2.27-.08,3.34-.51,3.34-1.39Zm-6.44.34c0,2.85-1.62,5.58-5.27,5.58a13.51,13.51,0,0,1-2.76-.26l2.31-11.12H143l-.72,3.51a20.41,20.41,0,0,1-.92,2.87l0,0c.83-1.7,2.09-3,3.68-3,1.23,0,1.9.74,1.9,2.38Zm-1.8.29c0-.88-.28-1.25-.75-1.25-1.41,0-3,2.82-3.36,4.53l-.12.59a4.3,4.3,0,0,0,1.07.14c2.22,0,3.16-2.24,3.16-4Zm-6.2-2.65c-1.52-.23-2.47,1-3.4,2.76l0,0a15.49,15.49,0,0,0,.79-2.59h-1.71c-.22,1.14-.5,2.58-.72,3.66l-.84,4h1.76l.35-1.7c.48-2.35,2-4.91,3.43-4.54Zm-6.7,1.8c0,1.73-1.89,2.64-5.32,2.74a5.12,5.12,0,0,0-.07.77c0,1,.42,1.33,1.67,1.33a6.93,6.93,0,0,0,2.38-.45v1.3a9.36,9.36,0,0,1-3,.48c-2,0-2.88-.82-2.88-2.54,0-3.07,1.94-5.43,4.62-5.43,1.9,0,2.55.89,2.55,1.8Zm-1.76.21c0-.5-.38-.78-1-.78a2.6,2.6,0,0,0-2.34,2.17c2.26-.07,3.33-.5,3.33-1.38Zm-6.38-1.89a6.81,6.81,0,0,0-1.42-.12c-2.26,0-3.42,1.06-3.42,2.4,0,1.83,2.35,2.05,2.35,3.17,0,.7-.66,1.05-1.64,1.05a4.61,4.61,0,0,1-1.33-.2l-.3,1.42a7.6,7.6,0,0,0,1.43.12c2.46,0,3.68-1.28,3.68-2.56,0-1.7-2.36-2.08-2.36-3.17,0-.59.5-1,1.49-1a3.63,3.63,0,0,1,1.18.17Zm-6.34,0a6.81,6.81,0,0,0-1.42-.12c-2.26,0-3.42,1.06-3.42,2.4,0,1.83,2.34,2.05,2.34,3.17,0,.7-.65,1.05-1.63,1.05a4.49,4.49,0,0,1-1.32-.2L112,81.9a7.43,7.43,0,0,0,1.42.12c2.46,0,3.68-1.28,3.68-2.56,0-1.7-2.36-2.08-2.36-3.17,0-.59.5-1,1.49-1a3.73,3.73,0,0,1,1.19.17Zm-6.42.14c-.82,3.9-1.19,5.66-1.54,7.55h-1.74c.25-1,.54-1.88.88-2.8l0,0c-.63,1.16-1.84,3-3.71,3-1.22,0-1.89-.74-1.89-2.37,0-2.85,1.62-5.58,5.27-5.58a15.05,15.05,0,0,1,2.76.23Zm-2,1.19a3.88,3.88,0,0,0-1.07-.14c-2.23,0-3.17,2.23-3.17,4,0,.87.29,1.25.76,1.25,1.4,0,3-2.83,3.36-4.57Zm-9.87,6.37H97.26l-.55-6.44a15.86,15.86,0,0,1,0-2h0a16.91,16.91,0,0,1-.8,1.92l-3.2,6.47H90.55l-.7-10.42h1.83l.41,6.34a17.36,17.36,0,0,1,0,2h0c.27-.66.54-1.34.86-2l3.2-6.39h2l.64,6.4a15.86,15.86,0,0,1,0,2h0A19.69,19.69,0,0,1,99.56,78l3.08-6.5h1.87Z"/>
      <path id="Pfad_23765" data-name="Pfad 23765" d="M103.3,79.67c0-2.85,1.62-5.58,5.27-5.58a16,16,0,0,1,2.76.23c-.82,3.9-1.19,5.66-1.54,7.56h-1.74a27.76,27.76,0,0,1,.89-2.81h0c-.63,1.15-1.84,3-3.71,3C104,82,103.3,81.3,103.3,79.67Zm1.8-.29c0,.88.29,1.25.76,1.25,1.4,0,3-2.82,3.36-4.56l.12-.56a4.32,4.32,0,0,0-1.08-.14c-2.22,0-3.16,2.23-3.16,4Zm84.22.11c0-3.07,1.94-5.43,4.62-5.43,1.91,0,2.56.9,2.56,1.8,0,1.73-1.89,2.64-5.32,2.75a6.48,6.48,0,0,0-.07.77c0,1.05.42,1.32,1.68,1.32a6.86,6.86,0,0,0,2.37-.44v1.29a9.27,9.27,0,0,1-3,.48c-2,0-2.88-.82-2.88-2.55Zm2.08-2c2.27-.08,3.34-.51,3.34-1.39,0-.51-.38-.78-1-.78a2.6,2.6,0,0,0-2.34,2.16Zm-19.14,2c0-3.07,2-5.43,4.62-5.43,1.91,0,2.56.9,2.56,1.8,0,1.73-1.89,2.64-5.32,2.75a6.48,6.48,0,0,0-.07.77c0,1.05.42,1.32,1.68,1.32a6.86,6.86,0,0,0,2.37-.44v1.29a9.27,9.27,0,0,1-3,.48c-2,0-2.88-.82-2.88-2.55Zm2.08-2c2.27-.08,3.34-.51,3.34-1.39,0-.51-.38-.78-1-.78a2.6,2.6,0,0,0-2.34,2.16Zm-26.39,2c0-3.07,1.94-5.43,4.62-5.43,1.9,0,2.56.9,2.56,1.8,0,1.73-1.89,2.64-5.32,2.75a4.9,4.9,0,0,0-.07.77c0,1.05.42,1.32,1.67,1.32a6.88,6.88,0,0,0,2.38-.44v1.29a9.36,9.36,0,0,1-3,.48c-2,0-2.88-.82-2.88-2.55Zm2.07-2c2.28-.08,3.35-.51,3.35-1.39,0-.51-.38-.78-1-.78A2.61,2.61,0,0,0,150,77.46Zm-25,2c0-3.07,1.94-5.43,4.62-5.43,1.91,0,2.56.9,2.56,1.8,0,1.73-1.89,2.64-5.32,2.75a6.48,6.48,0,0,0-.07.77c0,1.05.42,1.32,1.67,1.32a6.92,6.92,0,0,0,2.38-.44v1.29a9.32,9.32,0,0,1-3,.48c-2,0-2.88-.82-2.88-2.55Zm2.07-2c2.28-.08,3.35-.51,3.35-1.39,0-.51-.38-.78-1-.78a2.61,2.61,0,0,0-2.35,2.16Zm-8.78,4.44.3-1.42a4.61,4.61,0,0,0,1.33.2c1,0,1.63-.35,1.63-1,0-1.13-2.34-1.35-2.34-3.18,0-1.34,1.16-2.41,3.42-2.41a7.58,7.58,0,0,1,1.42.13l-.34,1.29a3.92,3.92,0,0,0-1.18-.17c-1,0-1.49.4-1.49,1,0,1.1,2.36,1.48,2.36,3.18,0,1.28-1.22,2.56-3.68,2.56a7.62,7.62,0,0,1-1.43-.14Zm-6.34,0,.3-1.42a4.54,4.54,0,0,0,1.32.2c1,0,1.64-.35,1.64-1,0-1.13-2.34-1.35-2.34-3.18,0-1.34,1.15-2.41,3.41-2.41a7.5,7.5,0,0,1,1.42.13l-.33,1.29a4,4,0,0,0-1.19-.17c-1,0-1.49.4-1.49,1,0,1.1,2.36,1.48,2.36,3.18,0,1.28-1.22,2.56-3.68,2.56A7.59,7.59,0,0,1,112,81.9Zm44.79-2.44.82-4H156l.28-1.28h1.56l.5-2.43,1.82-.36-.58,2.79h2.14l-.28,1.28h-2.13l-.77,3.77c-.22,1.06,0,1.36.7,1.36a5.78,5.78,0,0,0,1.1-.11l-.13,1.34a8.13,8.13,0,0,1-1.63.17C156.88,82,156.4,81.26,156.78,79.47Zm23.5,2.27,2.3-11.12h1.75l-.72,3.52a24.55,24.55,0,0,1-.92,2.87h0c.84-1.7,2.09-3,3.68-3,1.24,0,1.91.74,1.91,2.37,0,2.86-1.63,5.59-5.28,5.59a13.37,13.37,0,0,1-2.75-.28Zm2.1-1.74-.11.58a4.3,4.3,0,0,0,1.07.14c2.22,0,3.16-2.23,3.16-4,0-.88-.29-1.25-.75-1.25-1.41,0-3,2.82-3.37,4.53ZM138.9,81.74l2.31-11.12H143l-.72,3.52a20.83,20.83,0,0,1-.92,2.87h0c.83-1.7,2.09-3,3.68-3,1.23,0,1.9.74,1.9,2.37,0,2.86-1.62,5.59-5.27,5.59a13.53,13.53,0,0,1-2.76-.28ZM141,80l-.12.58a4.3,4.3,0,0,0,1.07.14c2.23,0,3.17-2.23,3.17-4,0-.88-.29-1.25-.76-1.25-1.4,0-3,2.82-3.36,4.53Zm26.89,1.88,1.59-7.67h1.76l-1.59,7.67Zm-5.85,0,.84-4c.22-1.08.5-2.51.72-3.66h1.7a15.18,15.18,0,0,1-.78,2.59l0,0c.92-1.76,1.87-3,3.4-2.76l-.37,1.59c-1.39-.37-2.94,2.19-3.43,4.53l-.35,1.7Zm-29,0,.84-4c.21-1.08.5-2.51.72-3.66h1.7a15.18,15.18,0,0,1-.78,2.59l0,0c.92-1.76,1.87-3,3.4-2.76l-.37,1.59c-1.39-.37-2.94,2.19-3.43,4.53l-.35,1.7Zm-35.76,0-.55-6.43a16,16,0,0,1,0-2h0a17.06,17.06,0,0,1-.8,1.93l-3.2,6.46H90.55l-.7-10.41h1.83l.41,6.34a15.43,15.43,0,0,1,0,2h0c.27-.67.54-1.35.86-2l3.2-6.38h2l.64,6.4a15.73,15.73,0,0,1,0,1.94h0c.24-.64.47-1.21.76-1.83l3.08-6.51h1.87l-5,10.41Zm72.41-9.79A1.18,1.18,0,0,1,170.89,71a1,1,0,0,1,1.06.92v0a1.17,1.17,0,0,1-1.21,1.09,1,1,0,0,1-1.07-.94v0Zm-49-6.35c0-3.07,1.94-5.44,4.61-5.44,1.91,0,2.56.9,2.56,1.81,0,1.73-1.89,2.64-5.31,2.74a4.11,4.11,0,0,0-.07.78c0,1,.41,1.32,1.67,1.32a7.11,7.11,0,0,0,2.37-.44V67.8a9.27,9.27,0,0,1-3,.48c-2,0-2.88-.82-2.88-2.55Zm2.07-2c2.28-.07,3.35-.51,3.35-1.38,0-.51-.39-.79-1-.79a2.62,2.62,0,0,0-2.35,2.17Zm-33.94,2c0-3.07,1.94-5.44,4.62-5.44,1.9,0,2.55.9,2.55,1.81,0,1.73-1.88,2.64-5.31,2.74a5.14,5.14,0,0,0-.07.78c0,1,.42,1.32,1.67,1.32a7.16,7.16,0,0,0,2.38-.44V67.8a9.36,9.36,0,0,1-3,.48c-2,0-2.88-.82-2.88-2.55Zm2.07-2c2.28-.07,3.35-.51,3.35-1.38,0-.51-.38-.79-1-.79a2.62,2.62,0,0,0-2.35,2.17Zm-11.5,4.42,2.15-10.41c.87,0,2.14,0,3.41,0,2.16,0,3.24.74,3.24,2a3.14,3.14,0,0,1-2.34,2.9v0a1.91,1.91,0,0,1,1.59,1.91c0,1.94-1.8,3.63-5,3.63l-3.07-.06Zm2.77-4.73-.69,3.32a8.52,8.52,0,0,0,1.24.08c1.84,0,2.82-1,2.82-2.13,0-.83-.68-1.28-2.15-1.28-.43,0-1,0-1.23,0ZM83,59l-.66,3.09h.89c1.72,0,3-.76,3-2,0-.65-.44-1.08-1.81-1.08L83,59Zm45.6,9.09.84-4c.22-1.08.5-2.52.72-3.66h1.71a15.78,15.78,0,0,1-.79,2.59l0,0c.92-1.76,1.88-3,3.4-2.77l-.37,1.59c-1.38-.37-2.94,2.19-3.42,4.54l-.35,1.7Zm-12.32,0,1-4.86c.24-1.1,0-1.56-.63-1.56-1.34,0-3,2.75-3.35,4.6L113,68.13h-1.75l.83-4c.27-1.28.54-2.62.72-3.65h1.74a18.62,18.62,0,0,1-.85,2.72l0,0c.79-1.51,2-2.91,3.7-2.91s2.08,1,1.76,2.59l-1.09,5.24Zm-9.4,0,1.59-7.67h1.76l-1.59,7.67Zm-4.3,0L105,56.87h1.75l-2.32,11.26Zm-5.84,0,.83-4c.22-1.08.5-2.52.72-3.66H100a15.78,15.78,0,0,1-.79,2.59l0,0c.92-1.76,1.88-3,3.41-2.77l-.37,1.59c-1.39-.37-2.95,2.19-3.43,4.54l-.35,1.7Zm11.92-9.8a1.17,1.17,0,0,1,1.21-1.08,1,1,0,0,1,1.06.92v0a1.17,1.17,0,0,1-1.2,1.1,1,1,0,0,1-1.07-.94v-.05Z"/>
    </g>
  </g>
</svg>
