<svg xmlns="http://www.w3.org/2000/svg" xmlns:xlink="http://www.w3.org/1999/xlink" viewBox="0 0 225 148">
  <defs>
    <clipPath id="clip-path">
      <path d="M174.79,83.76a3.83,3.83,0,0,1-3.89,3.81H54a3.88,3.88,0,0,1-3.89-3.81V64.24A3.83,3.83,0,0,1,54,60.43H170.9a3.88,3.88,0,0,1,3.89,3.81Zm-3.81-25H54a5.54,5.54,0,0,0-5.52,5.52V83.76A5.54,5.54,0,0,0,54,89.28H170.9a5.56,5.56,0,0,0,5.6-5.52V64.24A5.54,5.54,0,0,0,171,58.72Z" clip-rule="evenodd"/>
    </clipPath>
    <clipPath id="clip-path-2">
      <path d="M54,87.65a3.88,3.88,0,0,1-3.89-3.81V64.24A3.83,3.83,0,0,1,54,60.43h9.8V87.65Z" clip-rule="evenodd"/>
    </clipPath>
    <clipPath id="clip-path-3">
      <rect x="140.18" y="78.08" width="3.97" height="4.04"/>
    </clipPath>
    <clipPath id="clip-path-4">
      <path d="M67.63,68.21h3.42v1.4h.08a4,4,0,0,1,3.5-1.79A3.1,3.1,0,0,1,77.89,70H78a3.48,3.48,0,0,1,3.58-2.18c2.33,0,3.5,1.48,3.5,4.12V82.05H81.47V72.41c0-1.17-.39-1.79-1.4-1.79s-1.86.77-1.86,2.41V82.2H74.63V72.41c0-1.17-.39-1.79-1.4-1.79-1.17,0-1.87.77-1.87,2.41V82.2H67.79v-14Z" clip-rule="evenodd"/>
    </clipPath>
    <clipPath id="clip-path-5">
      <path d="M92.75,67.82c-4.12,0-5.52,2.56-5.52,7.31s1.16,7.39,5.52,7.31c4.12,0,5.52-2.57,5.52-7.31S97.1,67.74,92.75,67.82Zm-2,7.31c0-2.88.16-4.9,2-4.9,1.48,0,1.94,1.4,1.94,4.9S94.23,80,92.75,80C91,80,90.8,78,90.8,75.13Z" clip-rule="evenodd"/>
    </clipPath>
    <clipPath id="clip-path-6">
      <path d="M104.18,75.13c0,3,.31,4.59,1.87,4.59s1.86-1.56,1.86-4.59-.31-4.59-1.86-4.59S104.18,72.09,104.18,75.13ZM106.05,68a2.89,2.89,0,0,1,1.16-.15c3,0,4.28,2.1,4.28,7.31s-1.32,7.31-4.28,7.31a5.08,5.08,0,0,1-1.16-.16,3.54,3.54,0,0,1-2-1.71H104v1.48H100.6V63.62h3.58v5.83h.08A3.63,3.63,0,0,1,106.05,68Z" clip-rule="evenodd"/>
    </clipPath>
    <clipPath id="clip-path-7">
      <path d="M114.21,63.39h3.58V66.5h-3.58Zm0,4.82h3.58V82.13h-3.58Z" clip-rule="evenodd"/>
    </clipPath>
    <clipPath id="clip-path-8">
      <rect x="121.05" y="63.62" width="3.58" height="18.51"/>
    </clipPath>
    <clipPath id="clip-path-9">
      <path d="M132.41,67.74h.15c4.2,0,5.14,2.8,5.14,7.08v.77h-7.16v1.09c0,1.64.47,3.27,1.79,3.27h.08c1.16,0,1.63-.93,1.79-2.65h3.26c-.15,3.27-1.71,5.06-5.05,5.06-5.21,0-5.45-4-5.45-7.47C127,71.24,127.66,67.82,132.41,67.74Zm0,2.41c-1.48,0-1.87,1.48-1.87,2.8v.54h3.66C134.2,71.39,133.89,70.15,132.41,70.15Z" clip-rule="evenodd"/>
    </clipPath>
    <clipPath id="clip-path-10">
      <path d="M165.54,67.82h.15c4.2,0,5.13,2.8,5.13,7.07v.78h-7.15v1.09c0,1.63.47,3.27,1.79,3.27h.08c1.16,0,1.63-.94,1.78-2.65h3.27c-.16,3.27-1.71,5.06-5.05,5.06-5.21,0-5.45-4-5.45-7.47C160.09,71.32,160.79,67.9,165.54,67.82Zm0,2.41c-1.48,0-1.87,1.48-1.87,2.8v.54h3.65C167.32,71.47,167,70.23,165.54,70.23Z" clip-rule="evenodd"/>
    </clipPath>
    <clipPath id="clip-path-11">
      <path d="M152.24,68a3.14,3.14,0,0,0-1.17-.15c-2.95,0-4.28,2.1-4.28,7.31s1.4,7.31,4.28,7.31a4.58,4.58,0,0,0,1.17-.16,3.5,3.5,0,0,0,2-1.71h.08v1.48h3.42V63.62h-3.58v5.83h-.08A3.79,3.79,0,0,0,152.24,68Zm-1.87,7.16c0-3,.31-4.59,1.87-4.59h0c1.55,0,1.86,1.55,1.86,4.59s-.31,4.59-1.86,4.59h0C150.68,79.72,150.37,78.16,150.37,75.13Z" clip-rule="evenodd"/>
    </clipPath>
  </defs>
  <title>logo-mobile-de</title>
  <g id="box">
    <rect width="225" height="148" fill="#fff"/>
  </g>
  <g id="mobile.de">
    <g>
      <g>
        <path d="M174.79,83.76a3.83,3.83,0,0,1-3.89,3.81H54a3.88,3.88,0,0,1-3.89-3.81V64.24A3.83,3.83,0,0,1,54,60.43H170.9a3.88,3.88,0,0,1,3.89,3.81Zm-3.81-25H54a5.54,5.54,0,0,0-5.52,5.52V83.76A5.54,5.54,0,0,0,54,89.28H170.9a5.56,5.56,0,0,0,5.6-5.52V64.24A5.54,5.54,0,0,0,171,58.72Z" fill-rule="evenodd"/>
        <g clip-path="url(#clip-path)">
          <rect x="44.61" y="54.83" width="135.78" height="38.34"/>
        </g>
      </g>
      <g>
        <path d="M54,87.65a3.88,3.88,0,0,1-3.89-3.81V64.24A3.83,3.83,0,0,1,54,60.43h9.8V87.65Z" fill-rule="evenodd"/>
        <g clip-path="url(#clip-path-2)">
          <rect x="46.24" y="56.54" width="21.46" height="34.99"/>
        </g>
      </g>
      <g>
        <rect x="140.18" y="78.08" width="3.97" height="4.04"/>
        <g clip-path="url(#clip-path-3)">
          <rect x="136.3" y="74.19" width="11.74" height="11.82"/>
        </g>
      </g>
      <g>
        <path d="M67.63,68.21h3.42v1.4h.08a4,4,0,0,1,3.5-1.79A3.1,3.1,0,0,1,77.89,70H78a3.48,3.48,0,0,1,3.58-2.18c2.33,0,3.5,1.48,3.5,4.12V82.05H81.47V72.41c0-1.17-.39-1.79-1.4-1.79s-1.86.77-1.86,2.41V82.2H74.63V72.41c0-1.17-.39-1.79-1.4-1.79-1.17,0-1.87.77-1.87,2.41V82.2H67.79v-14Z" fill-rule="evenodd"/>
        <g clip-path="url(#clip-path-4)">
          <rect x="63.74" y="63.93" width="25.2" height="22.16"/>
        </g>
      </g>
      <g>
        <path d="M92.75,67.82c-4.12,0-5.52,2.56-5.52,7.31s1.16,7.39,5.52,7.31c4.12,0,5.52-2.57,5.52-7.31S97.1,67.74,92.75,67.82Zm-2,7.31c0-2.88.16-4.9,2-4.9,1.48,0,1.94,1.4,1.94,4.9S94.23,80,92.75,80C91,80,90.8,78,90.8,75.13Z" fill-rule="evenodd"/>
        <g clip-path="url(#clip-path-5)">
          <rect x="83.34" y="63.93" width="18.82" height="22.4"/>
        </g>
      </g>
      <g>
        <path d="M104.18,75.13c0,3,.31,4.59,1.87,4.59s1.86-1.56,1.86-4.59-.31-4.59-1.86-4.59S104.18,72.09,104.18,75.13ZM106.05,68a2.89,2.89,0,0,1,1.16-.15c3,0,4.28,2.1,4.28,7.31s-1.32,7.31-4.28,7.31a5.08,5.08,0,0,1-1.16-.16,3.54,3.54,0,0,1-2-1.71H104v1.48H100.6V63.62h3.58v5.83h.08A3.63,3.63,0,0,1,106.05,68Z" fill-rule="evenodd"/>
        <g clip-path="url(#clip-path-6)">
          <rect x="96.71" y="59.73" width="18.66" height="26.6"/>
        </g>
      </g>
      <g>
        <path d="M114.21,63.39h3.58V66.5h-3.58Zm0,4.82h3.58V82.13h-3.58Z" fill-rule="evenodd"/>
        <g clip-path="url(#clip-path-7)">
          <rect x="110.32" y="59.5" width="11.35" height="26.52"/>
        </g>
      </g>
      <g>
        <rect x="121.05" y="63.62" width="3.58" height="18.51"/>
        <g clip-path="url(#clip-path-8)">
          <rect x="117.17" y="59.73" width="11.35" height="26.28"/>
        </g>
      </g>
      <g>
        <path d="M132.41,67.74h.15c4.2,0,5.14,2.8,5.14,7.08v.77h-7.16v1.09c0,1.64.47,3.27,1.79,3.27h.08c1.16,0,1.63-.93,1.79-2.65h3.26c-.15,3.27-1.71,5.06-5.05,5.06-5.21,0-5.45-4-5.45-7.47C127,71.24,127.66,67.82,132.41,67.74Zm0,2.41c-1.48,0-1.87,1.48-1.87,2.8v.54h3.66C134.2,71.39,133.89,70.15,132.41,70.15Z" fill-rule="evenodd"/>
        <g clip-path="url(#clip-path-9)">
          <rect x="123.08" y="63.85" width="18.51" height="22.4"/>
        </g>
      </g>
      <g>
        <path d="M165.54,67.82h.15c4.2,0,5.13,2.8,5.13,7.07v.78h-7.15v1.09c0,1.63.47,3.27,1.79,3.27h.08c1.16,0,1.63-.94,1.78-2.65h3.27c-.16,3.27-1.71,5.06-5.05,5.06-5.21,0-5.45-4-5.45-7.47C160.09,71.32,160.79,67.9,165.54,67.82Zm0,2.41c-1.48,0-1.87,1.48-1.87,2.8v.54h3.65C167.32,71.47,167,70.23,165.54,70.23Z" fill-rule="evenodd"/>
        <g clip-path="url(#clip-path-10)">
          <rect x="156.2" y="63.93" width="18.51" height="22.4"/>
        </g>
      </g>
      <g>
        <path d="M152.24,68a3.14,3.14,0,0,0-1.17-.15c-2.95,0-4.28,2.1-4.28,7.31s1.4,7.31,4.28,7.31a4.58,4.58,0,0,0,1.17-.16,3.5,3.5,0,0,0,2-1.71h.08v1.48h3.42V63.62h-3.58v5.83h-.08A3.79,3.79,0,0,0,152.24,68Zm-1.87,7.16c0-3,.31-4.59,1.87-4.59h0c1.55,0,1.86,1.55,1.86,4.59s-.31,4.59-1.86,4.59h0C150.68,79.72,150.37,78.16,150.37,75.13Z" fill-rule="evenodd"/>
        <g clip-path="url(#clip-path-11)">
          <rect x="142.91" y="59.73" width="18.74" height="26.6"/>
        </g>
      </g>
    </g>
  </g>
</svg>
