<svg xmlns="http://www.w3.org/2000/svg" viewBox="0 0 225 148">
  <title>logo-vw</title>
  <g id="box">
    <rect width="225" height="148" fill="#fff"/>
  </g>
  <g id="vw">
    <g>
      <path id="path14" d="M112.52,34.5A39.5,39.5,0,1,1,73,74,39.57,39.57,0,0,1,112.52,34.5" fill-rule="evenodd"/>
      <path id="path16" d="M112.52,39.68a34.47,34.47,0,1,1-34.47,34.5,34.56,34.56,0,0,1,34.47-34.5ZM89.44,55.47,101.8,87.54l4.53-11.49h11.88l4.53,11.49,12.49-32.46a29.61,29.61,0,0,0-7.83-6.66l-8.67,23.91H106.5l-8.71-24a30,30,0,0,0-8.35,7.15Zm50.78,8.06-14.08,36.73a29.7,29.7,0,0,0,14.08-36.73ZM120,102.66l-.09-.75-7.64-19.8-7.64,19.8,0,.62a29.14,29.14,0,0,0,7.93,1.07,30.16,30.16,0,0,0,7.47-.94ZM98.31,99.94,84.59,64.18A29.06,29.06,0,0,0,82.9,74,29.56,29.56,0,0,0,98.31,99.94ZM112.52,44.4a29.32,29.32,0,0,1,7.57,1l-7.48,20.68L105.1,45.34a29.76,29.76,0,0,1,7.42-.94" fill="#fff" fill-rule="evenodd"/>
    </g>
  </g>
</svg>
