<svg xmlns="http://www.w3.org/2000/svg" viewBox="0 0 225 148">
  <title>logo_lbs</title>
  <g id="box">
    <rect width="225" height="148" fill="#fff"/>
  </g>
  <g id="lbs">
    <g id="Ebene_1">
      <path id="path2919" d="M99.42,99.62c0-1.2-1.78-.88-1.78-1.77,0-.39.29-.65.85-.65a2.68,2.68,0,0,1,.69.1l0-.39a3.17,3.17,0,0,0-.69-.08c-.84,0-1.33.46-1.33,1.07,0,1.21,1.78.86,1.78,1.77,0,.53-.42.73-.91.73a2.47,2.47,0,0,1-.79-.15l0,.43a2.88,2.88,0,0,0,.77.1C98.89,100.78,99.42,100.29,99.42,99.62Zm2.47-.4c0,.85-.38,1.21-1,1.21a1.82,1.82,0,0,1-.55-.08v-1c0-.5.27-1.16.84-1.16S101.89,98.58,101.89,99.22Zm.5,0c0-.87-.37-1.33-1-1.33a1,1,0,0,0-1,.67h0a3,3,0,0,0,0-.58H100v4.3h.35v-1.51a3,3,0,0,0,.58,0A1.38,1.38,0,0,0,102.39,99.18Zm2.11.27a.92.92,0,0,1-.83,1,.41.41,0,0,1-.46-.42c0-.27.22-.61,1.29-.61Zm.43,1.23a2.35,2.35,0,0,1,.08-.8V98.77a1,1,0,0,0-1.09-.92,2.33,2.33,0,0,0-1,.21l0,.37a1.7,1.7,0,0,1,.86-.24c.49,0,.65.24.66.66v.24c-1.12,0-1.73.41-1.73,1a.68.68,0,0,0,.77.69,1,1,0,0,0,1-.62h0a2.8,2.8,0,0,0,0,.52Zm2.22-2.83a.91.91,0,0,0-1,.77h0a4.7,4.7,0,0,0,.06-.68h-.34v2.75h.35V99.59c0-1,.29-1.42.92-1.32Zm2.58,2.83-1.22-1.5,1.13-1.25h-.52l-1.18,1.24V96.55h-.35v4.13h.35V99.24l1.23,1.44Zm2-1.23a.92.92,0,0,1-.83,1,.41.41,0,0,1-.46-.42c0-.27.23-.61,1.29-.61Zm.52,1.23c0-.2,0-.52,0-.8V98.77c0-.54-.23-.92-1-.92a2.37,2.37,0,0,0-1,.21l0,.37a1.7,1.7,0,0,1,.86-.24c.49,0,.65.24.57.66v.24c-1,0-1.64.41-1.64,1a.68.68,0,0,0,.77.69,1.07,1.07,0,0,0,1-.62h0a2.8,2.8,0,0,0,0,.52Zm2.41-.8c0-1-1.38-.57-1.38-1.25,0-.28.21-.45.62-.45a2,2,0,0,1,.59.1v-.37a3.55,3.55,0,0,0-.55-.06c-.72,0-1.11.36-1.11.83,0,1,1.38.58,1.38,1.26,0,.3-.28.48-.69.48a2.53,2.53,0,0,1-.64-.09v.39a2.77,2.77,0,0,0,.6.06C114.21,100.78,114.65,100.39,114.65,99.88Zm2.27,0c0-1-1.38-.57-1.38-1.25,0-.28.2-.45.62-.45a2,2,0,0,1,.58.1v-.37a3.31,3.31,0,0,0-.55-.06c-.72,0-1.1.36-1.1.83,0,1,1.37.58,1.37,1.26,0,.3-.28.48-.69.48a2.45,2.45,0,0,1-.63-.09v.39a2.68,2.68,0,0,0,.59.06C116.47,100.78,116.92,100.39,116.92,99.88ZM119.2,99h-1.43a.77.77,0,0,1,.75-.73A.65.65,0,0,1,119.2,99Zm.45.13a1.05,1.05,0,0,0-1.11-1.16c-.78,0-1.24.63-1.24,1.48s.46,1.45,1.31,1.45a2.46,2.46,0,0,0,.94-.17l0-.37a1.91,1.91,0,0,1-.82.19c-.64,0-1-.36-.94-1.21h1.89A1.62,1.62,0,0,0,119.65,99.09Zm2.91,1.59V98.76c0-.49-.2-.89-.84-.89a1,1,0,0,0-1,.67h0a4.08,4.08,0,0,0,0-.61h-.41v2.75h.34V99.32c0-.67.35-1.17.85-1.17s.53.25.53.7v1.83ZM57.13,99.61c0,.45-.29.78-1,.78a4.64,4.64,0,0,1-.52,0V98.91H56C56.64,98.91,57.13,99.07,57.13,99.61ZM57,97.85c0,.46-.36.73-1,.73h-.36V97.23h.55C56.87,97.22,57,97.49,57,97.85Zm.6,1.73a.87.87,0,0,0-.8-.88h0a.93.93,0,0,0,.71-.89c0-.55-.38-.9-1.21-.9l-1.05,0v3.77l.91,0C57.4,100.71,57.64,100,57.64,99.58Zm2.13-.13a.92.92,0,0,1-.83,1,.42.42,0,0,1-.47-.42c0-.27.23-.61,1.3-.61Zm.47,1.23a3.81,3.81,0,0,1,0-.8V98.77c-.05-.54-.27-.92-1.05-.92a2.4,2.4,0,0,0-1,.21l0,.37a1.7,1.7,0,0,1,.87-.24c.48,0,.64.24.61.66v.24c-1.08,0-1.69.41-1.69,1a.68.68,0,0,0,.77.69,1.06,1.06,0,0,0,1-.62h0a2.8,2.8,0,0,0,0,.52Zm3,0V97.93h-.35v1.36c0,.67-.35,1.17-.85,1.17s-.52-.26-.52-.7V97.93H61v1.92c0,.49.2.89.84.89a1,1,0,0,0,1-.67h0a6,6,0,0,0,0,.61Zm2.5-.8c0-1-1.38-.57-1.38-1.25,0-.28.2-.45.62-.45a1.91,1.91,0,0,1,.58.1l0-.37a3.55,3.55,0,0,0-.56-.06c-.71,0-1.1.36-1.1.83,0,1,1.38.58,1.38,1.26,0,.3-.29.48-.7.48a2.45,2.45,0,0,1-.63-.09v.39a2.77,2.77,0,0,0,.6.06C65.27,100.78,65.71,100.39,65.71,99.88Zm2.63-.66c0,.85-.38,1.21-1,1.21a1.87,1.87,0,0,1-.55-.08v-1c0-.5.27-1.16.84-1.16S68.34,98.58,68.34,99.22Zm.42,0c0-.87-.38-1.33-1-1.33a1,1,0,0,0-1,.67h0a4,4,0,0,0,0-.58h-.3v4.3h.34v-1.51a1.91,1.91,0,0,0,.49,0A1.39,1.39,0,0,0,68.76,99.18Zm2,.27a.92.92,0,0,1-.83,1,.41.41,0,0,1-.46-.42c0-.27.22-.61,1.29-.61Zm.53,1.23c0-.2,0-.52,0-.8V98.77c0-.54-.22-.92-1-.92a2.4,2.4,0,0,0-1,.21l0,.37a1.73,1.73,0,0,1,.87-.24c.49,0,.64.24.56.66v.24c-1,0-1.64.41-1.64,1a.69.69,0,0,0,.78.69,1,1,0,0,0,1-.62h0a4.18,4.18,0,0,0,0,.52Zm2.1-2.83a.91.91,0,0,0-1,.77h0a4.7,4.7,0,0,0,.06-.68h-.31v2.75h.35V99.59c0-1,.26-1.42.89-1.32ZM76,100.68l-1.22-1.5,1.13-1.25h-.52l-1,1.24V96.55h-.34v4.13h.34V99.24l1.08,1.44Zm2-1.23a.92.92,0,0,1-.83,1,.41.41,0,0,1-.46-.42c0-.27.23-.61,1.29-.61Zm.49,1.23a4.53,4.53,0,0,1,0-.8V98.77c0-.54-.27-.92-1-.92a2.32,2.32,0,0,0-1,.21l0,.37a1.7,1.7,0,0,1,.86-.24c.49,0,.64.24.6.66v.24c-1.06,0-1.67.41-1.67,1a.68.68,0,0,0,.77.69,1,1,0,0,0,1-.62h0a2.8,2.8,0,0,0,0,.52Zm2.47-.8c0-1-1.38-.57-1.38-1.25,0-.28.2-.45.62-.45a2,2,0,0,1,.59.1v-.37a3.55,3.55,0,0,0-.55-.06c-.72,0-1.11.36-1.11.83,0,1,1.38.58,1.38,1.26,0,.3-.29.48-.7.48a2.45,2.45,0,0,1-.63-.09v.39a2.77,2.77,0,0,0,.6.06C80.52,100.78,81,100.39,81,99.88Zm2.21,0c0-1-1.38-.57-1.38-1.25,0-.28.2-.45.62-.45a2,2,0,0,1,.58.1v-.37a3.31,3.31,0,0,0-.55-.06c-.72,0-1.1.36-1.1.83,0,1,1.37.58,1.37,1.26,0,.3-.28.48-.69.48a2.45,2.45,0,0,1-.63-.09v.39a2.71,2.71,0,0,0,.6.06C82.72,100.78,83.17,100.39,83.17,99.88ZM85.51,99H84.08a.76.76,0,0,1,.75-.73A.65.65,0,0,1,85.51,99Zm.44.13a1,1,0,0,0-1.1-1.16c-.79,0-1.24.63-1.24,1.48s.45,1.45,1.31,1.45a2.41,2.41,0,0,0,.93-.17l0-.37a1.87,1.87,0,0,1-.82.19c-.63,0-1-.36-.94-1.21h1.89A1.62,1.62,0,0,0,86,99.09Zm3.92.17c0,.51-.27,1.17-.84,1.17s-.68-.39-.68-1c0-.86.39-1.21,1-1.21a2.13,2.13,0,0,1,.55.07Zm.52,1.42V96.55h-.34v1.34l-.65,0A1.4,1.4,0,0,0,88,99.44c0,.83.34,1.34,1,1.34a1,1,0,0,0,1-.67h0a4.26,4.26,0,0,0,0,.57ZM92.84,99H91.41a.77.77,0,0,1,.75-.73A.65.65,0,0,1,92.84,99Zm.45.13a1.05,1.05,0,0,0-1.11-1.16c-.78,0-1.24.63-1.24,1.48s.46,1.45,1.31,1.45a2.46,2.46,0,0,0,.94-.17l0-.37a1.91,1.91,0,0,1-.82.19c-.64,0-1-.36-.94-1.21h1.89A1.62,1.62,0,0,0,93.29,99.09Zm2-1.24a.91.91,0,0,0-1,.77h0a4.7,4.7,0,0,0,.06-.68H94v2.75h.35V99.59c0-1,.28-1.42.91-1.32Zm93.31-47.12c.15.14.22.26-.29.1-.73-.23-1.3-.37-1.77-.49a49.48,49.48,0,0,0-23.68.36c-4.93,1.25-11,4-17.65,8.23a97.51,97.51,0,0,0-11.77,8.47c-19.22-14-32.3-17.24-47.85-17.24-20.82,0-38.65,9-48.93,17-.34.26-.46.16-.23-.08,9.24-10,28.7-21.26,52.88-21.26,18.48,0,34.9,7.34,44.13,14.44a79,79,0,0,1,18.88-10.06,51.46,51.46,0,0,1,17.87-3.32c8.49,0,13.43,1.26,16.51,2.79A13.25,13.25,0,0,1,188.59,50.73ZM55.29,92.25H74.05V85.71H63.55V65.58H55.29V92.25Zm44.34-7.77-.36.07c1.43,5.79,6.41,8.12,12,8.12,5.29,0,11.36-2.35,11.86-8.18,0-.26,0-.53,0-.8a7.43,7.43,0,0,0-4-6.8,28.75,28.75,0,0,0-7.54-2.14c-1-.23-3-.5-3-1.9s1.56-1.71,2.65-1.71c2.06,0,3.53.7,4.31,2.68l6.77-2.06c-1.64-4.63-6.11-6.53-10.73-6.53a13.44,13.44,0,0,0-7.66,2,8.29,8.29,0,0,0-3.42,6.69c0,6.33,5.94,7.69,11,8.66,1.13.22,3,.51,3.24,1.88a1.51,1.51,0,0,1,0,.3c0,1.48-2.09,1.63-3.14,1.63-1.88,0-3.39-.53-4.28-1.93a4.77,4.77,0,0,1-.58-1.29Zm-9.47.07a2.4,2.4,0,0,1-.92,1.35,3.59,3.59,0,0,1-2.37.5H83.34V81.58h3.22a5.5,5.5,0,0,1,2.37.35A2.35,2.35,0,0,1,90.21,84,2.24,2.24,0,0,1,90.16,84.55Zm-6.82-8.64V71.43H86.5c1.54,0,3.16.27,3.16,2.24a2.43,2.43,0,0,1-.77,1.74,3.29,3.29,0,0,1-2.28.5Zm14.79,8.54a6,6,0,0,0-5.16-6v-.08a5.8,5.8,0,0,0,4.49-5.79A7,7,0,0,0,94.63,67a9.4,9.4,0,0,0-5.72-1.37h-13V92.25H88.09c2.4,0,5.27,0,7.32-1.52s2.72-4,2.72-6.28Z" fill-rule="evenodd"/>
    </g>
  </g>
</svg>
