<svg xmlns="http://www.w3.org/2000/svg" viewBox="0 0 225 148">
  <title>logo-aspo</title>
  <g id="box">
    <rect width="225" height="148" fill="#fff"/>
  </g>
  <g id="aspo">
    <g>
      <path d="M120.19,67.53a7.33,7.33,0,1,1,14.66,0,7.33,7.33,0,1,1-14.66,0Zm0-12.18V59a10.68,10.68,0,0,1,8.72-4.37c6.86-.16,12,6.08,12,12.94.15,6.87-5,13.1-11.84,13a9.9,9.9,0,0,1-8.41-3.9v15h-6.37V55.35Zm30.75,12.18a7.29,7.29,0,0,1,7.18-7.33,7.41,7.41,0,0,1,0,14.81,7.33,7.33,0,0,1-7.18-7.48Zm-6.08,0a13.34,13.34,0,1,1,13.26,12.94A13.09,13.09,0,0,1,144.83,67.53ZM70.44,68.76v2c0,3-3.28,5.15-6.24,5.15-2.19,0-4.53-1.25-4.53-3.28,0-2.49,3.59-3.9,5.78-3.9Zm0,11.09V76.57a8.29,8.29,0,0,1-7.77,3.9c-4.66,0-9.17-2.18-9.17-7.64s6.06-8.11,11.65-8.26h5.29s.15-1.56,0-1.56c0-1.72-1.87-3.9-5.13-3.9a9.86,9.86,0,0,0-6.84,2.65l-3.26-3.27a14.61,14.61,0,0,1,10.57-3.9C72.3,54.59,76,58.8,76,63.94V79.85Z" fill-rule="evenodd"/>
      <path d="M95.85,75,104,79.54,81.35,93.26ZM91,68l-5.46-3.44,16.06-9.67ZM78.38,64.56,115,42.88,94.92,70l17,9.83-44,25.27L92.11,72.83Z" fill-rule="evenodd"/>
    </g>
  </g>
</svg>
