<svg xmlns="http://www.w3.org/2000/svg" viewBox="0 0 225 148">
  <title>logo-addidas</title>
  <g id="box">
    <rect width="225" height="148" fill="#fff"/>
  </g>
  <g id="addidas">
    <g>
      <path id="path2425" d="M155.53,70.64a17.21,17.21,0,0,1-2.69,4H72.46a28.66,28.66,0,0,1-2.59-4h85.72m-5.84,8a13,13,0,0,1-4.14,3.63H79.4a21,21,0,0,1-3.85-3.63h74.16M140.43,86c-7.12,5.31-14.91,8-20.82,8.4a44.61,44.61,0,0,1,.6-8.4h20.15M163,44.42c.61,6.5-1.5,14.41-5.49,22.41H127.92A35.64,35.64,0,0,1,132,61.32c8.61-10.09,21.83-16.32,31-16.9m-57.44,50c-5.7-.4-13.52-3.09-20.7-8.4H105.3a51.42,51.42,0,0,1,.29,8.4m7.1.6a36.78,36.78,0,0,1-6.39-9H119a39.92,39.92,0,0,1-6.31,9M97.62,66.83H67.86c-4-8-6-15.91-5.41-22.41,9.11.58,22.44,6.81,31,16.9a44.64,44.64,0,0,1,4.1,5.51m27.89,0H99.89a40.54,40.54,0,0,1-.4-7.1c0-14,6.2-28.53,13.2-35,6.92,6.5,13.22,21,13.22,35,0,2.59-.2,4.81-.39,7.1"/>
      <path id="path2447" d="M160.84,100.15a2.23,2.23,0,0,1,2.19,2.32,2.19,2.19,0,0,1-4.38,0A2.23,2.23,0,0,1,160.84,100.15Zm0,.31a1.92,1.92,0,0,0-1.9,2,1.89,1.89,0,0,0,1.9,1.9,2,2,0,0,0,1.9-1.9A2,2,0,0,0,160.84,100.46Zm.57,2.08a.43.43,0,0,1,.41.49v.66h-.52v-.3c0-.52-.1-.74-.38-.74h-.49v1h-.34v-2.42h.81c.51,0,.92.3.92.69S161.61,102.54,161.41,102.54Zm-1-.92v.69h.6a.3.3,0,0,0,.29-.2.41.41,0,0,0-.38-.49h-.51" fill-rule="evenodd"/>
      <path id="path2449" d="M155.43,123.18c4.15,0,7.61-1.67,7.61-5.82,0-2.37-1.67-4-4.35-4.66s-6.31-.58-6.31-2.37c.18-1.18,1.28-1.49,3-1.49,2.57,0,2.68,1.39,2.78,2.29h4.25c-.31-3.26-3-5.54-7.22-5.54-4.46,0-7,2.37-7,5.44a4.6,4.6,0,0,0,2.37,4.15,18.5,18.5,0,0,0,4.35,1.19c1.86.19,3.55.4,3.65,1.67,0,.89-.88,2-2.86,2-2.87,0-3.47-1.59-3.47-2.67h-4.44c.09,3.45,3,5.82,7.7,5.82"/>
      <path id="path2451" d="M136.53,123.3a9.38,9.38,0,0,0,5-1.5v1.1h4.33V105.77h-4.33v1.29a8.53,8.53,0,0,0-5-1.5,8.87,8.87,0,1,0,0,17.74Zm-4.7-8.92a5.08,5.08,0,0,1,5-5,5,5,0,0,1,0,9.92,5.06,5.06,0,0,1-5-4.9" fill-rule="evenodd"/>
      <path id="path2453" d="M122,99.71v7.23a8.75,8.75,0,0,0-5-1.51,8.94,8.94,0,0,0,0,17.87,9.38,9.38,0,0,0,5-1.51v1.11h4.15V99.71Zm-9.91,14.67a5,5,0,1,1,4.88,4.9,5.06,5.06,0,0,1-4.88-4.9" fill-rule="evenodd"/>
      <path id="path2455" d="M101.94,122.9h4.16V105.77h-4.16Zm0-18.86h4.16V99.71h-4.16V104" fill-rule="evenodd"/>
      <path id="path2457" d="M89.24,123.22a9.66,9.66,0,0,0,6.3-1.43v1.11h4.33V99.71H95.54v7.23a9,9,0,1,0-6.3,16.28Zm-3.66-8.84a5,5,0,1,1,10,0,5,5,0,0,1-10,0" fill-rule="evenodd"/>
      <path id="path2459" d="M70.67,123.3a9.81,9.81,0,0,0,5.14-1.5v1.1H80V105.77H75.81v1.29a9.14,9.14,0,0,0-5.14-1.5,8.87,8.87,0,0,0,0,17.74Zm-4.81-8.92a5,5,0,1,1,4.91,4.9,5.07,5.07,0,0,1-4.91-4.9" fill-rule="evenodd"/>
    </g>
  </g>
</svg>
