<svg xmlns="http://www.w3.org/2000/svg" viewBox="0 0 225 148">
  <title>logo-e-on</title>
  <g id="box">
    <rect width="225" height="148" fill="#fff"/>
  </g>
  <g id="e-on">
    <path id="path2006" d="M133.35,69.7c0,3.71-2.31,8.58-4,11.79-2.62,5.06-6.16,8.1-11.93,8.45-5.09.32-16.61,1.2-14.59-7.38.87-3.72,2.82-7,4-10.58,4-8,14.1-9.53,22.12-7.53,2.72,1,4.16,2.31,4.37,5.25Zm-13.46.36c-4.12,0-4.62,5.75-5.4,8.84-.19,1.17-1.5,5.08.61,5.08,5,1,5.42-4.44,6.25-8.06.3-1.33.91-3.57.64-4.94,0-1-1.42-.85-2.1-.92Zm-28.37.25c-.51,9.74-7.35,9-15.48,9-3.09,0-6.25-.22-9.31-.22-1.12,1.15,2.14,4.61,3.06,5.19a7.78,7.78,0,0,0,9.59-1.42c1.35,0,15.9-1.9,10.86,3.12a21,21,0,0,1-9,4.19C71.25,92.48,49.7,86.75,57,72.69c5-8.18,15.73-12.65,24.61-14.95a18.76,18.76,0,0,1,2.48-.36c6.32-.47,7.46,8.25,7.46,12.93Zm-9.27-.77A8.22,8.22,0,0,0,82,66.88C81,63,70.8,71.34,69.57,72.56c-.15.31,0,.21.18.32,3.4,0,6.8,0,10.19,0,2.24-.37,2.31-1,2.31-3.3Zm19.71,5c-.77,1.55-.6,3.59-2.17,4.76C97.65,80.9,92.25,80.9,93.44,77c1.12-3.69,3.26-5.26,7.14-4.3.94.32,1.16,1,1.38,1.81Zm67.54-4.79a13.65,13.65,0,0,1-.43,3c-1.28,5.67-3.34,11.06-5.18,16.51-1.69,1.69-5.19.77-7-.32-.9-.9,1.35-5.52,1.71-6.64.55-1.71,3.56-8,1-9.3a8.35,8.35,0,0,0-2.27.32c-7.59,2.66-13,10.38-18.43,15.84-2.37,1.19-4.07.88-6.4-.29-.23-.23-.11-.59-.07-.88A131,131,0,0,1,140,66.4c.47-1.41,5.36-.89,6.57-.28,0,1.56-.17,4.19,2.09,4.19,5.07-.56,17.49-11.56,20.63-2.13a9,9,0,0,1,.18,1.56Z" fill-rule="evenodd"/>
  </g>
</svg>
