<svg xmlns="http://www.w3.org/2000/svg" viewBox="0 0 225 148">
  <title>logo-dp</title>
  <g id="box">
    <rect width="225" height="148" fill="#fff"/>
  </g>
  <g id="dp">
    <path id="path3344" d="M171.05,81.49c-11.08,0-15.37-9.64-14.79-17l3.26-1A12.9,12.9,0,0,0,161.16,72a8.94,8.94,0,0,1,8.93-10.64,8.8,8.8,0,0,1,9.11,8.88,27.79,27.79,0,0,0,1.35-7.17l7.5,1.87C187.45,73.77,180.85,81.49,171.05,81.49Zm10.78,5.12-4.24-4.29h4.2L186,86.61Zm-5.7,0-4.25-4.29h4.21l4.25,4.29Zm-9.52,0H162.4l4.25-4.29h4.21l-4.25,4.29Zm-9.91,0L161,82.32h4.2l-4.24,4.29Zm13.41-22.16a6,6,0,1,0,6,6,6,6,0,0,0-6-6" fill="#231f20" fill-rule="evenodd"/>
    <path id="path3346" d="M147.68,82.43a2.78,2.78,0,0,1-3-3V74.63h-1.78V72.84h1.78V71l2.51-.78v2.66h2.15v1.79h-2.15V79c0,.8.22,1.54,1.17,1.54a2.32,2.32,0,0,0,1.14-.25l.07,1.92a6.56,6.56,0,0,1-1.85.22Zm-9.58,0a11.15,11.15,0,0,1-2.76-.4l.14-2a5.29,5.29,0,0,0,2.4.62c.63,0,1.6-.23,1.6-1.15,0-1.83-4.23-.58-4.23-4,0-2,1.76-2.91,3.68-2.91a11.26,11.26,0,0,1,2.64.35l-.16,1.84a5.84,5.84,0,0,0-2.18-.41c-.65,0-1.43.24-1.43,1.05,0,1.48,4.23.53,4.23,3.91,0,2.2-1.94,3.06-3.93,3.06Zm-8.78,0a4.62,4.62,0,0,1-4.89-4.84,4.91,4.91,0,1,1,9.81,0,4.63,4.63,0,0,1-4.92,4.84Zm-9.68-5.09h-1.11v4.83H116V69.44h3.22c2.76,0,5.29.8,5.29,3.83s-2.16,4-4.89,4Zm-12.81,3.25a6.42,6.42,0,0,0,3.11-.94v2a6.42,6.42,0,0,1-3.22.74c-3.09,0-4.89-1.78-4.89-4.85,0-2.71,1.44-4.95,4.35-4.95,3.47,0,4.45,2.39,4.45,5.66h-6.47a2.44,2.44,0,0,0,2.67,2.36Zm-6.19,1.58H98.13v-5c0-1.14,0-2.68-1.52-2.68-1.69,0-2.06,1.91-2.06,3.11v4.58h-2.5V68.54h2.5v5.55h0a3.44,3.44,0,0,1,2.9-1.48c2.2,0,3.15,1.56,3.15,3.66Zm-12.32.26c-3.08,0-4.62-2.1-4.62-4.94s1.61-4.86,4.53-4.86a8.39,8.39,0,0,1,2.37.3l-.23,1.94a3.62,3.62,0,0,0-1.65-.35c-1.51,0-2.47,1.2-2.47,3s.82,3.05,2.53,3.05a5,5,0,0,0,1.87-.44l.11,2a8.23,8.23,0,0,1-2.44.31Zm-9.47,0a11.23,11.23,0,0,1-2.77-.4l.14-2a5.3,5.3,0,0,0,2.41.62c.62,0,1.6-.23,1.6-1.15,0-1.83-4.24-.58-4.24-4,0-2,1.76-2.91,3.68-2.91a11.51,11.51,0,0,1,2.65.35l-.17,1.84A5.84,5.84,0,0,0,80,74.38c-.65,0-1.43.24-1.43,1.05,0,1.48,4.23.53,4.23,3.91,0,2.2-1.94,3.06-3.92,3.06Zm-5.76,0a2.79,2.79,0,0,1-3-3V74.63H68.26V72.84H70V71l2.51-.78v2.66H74.7v1.79H72.55V79c0,.8.22,1.54,1.18,1.54a2.31,2.31,0,0,0,1.13-.25l.08,1.92a6.56,6.56,0,0,1-1.85.22Zm-5.91-.29H64.86V80.89h0a3.89,3.89,0,0,1-3.06,1.48c-2.2,0-3.17-1.55-3.17-3.65V72.84H61.1v5c0,1.15,0,2.69,1.6,2.69,1.77,0,2.16-1.91,2.16-3.11V72.84h2.32ZM53.69,80.56a6.46,6.46,0,0,0,3.12-.94v2a6.44,6.44,0,0,1-3.22.74c-3.09,0-4.89-1.78-4.89-4.85,0-2.71,1.43-4.95,4.34-4.95,3.48,0,4.46,2.39,4.46,5.66H51a2.45,2.45,0,0,0,2.67,2.36ZM40.43,82.14H37V69.44h3.48c3.89,0,7.33,1.31,7.33,6.35s-3.44,6.35-7.33,6.35Zm12.78-7.75a2.13,2.13,0,0,0-2.16,2.2h4.14C55.12,75.41,54.58,74.39,53.21,74.39Zm-12.33-3H39.45v8.76h1.43a4.38,4.38,0,0,0,0-8.76Zm78.55,0h-.9v3.93h.9c1.3,0,2.46-.41,2.46-1.92S120.77,71.41,119.43,71.41Zm9.89,3.08c-1.58,0-2.34,1.38-2.34,2.79s.49,3.23,2.34,3.23,2.37-1.67,2.37-3.23S130.93,74.49,129.32,74.49Zm-23-.1a2.13,2.13,0,0,0-2.17,2.2h4.15c-.07-1.18-.62-2.2-2-2.2" fill="#231f20" fill-rule="evenodd"/>
  </g>
</svg>
