<svg xmlns="http://www.w3.org/2000/svg" viewBox="0 0 225 148">
  <title>logo-sap</title>
  <g id="box">
    <rect width="225" height="148" fill="#fff"/>
  </g>
  <g id="sap">
    <g id="layer1">
      <path id="path25030" d="M55.05,102.36h58L170,45.5H55.05v56.86"/>
      <path id="path25032" d="M123.29,56.32H112.07V83.16l-9.88-26.84H92.54L84,78.77c-.9-5.66-6.73-7.61-11.45-9.08-2.91-1-6.28-2.43-6.06-4,0-1.32,1.57-2.52,4.94-2.34a18.77,18.77,0,0,1,8.3,2.23l4-6.84a31.41,31.41,0,0,0-12.79-3h0c-4.94,0-9,1.55-11.44,4.12a10.1,10.1,0,0,0-2.7,6.59,9.42,9.42,0,0,0,3.82,7.88,28.36,28.36,0,0,0,7.85,3.52c3.14,1,5.61,1.81,5.61,3.61a2.51,2.51,0,0,1-.67,1.76,5.43,5.43,0,0,1-3.81,1.15c-3.15.06-5.39-.44-9.21-2.67L56.86,88.6A26.42,26.42,0,0,0,69.66,92h.58a15.16,15.16,0,0,0,9.67-3.36c.22-.12.22-.24.45-.36l-1.13,3.1H89.57L91.15,86a18.53,18.53,0,0,0,6.07,1,18.24,18.24,0,0,0,5.84-.93l1.8,5.32h16.63V80.58h3.82c8.75,0,13.91-4.5,13.91-12C139.22,60.17,134.29,56.32,123.29,56.32ZM97.15,79.27a10.1,10.1,0,0,1-3.59-.64l3.59-11.31h0l3.6,11.35A10.83,10.83,0,0,1,97.15,79.27ZM124,72.7h-2.48V63.58H124c3.37,0,6.06,1.1,6.06,4.51S127.34,72.7,124,72.7" fill="#fff" fill-rule="evenodd"/>
      <path id="path25034" d="M127.28,98.78a2.93,2.93,0,1,1,2.92,3.1A3,3,0,0,1,127.28,98.78Zm2.92,3.72a3.69,3.69,0,1,0-3.82-3.72A3.77,3.77,0,0,0,130.2,102.5Zm-.67-3.38h.62l1,1.85h.93L131,99.07a1.25,1.25,0,0,0,1.14-1.18c0-.86-.68-1.24-1.6-1.24h-1.6V101h.62Zm0-.62V97.11h.94c.23,0,.94.11.94.67s-.71.72-1.18.72h-.7"/>
    </g>
  </g>
</svg>
