<svg xmlns="http://www.w3.org/2000/svg" viewBox="0 0 225 148">
  <title>logo-thieme</title>
  <g id="box">
    <rect width="225" height="148" fill="#fff"/>
  </g>
  <g id="thieme">
    <g>
      <g>
        <path d="M64,71a3.71,3.71,0,0,0-1.94-.78c-1.71-.08-2.08,1.56-3.43,1.06-.74-.27-1.91-.94-1.79-1.87.84-1.16,2.49-1.2,3.74-1.4s1.46-1.56,2.14-2.23c0,0,0-.07,0-.09a4.56,4.56,0,0,0-2.61.11,5,5,0,0,0-1.62,1.58.66.66,0,0,1-.78.27c.71-1.07.81-2.53,1.73-3.55a3.44,3.44,0,0,1,1.84-1c1.31-.31,1.07-1.88,1.85-2.7a.06.06,0,0,0,0-.1,2.43,2.43,0,0,0-2.77,1c-.54.8-.66,1.66-1.54,2a5.76,5.76,0,0,1-.28-1.61c0-.84,1.36-1.46,2-2.21s.26-2.11.32-3.1c0-.06,0-.08-.09-.06a4,4,0,0,0-2,1.59c-.62.88.32,1.93-.48,2.53-.32-.6-.59-1.37-.89-2s0-1.4-.24-2.14c-.38-1-1.48-1.43-2.16-1.83-.05,0-.08,0-.1,0a3.65,3.65,0,0,0,.08,2.82c.43.63,1.48,1.24,1.62,1.56A4.5,4.5,0,0,1,57,61.15c-.24,0-.45-.08-.44-.28.06-1.89-1.92-1.81-3.14-2.37-.06,0-.08,0-.08,0A3.48,3.48,0,0,0,54.18,61c1,1.17,2.72.36,2.94,1.36.41,1.82-.76,4-1.77,5.59-.56-1,.29-1.79.32-2.94a3.68,3.68,0,0,0-.94-2.14s-.07,0-.1,0a9.79,9.79,0,0,0-1.33,2.25,1.75,1.75,0,0,0,.61,1.65,2.68,2.68,0,0,1,.65,2.4,8.37,8.37,0,0,1-1.5,3.19c-.12.18-.4.34-.6,0-.52-.92-1.13-2.11-1.55-2.85-1.16-2.08,1.69-3.23,1-5.23a3,3,0,0,0-1-1.3c-.06,0-.1-.05-.13,0a13.68,13.68,0,0,0-.93,1.75c-.29.91.43,1.41.37,1.94a1.41,1.41,0,0,1-.32.85c-.81-1.37-2-2.81-2.11-4.1-.21-2,2.46-1.86,3.35-3.1a3,3,0,0,0,.42-2.15c0-.07,0-.1-.13-.08s-.74.18-1.21.34c-1.64.55-1.25,2.29-2.45,3.1a7.25,7.25,0,0,1,.75-3.22c.42-.54.9-.49,1.4-1.22a4.4,4.4,0,0,0,.63-2.54c0-.07,0-.1-.1-.07-1.08.39-1.92.53-2.56,1.41a2.48,2.48,0,0,0-.34,1.77c.11.47-.77,2.68-.92,3.45-.6-.55-.07-1.16-.15-1.76A10.74,10.74,0,0,0,45,56.73s0-.07-.1,0a4,4,0,0,0-.62,2.62,2.47,2.47,0,0,0,1.16,1.81,2.58,2.58,0,0,1,.85,2.74s-.61-.18-.65-.69c-.12-1.78-2.06-1.56-3.12-2.34,0,0-.1,0-.1,0a3.43,3.43,0,0,0,2.5,3.6c1.41.37,2.21,1.89,2.81,3.22-1.47.14-1.6-1.21-2.61-1.69s-2.85,0-3.31.17c-.07,0-.07.06,0,.09,1.39,1,2.29,2.41,4.17,1.91a4.41,4.41,0,0,1,2.41.92,5,5,0,0,1-1.69,2.25c-.94.4-1.47-.56-2.25-1a3.54,3.54,0,0,0-3.07.15c-.07,0-.08.07,0,.14a15.08,15.08,0,0,0,1.15,1c1.09.76,2.21-.08,3.25.53-.5.65-1.52.59-2.13,1.4a3.58,3.58,0,0,0-.56,2.25c0,.09,0,.09.09.07.91-.48,2.32-.33,2.72-1.43.31-.84.1-1.52,1.61-2.65a5.42,5.42,0,0,1-.56,2.45c-.56,1.27.11,2.37.67,3.32a.09.09,0,0,0,.14,0A4.43,4.43,0,0,0,48.92,76a3.72,3.72,0,0,0-.56-2.66,3.41,3.41,0,0,1,.72-2.81c1.25,2.53,2.23,4.32,2.05,7.64a10.54,10.54,0,0,1-.88,4.46c-.59,1.13-2.92,1.7-1.81,3.3.32.45.7,1,1.24.8s.41-.64.49-1.09c.84,0,1.41.69,2.21.57s.22-.91.28-1.17a1.77,1.77,0,0,1,1.53-.92c.8.07.51-.65,1.08-.65,1.24,0,2.94,1,4.42,1.57a2.23,2.23,0,0,0,.32-.2c0-.55-.8-.84-1.08-1.37.16-.24.4-.28.4-.6A11.89,11.89,0,0,0,57,82c-.65-.26-1.65-.52-1.93-1.37-1-3.17-.18-7.19,1.13-9.89,1.7,1.18.23,3-.05,4.22-.19.91.51,1.71,1,2.41,0,.06.07.06.12,0a5.43,5.43,0,0,0,1.14-1.57c.7-1.46-1-2.38-.45-3.66,1.32.71,1.32,1.62,1.61,2.57s1.73,1.12,2.62,1.75c.06,0,.08,0,.1,0a3.72,3.72,0,0,0-.49-2.66c-.65-1-2-.42-2.47-1.54.52-.61,1.45-.11,2.09,0a2.82,2.82,0,0,0,2.69-1.09C64.1,71.07,64.1,71,64,71Z"/>
        <path d="M63.39,55.84a15.43,15.43,0,0,0-4.72-4.4,11.24,11.24,0,0,0-11.69,0,15.32,15.32,0,0,0-4.72,4.4A24.57,24.57,0,0,0,38,70.17a24.57,24.57,0,0,0,4.3,14.33A15.32,15.32,0,0,0,47,88.9a11.24,11.24,0,0,0,11.69,0,15.32,15.32,0,0,0,4.72-4.4,24.57,24.57,0,0,0,4.3-14.33A24.57,24.57,0,0,0,63.39,55.84ZM52.82,89.43c-7.58,0-13.75-8.64-13.75-19.26s6.17-19.26,13.75-19.26c3.64,0,7.08,2,9.68,5.57a20.86,20.86,0,0,1,3,6.14,25.82,25.82,0,0,1,1.1,7.55C66.58,80.79,60.41,89.43,52.82,89.43Z"/>
      </g>
      <path d="M91,64.72,89.6,62.91a2.5,2.5,0,0,0-1-.8,6.56,6.56,0,0,0-2.2-.26H84.33V80.46a7.29,7.29,0,0,0,.2,2.16,1.62,1.62,0,0,0,.89.85l1.15.5v1.17h-8V84l1.12-.5a1.65,1.65,0,0,0,.92-.85,7.41,7.41,0,0,0,.19-2.16V61.85H78.75a7.48,7.48,0,0,0-2.09.21,2.45,2.45,0,0,0-1.12.85l-1.4,1.81h-1V59.93H92.31v4.79Z"/>
      <path d="M104.44,85.14v-.72l.86-.49a1.69,1.69,0,0,0,.85-.91,7.24,7.24,0,0,0,.2-2.12V74.7a28.73,28.73,0,0,0-.12-3.21c-.24-1.86-1.56-2.78-3.94-2.78a9.14,9.14,0,0,0-3.6.71V80.9A7.35,7.35,0,0,0,98.88,83a1.77,1.77,0,0,0,.85.91l.88.49v.72H93.27v-.72l.9-.49A1.63,1.63,0,0,0,95,83a8,8,0,0,0,.18-2.12V63.2a6,6,0,0,0-.2-1.94,1.42,1.42,0,0,0-.85-.77l-.86-.35v-.66L98.37,58v10.7A8,8,0,0,1,104,66.19a6.21,6.21,0,0,1,3.45.92,4,4,0,0,1,1.68,2.25,16.64,16.64,0,0,1,.41,4.52v7a8.66,8.66,0,0,0,.17,2.12,1.61,1.61,0,0,0,.84.91l.91.49v.72Z"/>
      <path d="M114.33,85.14v-.72l.9-.49a1.62,1.62,0,0,0,.83-.91,8,8,0,0,0,.18-2.12V71.42a5.82,5.82,0,0,0-.2-2,1.42,1.42,0,0,0-.85-.77l-.86-.34V67.7l5.1-1.45V80.9a7.75,7.75,0,0,0,.19,2.12,1.79,1.79,0,0,0,.86.91l.87.49v.72Z"/>
      <path d="M117.81,58.48a1.94,1.94,0,0,1,1.43.53,1.9,1.9,0,0,1,.54,1.44,2.06,2.06,0,0,1-.36,1.25,1.88,1.88,0,0,1-1.63.72,1.8,1.8,0,0,1-2-2,1.94,1.94,0,0,1,.52-1.44A2,2,0,0,1,117.81,58.48Z"/>
      <path d="M139.54,75.12v-.39c.06-2.92-.49-5.06-1.59-6.45s-2.83-2-5.22-2a7.47,7.47,0,0,0-6.11,2.7,11.15,11.15,0,0,0-2.23,7.37q0,4.55,2.09,6.9t6.15,2.33a9.38,9.38,0,0,0,4.11-.83,14.12,14.12,0,0,0,2.16-1.65v-.56a13.34,13.34,0,0,1-4.5.79q-3.6,0-5.14-1.75c-1-1.14-1.53-3.12-1.53-5.91v-.37h11.81Zm-7.35-6.89a3.33,3.33,0,0,1,3.14,1.59A6.71,6.71,0,0,1,136,73l-8.14.82Q128.08,68.24,132.19,68.23Z"/>
      <path d="M164.75,85.14v-.72l.88-.49a1.57,1.57,0,0,0,.84-.91,7.5,7.5,0,0,0,.19-2.12V74.71a28.15,28.15,0,0,0-.1-3.22,4,4,0,0,0-.16-.69q-.68-2.14-4-2.14a12.64,12.64,0,0,0-3.82.58,16,16,0,0,1,.46,4.59V80.9a8,8,0,0,0,.17,2.12,1.56,1.56,0,0,0,.83.91l.91.49v.72h-7V84.5l.75-.49a1.63,1.63,0,0,0,.84-.91,10.69,10.69,0,0,0,0-2.12V74.7a28.73,28.73,0,0,0-.12-3.21c-.25-1.86-1.57-2.78-4-2.78a9,9,0,0,0-3.58.64V80.9A7.35,7.35,0,0,0,148,83a1.73,1.73,0,0,0,.85.91l.87.49v.72h-7v-.72l.9-.49a1.56,1.56,0,0,0,.83-.91,7.9,7.9,0,0,0,.19-2.12V71.42a5.63,5.63,0,0,0-.21-2,1.39,1.39,0,0,0-.84-.78l-.87-.34v-.64l5.11-1.48v2.5a10.07,10.07,0,0,1,1.93-1.48,7.41,7.41,0,0,1,3.83-1,5.34,5.34,0,0,1,3.89,1.33,5.59,5.59,0,0,1,.8,1.08,9.48,9.48,0,0,1,6.19-2.45q4.41,0,5.37,3.54a17.28,17.28,0,0,1,.33,4.14v7a8.17,8.17,0,0,0,.17,2.12,1.62,1.62,0,0,0,.85.91l.89.49v.72Z"/>
      <path d="M189.32,75.12v-.39c-.1-2.92-.65-5.06-1.75-6.45s-2.83-2-5.22-2a7.47,7.47,0,0,0-6.11,2.7A11.2,11.2,0,0,0,174,76.3q0,4.55,2.09,6.9t6.15,2.33a9.38,9.38,0,0,0,4.11-.83,18.82,18.82,0,0,0,2.32-1.65v-.56a13.34,13.34,0,0,1-4.5.79c-2.39,0-4.11-.58-5.14-1.75s-1.53-3.12-1.53-5.91v-.37h11.81Zm-7.51-6.89A3.35,3.35,0,0,1,185,69.82,6.85,6.85,0,0,1,185.6,73l-8.14.82Q177.7,68.24,181.81,68.23Z"/>
    </g>
  </g>
</svg>
