<svg xmlns="http://www.w3.org/2000/svg" xmlns:xlink="http://www.w3.org/1999/xlink" width="24" height="24" viewBox="0 0 36.35 36.502">
  <defs>
    <linearGradient id="linear-gradient" x1="-7.159" y1="16.376" x2="-7.155" y2="16.376" gradientUnits="objectBoundingBox">
      <stop offset="0" stop-color="#20b038"/>
      <stop offset="1" stop-color="#60d66a"/>
    </linearGradient>
    <linearGradient id="linear-gradient-2" x1="-6.882" y1="15.835" x2="-6.879" y2="15.835" gradientUnits="objectBoundingBox">
      <stop offset="0" stop-color="#f9f9f9"/>
      <stop offset="1" stop-color="#fff"/>
    </linearGradient>
  </defs>
  <g id="WhatsApp_logo" transform="translate(74.453 -204.788)">
    <g id="Gruppe_9264" data-name="Gruppe 9264" transform="translate(-74.453 204.787)">
      <g id="Gruppe_9263" data-name="Gruppe 9263" transform="translate(0 0)">
        <path id="Pfad_34081" data-name="Pfad 34081" d="M7.766,53.551l.552.331a15.035,15.035,0,0,0,7.659,2.1h0A15.058,15.058,0,1,0,3.254,48.928l.359.566L2.094,55.042Zm-10.033,5.8L.3,49.977A18.094,18.094,0,0,1,28.77,28.145,18.092,18.092,0,0,1,15.977,59.03h-.014a18.047,18.047,0,0,1-8.653-2.208Z" transform="translate(2.267 -22.846)" fill="#fff"/>
        <path id="Pfad_34082" data-name="Pfad 34082" d="M-1.381,41.056A17.433,17.433,0,0,0,.951,49.791l-2.484,9.053,9.26-2.429a17.421,17.421,0,0,0,8.349,2.125h.014A17.464,17.464,0,1,0-1.381,41.056M16.09,58.527h0" transform="translate(2.154 -22.963)" fill="url(#linear-gradient)"/>
        <path id="Pfad_34083" data-name="Pfad 34083" d="M-2.115,40.94A17.986,17.986,0,0,0,.3,49.979l-2.567,9.37,9.591-2.512a18.325,18.325,0,0,0,8.653,2.208h.014A18.111,18.111,0,0,0,34.083,40.954,18.093,18.093,0,0,0,15.991,22.862,18.093,18.093,0,0,0-2.115,40.94M3.6,49.51l-.359-.566A15.029,15.029,0,1,1,15.964,56h0A15.072,15.072,0,0,1,8.3,53.9l-.552-.331-5.686,1.49Zm12.379,9.522h0" transform="translate(2.267 -22.848)" fill="url(#linear-gradient-2)"/>
        <path id="Pfad_34084" data-name="Pfad 34084" d="M13.093,35.142c-.345-.759-.69-.773-1.021-.787-.262-.014-.566-.014-.869-.014a1.637,1.637,0,0,0-1.2.566,5.072,5.072,0,0,0-1.587,3.767,8.747,8.747,0,0,0,1.849,4.678c.221.3,3.133,5.01,7.728,6.831,3.823,1.5,4.6,1.2,5.424,1.132a4.519,4.519,0,0,0,3.05-2.153,3.844,3.844,0,0,0,.262-2.153c-.11-.193-.414-.3-.869-.524s-2.677-1.325-3.091-1.477-.718-.221-1.021.221S20.572,46.707,20.31,47s-.524.345-.98.11A12.1,12.1,0,0,1,15.7,44.858a13.67,13.67,0,0,1-2.512-3.133.664.664,0,0,1,.193-.925c.207-.207.455-.524.676-.787a3.261,3.261,0,0,0,.455-.759.824.824,0,0,0-.041-.787c-.1-.207-.98-2.443-1.38-3.326" transform="translate(0.625 -24.612)" fill="#fff" fill-rule="evenodd"/>
      </g>
    </g>
  </g>
</svg>
