<svg id="d-labs_logo" xmlns="http://www.w3.org/2000/svg" viewBox="0 0 339.3 30.94">
  <title>logo_d-labs</title>
  <polygon id="Path" points="337 30.93 339.3 30.93 339.3 0 337 0 337 30.93" fill="#80715d" fill-rule="evenodd"/>
  <polygon id="Path-2" data-name="Path" points="291.18 30.93 293.48 30.93 293.48 0 291.18 0 291.18 30.93" fill="#80715d" fill-rule="evenodd"/>
  <polygon id="Path-3" data-name="Path" points="275.79 30.93 278.1 30.93 278.1 0 275.79 0 275.79 30.93" fill="#80715d" fill-rule="evenodd"/>
  <polygon id="Path-4" data-name="Path" points="30.61 30.93 32.91 30.93 32.91 0 30.61 0 30.61 30.93" fill="#80715d" fill-rule="evenodd"/>
  <polygon id="Path-5" data-name="Path" points="15.3 30.93 17.61 30.93 17.61 0 15.3 0 15.3 30.93" fill="#80715d" fill-rule="evenodd"/>
  <polygon id="Path-6" data-name="Path" points="0 30.93 2.3 30.93 2.3 0 0 0 0 30.93" fill="#80715d" fill-rule="evenodd"/>
  <polygon id="Path-7" data-name="Path" points="245.27 30.93 247.58 30.93 247.58 0 245.27 0 245.27 30.93" fill="#80715d" fill-rule="evenodd"/>
  <polygon id="Path-8" data-name="Path" points="214.58 30.93 216.88 30.93 216.88 0 214.58 0 214.58 30.93" fill="#80715d" fill-rule="evenodd"/>
  <polygon id="Path-9" data-name="Path" points="199.28 30.93 201.58 30.93 201.58 0 199.28 0 199.28 30.93" fill="#80715d" fill-rule="evenodd"/>
  <path id="S" d="M172.61,8.88,175,5.24a11.53,11.53,0,0,0-6.94-2.41c-4.84,0-7.57,2.89-7.57,6.9,0,7.43,10.24,7.58,10.24,12.22a2.58,2.58,0,0,1-2.89,2.67c-1.88,0-3.69-1-5.72-2.63l-2.59,4a13.13,13.13,0,0,0,8.27,3.07c5.07,0,8-3.37,8-7.79,0-7.87-10.27-8.2-10.27-12,0-1.34.78-2.23,2.73-2.23A7.57,7.57,0,0,1,172.61,8.88Z" transform="translate(0 -0.86)" fill="#009ee2" fill-rule="evenodd"/>
  <path id="B" d="M155.17,21.46c0,4.79-3.1,7.24-7.75,7.24h-8V3.24h8c4.32,0,6.64,2.3,6.64,6.11a5.75,5.75,0,0,1-3.69,5.58v0A6.25,6.25,0,0,1,155.17,21.46Zm-4.84-.66a3.19,3.19,0,0,0-3.47-3.31h-2.55V24.4h2.77C149.19,24.4,150.33,23,150.33,20.8Zm-1-10.53c0-1.58-.66-2.77-2.62-2.77h-2.37v5.87h1.59C148,13.37,149.3,12.34,149.3,10.27Z" transform="translate(0 -0.86)" fill="#009ee2" fill-rule="evenodd"/>
  <path id="A" d="M127.18,22.46h-6.06L119.6,28.7h-5l7.12-25.46h5.39l7.13,25.46h-5.54Zm-1-4-.59-2.4a41.25,41.25,0,0,1-1.44-7.3h0A51.12,51.12,0,0,1,122.67,16l-.59,2.44Z" transform="translate(0 -0.86)" fill="#009ee2" fill-rule="evenodd"/>
  <polygon id="L" points="100.88 2.38 95.93 2.38 95.93 27.84 110.37 27.84 110.37 23.54 100.88 23.54 100.88 2.38" fill="#009ee2" fill-rule="evenodd"/>
  <polygon id="_-" data-name="-" points="80.2 19.49 89.1 19.49 89.1 15.41 80.2 15.41 80.2 19.49" fill="#009ee2" fill-rule="evenodd"/>
  <path id="D" d="M73.55,15.84c0,8.93-2.81,12.86-9.5,12.86h-6.6V3.24h7C70.78,3.24,73.55,7,73.55,15.84ZM63.8,24.4c3.36,0,4.69-1.74,4.69-8.49S67.16,7.5,63.8,7.5H62.39V24.4Z" transform="translate(0 -0.86)" fill="#009ee2" fill-rule="evenodd"/>
</svg>
