<svg xmlns="http://www.w3.org/2000/svg" viewBox="0 0 142 56">
  <g fill="none">
    <path fill="#1C1C1B" d="M97.17 55.45h-.23a7.5 7.5 0 0 1-2.57-.5A6.83 6.83 0 0 1 90 48.33a7.04 7.04 0 0 1 1.97-4.9 6.85 6.85 0 0 1 2.3-1.5 7.91 7.91 0 0 1 3-.56c1.6-.1 3.2.21 4.64.93l-.47 1.54h-.15a5.89 5.89 0 0 0-2.6-1.5 5.05 5.05 0 0 0-5.94 2.6c-.5.98-.76 2.06-.74 3.16v.23c0 .95.16 1.9.48 2.8.27.71.68 1.36 1.21 1.9a4.7 4.7 0 0 0 1.7 1.1c.63.22 1.3.34 1.97.34a6.73 6.73 0 0 0 4.23-1.5l-.16 1.23a9.25 9.25 0 0 1-4.28 1.25zm-16.03-.15a6.23 6.23 0 0 1-3.28-.76 4.16 4.16 0 0 1-1.73-2 7.51 7.51 0 0 1-.5-2.82v-8.35a3.5 3.5 0 0 0 1.86 0v8.04a6.7 6.7 0 0 0 .52 2.84c.3.67.8 1.23 1.44 1.6.69.35 1.45.52 2.21.5.85.04 1.7-.14 2.45-.54.62-.36 1.1-.93 1.37-1.6.32-.85.5-1.75.51-2.65v-8.2c.2.07.41.1.62.11.21 0 .42-.04.62-.11v7.88a8.16 8.16 0 0 1-.58 3.2 4.33 4.33 0 0 1-1.85 2.1c-1.01.53-2.15.78-3.3.73h-.2c-.05 0-.1.03-.16.03zm-15.23 0h-.33c-.85 0-1.7-.14-2.51-.4a7.32 7.32 0 0 1-2.35-1.24 6.18 6.18 0 0 1-1.75-2.22 7.44 7.44 0 0 1-.66-3.25 7.16 7.16 0 0 1 1.92-4.89 6.82 6.82 0 0 1 2.38-1.62 8.36 8.36 0 0 1 3.28-.61c1.23 0 2.45.24 3.59.7a5.82 5.82 0 0 1 3.42 3.83c.23.79.37 1.6.4 2.42v.28a6.62 6.62 0 0 1-2.25 5.1 7.59 7.59 0 0 1-5.14 1.9zm-.18-13.46a4.62 4.62 0 0 0-3.98 2.1c-.42.63-.74 1.3-.96 2.03a12.8 12.8 0 0 0-.47 2.2 6.66 6.66 0 0 0 1.55 4.65 5.21 5.21 0 0 0 4.02 1.7 4.88 4.88 0 0 0 3.7-1.67c.5-.6.9-1.28 1.16-2.02a10.03 10.03 0 0 0 .56-3c0-.8-.13-1.6-.41-2.36a5.93 5.93 0 0 0-1.15-1.92 5.2 5.2 0 0 0-1.77-1.27 5.55 5.55 0 0 0-2.25-.45zM51.66 55.28a4.9 4.9 0 0 1-1.82-.38 4.19 4.19 0 0 1-1.42-.86 3.9 3.9 0 0 0 .3-1.86h.31c.34.51.74.98 1.2 1.38.28.24.6.42.96.53.3.07.62.1.94.1.5.02.98-.11 1.41-.36.4-.23.7-.57.92-.97a2.83 2.83 0 0 0-.13-2.8 2.4 2.4 0 0 0-1.27-.97l-2.02-.93a4.68 4.68 0 0 1-1.59-1.08 2.6 2.6 0 0 1-.61-1.15 8 8 0 0 1-.11-1.48c.09-1.03.63-1.97 1.47-2.58a5.32 5.32 0 0 1 4.63-.53c.46.14.86.42 1.16.8-.34.45-.55.98-.62 1.54h-.3c-.08-.27-.21-.53-.4-.75A2.53 2.53 0 0 0 52.6 42c-.38 0-.75.12-1.07.33-.35.23-.64.53-.85.88-.2.35-.32.74-.32 1.15a2.6 2.6 0 0 0 1.78 2.28l2.16.93a3.34 3.34 0 0 1 2.25 3.2c0 .76-.22 1.5-.61 2.15a4.85 4.85 0 0 1-4.27 2.38zm-9.9 0a4.9 4.9 0 0 1-1.82-.38 4.19 4.19 0 0 1-1.42-.86 3.8 3.8 0 0 0 .3-1.86h.31c.34.51.74.98 1.2 1.38.28.24.6.42.96.53.3.07.62.1.94.1.5.02.99-.11 1.41-.36.4-.23.71-.57.92-.97a2.81 2.81 0 0 0-.13-2.8 2.4 2.4 0 0 0-1.27-.97l-2.01-.93a4.7 4.7 0 0 1-1.6-1.08 2.6 2.6 0 0 1-.61-1.15 7.74 7.74 0 0 1-.12-1.48 3.6 3.6 0 0 1 1.48-2.58 5.32 5.32 0 0 1 4.63-.53c.45.14.86.42 1.16.8-.34.45-.55.98-.62 1.54h-.3c-.08-.27-.21-.53-.4-.75A2.54 2.54 0 0 0 42.7 42c-.38 0-.76.12-1.07.33a2.6 2.6 0 0 0-.85.88c-.2.35-.32.74-.32 1.15a2.6 2.6 0 0 0 1.77 2.28l2.17.93a3.34 3.34 0 0 1 2.26 3.2c0 .76-.22 1.5-.62 2.15a4.85 4.85 0 0 1-4.27 2.38zm-38.35 0a4.9 4.9 0 0 1-1.82-.38 4.19 4.19 0 0 1-1.42-.86 3.8 3.8 0 0 0 .3-1.86H.8c.33.51.74.98 1.2 1.38.27.24.6.42.95.53.3.07.62.1.94.1.5.02.99-.11 1.42-.36.38-.23.7-.57.91-.97a2.83 2.83 0 0 0-.13-2.8 2.4 2.4 0 0 0-1.27-.97l-2.01-.93a4.68 4.68 0 0 1-1.6-1.08 2.6 2.6 0 0 1-.6-1.15 8 8 0 0 1-.12-1.48c.1-1.03.63-1.97 1.47-2.58a5.32 5.32 0 0 1 4.63-.53c.46.14.87.42 1.17.8-.34.45-.56.98-.62 1.54h-.31c-.08-.27-.2-.53-.4-.75A2.54 2.54 0 0 0 4.35 42c-.38 0-.75.12-1.07.33-.35.23-.64.53-.85.88-.2.35-.32.74-.32 1.15a2.6 2.6 0 0 0 1.78 2.28l2.17.93a3.34 3.34 0 0 1 2.25 3.2c0 .76-.22 1.5-.62 2.15a4.85 4.85 0 0 1-4.26 2.38zm22.12-.3a1.24 1.24 0 0 0-.56-.13c-.23 0-.46.04-.68.12v-13.6h.93l9.43 10.35V41.37c.2.09.4.13.62.12.21 0 .42-.03.62-.12v13.6h-.78l-9.58-10.66v10.67zm-14.54 0a1.63 1.63 0 0 0-.5-.08l-.36.02-.15.01h-.04l-.22.02-.27.02 6.18-13.77h.47l6.03 13.77h-.03c-.07 0-.17 0-.3-.02l-.27-.02-.27-.01a4.4 4.4 0 0 0-1.3.05l-2.16-5.41H13l-2 5.4v.01zm4.49-11.14l-2.02 4.79h4.02l-2-4.8zm88.75 11.13v-13.6c.28.07.56.11.85.1.3.01.58-.03.86-.1v13.6a2.8 2.8 0 0 0-.86-.12c-.29 0-.57.03-.85.12zM56.26 35.26c-2.71.1-5.36-.8-7.44-2.53a8.63 8.63 0 0 1-3-6.82c0-3.44 1.1-6.13 3.25-7.99a11.6 11.6 0 0 1 7.8-2.55c1 0 1.99.12 2.96.35.94.21 1.85.56 2.7 1.01a52.53 52.53 0 0 0-.63 2.86h-.4a6.02 6.02 0 0 0-2.02-1.85 5.6 5.6 0 0 0-7.55 2 10.49 10.49 0 0 0-1.5 5.78 9.3 9.3 0 0 0 1.72 5.86c1.18 1.48 3 2.3 4.89 2.2A7.58 7.58 0 0 0 62 31.54l.36.17-.61 2.37c-.83.41-1.7.71-2.61.9-.95.19-1.92.29-2.89.29zm-51.8 0c-.8 0-1.6-.1-2.37-.3a7.02 7.02 0 0 1-2.1-.9 23.75 23.75 0 0 0 .8-3.5h.54a3.68 3.68 0 0 0 3.83 3.04 3.6 3.6 0 0 0 2.31-.75 2.6 2.6 0 0 0 .93-2.14 3.41 3.41 0 0 0-2.13-2.94l-3.98-2.1A5.32 5.32 0 0 1 .13 21.2a5.52 5.52 0 0 1 1.6-4.1 6.6 6.6 0 0 1 4.8-1.72c.9 0 1.79.14 2.63.42.65.18 1.25.5 1.77.92a29.87 29.87 0 0 0-.9 2.75h-.39c-.23-.7-.66-1.31-1.22-1.78a3.08 3.08 0 0 0-1.97-.64c-.84-.07-1.66.2-2.3.74a2.65 2.65 0 0 0-.76 1.98c0 1 .73 1.9 2.17 2.69 2.7 1.48 4 2.2 4.08 2.27a5.41 5.41 0 0 1 2.2 4.44 5.48 5.48 0 0 1-2.06 4.38 8.03 8.03 0 0 1-5.31 1.7zm70.4 0c-2.73.13-5.42-.8-7.48-2.6a9.54 9.54 0 0 1-2.79-7.3 9.46 9.46 0 0 1 2.86-7.07c2.2-2.01 5.1-3.06 8.08-2.91 3.58 0 6.3 1.12 8.1 3.33a10.08 10.08 0 0 1 2.18 6.54c.05 2.66-1 5.21-2.92 7.05a11.08 11.08 0 0 1-8.02 2.95zm.5-18.22a5.2 5.2 0 0 0-4.52 2.22c-1.09 1.54-1.64 3.86-1.64 6.9a9.1 9.1 0 0 0 1.33 5.07A5.06 5.06 0 0 0 75 33.6c1.95.04 3.75-1 4.7-2.7a11.69 11.69 0 0 0 1.5-6.17 9.56 9.56 0 0 0-1.34-5.19 5.05 5.05 0 0 0-4.5-2.5v.01zm15.95 17.88l-1.12-.14-1.1.09v-19h2.74c1.15 1.25 2.45 2.65 3.98 4.28a418.37 418.37 0 0 1 8.02 8.72v-13l1.11.08 1.11-.08v19.05l-2.36-.03A633.66 633.66 0 0 1 99 29.64c-1.62-1.8-3.19-3.5-4.67-5.05l-3.02-3.17v13.5zm-48.77 0c-.3 0-.56 0-.78-.02l-1.3-.11c-.31 0-.71.02-1.22.06l-.87.07V15.87c.32 0 .72.02 1.23.07l.86.07c.28 0 .55 0 .77-.03a39 39 0 0 1 1.31-.1v19.04zm-23.13 0c-.3 0-.57 0-.78-.02l-1.3-.11c-.31 0-.71.02-1.23.06l-.86.07V15.87c.32 0 .72.02 1.23.07l.86.07c.28 0 .54 0 .77-.03.87-.08 1.24-.1 1.31-.1v19.04zm15.3-.13H24.18V15.87c.31 0 .73.03 1.23.07l.86.07c.31 0 .57 0 .77-.03.86-.08 1.24-.1 1.31-.1v16.9h.06a46.6 46.6 0 0 0 6.3-.38 12.9 12.9 0 0 0-.14 1.2c0 .19.02.38.05.57l.09.62z"/>
    <path fill="#E40063" d="M115.23 34.88c0-.05-.4-5.23-.41-11.16v-.51c-.02-3.24.14-6.47.48-9.69.4-3.35 1.03-5.78 1.88-7.2A13 13 0 0 1 128.21 0h.3a13.01 13.01 0 0 1 12.85 12.92v.23a13 13 0 0 1-1.86 6.56 19.06 19.06 0 0 1-5.35 4.97 84.86 84.86 0 0 1-8.17 4.93c-5.52 2.97-10.7 5.25-10.75 5.27zm13.23-32a10.03 10.03 0 0 0-8.56 4.84 9.9 9.9 0 0 0-1.12 7.54 9.9 9.9 0 0 0 9.66 7.55 10.04 10.04 0 0 0 8.55-4.84 9.9 9.9 0 0 0 1.13-7.54 9.94 9.94 0 0 0-9.65-7.56h-.01zM131.65 17h-1.59v-6.67h-2.27V9.1h6.13v1.24h-2.27V17zm-5.3 0h-1.59V9.08h1.59V17z"/>
  </g>
</svg>
