<svg xmlns="http://www.w3.org/2000/svg" width="212" height="89" viewBox="0 0 212 89">
  <g id="sisa-logo" transform="translate(-1084.643 -3972)">
    <text id="Mitglied_im_Silicon_Sanssouci_e.V._" data-name="Mitglied im Silicon Sanssouci e.V. " transform="translate(1084.643 4058)" font-size="14" font-family="Roboto-Regular, Roboto"><tspan x="0" y="0">Mitglied im Silicon Sanssouci e.V. </tspan></text>
    <path id="Pfad_23752" data-name="Pfad 23752" d="M9520.526-3970.918h-.229a7.5,7.5,0,0,1-2.571-.5,6.827,6.827,0,0,1-2.274-1.452,6.651,6.651,0,0,1-1.535-2.26,7.518,7.518,0,0,1-.548-2.913,7.04,7.04,0,0,1,.515-2.659,6.665,6.665,0,0,1,1.459-2.231,6.848,6.848,0,0,1,2.3-1.514,7.914,7.914,0,0,1,2.992-.555,9.068,9.068,0,0,1,4.64.928l-.464,1.547h-.153a6.824,6.824,0,0,0-1.276-.964,5.89,5.89,0,0,0-1.326-.545,5.353,5.353,0,0,0-1.382-.182,5.05,5.05,0,0,0-2.614.719,5.283,5.283,0,0,0-1.946,2.072,6.546,6.546,0,0,0-.734,3.152v.232a8.335,8.335,0,0,0,.483,2.8,5.285,5.285,0,0,0,1.207,1.9,4.708,4.708,0,0,0,1.7,1.093,5.668,5.668,0,0,0,1.963.344,6.73,6.73,0,0,0,2.279-.4,6.406,6.406,0,0,0,1.954-1.1l-.155,1.237a9.245,9.245,0,0,1-1.437.688,8.087,8.087,0,0,1-1.507.421A8.387,8.387,0,0,1,9520.526-3970.918Zm-16.028-.156a6.225,6.225,0,0,1-3.276-.758,4.156,4.156,0,0,1-1.731-2,7.51,7.51,0,0,1-.5-2.817V-3985a5.021,5.021,0,0,0,.985.117,3.506,3.506,0,0,0,.87-.117v8.04a6.7,6.7,0,0,0,.517,2.836,3.412,3.412,0,0,0,1.449,1.6,4.569,4.569,0,0,0,2.21.507,4.835,4.835,0,0,0,2.449-.541,3.254,3.254,0,0,0,1.363-1.6,8.067,8.067,0,0,0,.517-2.657v-8.2a1.944,1.944,0,0,0,.619.117,1.951,1.951,0,0,0,.617-.117v7.887a8.16,8.16,0,0,1-.574,3.188,4.335,4.335,0,0,1-1.851,2.1,6.519,6.519,0,0,1-3.3.744c-.078,0-.142,0-.2,0S9504.56-3971.073,9504.5-3971.073Zm-15.231,0c-.049,0-.094,0-.144,0h-.008c-.05,0-.109,0-.177,0a8.419,8.419,0,0,1-2.511-.392,7.323,7.323,0,0,1-2.347-1.241,6.179,6.179,0,0,1-1.748-2.222,7.438,7.438,0,0,1-.662-3.257,7.161,7.161,0,0,1,.487-2.581,7.1,7.1,0,0,1,1.431-2.3,6.82,6.82,0,0,1,2.382-1.626,8.36,8.36,0,0,1,3.276-.61,9.577,9.577,0,0,1,3.59.7,5.819,5.819,0,0,1,2.26,1.657,6.507,6.507,0,0,1,1.158,2.174,10.343,10.343,0,0,1,.413,2.425v.273a6.821,6.821,0,0,1-.593,2.877,6.62,6.62,0,0,1-1.657,2.229,7.587,7.587,0,0,1-2.382,1.416A8.024,8.024,0,0,1,9489.267-3971.073Zm-.175-13.462a4.624,4.624,0,0,0-2.368.586,4.895,4.895,0,0,0-1.616,1.521,7.67,7.67,0,0,0-.959,2.026,12.808,12.808,0,0,0-.469,2.208,6.663,6.663,0,0,0,1.543,4.646,5.214,5.214,0,0,0,4.024,1.693,4.933,4.933,0,0,0,2.04-.421,4.883,4.883,0,0,0,1.662-1.251,6.45,6.45,0,0,0,1.16-2.011,10.032,10.032,0,0,0,.55-2.657c.007-.072.01-.179.01-.337a6.858,6.858,0,0,0-.411-2.368,5.934,5.934,0,0,0-1.148-1.925,5.2,5.2,0,0,0-1.77-1.26A5.553,5.553,0,0,0,9489.092-3984.536Zm-14.072,13.453a4.906,4.906,0,0,1-1.819-.373,4.185,4.185,0,0,1-1.426-.864,3.9,3.9,0,0,0,.261-.9,8.007,8.007,0,0,0,.048-.957h.309a6.681,6.681,0,0,0,1.2,1.373,2.606,2.606,0,0,0,.952.536,3.974,3.974,0,0,0,.939.1,2.669,2.669,0,0,0,1.416-.365,2.431,2.431,0,0,0,.916-.971,2.828,2.828,0,0,0,.309-1.291,2.733,2.733,0,0,0-.436-1.507,2.4,2.4,0,0,0-1.276-.966l-2.01-.928a4.677,4.677,0,0,1-1.595-1.086,2.6,2.6,0,0,1-.612-1.15,7.994,7.994,0,0,1-.112-1.476,3.585,3.585,0,0,1,1.471-2.585,4.828,4.828,0,0,1,2.791-.834,5.32,5.32,0,0,1,1.837.308,2.363,2.363,0,0,1,1.169.792,3.18,3.18,0,0,0-.619,1.547h-.309a1.944,1.944,0,0,0-.393-.748,2.534,2.534,0,0,0-.839-.677,2.658,2.658,0,0,0-1.244-.275,1.97,1.97,0,0,0-1.071.332,2.634,2.634,0,0,0-.847.88,2.228,2.228,0,0,0-.322,1.146,2.6,2.6,0,0,0,1.776,2.281l2.167.928a3.657,3.657,0,0,1,1.693,1.323,3.336,3.336,0,0,1,.56,1.875,4.218,4.218,0,0,1-.619,2.159,4.853,4.853,0,0,1-1.746,1.712A4.912,4.912,0,0,1,9475.02-3971.083Zm-9.9,0a4.906,4.906,0,0,1-1.819-.373,4.185,4.185,0,0,1-1.426-.864,3.8,3.8,0,0,0,.261-.9,8.007,8.007,0,0,0,.048-.957h.309a6.74,6.74,0,0,0,1.2,1.373,2.644,2.644,0,0,0,.954.536,3.983,3.983,0,0,0,.94.1,2.668,2.668,0,0,0,1.415-.365,2.414,2.414,0,0,0,.914-.971,2.814,2.814,0,0,0,.311-1.291,2.733,2.733,0,0,0-.436-1.507,2.4,2.4,0,0,0-1.276-.966l-2.009-.928a4.692,4.692,0,0,1-1.6-1.086,2.6,2.6,0,0,1-.612-1.15,7.745,7.745,0,0,1-.112-1.476,3.592,3.592,0,0,1,1.471-2.585,4.828,4.828,0,0,1,2.791-.834,5.32,5.32,0,0,1,1.837.308,2.363,2.363,0,0,1,1.169.792,3.18,3.18,0,0,0-.619,1.547h-.309a1.945,1.945,0,0,0-.392-.748,2.538,2.538,0,0,0-.84-.677,2.656,2.656,0,0,0-1.243-.275,1.975,1.975,0,0,0-1.072.332,2.6,2.6,0,0,0-.846.88,2.214,2.214,0,0,0-.323,1.146,2.6,2.6,0,0,0,1.777,2.281l2.164.928a3.655,3.655,0,0,1,1.7,1.323,3.336,3.336,0,0,1,.56,1.875,4.218,4.218,0,0,1-.619,2.159,4.853,4.853,0,0,1-1.746,1.712A4.912,4.912,0,0,1,9465.123-3971.083Zm-38.349,0a4.906,4.906,0,0,1-1.819-.373,4.185,4.185,0,0,1-1.426-.864,3.8,3.8,0,0,0,.261-.9,7.811,7.811,0,0,0,.048-.957h.309a6.74,6.74,0,0,0,1.2,1.373,2.644,2.644,0,0,0,.954.536,3.974,3.974,0,0,0,.939.1,2.669,2.669,0,0,0,1.416-.365,2.431,2.431,0,0,0,.916-.971,2.828,2.828,0,0,0,.309-1.291,2.733,2.733,0,0,0-.436-1.507,2.4,2.4,0,0,0-1.276-.966l-2.01-.928a4.68,4.68,0,0,1-1.595-1.086,2.6,2.6,0,0,1-.612-1.15,7.994,7.994,0,0,1-.112-1.476,3.585,3.585,0,0,1,1.471-2.585,4.828,4.828,0,0,1,2.791-.834,5.32,5.32,0,0,1,1.837.308,2.363,2.363,0,0,1,1.169.792,3.18,3.18,0,0,0-.619,1.547h-.309a1.945,1.945,0,0,0-.392-.748,2.544,2.544,0,0,0-.84-.677,2.658,2.658,0,0,0-1.244-.275,1.97,1.97,0,0,0-1.071.332,2.621,2.621,0,0,0-.847.88,2.228,2.228,0,0,0-.322,1.146,2.6,2.6,0,0,0,1.776,2.281l2.167.928a3.657,3.657,0,0,1,1.693,1.323,3.336,3.336,0,0,1,.56,1.875,4.218,4.218,0,0,1-.619,2.159,4.855,4.855,0,0,1-1.746,1.712A4.912,4.912,0,0,1,9426.774-3971.083Zm22.115-.307h0a1.244,1.244,0,0,0-.562-.118,2.144,2.144,0,0,0-.677.117V-3985h.928l9.433,10.36V-3985a1.413,1.413,0,0,0,.619.117,1.413,1.413,0,0,0,.62-.117v13.607h-.775l-9.585-10.669v10.67Zm-14.536,0h0a1.63,1.63,0,0,0-.5-.068c-.066,0-.183,0-.361.017l-.151.013-.038,0c-.083.007-.157.013-.225.02-.109.01-.2.014-.27.014l6.185-13.763h.464l6.03,13.762h-.024c-.068,0-.171,0-.307-.013l-.261-.018-.277-.018c-.185-.011-.35-.017-.493-.017a4.392,4.392,0,0,0-.8.067l-2.165-5.412h-4.795l-2.009,5.412Zm4.484-11.134h0l-2.012,4.793h4.021l-2.009-4.793Zm88.755,11.134h0V-3985a2.769,2.769,0,0,0,.852.117,2.753,2.753,0,0,0,.852-.117v13.606a2.8,2.8,0,0,0-.852-.116,2.771,2.771,0,0,0-.852.117Zm-47.974-19.724a10.927,10.927,0,0,1-7.44-2.526,8.63,8.63,0,0,1-3-6.821c0-3.441,1.094-6.128,3.251-7.988a11.6,11.6,0,0,1,7.8-2.549,13.1,13.1,0,0,1,2.958.344,10.888,10.888,0,0,1,2.71,1.016c-.116.465-.221.9-.32,1.346-.112.486-.218.98-.32,1.511h-.388a6.018,6.018,0,0,0-2.028-1.846,5.2,5.2,0,0,0-2.583-.708,5.6,5.6,0,0,0-4.969,2.717,10.486,10.486,0,0,0-1.5,5.766,9.3,9.3,0,0,0,1.72,5.864,5.865,5.865,0,0,0,4.891,2.205,6.9,6.9,0,0,0,2.649-.562,7.58,7.58,0,0,0,2.32-1.492l.361.165-.612,2.37a10.232,10.232,0,0,1-2.609.895A14.411,14.411,0,0,1,9479.619-3991.115Zm-51.792,0a9.837,9.837,0,0,1-2.373-.292,7.016,7.016,0,0,1-2.1-.9c.225-.78.389-1.393.5-1.873.113-.5.217-1.046.306-1.626h.528a3.68,3.68,0,0,0,1.33,2.229,3.972,3.972,0,0,0,2.5.8,3.6,3.6,0,0,0,2.318-.746,2.592,2.592,0,0,0,.93-2.136,3.412,3.412,0,0,0-2.138-2.939c-1.209-.638-2.613-1.38-3.973-2.107a5.317,5.317,0,0,1-2.164-4.465,5.522,5.522,0,0,1,1.609-4.1,6.592,6.592,0,0,1,4.8-1.719,8.229,8.229,0,0,1,2.626.418,4.91,4.91,0,0,1,1.763.916c-.2.529-.359.976-.474,1.332q-.277.947-.416,1.416H9433a3.98,3.98,0,0,0-1.225-1.777,3.079,3.079,0,0,0-1.971-.638,3.178,3.178,0,0,0-2.3.737,2.646,2.646,0,0,0-.751,1.98c0,.995.729,1.9,2.164,2.69,2.7,1.479,3.994,2.2,4.085,2.274a5.411,5.411,0,0,1,2.193,4.436,5.484,5.484,0,0,1-2.057,4.381A8.031,8.031,0,0,1,9427.827-3991.115Zm70.4,0a10.584,10.584,0,0,1-7.486-2.6,9.536,9.536,0,0,1-2.788-7.294,9.46,9.46,0,0,1,2.86-7.072,11.148,11.148,0,0,1,8.078-2.913c3.577,0,6.306,1.12,8.11,3.329a10.081,10.081,0,0,1,2.167,6.546,9.464,9.464,0,0,1-2.916,7.043A11.081,11.081,0,0,1,9498.226-3991.117Zm.5-18.217a5.207,5.207,0,0,0-4.527,2.217c-1.087,1.545-1.638,3.868-1.638,6.9a9.1,9.1,0,0,0,1.332,5.075,5.064,5.064,0,0,0,4.473,2.356,5.252,5.252,0,0,0,4.691-2.69,11.686,11.686,0,0,0,1.5-6.182,9.556,9.556,0,0,0-1.332-5.185A5.054,5.054,0,0,0,9498.725-4009.334Zm15.94,17.885h0l-1.111-.14-1.109.084v-19h2.75c1.146,1.253,2.444,2.653,3.97,4.279.777.812,2.07,2.2,4.068,4.36,1.943,2.1,3.238,3.529,3.958,4.36v-13l1.112.084,1.109-.084v19.05l-2.36-.025c-1.587-1.756-3.165-3.522-4.692-5.25-1.62-1.8-3.189-3.5-4.666-5.053l-3.027-3.167v13.5Zm-48.765,0h0c-.3,0-.563-.009-.776-.026-.861-.083-1.239-.113-1.306-.113-.308,0-.708.023-1.222.069-.534.049-.792.069-.861.069V-4010.5c.314,0,.715.023,1.225.07s.785.072.858.072c.285,0,.547-.01.777-.029.871-.081,1.237-.113,1.306-.113v19.05Zm-23.131,0h0c-.3,0-.564-.009-.776-.026-.861-.083-1.239-.113-1.306-.113-.309,0-.709.023-1.223.069-.534.049-.792.069-.86.069V-4010.5c.314,0,.714.023,1.222.07s.788.072.861.072c.285,0,.547-.01.777-.029.87-.081,1.235-.113,1.306-.113v19.05Zm15.3-.139h-10.524V-4010.5c.309,0,.72.024,1.222.07s.788.072.861.072c.313,0,.575-.01.776-.029.859-.08,1.238-.113,1.307-.113v16.913h.059c1.137,0,2.14-.028,2.98-.083s1.971-.158,3.319-.3c-.035.186-.067.394-.1.636a5.134,5.134,0,0,0-.043.557,4.772,4.772,0,0,0,.058.581c.038.259.064.462.083.611Z" transform="translate(-8268.715 7998.371)" fill="#1c1c1b"/>
    <path id="Pfad_23751" data-name="Pfad 23751" d="M9423.767-3976.125h0c0-.05-.4-5.228-.41-11.15v-.515a86.465,86.465,0,0,1,.482-9.688c.394-3.354,1.027-5.778,1.883-7.2a13.005,13.005,0,0,1,4.78-4.649,13.106,13.106,0,0,1,6.245-1.669h.294a13.014,13.014,0,0,1,6.531,1.855,13.015,13.015,0,0,1,4.66,4.793,13.1,13.1,0,0,1,1.663,6.266v.228a13.008,13.008,0,0,1-1.855,6.567,19.062,19.062,0,0,1-5.353,4.969,84.855,84.855,0,0,1-8.171,4.925c-5.516,2.973-10.7,5.249-10.749,5.272Zm13.229-32a10.03,10.03,0,0,0-4.848,1.253,9.948,9.948,0,0,0-3.707,3.588,9.9,9.9,0,0,0-1.123,7.546,9.9,9.9,0,0,0,4.541,6.128,9.952,9.952,0,0,0,5.116,1.42,10.036,10.036,0,0,0,4.849-1.252,9.959,9.959,0,0,0,3.707-3.588,9.9,9.9,0,0,0,1.123-7.545,9.9,9.9,0,0,0-4.543-6.13A9.942,9.942,0,0,0,9437-4008.13Zm3.192,14.128H9438.6v-6.671h-2.268v-1.247h6.126v1.247h-2.267v6.67Zm-5.3,0H9433.3v-7.919h1.587V-3994Z" transform="translate(-8153.895 7983)" fill="#e40063"/>
  </g>
</svg>
