<svg id="quotes-graphic" xmlns="http://www.w3.org/2000/svg" viewBox="0 0 56 56">
  <title>quotes-graphic</title>
  <g>
    <rect width="56" height="56" fill="none" />
    <path
      d="M23.16,37a40.6,40.6,0,0,1-9.52,13.59l-11.2-6A50.33,50.33,0,0,0,6.9,33.64,48.85,48.85,0,0,0,8.46,20.73V5.42H27V20.73A39.34,39.34,0,0,1,23.16,37Z"
      fill="#007ABD" />
    <path
      d="M49.44,36.84a43.91,43.91,0,0,1-9.9,13.74l-11.2-6a61.21,61.21,0,0,0,4.88-11.2A42,42,0,0,0,35,20.73V5.42H53.56l-.08,15.31A37.34,37.34,0,0,1,49.44,36.84Z"
      fill="#007ABD" />
  </g>
</svg>