<svg id="icon_search" xmlns="http://www.w3.org/2000/svg" width="32" height="32" viewBox="0 0 32 32">
  <path id="Pfad_11902" data-name="Pfad 11902" d="M-5-37H27V-5H-5Z" transform="translate(5 37)" fill="none"/>
  <path id="Pfad_11908" data-name="Pfad 11908" d="M19.427-10.573A8.463,8.463,0,0,1,14.5-9,8.5,8.5,0,0,1,6-17.5,8.5,8.5,0,0,1,14.5-26,8.5,8.5,0,0,1,23-17.5a8.463,8.463,0,0,1-1.573,4.927l5.585,5.585a1.393,1.393,0,0,1,0,1.976l-.024.024a1.4,1.4,0,0,1-1.976,0ZM14.5-11A6.5,6.5,0,0,0,21-17.5,6.5,6.5,0,0,0,14.5-24,6.5,6.5,0,0,0,8-17.5,6.5,6.5,0,0,0,14.5-11Z" transform="translate(0 32)" fill="#152935" fill-rule="evenodd"/>
</svg>
