<?xml version="1.0" encoding="utf-8"?>
<!-- Generator: Adobe Illustrator 23.0.6, SVG Export Plug-In . SVG Version: 6.00 Build 0)  -->
<svg version="1.1" id="Komponente" xmlns="http://www.w3.org/2000/svg" xmlns:xlink="http://www.w3.org/1999/xlink" x="0px" y="0px"
	 viewBox="0 0 32 32" style="enable-background:new 0 0 32 32;" xml:space="preserve">
<style type="text/css">
	.st0{fill:none;}
</style>
<rect id="Rechteck_1227" class="st0" width="32" height="32"/>
<path id="Pfad_23754" d="M1,25.3c0.5,0.1,1,0.1,1.5,0.1c2.8,0,5.5-0.9,7.6-2.6c-2.6,0-4.9-1.7-5.7-4.2c0.4,0.1,0.8,0.1,1.2,0.1
	c0.5,0,1.1-0.1,1.6-0.2c-2.9-0.5-4.9-3-4.9-5.9c0,0,0-0.1,0-0.1C3.1,12.9,4,13.2,5,13.2c-1.7-1.1-2.7-3-2.7-5c0-1.1,0.3-2.1,0.8-3
	c3.2,3.8,7.8,6.1,12.7,6.3c-0.1-0.5-0.2-0.9-0.2-1.4c0-3.4,2.8-6.1,6.2-6.1c0,0,0,0,0,0c1.7,0,3.3,0.7,4.5,1.9
	c1.4-0.3,2.7-0.8,3.9-1.5c-0.5,1.4-1.4,2.6-2.7,3.4c1.2-0.1,2.4-0.5,3.5-1c-0.8,1.2-1.9,2.3-3.1,3.1c0,0.3,0,0.5,0,0.8
	c0,9.5-7.7,17.2-17.3,17.2c-0.1,0-0.2,0-0.3,0C7.1,28,3.8,27.1,1,25.3z M31,6.8L31,6.8z"/>
</svg>
