<svg xmlns="http://www.w3.org/2000/svg" viewBox="0 0 56 56">
  <defs>
    <clipPath id="a">
      <path fill="none" d="M0 0h56v56H0z"/>
    </clipPath>
  </defs>
  <g data-name="icon/instagram" clip-path="url(#a)">
    <path data-name="Pfad 23755" d="M0 0h56v56H0z" fill="rgba(255,255,255,0)"/>
    <path data-name="Pfad 23756" d="M17.77 40A1.75 1.75 0 0 1 16 38.28V17.72A1.75 1.75 0 0 1 17.77 16h20.45A1.75 1.75 0 0 1 40 17.72v20.56A1.75 1.75 0 0 1 38.22 40zm14.95-9.7v5.8h3.62v-6.22c0-3.33-1.78-4.88-4.17-4.88a3.6 3.6 0 0 0-3.26 1.78v-1.53h-3.63c.04 1.02 0 10.84 0 10.84h3.63v-6.05a2.42 2.42 0 0 1 .11-.88 1.99 1.99 0 0 1 1.86-1.32c1.31 0 1.84 1 1.84 2.45zm-13.07 5.8h3.62V25.24h-3.62zm-.21-14.2a1.87 1.87 0 0 0 2 1.87h.02a1.89 1.89 0 0 0 2.05-1.87 1.87 1.87 0 0 0-2.03-1.87 1.89 1.89 0 0 0-2.04 1.87z"/>
  </g>
</svg>
