<svg xmlns="http://www.w3.org/2000/svg" xmlns:xlink="http://www.w3.org/1999/xlink" width="56" height="56" viewBox="0 0 56 56">
  <defs>
    <clipPath id="clip-path">
      <rect width="56" height="56" fill="none"/>
    </clipPath>
  </defs>
  <g id="icon_instagram" data-name="icon/instagram" clip-path="url(#clip-path)">
    <path id="Pfad_23755" data-name="Pfad 23755" d="M0,0H56V56H0Z" fill="rgba(255,255,255,0)"/>
    <path id="Pfad_23756" data-name="Pfad 23756" d="M9120.774-2769a1.747,1.747,0,0,1-1.775-1.717v-20.566a1.746,1.746,0,0,1,1.775-1.717h20.451a1.745,1.745,0,0,1,1.774,1.717v20.566a1.746,1.746,0,0,1-1.774,1.717Zm14.945-9.709v5.8h3.623v-6.212c0-3.331-1.783-4.879-4.169-4.879a3.6,3.6,0,0,0-3.267,1.784v-1.529h-3.63c.048,1.017,0,10.836,0,10.836h3.63v-6.054a2.417,2.417,0,0,1,.114-.875,1.99,1.99,0,0,1,1.862-1.323C9135.194-2781.16,9135.72-2780.166,9135.72-2778.708Zm-13.07,5.8h3.623v-10.836h-3.623Zm-.213-14.19a1.869,1.869,0,0,0,2,1.871h.021a1.885,1.885,0,0,0,2.05-1.871,1.874,1.874,0,0,0-2.024-1.871A1.885,1.885,0,0,0,9122.437-2787.1Z" transform="translate(-9103 2809)"/>
  </g>
</svg>
