<svg xmlns="http://www.w3.org/2000/svg" xmlns:xlink="http://www.w3.org/1999/xlink" width="56" height="56" viewBox="0 0 56 56">
  <defs>
    <clipPath id="clip-path">
      <rect width="56" height="56" fill="none"/>
    </clipPath>
  </defs>
  <g id="icon_twitter" data-name="icon/twitter" clip-path="url(#clip-path)">
    <rect id="Rechteck_1227" data-name="Rechteck 1227" width="56" height="56" fill="rgba(255,255,255,0)"/>
    <path id="Pfad_23754" data-name="Pfad 23754" d="M9175-2771.722a12.81,12.81,0,0,0,1.468.085,12.47,12.47,0,0,0,7.644-2.593,6.148,6.148,0,0,1-5.748-4.209,6.161,6.161,0,0,0,1.158.109,6.229,6.229,0,0,0,1.62-.213,6.087,6.087,0,0,1-4.937-5.94.666.666,0,0,1,0-.076,6.166,6.166,0,0,0,2.787.758,6.033,6.033,0,0,1-2.739-5.043,5.962,5.962,0,0,1,.835-3.047,17.557,17.557,0,0,0,12.685,6.331,6.071,6.071,0,0,1-.159-1.38,6.106,6.106,0,0,1,6.155-6.058,6.189,6.189,0,0,1,4.491,1.912,12.362,12.362,0,0,0,3.908-1.47,6.1,6.1,0,0,1-2.7,3.352,12.4,12.4,0,0,0,3.53-.953,12.363,12.363,0,0,1-3.07,3.137c.012.259.019.52.019.781A17.248,17.248,0,0,1,9184.437-2769,17.615,17.615,0,0,1,9175-2771.722Zm30-18.438h0Z" transform="translate(-9162 2809)"/>
  </g>
</svg>
