<?xml version="1.0" encoding="utf-8"?>
<!-- Generator: Adobe Illustrator 23.0.6, SVG Export Plug-In . SVG Version: 6.00 Build 0)  -->
<svg version="1.1" id="Icon_Instagram" xmlns="http://www.w3.org/2000/svg" xmlns:xlink="http://www.w3.org/1999/xlink" x="0px"
	 y="0px" viewBox="0 0 32 32" style="enable-background:new 0 0 32 32;" xml:space="preserve">
<style type="text/css">
	.st0{fill:none;}
</style>
<path id="Pfad_23755" class="st0" d="M0,0h32v32H0V0z"/>
<g id="Gruppe_8140" transform="translate(-2.079 -2.079)">
	<path id="Pfad_30965" d="M18.1,6.6c3.7,0,4.2,0,5.7,0.1c0.9,0,1.8,0.2,2.6,0.5c1.2,0.5,2.2,1.4,2.7,2.7c0.3,0.8,0.5,1.7,0.5,2.6
		c0.1,1.5,0.1,1.9,0.1,5.7s0,4.2-0.1,5.7c0,0.9-0.2,1.8-0.5,2.6c-0.5,1.2-1.4,2.2-2.7,2.7c-0.8,0.3-1.7,0.5-2.6,0.5
		c-1.5,0.1-1.9,0.1-5.7,0.1s-4.2,0-5.7-0.1c-0.9,0-1.8-0.2-2.6-0.5c-1.2-0.5-2.2-1.4-2.7-2.7c-0.3-0.8-0.5-1.7-0.5-2.6
		c-0.1-1.5-0.1-1.9-0.1-5.7s0-4.2,0.1-5.7c0-0.9,0.2-1.8,0.5-2.6c0.5-1.2,1.4-2.2,2.7-2.7c0.8-0.3,1.7-0.5,2.6-0.5
		C13.9,6.6,14.3,6.6,18.1,6.6 M18.1,4.1c-3.8,0-4.3,0-5.8,0.1c-1.2,0-2.3,0.2-3.4,0.7C7,5.5,5.5,7,4.8,8.9c-0.4,1.1-0.6,2.2-0.7,3.4
		c-0.1,1.5-0.1,2-0.1,5.8s0,4.3,0.1,5.8c0,1.2,0.2,2.3,0.7,3.4c0.7,1.9,2.2,3.4,4.1,4.1c1.1,0.4,2.2,0.6,3.4,0.7
		c1.5,0.1,2,0.1,5.8,0.1s4.3,0,5.8-0.1c1.2,0,2.3-0.2,3.4-0.7c1.9-0.7,3.4-2.2,4.1-4.1c0.4-1.1,0.6-2.2,0.7-3.4
		c0.1-1.5,0.1-2,0.1-5.8s0-4.3-0.1-5.8c0-1.2-0.2-2.3-0.7-3.4c-0.7-1.9-2.2-3.4-4.1-4.1c-1.1-0.4-2.2-0.6-3.4-0.7
		C22.4,4.1,21.9,4.1,18.1,4.1L18.1,4.1L18.1,4.1z"/>
	<path id="Pfad_30966" d="M18.1,10.9c-4,0-7.2,3.2-7.2,7.2c0,4,3.2,7.2,7.2,7.2c4,0,7.2-3.2,7.2-7.2l0,0l0,0
		C25.3,14.1,22.1,10.9,18.1,10.9z M18.1,22.7c-2.6,0-4.7-2.1-4.7-4.7s2.1-4.7,4.7-4.7s4.7,2.1,4.7,4.7l0,0
		C22.7,20.7,20.7,22.7,18.1,22.7z"/>
	<circle id="Ellipse_152" cx="25.6" cy="10.6" r="1.7"/>
</g>
</svg>
