<svg xmlns="http://www.w3.org/2000/svg" width="64.666" height="56.582" viewBox="0 0 64.666 56.582">
  <g id="Gruppe_9625" data-name="Gruppe 9625" transform="translate(-760.186 -1566)">
    <path id="Pfad_34090" data-name="Pfad 34090" d="M32.333,59.582A1.346,1.346,0,0,1,31.3,59.1l-6.332-7.6H6.736A6.744,6.744,0,0,1,0,44.763V9.736A6.744,6.744,0,0,1,6.736,3H57.93a6.744,6.744,0,0,1,6.736,6.736V44.763A6.744,6.744,0,0,1,57.93,51.5H39.7l-6.332,7.6A1.346,1.346,0,0,1,32.333,59.582ZM6.736,5.694A4.041,4.041,0,0,0,2.694,9.736V44.763A4.041,4.041,0,0,0,6.736,48.8H25.6a1.346,1.346,0,0,1,1.035.485l5.7,6.841,5.7-6.841a1.346,1.346,0,0,1,1.035-.485H57.93a4.041,4.041,0,0,0,4.042-4.042V9.736A4.041,4.041,0,0,0,57.93,5.694Z" transform="translate(760.187 1563)"/>
    <path id="Pfad_34091" data-name="Pfad 34091" d="M41.287,26.166a1.344,1.344,0,0,1-.952-.395l-12.52-12.52L15.3,25.771a1.347,1.347,0,0,1-1.9-1.9L26.862,10.395a1.348,1.348,0,0,1,1.9,0L42.239,23.867a1.347,1.347,0,0,1-.952,2.3Z" transform="translate(764.704 1565.431)"/>
    <path id="Pfad_34092" data-name="Pfad 34092" d="M33.514,37.208H29.472a1.348,1.348,0,0,1-1.347-1.347V29.125H25.431v6.736a1.348,1.348,0,0,1-1.347,1.347H20.042A3.929,3.929,0,0,1,16,33.4c0-.075,0-.152,0-.229V18.347a1.347,1.347,0,1,1,2.694,0V33.166A1.232,1.232,0,0,0,19.8,34.514a1.2,1.2,0,0,0,.241,0h2.694V27.778a1.348,1.348,0,0,1,1.347-1.347h5.389a1.348,1.348,0,0,1,1.347,1.347v6.736h2.694a1.232,1.232,0,0,0,1.347-1.106,1.2,1.2,0,0,0,0-.241V18.347a1.347,1.347,0,0,1,2.694,0V33.166a3.929,3.929,0,0,1-3.813,4.042C33.668,37.211,33.591,37.211,33.514,37.208Z" transform="translate(765.741 1567.861)"/>
    <path id="Pfad_34093" data-name="Pfad 34093" d="M26.042,21.694H23.347a1.347,1.347,0,0,1,0-2.694h2.694a1.347,1.347,0,0,1,0,2.694Z" transform="translate(767.825 1568.555)"/>
  </g>
</svg>
