<svg width="65" height="65" viewBox="0 0 65 65" fill="none" xmlns="http://www.w3.org/2000/svg">
<rect width="65" height="65" fill="white"/>
<g clip-path="url(#clip0)">
<path d="M31.9627 53.9998C31.8202 53.9923 31.6808 53.9554 31.5531 53.8916C31.4255 53.8277 31.3124 53.7383 31.2208 53.6288L26.547 47.9892H12.9705C11.6581 47.97 10.4049 47.4401 9.47688 46.5118C8.54882 45.5836 8.01898 44.3301 7.99982 43.0175V17.0457C7.98998 16.3866 8.11129 15.7321 8.35668 15.1203C8.60207 14.5086 8.96665 13.9517 9.42919 13.4821C9.89174 13.0126 10.443 12.6397 11.051 12.3852C11.6589 12.1307 12.3114 11.9997 12.9705 11.9998H51.0292C51.6882 11.99 52.3425 12.1113 52.9542 12.3567C53.5658 12.6022 54.1226 12.9668 54.592 13.4295C55.0615 13.8921 55.4343 14.4436 55.6887 15.0516C55.9431 15.6597 56.0741 16.3123 56.074 16.9715V42.9433C56.084 43.6087 55.9604 44.2693 55.7104 44.886C55.4604 45.5028 55.0892 46.063 54.6187 46.5336C54.1482 47.0041 53.5881 47.3755 52.9715 47.6255C52.3549 47.8755 51.6944 47.9992 51.0292 47.9892H37.4527L32.7046 53.5546C32.6131 53.6641 32.4999 53.7535 32.3723 53.8174C32.2447 53.8812 32.1052 53.9181 31.9627 53.9256V53.9998ZM12.9705 13.9291C12.1834 13.9291 11.4286 14.2419 10.8721 14.7985C10.3156 15.3551 10.0029 16.1101 10.0029 16.8973V42.8691C10.0029 43.6563 10.3156 44.4113 10.8721 44.9679C11.4286 45.5245 12.1834 45.8373 12.9705 45.8373H26.9921C27.1405 45.8538 27.2836 45.9021 27.4116 45.9789C27.5396 46.0558 27.6496 46.1593 27.734 46.2825L31.9627 51.4768L36.1915 46.2825C36.2894 46.1865 36.4054 46.1108 36.5327 46.0599C36.6601 46.0089 36.7962 45.9837 36.9334 45.9857H51.0292C51.8162 45.9857 52.571 45.673 53.1276 45.1163C53.6841 44.5597 53.9967 43.8047 53.9967 43.0175V17.0457C53.9967 16.2585 53.6841 15.5036 53.1276 14.9469C52.571 14.3903 51.8162 14.0775 51.0292 14.0775H12.8963L12.9705 13.9291Z" fill="black"/>
<path d="M41.9784 30.9965C41.8413 30.9984 41.7051 30.9732 41.5778 30.9223C41.4504 30.8713 41.3344 30.7957 41.2365 30.6996L31.9629 21.424L22.6894 30.6996C22.4924 30.8074 22.2658 30.8484 22.0436 30.8165C21.8213 30.7846 21.6154 30.6815 21.4567 30.5227C21.2979 30.3639 21.1949 30.158 21.163 29.9357C21.1311 29.7134 21.1721 29.4868 21.2798 29.2898L31.2952 19.2721C31.3855 19.1755 31.4946 19.0984 31.6158 19.0458C31.7371 18.9931 31.8678 18.9659 32 18.9659C32.1322 18.9659 32.263 18.9931 32.3842 19.0458C32.5055 19.0984 32.6146 19.1755 32.7048 19.2721L42.7203 29.2898C42.8169 29.38 42.8939 29.4892 42.9465 29.6104C42.9992 29.7317 43.0264 29.8625 43.0264 29.9947C43.0264 30.1269 42.9992 30.2577 42.9465 30.379C42.8939 30.5002 42.8169 30.6094 42.7203 30.6996C42.6223 30.7957 42.5063 30.8713 42.379 30.9223C42.2517 30.9732 42.1155 30.9984 41.9784 30.9965Z" fill="black"/>
<path d="M36.9336 40.9399H33.966C33.7159 40.9226 33.4806 40.8154 33.3033 40.6381C33.126 40.4608 33.0189 40.2254 33.0016 39.9753V35.0035H30.9985V39.9753C30.9985 40.2508 30.889 40.515 30.6943 40.7099C30.4995 40.9047 30.2353 41.0141 29.9598 41.0141H26.9923C26.2303 41.0151 25.4971 40.7228 24.9447 40.1979C24.3922 39.6729 24.0628 38.9556 24.0247 38.1943V27.0636C24.085 26.8442 24.2157 26.6506 24.3966 26.5126C24.5775 26.3746 24.7988 26.2999 25.0263 26.2999C25.2538 26.2999 25.4751 26.3746 25.656 26.5126C25.8369 26.6506 25.9676 26.8442 26.0278 27.0636V37.9717C26.0066 38.0888 26.0091 38.209 26.0352 38.3252C26.0612 38.4413 26.1103 38.551 26.1794 38.6479C26.2486 38.7447 26.3365 38.8267 26.4379 38.889C26.5392 38.9513 26.6521 38.9927 26.7697 39.0106C26.8435 39.0218 26.9185 39.0218 26.9923 39.0106H28.9954V33.9647C28.9954 33.838 29.0203 33.7125 29.0688 33.5955C29.1173 33.4785 29.1883 33.3721 29.2779 33.2825C29.3674 33.193 29.4737 33.1219 29.5908 33.0734C29.7078 33.025 29.8332 33 29.9598 33H33.966C34.2218 33 34.4671 33.1016 34.648 33.2825C34.8289 33.4635 34.9305 33.7088 34.9305 33.9647V39.0106H36.9336C37.0562 39.0316 37.182 39.0267 37.3026 38.9962C37.4233 38.9656 37.5362 38.9101 37.6341 38.8331C37.732 38.7562 37.8126 38.6596 37.8709 38.5496C37.9291 38.4396 37.9636 38.3185 37.9722 38.1943C37.9772 38.145 37.9772 38.0953 37.9722 38.0459V26.9894C38.0325 26.7699 38.1631 26.5764 38.344 26.4384C38.525 26.3004 38.7462 26.2257 38.9737 26.2257C39.2013 26.2257 39.4225 26.3004 39.6034 26.4384C39.7844 26.5764 39.915 26.7699 39.9753 26.9894V37.9717C39.9762 38.7339 39.684 39.4672 39.1592 40.0198C38.6344 40.5724 37.9172 40.9018 37.1561 40.9399H36.9336Z" fill="black"/>
<path d="M33.0016 30.0318H30.9985C30.7791 29.9715 30.5855 29.8409 30.4476 29.6599C30.3096 29.4789 30.2349 29.2576 30.2349 29.03C30.2349 28.8025 30.3096 28.5812 30.4476 28.4002C30.5855 28.2192 30.7791 28.0885 30.9985 28.0283H33.0016C33.221 28.0885 33.4145 28.2192 33.5524 28.4002C33.6904 28.5812 33.7651 28.8025 33.7651 29.03C33.7651 29.2576 33.6904 29.4789 33.5524 29.6599C33.4145 29.8409 33.221 29.9715 33.0016 30.0318Z" fill="black"/>
</g>
<defs>
<clipPath id="clip0">
<rect width="48" height="42" fill="white" transform="translate(8 12)"/>
</clipPath>
</defs>
</svg>
