<svg width="65" height="65" viewBox="0 0 65 65" fill="none" xmlns="http://www.w3.org/2000/svg">
<rect width="65" height="65" fill="white"/>
<path d="M47.5875 54.7173C47.5853 55.0104 47.4679 55.291 47.2606 55.4983C47.0533 55.7056 46.7727 55.823 46.4796 55.8252H13.3156C13.0224 55.823 12.7418 55.7056 12.5345 55.4983C12.3272 55.291 12.2098 55.0104 12.2077 54.7173V16.0218H17.7391C18.1702 16.0218 18.5971 15.9369 18.9953 15.772C19.3936 15.607 19.7555 15.3652 20.0603 15.0603C20.3652 14.7555 20.607 14.3936 20.772 13.9953C20.9369 13.5971 21.0218 13.1702 21.0218 12.7391V7.17483H46.4631C46.7556 7.177 47.0353 7.29468 47.2413 7.50222C47.4473 7.70976 47.5629 7.99033 47.5629 8.28276V28.2173H49.7787V8.28276C49.7787 7.41212 49.4329 6.57714 48.8172 5.9615C48.2016 5.34587 47.3666 5.00001 46.496 5.00001H19.9467C19.8021 4.99947 19.6588 5.02747 19.525 5.08239C19.3913 5.13731 19.2696 5.21808 19.1671 5.32008L10.3201 14.1343C10.2181 14.2368 10.1373 14.3584 10.0824 14.4922C10.0275 14.626 9.99947 14.7693 10 14.9139V54.7173C10 55.5879 10.3459 56.4229 10.9615 57.0385C11.5771 57.6541 12.4121 58 13.2828 58H46.4878C47.3584 58 48.1934 57.6541 48.809 57.0385C49.4247 56.4229 49.7705 55.5879 49.7705 54.7173V37.0314H47.5547L47.5875 54.7173ZM17.7391 13.8142H13.7752L18.8388 8.74234V12.7063C18.8388 12.9987 18.7232 13.2793 18.5172 13.4868C18.3112 13.6943 18.0315 13.812 17.7391 13.8142Z" fill="black"/>
<path d="M45.3798 14.9139V12.7063C45.3798 11.8356 45.034 11.0006 44.4183 10.385C43.8027 9.76938 42.9677 9.42352 42.0971 9.42352H39.8156V11.6312H42.0232C42.169 11.6301 42.3136 11.658 42.4485 11.7133C42.5834 11.7686 42.706 11.8501 42.8091 11.9532C42.9122 12.0563 42.9938 12.1789 43.049 12.3138C43.1043 12.4487 43.1323 12.5933 43.1312 12.7391V14.9467L45.3798 14.9139Z" fill="black"/>
<path d="M37.9034 9.34966H35.4413V11.8117H37.9034V9.34966Z" fill="black"/>
<path d="M61.9741 25.9686H54.2269C54.0751 25.9659 53.9243 25.9936 53.7834 26.05C53.6425 26.1064 53.5142 26.1903 53.4062 26.2968L48.2358 31.5H39.8156C39.356 27.7577 36.5903 24.8688 33.2501 24.8688C32.5561 24.8681 31.8682 24.999 31.223 25.2546C31.5595 23.2849 32.5525 20.4453 35.4577 20.4453V18.2377C34.4727 18.2191 33.5 18.4585 32.6362 18.9321C31.7724 19.4058 31.0475 20.0972 30.5336 20.9377C30.0489 19.429 29.0743 18.1253 27.7646 17.2333C26.4548 16.3413 24.8848 15.9121 23.3034 16.0136C23.0117 16.0136 22.732 16.1295 22.5257 16.3357C22.3195 16.542 22.2036 16.8217 22.2036 17.1133C22.1361 19.0317 22.8107 20.9022 24.087 22.336C25.3633 23.7697 27.1431 24.6563 29.0564 24.8114C29.0564 25.0002 28.9907 25.1807 28.9661 25.3613C28.2293 25.0339 27.4333 24.8607 26.6271 24.8524C22.9669 24.8524 19.9878 28.3321 19.9878 32.5997C19.9878 36.8673 22.9669 40.3388 26.6271 40.3388C27.8005 40.3246 28.9432 39.9618 29.9099 39.2965C30.8761 39.9627 32.0191 40.3256 33.1926 40.3388C36.5246 40.3388 39.2903 37.45 39.7581 33.6994H48.2358L53.439 38.8862C53.5475 38.9916 53.676 39.0743 53.8169 39.1293C53.9579 39.1842 54.1084 39.2104 54.2597 39.2062H61.9741C62.1193 39.2063 62.2629 39.1775 62.3969 39.1218C62.5309 39.066 62.6525 38.9842 62.7547 38.8813C62.8569 38.7783 62.9377 38.6561 62.9925 38.5217C63.0473 38.3873 63.0749 38.2434 63.0739 38.0983V27.0765C63.0717 26.7847 62.9555 26.5054 62.7499 26.2983C62.5444 26.0912 62.2659 25.9728 61.9741 25.9686V25.9686ZM24.5098 18.369C25.5536 18.544 26.5144 19.0474 27.2524 19.8061C27.9904 20.5648 28.4671 21.5391 28.6132 22.5873C27.5699 22.4111 26.6098 21.9073 25.872 21.1489C25.1342 20.3904 24.6571 19.4168 24.5098 18.369V18.369ZM60.858 31.5H56.8941L60.1768 28.2172H60.8252L60.858 31.5ZM54.6782 28.2172H57.05L53.7673 31.5H51.3627L54.6782 28.2172ZM33.2501 38.1312C32.2888 38.1211 31.3675 37.7455 30.6731 37.0807C30.4687 36.8984 30.2043 36.7977 29.9304 36.7977C29.6565 36.7977 29.3921 36.8984 29.1877 37.0807C28.4963 37.745 27.5777 38.1207 26.6189 38.1312C24.1569 38.1312 22.1954 35.6691 22.1954 32.6079C22.1954 29.5468 24.1733 27.0765 26.6189 27.0765C27.5619 27.1043 28.4617 27.4783 29.1466 28.127C29.3511 28.3092 29.6155 28.41 29.8894 28.41C30.1633 28.41 30.4276 28.3092 30.6321 28.127C31.3408 27.4588 32.2761 27.0835 33.2501 27.0765C35.3839 27.0765 37.173 28.9805 37.5833 31.5H28.7938V33.7159H37.5505C37.1401 36.2354 35.351 38.1312 33.2501 38.1312ZM51.3627 33.7159H53.7673L57.05 36.9986H54.6782L51.3627 33.7159ZM60.2097 36.9986L56.9269 33.7159H60.8908V36.9986H60.2097Z" fill="black"/>
<path d="M20.6689 43.8185H19.0276V46.2806H20.6689V43.8185Z" fill="black"/>
<path d="M41.1861 43.8185H23.131V46.2806H41.1861V43.8185Z" fill="black"/>
<path d="M41.1861 47.922H19.0276V50.384H41.1861V47.922Z" fill="black"/>
</svg>
