<svg width="65" height="65" viewBox="0 0 65 65" fill="none" xmlns="http://www.w3.org/2000/svg">
<rect width="65" height="65" fill="white"/>
<path d="M49.1884 51C48.3749 51 47.5797 50.7591 46.9029 50.3078C46.2261 49.8565 45.6981 49.2149 45.3854 48.4639C45.0727 47.7129 44.9894 46.8862 45.1459 46.0879C45.3024 45.2896 45.6917 44.5555 46.2648 43.9782C46.8379 43.4008 47.569 43.0061 48.3661 42.8437C49.1632 42.6813 49.9906 42.7586 50.7439 43.0657C51.4971 43.3728 52.1426 43.896 52.5989 44.5695C53.0553 45.2429 53.302 46.0364 53.308 46.8498C53.3121 47.3934 53.2085 47.9324 53.0033 48.4357C52.798 48.9391 52.4952 49.3968 52.1123 49.7826C51.7293 50.1684 51.2738 50.4746 50.772 50.6835C50.2702 50.8925 49.732 51 49.1884 51V51ZM49.1884 44.8244C48.7783 44.823 48.3771 44.9437 48.036 45.1713C47.6948 45.3989 47.4292 45.7229 47.273 46.1021C47.1168 46.4813 47.0772 46.8984 47.1591 47.3002C47.241 47.702 47.4408 48.0703 47.7329 48.3581C48.025 48.6459 48.3963 48.8401 48.7993 48.916C49.2023 48.9919 49.6188 48.946 49.9956 48.7841C50.3724 48.6223 50.6924 48.3519 50.9148 48.0073C51.1372 47.6628 51.252 47.2598 51.2444 46.8498C51.2444 46.3045 51.0278 45.7816 50.6422 45.396C50.2566 45.0105 49.7337 44.7938 49.1884 44.7938V44.8244Z" fill="black"/>
<path d="M50.2126 45.8486H48.1566V47.9046H50.2126V45.8486Z" fill="black"/>
<path d="M46.093 45.8486H35.7978V47.9046H46.093V45.8486Z" fill="black"/>
<path d="M45.0688 40.7354C43.8493 40.7334 42.6422 40.4912 41.5163 40.0227C40.3904 39.5541 39.3678 38.8684 38.5069 38.0047C37.646 37.1409 36.9637 36.1161 36.4988 34.9887C36.034 33.8612 35.7958 32.6533 35.7978 31.4338C35.7998 31.1615 35.9094 30.901 36.1027 30.7091C36.296 30.5173 36.5573 30.4096 36.8296 30.4096H53.3004C53.4355 30.4086 53.5695 30.4344 53.6947 30.4854C53.8198 30.5364 53.9336 30.6117 54.0295 30.7069C54.1254 30.8021 54.2016 30.9153 54.2535 31.0401C54.3055 31.1648 54.3322 31.2986 54.3322 31.4338C54.3363 33.8953 53.3628 36.2578 51.6258 38.002C49.8888 39.7461 47.5304 40.7293 45.0688 40.7354V40.7354ZM37.9302 32.4656C38.1758 34.1828 39.0326 35.7539 40.3432 36.8904C41.6538 38.0269 43.3303 38.6525 45.065 38.6525C46.7997 38.6525 48.4762 38.0269 49.7868 36.8904C51.0974 35.7539 51.9542 34.1828 52.1998 32.4656H37.9302Z" fill="black"/>
<path d="M38.8932 51H35.7978V48.944H38.0296L39.9403 38.4425L41.9657 38.817L39.9021 50.1363C39.8625 50.376 39.7396 50.5941 39.5551 50.7521C39.3705 50.91 39.1362 50.9979 38.8932 51V51Z" fill="black"/>
<path d="M50.1989 38.4271L48.1804 38.8565L49.3223 44.2241L51.3408 43.7947L50.1989 38.4271Z" fill="black"/>
<path d="M53.3004 32.4656H36.8296C36.556 32.4656 36.2935 32.3569 36.1 32.1634C35.9065 31.9699 35.7978 31.7074 35.7978 31.4338V27.3218C35.7978 27.0482 35.9065 26.7857 36.1 26.5922C36.2935 26.3987 36.556 26.29 36.8296 26.29H53.3004C53.4362 26.289 53.5708 26.315 53.6964 26.3665C53.8221 26.418 53.9362 26.4939 54.0322 26.59C54.1283 26.686 54.2042 26.8001 54.2557 26.9258C54.3072 27.0514 54.3332 27.1861 54.3322 27.3218V31.4338C54.3332 31.5696 54.3072 31.7042 54.2557 31.8299C54.2042 31.9555 54.1283 32.0696 54.0322 32.1657C53.9362 32.2617 53.8221 32.3376 53.6964 32.3891C53.5708 32.4406 53.4362 32.4666 53.3004 32.4656ZM37.8614 30.4096H52.2762V28.346H37.8614V30.4096Z" fill="black"/>
<path d="M57.42 31.4338H55.3869V30.4096H53.308V28.346H56.3652C56.6376 28.348 56.898 28.4576 57.0899 28.6509C57.2818 28.8442 57.3894 29.1055 57.3894 29.3778L57.42 31.4338Z" fill="black"/>
<path d="M34.7507 31.4338H32.6871V29.3778C32.6891 29.1048 32.7984 28.8435 32.9915 28.6504C33.1846 28.4574 33.4459 28.348 33.7189 28.346H36.7761V30.4096H34.7507V31.4338Z" fill="black"/>
<path d="M39.6117 24.1729L38.1595 22.7207C38.3518 22.5309 38.5044 22.3048 38.6086 22.0555C38.7128 21.8062 38.7665 21.5387 38.7665 21.2685C38.7665 20.9984 38.7128 20.7309 38.6086 20.4816C38.5044 20.2323 38.3518 20.0062 38.1595 19.8164C37.7775 19.4345 37.4745 18.9811 37.2677 18.4821C37.061 17.9831 36.9545 17.4483 36.9545 16.9082C36.9545 16.368 37.061 15.8332 37.2677 15.3342C37.4745 14.8352 37.7775 14.3819 38.1595 14V14L39.6117 15.4522C39.2266 15.8389 39.0104 16.3624 39.0104 16.9082C39.0104 17.4539 39.2266 17.9774 39.6117 18.3642V18.3642C39.9948 18.7462 40.2988 19.2 40.5063 19.6997C40.7137 20.1994 40.8205 20.7351 40.8205 21.2762C40.8205 21.8172 40.7137 22.3529 40.5063 22.8526C40.2988 23.3523 39.9948 23.8062 39.6117 24.1882V24.1729Z" fill="black"/>
<path d="M45.7949 24.1729L44.3427 22.7207C44.7273 22.3353 44.9433 21.813 44.9433 21.2685C44.9433 20.7241 44.7273 20.2018 44.3427 19.8164V19.8164C43.9598 19.435 43.656 18.9818 43.4486 18.4827C43.2413 17.9837 43.1346 17.4486 43.1346 16.9082C43.1346 16.3678 43.2413 15.8327 43.4486 15.3336C43.656 14.8345 43.9598 14.3813 44.3427 14V14L45.7949 15.4522C45.6024 15.6427 45.4496 15.8694 45.3453 16.1193C45.241 16.3693 45.1873 16.6374 45.1873 16.9082C45.1873 17.179 45.241 17.4471 45.3453 17.697C45.4496 17.9469 45.6024 18.1737 45.7949 18.3642C46.565 19.1377 46.9974 20.1847 46.9974 21.2762C46.9974 22.3677 46.565 23.4147 45.7949 24.1882V24.1729Z" fill="black"/>
<path d="M51.9705 24.1729L50.5183 22.7207C50.9029 22.3353 51.1189 21.813 51.1189 21.2685C51.1189 20.7241 50.9029 20.2018 50.5183 19.8164V19.8164C50.1363 19.4345 49.8333 18.9811 49.6265 18.4821C49.4198 17.9831 49.3134 17.4483 49.3134 16.9082C49.3134 16.368 49.4198 15.8332 49.6265 15.3342C49.8333 14.8352 50.1363 14.3819 50.5183 14V14L51.9705 15.4522C51.5854 15.8389 51.3693 16.3624 51.3693 16.9082C51.3693 17.4539 51.5854 17.9774 51.9705 18.3642C52.7406 19.1377 53.1729 20.1847 53.1729 21.2762C53.1729 22.3677 52.7406 23.4147 51.9705 24.1882V24.1729Z" fill="black"/>
<path d="M29.6222 36.5852H9.03184C8.89606 36.5862 8.76143 36.5602 8.63578 36.5087C8.51014 36.4572 8.39599 36.3813 8.29997 36.2853C8.20396 36.1892 8.12799 36.0751 8.0765 35.9494C8.02501 35.8238 7.99901 35.6892 8.00003 35.5534V31.4338C8.00002 31.2986 8.02677 31.1648 8.07871 31.0401C8.13066 30.9153 8.20678 30.8021 8.3027 30.7069C8.39861 30.6117 8.51242 30.5364 8.63756 30.4854C8.7627 30.4344 8.8967 30.4086 9.03184 30.4096H29.6222C29.8945 30.4096 30.1558 30.5173 30.3491 30.7091C30.5424 30.901 30.652 31.1615 30.654 31.4338V35.5534C30.654 35.827 30.5453 36.0895 30.3518 36.283C30.1583 36.4765 29.8959 36.5852 29.6222 36.5852ZM10.056 34.5216H28.5904V32.4656H10.056V34.5216Z" fill="black"/>
<path d="M11.0692 35.4799L10.0445 49.8812L12.0953 50.0271L13.12 35.6258L11.0692 35.4799Z" fill="black"/>
<path d="M27.5663 35.4836L25.5156 35.6302L26.5464 50.0464L28.5972 49.8998L27.5663 35.4836Z" fill="black"/>
<path d="M30.654 48.944H24.4784V51H30.654V48.944Z" fill="black"/>
<path d="M14.1756 48.944H8.00003V51H14.1756V48.944Z" fill="black"/>
<path d="M26.5344 38.6412H12.1196V40.6972H26.5344V38.6412Z" fill="black"/>
<path d="M14.1756 32.4656H11.0572C10.813 32.4653 10.5768 32.3783 10.3907 32.2201C10.2045 32.062 10.0805 31.8429 10.0407 31.6019L9.04712 25.4493C9.00293 25.1797 9.06742 24.9037 9.22645 24.6816C9.38548 24.4595 9.62608 24.3096 9.8955 24.2646H10.056H15.2074C15.4798 24.2646 15.741 24.3723 15.9343 24.5641C16.1276 24.756 16.2372 25.0165 16.2392 25.2888C16.2433 25.3473 16.2433 25.4061 16.2392 25.4646L15.2074 31.6402C15.1592 31.8767 15.0295 32.0889 14.841 32.2397C14.6524 32.3905 14.417 32.4705 14.1756 32.4656ZM11.9591 30.4096H13.3043L13.9922 26.29H11.2789L11.9591 30.4096Z" fill="black"/>
<path d="M22.4148 31.4338C21.8742 31.4348 21.3387 31.3292 20.8389 31.123C20.3391 30.9168 19.8849 30.6141 19.5023 30.2321C19.1196 29.8502 18.8161 29.3966 18.6089 28.8972C18.4018 28.3978 18.2952 27.8625 18.2952 27.3218C18.2952 27.0482 18.4039 26.7857 18.5974 26.5922C18.7909 26.3987 19.0534 26.29 19.327 26.29H25.5026C25.6384 26.289 25.773 26.315 25.8987 26.3665C26.0243 26.418 26.1385 26.4939 26.2345 26.59C26.3305 26.686 26.4065 26.8001 26.4579 26.9258C26.5094 27.0514 26.5354 27.1861 26.5344 27.3218C26.5344 27.8625 26.4278 28.3978 26.2207 28.8972C26.0136 29.3966 25.71 29.8502 25.3274 30.2321C24.9447 30.6141 24.4905 30.9168 23.9907 31.123C23.491 31.3292 22.9554 31.4348 22.4148 31.4338V31.4338ZM20.634 28.3766C20.768 28.6119 20.9472 28.8185 21.1613 28.9844C21.3754 29.1503 21.6201 29.2722 21.8815 29.3432C22.1428 29.4143 22.4156 29.4329 22.6842 29.3982C22.9528 29.3635 23.2119 29.276 23.4466 29.1409C23.7681 28.9629 24.033 28.6981 24.2109 28.3766H20.634Z" fill="black"/>
</svg>
