<svg xmlns="http://www.w3.org/2000/svg" width="64.666" height="64.666" viewBox="0 0 64.666 64.666">
  <g id="Gruppe_9622" data-name="Gruppe 9622" transform="translate(-435 -1562)">
    <path id="Pfad_34094" data-name="Pfad 34094" d="M45.8,60.624a1.348,1.348,0,0,1-1.347,1.347H4.042a1.348,1.348,0,0,1-1.347-1.347V13.472H9.43A4.041,4.041,0,0,0,13.472,9.43V2.694H44.458A1.348,1.348,0,0,1,45.8,4.042v24.25H48.5V4.042A4.041,4.041,0,0,0,44.458,0H12.125a1.344,1.344,0,0,0-.952.395L.395,11.172A1.344,1.344,0,0,0,0,12.125v48.5a4.041,4.041,0,0,0,4.042,4.042H44.458A4.041,4.041,0,0,0,48.5,60.624V39.069H45.8ZM9.43,10.778H4.6L10.778,4.6V9.43A1.348,1.348,0,0,1,9.43,10.778Z" transform="translate(435 1562)"/>
    <path id="Pfad_34095" data-name="Pfad 34095" d="M33.736,10.736V8.042A4.041,4.041,0,0,0,29.694,4H27V6.694h2.694a1.348,1.348,0,0,1,1.347,1.347v2.694Z" transform="translate(444.374 1563.389)"/>
    <rect id="Rechteck_1290" data-name="Rechteck 1290" width="3" height="3" transform="translate(466 1567.339)"/>
    <path id="Pfad_34096" data-name="Pfad 34096" d="M60.194,22.129h-9.43a1.344,1.344,0,0,0-.952.395l-6.341,6.341H33.158c-.564-4.562-3.927-8.083-7.992-8.083a7,7,0,0,0-2.473.469c.415-2.4,1.623-5.858,5.168-5.858V12.7A6.9,6.9,0,0,0,21.85,15.99,8.683,8.683,0,0,0,13.042,10a1.348,1.348,0,0,0-1.347,1.347,9.088,9.088,0,0,0,8.353,9.374c-.042.229-.079.454-.11.674a7,7,0,0,0-2.853-.617C12.625,20.782,9,25.014,9,30.212s3.625,9.43,8.083,9.43a7.136,7.136,0,0,0,4.042-1.264,7.136,7.136,0,0,0,4.042,1.264c4.064,0,7.427-3.522,7.992-8.083H43.469L49.811,37.9a1.344,1.344,0,0,0,.952.395h9.43a1.348,1.348,0,0,0,1.347-1.347V23.476A1.348,1.348,0,0,0,60.194,22.129ZM14.554,12.821a6.074,6.074,0,0,1,5.057,5.144A6.075,6.075,0,0,1,14.554,12.821ZM58.846,28.865H54.015l4.042-4.042h.789Zm-7.525-4.042h2.926l-4.042,4.042H47.279ZM25.166,36.948a4.661,4.661,0,0,1-3.139-1.28,1.346,1.346,0,0,0-1.805,0,4.661,4.661,0,0,1-3.139,1.28c-2.972,0-5.389-3.022-5.389-6.736s2.417-6.736,5.389-6.736a4.661,4.661,0,0,1,3.139,1.28,1.346,1.346,0,0,0,1.805,0,4.661,4.661,0,0,1,3.139-1.28c2.6,0,4.779,2.319,5.28,5.389H19.778V31.56H30.446C29.945,34.63,27.769,36.948,25.166,36.948ZM47.279,31.56h2.926L54.247,35.6H51.321ZM58.057,35.6,54.015,31.56h4.831V35.6Z" transform="translate(438.125 1565.468)"/>
    <rect id="Rechteck_1291" data-name="Rechteck 1291" width="2" height="3" transform="translate(446 1609.339)"/>
    <rect id="Rechteck_1292" data-name="Rechteck 1292" width="22" height="3" transform="translate(451 1609.339)"/>
    <rect id="Rechteck_1293" data-name="Rechteck 1293" width="27" height="3" transform="translate(446 1614.339)"/>
  </g>
</svg>
