<svg width="65" height="65" viewBox="0 0 65 65" fill="none" xmlns="http://www.w3.org/2000/svg">
<rect width="65" height="65" fill="white"/>
<path d="M42.9535 44.5805C42.7323 45.8116 42.059 47.6872 39.943 47.6872H28.5454V49.7647H39.943C44.0885 49.7647 45.1273 45.6962 45.1273 43.5417C45.1247 43.267 45.0145 43.0042 44.8202 42.81C44.626 42.6157 44.3632 42.5055 44.0885 42.503H18.177C18.0392 42.5021 17.9027 42.5289 17.7755 42.5817C17.6482 42.6346 17.5329 42.7125 17.4364 42.8107L5 55.2471L6.46197 56.7091L18.6002 44.5805H42.9535Z" fill="black"/>
<path d="M57.2655 35.549C57.1698 35.4524 57.0559 35.3758 56.9304 35.3235C56.805 35.2712 56.6704 35.2443 56.5345 35.2443C56.3985 35.2443 56.264 35.2712 56.1385 35.3235C56.013 35.3758 55.8992 35.4524 55.8035 35.549L46.4738 44.8787L47.9358 46.3406L56.4479 37.8285C57.1243 38.7256 57.4332 39.8468 57.3116 40.9637C57.1901 42.0807 56.6473 43.1092 55.7939 43.8399L43.6653 55.9781H22.3128C22.175 55.9772 22.0385 56.004 21.9113 56.0569C21.7841 56.1097 21.6688 56.1876 21.5722 56.2859L14.3297 63.538L15.7917 65L22.7456 58.0556H44.0885C44.3646 58.0558 44.6301 57.9489 44.8291 57.7575L57.2655 45.3115C61.1224 41.4738 58.9486 37.2418 57.2655 35.549Z" fill="black"/>
<path d="M26.4679 47.6872H24.3904V49.7647H26.4679V47.6872Z" fill="black"/>
<path d="M33.7296 39.3963C37.6256 39.3963 41.434 38.241 44.6733 36.0765C47.9127 33.9121 50.4374 30.8356 51.9283 27.2363C53.4192 23.6369 53.8093 19.6763 53.0493 15.8552C52.2892 12.0342 50.4132 8.52428 47.6583 5.76945C44.9035 3.01462 41.3936 1.13855 37.5726 0.378495C33.7515 -0.381561 29.7909 0.00852741 26.1915 1.49943C22.5921 2.99034 19.5157 5.5151 17.3512 8.75444C15.1868 11.9938 14.0315 15.8022 14.0315 19.6981V19.6981C14.0315 24.9224 16.1068 29.9327 19.801 33.6268C23.4951 37.3209 28.5054 39.3963 33.7296 39.3963V39.3963ZM33.7296 2.07754C37.2147 2.07754 40.6214 3.11097 43.5191 5.04714C46.4168 6.98332 48.6753 9.73528 50.0089 12.955C51.3426 16.1748 51.6916 19.7177 51.0117 23.1357C50.3318 26.5538 48.6536 29.6935 46.1893 32.1578C43.725 34.6221 40.5853 36.3003 37.1672 36.9802C33.7492 37.6601 30.2063 37.3111 26.9865 35.9774C23.7668 34.6438 21.0148 32.3853 19.0787 29.4876C17.1425 26.5899 16.109 23.1832 16.109 19.6981C16.109 15.0249 17.9655 10.543 21.27 7.23849C24.5745 3.93399 29.0564 2.07754 33.7296 2.07754V2.07754Z" fill="black"/>
<path d="M33.72 34.212C36.591 34.2139 39.3981 33.3643 41.7861 31.7707C44.1742 30.177 46.036 27.9109 47.136 25.259C48.236 22.6071 48.5248 19.6886 47.9659 16.8725C47.4069 14.0565 46.0254 11.4694 43.9959 9.43865C41.9665 7.40788 39.3804 6.02461 36.5647 5.46381C33.749 4.90301 30.8303 5.18987 28.1776 6.28811C25.525 7.38635 23.2577 9.24663 21.6625 11.6336C20.0672 14.0206 19.2157 16.8271 19.2157 19.6981V19.6981C19.2145 21.6037 19.5887 23.4908 20.3171 25.2516C21.0454 27.0125 22.1136 28.6126 23.4606 29.9604C24.8075 31.3083 26.4069 32.3775 28.1673 33.107C29.9276 33.8366 31.8145 34.212 33.72 34.212V34.212ZM21.351 18.6594C21.5996 15.731 22.8764 12.985 24.9555 10.9078C27.0345 8.8305 29.7815 7.55596 32.7101 7.30985V10.3684H34.778V7.30985C37.7056 7.55626 40.4514 8.83114 42.5288 10.9086C44.6063 12.986 45.8811 15.7318 46.1275 18.6594H43.0497V20.7369H46.1083C45.8638 23.6651 44.5895 26.412 42.5117 28.4898C40.4339 30.5676 37.6871 31.8419 34.7588 32.0864V29.0278H32.6909V32.0864C29.7637 31.8416 27.018 30.567 24.9418 28.489C22.8656 26.411 21.5933 23.6643 21.351 20.7369H24.4V18.6594H21.351Z" fill="black"/>
<path d="M33.72 22.8144C34.1852 22.8049 34.6435 22.7002 35.0666 22.5067L38.1733 25.6133L39.6256 24.1514L36.5286 21.0543C36.8776 20.3065 36.9168 19.4509 36.6375 18.6743C36.3582 17.8977 35.7831 17.2631 35.0377 16.9088L34.7588 16.803V12.446H32.6909V16.7742C32.0082 17.0256 31.4349 17.508 31.0706 18.1377C30.7062 18.7674 30.5736 19.5047 30.6958 20.2219C30.818 20.9391 31.1873 21.591 31.7396 22.0645C32.292 22.538 32.9926 22.8033 33.72 22.8144V22.8144ZM33.72 18.6594C33.9259 18.6575 34.1277 18.7168 34.2997 18.8297C34.4718 18.9427 34.6065 19.1043 34.6866 19.2939C34.7667 19.4835 34.7886 19.6927 34.7496 19.8948C34.7106 20.097 34.6125 20.2829 34.4676 20.4292C34.3227 20.5754 34.1376 20.6753 33.9359 20.7162C33.7341 20.757 33.5248 20.737 33.3344 20.6587C33.144 20.5804 32.9812 20.4473 32.8666 20.2762C32.7521 20.1052 32.6909 19.904 32.6909 19.6981C32.6909 19.4243 32.799 19.1615 32.9917 18.967C33.1845 18.7725 33.4462 18.6619 33.72 18.6594V18.6594Z" fill="black"/>
</svg>
