<svg xmlns="http://www.w3.org/2000/svg" width="100" height="100" viewBox="0 0 100 100">
  <g id="Gruppe_9626" data-name="Gruppe 9626" transform="translate(-1171 -1544)">
    <g id="Gruppe_9624" data-name="Gruppe 9624" transform="translate(74.169)">
      <path id="Pfad_34085" data-name="Pfad 34085" d="M54.611,44.694c-.283,1.6-1.159,4.042-3.907,4.042H35.885V51.43H50.7c5.389,0,6.736-5.281,6.736-8.083A1.348,1.348,0,0,0,56.093,42H22.413a1.346,1.346,0,0,0-.957.391L5.29,58.557l1.9,1.9L22.965,44.694Z" transform="translate(1106.541 1565.235)"/>
      <path id="Pfad_34086" data-name="Pfad 34086" d="M70.091,35.391a1.347,1.347,0,0,0-1.9,0L56.067,47.516l1.9,1.9,11.06-11.06a5.738,5.738,0,0,1-.849,7.814L52.416,61.944H24.677a1.346,1.346,0,0,0-.957.391l-9.43,9.43,1.9,1.9,9.04-9.026H52.968a1.346,1.346,0,0,0,.957-.391L70.091,48.082C75.1,43.084,72.273,37.587,70.091,35.391Z" transform="translate(1109.665 1562.804)"/>
      <rect id="Rechteck_1289" data-name="Rechteck 1289" width="2.694" height="2.694" transform="translate(1137.037 1613.971)"/>
      <path id="Pfad_34087" data-name="Pfad 34087" d="M39.6,52.194A25.6,25.6,0,1,0,14,26.6,25.6,25.6,0,0,0,39.6,52.194Zm0-48.5a22.9,22.9,0,1,1-22.9,22.9A22.9,22.9,0,0,1,39.6,3.694Z" transform="translate(1109.565 1551)"/>
      <path id="Pfad_34088" data-name="Pfad 34088" d="M37.861,43.722A18.861,18.861,0,1,0,19,24.861,18.861,18.861,0,0,0,37.861,43.722Zm-16.1-20.208A16.165,16.165,0,0,1,36.514,8.762v3.974h2.694V8.762A16.165,16.165,0,0,1,53.96,23.514H49.986v2.694H53.96A16.165,16.165,0,0,1,39.208,40.96V36.986H36.514V40.96A16.165,16.165,0,0,1,21.762,26.208h3.974V23.514Z" transform="translate(1111.301 1552.736)"/>
      <path id="Pfad_34089" data-name="Pfad 34089" d="M34.034,26.472a4.044,4.044,0,0,0,1.738-.4l4.042,4.042,1.9-1.9-4.042-4.042a4.043,4.043,0,0,0-1.937-5.378c-.116-.054-.233-.1-.353-.145V13H32.687v5.631a4.042,4.042,0,0,0,1.347,7.841Zm0-5.389a1.347,1.347,0,1,1-1.347,1.347A1.348,1.348,0,0,1,34.034,21.083Z" transform="translate(1115.128 1555.166)"/>
    </g>
    <rect id="Rechteck_1307" data-name="Rechteck 1307" width="100" height="100" transform="translate(1171 1544)" fill="none"/>
  </g>
</svg>
