<?xml version="1.0" encoding="UTF-8"?><svg xmlns="http://www.w3.org/2000/svg" viewBox="0 0 286.23 287.72"><defs><style>.cls-1{fill:#fff;}.cls-2{fill:#152935;}</style></defs><g id="Ebene_1"><g id="Pfad_39708"><path class="cls-2" d="M176.68,109.25v-15.04c-.09-8.67-7.2-15.62-15.87-15.53-8.54,.09-15.44,6.99-15.53,15.53v15.04c-2.48,1.85-3.93,4.76-3.92,7.85v27.1l-14.91-6.4c1.98-1.48,3.15-3.81,3.14-6.28v-4.73c0-4.33-3.51-7.85-7.84-7.85-4.33,0-7.85,3.51-7.85,7.84h0v4.74c0,2.47,1.16,4.8,3.14,6.28l-14.91,6.43v-26.95c-.02-4.05-2.51-7.68-6.28-9.15l-8.12-3.12c2.85-1.8,4.59-4.94,4.61-8.31v-8.36c0-5.43-4.4-9.82-9.82-9.82s-9.82,4.4-9.82,9.82v8.34c.02,3.38,1.75,6.51,4.61,8.31l-8.12,3.12c-3.78,1.46-6.27,5.1-6.28,9.15v29.92c0,3.25,2.63,5.88,5.88,5.88,.67,0,1.33-.12,1.96-.34v31.77c-3.25,0-5.89,2.64-5.89,5.89s2.64,5.89,5.89,5.89h7.85c1.45,0,2.84-.53,3.92-1.5,1.08,.97,2.48,1.5,3.92,1.5h7.86c3.25,0,5.89-2.64,5.89-5.89s-2.64-5.89-5.89-5.89v-31.74c3.06,1.08,6.42-.52,7.5-3.58h0c.07-.2,.13-.41,.17-.62l8.02-3.43v39.68c-3.07,1.07-4.68,4.42-3.61,7.49,.83,2.37,3.07,3.95,5.57,3.94h5.88c1.45,0,2.84-.53,3.92-1.5,1.08,.97,2.48,1.5,3.92,1.5h5.88c3.25,.01,5.89-2.61,5.9-5.86,.01-2.51-1.57-4.75-3.94-5.57v-39.65l8.02,3.43c.68,2.87,3.39,4.79,6.33,4.49l-3.09,13.76h6.38v17.66h-1.96c-3.25,0-5.89,2.64-5.89,5.89s2.64,5.89,5.89,5.89h7.85c1.45,0,2.85-.53,3.94-1.5,1.08,.97,2.48,1.5,3.92,1.5h7.85c3.25,0,5.89-2.64,5.89-5.89s-2.64-5.89-5.89-5.89h-1.96v-17.66h6.38l-3.07-13.76c3.24,.34,6.14-2.01,6.48-5.25h0c.02-.21,.03-.41,.02-.62v-30.09c0-3.09-1.45-6-3.92-7.85h0Zm-97.72-25.63c2.59-1.95,6.28-1.43,8.23,1.16h0c.36,.49,.64,1.02,.83,1.58h-11.09c.38-1.1,1.08-2.06,2.01-2.76h0Zm-2.36,13.05v-6.37h11.77v6.38c0,2.44-1.5,4.62-3.78,5.49l-2.11,.81-2.11-.81c-2.27-.88-3.77-3.06-3.78-5.49h0Zm-7.85,52.49c-1.08,0-1.96-.88-1.96-1.96v-3.93h3.92v3.92c0,1.08-.88,1.96-1.96,1.96Zm11.77,41.21c0,1.08-.88,1.96-1.96,1.96h-7.85c-1.08,0-1.96-.88-1.96-1.96s.88-1.96,1.96-1.96h9.81v1.96Zm0-5.88h-5.89v-3.93h5.88v3.93Zm.01-29.43v21.58h-5.89v-27.47h15.7v27.47h-5.88v-21.58h-3.93Zm9.81,25.52v3.92h-5.88v-3.93h5.88Zm5.88,9.82c0,1.08-.88,1.96-1.96,1.96h-7.85c-1.08,0-1.96-.88-1.96-1.96v-1.97h9.81c1.09,0,1.97,.88,1.97,1.96h0Zm1.96-43.17c0,1.08-.88,1.96-1.96,1.96s-1.96-.88-1.96-1.96v-3.93h3.92v3.93Zm0-7.85h-3.92v-15.7h-3.92v21.58h-15.7v-21.58h-3.92v15.7h-3.92v-22.07c0-2.44,1.5-4.62,3.78-5.49l9.96-3.83v13.73h3.92v-13.74l9.96,3.83c2.26,.89,3.75,3.07,3.78,5.49v22.08Zm19.62-12.56c0-2.17,1.76-3.92,3.92-3.92s3.92,1.76,3.92,3.92v4.73c0,1.57-.93,2.99-2.38,3.61l-1.55,.66-1.55-.66c-1.45-.62-2.38-2.04-2.38-3.61v-4.73Zm-3.92,16.65l7.85-3.36,7.85,3.36v21.42h-15.7v-21.42Zm5.88,46.92c0,1.08-.88,1.96-1.95,1.96h-5.88c-1.08,0-1.96-.88-1.96-1.96s.88-1.96,1.96-1.96h7.85v1.96Zm-.01-17.66v11.77h-5.88v-15.7h15.7v15.7h-5.88v-11.77h-3.94Zm11.77,19.62h-5.88c-1.08,0-1.96-.88-1.96-1.96v-1.96h7.85c1.08,0,1.96,.88,1.96,1.96s-.88,1.96-1.96,1.96h0Zm17.66-98.1c0-6.5,5.27-11.77,11.77-11.77s11.77,5.27,11.77,11.77v13.07l-7.31-3.04c2.15-1.86,3.39-4.56,3.38-7.41v-2.63c0-4.34-3.51-7.85-7.85-7.85s-7.85,3.51-7.85,7.85v2.63c0,2.84,1.23,5.55,3.38,7.41l-7.31,3.04v-13.07Zm11.79,12.43l5.47,2.28-2.36,1.89c-1.81,1.47-4.4,1.47-6.21,0l-2.36-1.89,5.45-2.28Zm-3.92-9.81v-2.63c0-2.17,1.76-3.92,3.92-3.92s3.92,1.76,3.92,3.92v2.63c0,2.38-1.43,4.53-3.63,5.45l-.29,.12-.29-.12c-2.2-.92-3.63-3.06-3.63-5.45Zm-7.85,50.13l-.27,1.2c-.54,.94-1.74,1.25-2.68,.71-.6-.35-.97-.99-.97-1.69v-17.66h3.92v17.44Zm9.81,43.39c0,1.08-.88,1.96-1.96,1.96h-7.85c-1.08,0-1.96-.88-1.96-1.96s.88-1.96,1.96-1.96h9.81v1.96Zm0-5.88h-3.92v-17.67h3.92v17.67Zm13.73,3.92c1.08,0,1.96,.88,1.96,1.96s-.88,1.96-1.96,1.96h-7.85c-1.08,0-1.96-.88-1.96-1.96v-1.97h9.81Zm-9.81-3.92v-17.67h3.92v17.66h-3.92Zm-13.24-21.58l2.99-13.41c.3-.72,.46-1.5,.47-2.28v-5.88h15.7v5.88c0,.78,.15,1.56,.47,2.28l2.94,13.41h-22.56Zm26.98-15.7c0,1.08-.88,1.96-1.96,1.96-.7,0-1.35-.37-1.69-.98l-.27-1.2v-17.45h3.92v17.67Zm-.02-21.58h-3.9v-3.93h-3.92v15.7h-15.7v-15.7h-3.93v3.92h-3.92v-8.52c0-2.38,1.43-4.53,3.63-5.45l2.48-1.03,4.02,3.24c3.24,2.63,7.87,2.63,11.11,0l4.02-3.24,2.48,1.03c2.2,.91,3.64,3.06,3.63,5.45v8.51h0Z"/><path class="cls-1" d="M157.05,196.75h-7.85c-3.52,0-6.39-2.86-6.39-6.39s2.86-6.39,6.39-6.39h1.46v-16.66h-6.5l3.08-13.73c-2.82-.01-5.35-1.91-6.12-4.66l-7.1-3.04v38.55c2.38,.98,3.95,3.32,3.94,5.92-.01,3.51-2.88,6.35-6.38,6.35h-5.94c-1.42,0-2.78-.47-3.89-1.34-1.12,.87-2.5,1.34-3.92,1.34h-5.91c-2.71,0-5.13-1.72-6.02-4.28-1.12-3.21,.48-6.72,3.58-8v-38.58l-7.09,3.04c-.04,.14-.08,.28-.13,.42-.57,1.61-1.73,2.89-3.27,3.63-1.33,.63-2.8,.79-4.21,.45v30.6c3.29,.26,5.89,3.01,5.89,6.37,0,3.52-2.87,6.39-6.39,6.39h-7.9c-1.42,0-2.78-.47-3.89-1.34-1.12,.87-2.5,1.34-3.92,1.34h-7.85c-3.52,0-6.39-2.86-6.39-6.39s2.6-6.11,5.89-6.37v-30.62c-.48,.11-.97,.17-1.46,.18-3.52,0-6.38-2.86-6.38-6.38v-29.92c0-4.29,2.6-8.06,6.6-9.62l7.24-2.79c-2.54-1.95-4.04-4.94-4.05-8.18v-8.34c0-5.69,4.63-10.32,10.32-10.32s10.32,4.63,10.32,10.32v8.36c-.02,3.24-1.52,6.24-4.05,8.19l7.24,2.79c3.99,1.56,6.58,5.33,6.6,9.61v26.2l13.46-5.81c-1.71-1.57-2.7-3.81-2.69-6.15v-4.73c0-2.24,.87-4.33,2.45-5.91,1.58-1.58,3.67-2.44,5.9-2.44h0c2.23,0,4.33,.87,5.9,2.45,1.58,1.58,2.44,3.67,2.44,5.9v4.73c0,2.34-.98,4.58-2.69,6.14l13.47,5.78v-26.34c0-3.15,1.46-6.15,3.92-8.1v-14.79c.09-8.75,7.28-15.93,16.02-16.03,.06,0,.12,0,.18,0,8.85,0,16.1,7.15,16.2,16.02v14.8c2.44,1.9,3.93,4.93,3.93,8.09v30.09c0,.21,0,.44-.03,.66-.34,3.28-3.12,5.73-6.34,5.73l3.06,13.73h-6.5v16.66h1.46c3.52,0,6.39,2.86,6.39,6.39s-2.86,6.39-6.39,6.39h-7.85c-1.39-.01-2.81-.47-3.93-1.34-1.12,.87-2.51,1.35-3.94,1.35Zm-7.85-11.77c-2.97,0-5.39,2.42-5.39,5.39s2.42,5.39,5.39,5.39h7.85c1.33,0,2.61-.49,3.61-1.37l.33-.3,.33,.3c.99,.89,2.29,1.38,3.59,1.37h7.85c2.97,0,5.39-2.42,5.39-5.39s-2.42-5.39-5.39-5.39h-2.46v-18.66h6.25l-3.08-13.83,.69,.07c2.97,.3,5.62-1.85,5.93-4.8,.02-.18,.03-.37,.02-.55v-30.11c0-2.92-1.39-5.7-3.72-7.45l-.15-.15-.06-.26v-15.04c-.09-8.32-6.89-15.03-15.2-15.03-.06,0-.11,0-.17,0-8.2,.09-14.95,6.83-15.03,15.03v15.28l-.2,.15c-2.34,1.75-3.73,4.53-3.72,7.45v27.86l-16.41-7.04,.7-.52c1.85-1.38,2.95-3.57,2.94-5.88v-4.74c0-1.96-.76-3.81-2.15-5.2-1.39-1.39-3.23-2.15-5.2-2.15h0c-1.96,0-3.81,.76-5.19,2.15-1.39,1.39-2.15,3.23-2.15,5.19v4.74c0,2.31,1.09,4.5,2.94,5.88l.69,.52-16.41,7.07v-27.71c-.02-3.87-2.36-7.28-5.96-8.68l-9.05-3.48,.84-.53c2.72-1.72,4.36-4.67,4.38-7.9v-8.36c0-5.14-4.18-9.32-9.32-9.32s-9.32,4.18-9.32,9.32v8.34c.01,3.22,1.65,6.17,4.38,7.89l.84,.53-9.05,3.48c-3.61,1.4-5.95,4.81-5.96,8.68v29.92c0,2.97,2.41,5.38,5.38,5.38,.61,0,1.22-.11,1.79-.31l.67-.24v32.98h-.5c-2.97,0-5.39,2.42-5.39,5.39s2.42,5.39,5.39,5.39h7.85c1.32,0,2.6-.49,3.59-1.37l.33-.3,.33,.3c.99,.89,2.28,1.37,3.59,1.37h7.86c2.97,0,5.39-2.42,5.39-5.39s-2.42-5.39-5.39-5.39h-.5v-32.95l.67,.24c2.8,.99,5.88-.48,6.87-3.27,.06-.18,.12-.36,.15-.55l.05-.26,8.96-3.83v40.8l-.33,.12c-2.8,.98-4.28,4.05-3.31,6.85,.75,2.16,2.79,3.61,5.08,3.61h5.9c1.32,0,2.6-.49,3.59-1.37l.33-.3,.33,.3c.98,.88,2.24,1.37,3.56,1.37h5.93c2.96,0,5.37-2.4,5.38-5.36,0-2.29-1.44-4.34-3.61-5.1l-.33-.12v-40.76l8.95,3.83,.06,.24c.62,2.62,3.12,4.39,5.79,4.11l.69-.07-3.11,13.83h6.25v18.66h-2.46Zm-54.94,7.85h-7.85c-1.35,0-2.46-1.11-2.46-2.46v-2.47h10.32c1.36,0,2.46,1.1,2.47,2.46v.24l-.02,.02c-.13,1.24-1.18,2.21-2.45,2.22Zm-9.31-3.93v1.47c0,.8,.66,1.46,1.46,1.46h7.85c.8,0,1.46-.66,1.46-1.46v-.16c-.08-.74-.7-1.31-1.46-1.31h-9.31Zm87.8,3.93h-7.85c-1.35,0-2.46-1.11-2.46-2.46v-2.47h10.31c1.36,0,2.46,1.11,2.46,2.47s-1.1,2.46-2.46,2.46Zm-9.31-3.93v1.47c0,.8,.66,1.46,1.46,1.46h7.85c.81,0,1.46-.66,1.46-1.46s-.66-1.46-1.46-1.46h-9.31Zm-31.9,3.92h-5.88c-1.35,0-2.46-1.11-2.46-2.46v-2.47h8.35c1.36,0,2.46,1.1,2.46,2.46s-1.07,2.42-2.39,2.46h-.08Zm-7.34-3.92v1.46c0,.8,.66,1.46,1.46,1.46h5.88c.81,0,1.46-.66,1.46-1.46s-.66-1.46-1.46-1.46h-7.35Zm-6.38,3.93h-5.88c-1.36,0-2.46-1.1-2.46-2.46s1.1-2.46,2.46-2.46h8.35l-.02,2.46c0,1.35-1.1,2.45-2.45,2.46Zm-5.88-3.92c-.81,0-1.46,.66-1.46,1.46s.66,1.46,1.46,1.46h5.88c.8,0,1.45-.66,1.46-1.46v-1.46h-7.33Zm-33.36,3.92h-7.85c-1.36,0-2.46-1.1-2.46-2.46s1.1-2.46,2.46-2.46h10.31v2.46c0,1.35-1.11,2.46-2.46,2.46Zm-7.85-3.92c-.81,0-1.46,.66-1.46,1.46s.66,1.46,1.46,1.46h7.85c.8,0,1.46-.66,1.46-1.46v-1.46h-9.31Zm86.34,3.92h-7.85c-1.36,0-2.46-1.1-2.46-2.46s1.1-2.46,2.46-2.46h10.31v2.46c0,1.35-1.11,2.46-2.46,2.46Zm-7.85-3.92c-.81,0-1.46,.66-1.46,1.46s.66,1.46,1.46,1.46h7.85c.8,0,1.46-.66,1.46-1.46v-1.46h-9.31Zm-58.37-3.91h-6.88v-4.93h6.88v4.93Zm-5.88-1h4.88v-2.92h-4.88v2.92Zm-3.93,1h-6.9v-4.93h6.88l.02,4.93Zm-5.9-1h4.89v-2.93h-4.89v2.93Zm87.3,1v-18.67h4.92v18.66h-4.92Zm1-17.66v16.67h2.92v-16.67h-2.92Zm-3.92,17.67h-4.92v-18.67h4.92v18.67Zm-3.92-1h2.92v-16.67h-2.92v16.67Zm-25.51,.99h-6.88v-11.77h-2.94v11.77h-6.88v-16.7h16.7v16.7Zm-5.88-1h4.88v-14.7h-14.7v14.7h4.88v-11.77h4.94v11.77Zm-33.37-6.85h-6.88v-21.58h-2.93v21.58h-6.89v-28.47h16.7v28.47Zm-5.88-1h4.88v-26.47h-14.7v26.47h4.89v-21.58h4.93v21.58Zm45.13-10.77h-16.7v-22.25l8.35-3.57,8.35,3.57v22.25Zm-15.7-1h14.7v-20.59l-7.35-3.15-7.35,3.15v20.59Zm58.5-.96h-23.81l3.13-14.02c.31-.75,.45-1.46,.45-2.18v-6.38h16.7v6.38c0,.72,.14,1.42,.43,2.08l3.1,14.11Zm-22.56-1h21.32l-2.81-12.8c-.31-.7-.48-1.53-.48-2.39v-5.38h-14.7v5.38c0,.85-.17,1.69-.5,2.47l-2.83,12.72Zm24.37-12.74c-.87,0-1.68-.47-2.11-1.24l-.05-.14-.28-1.31v-17.95h4.92v18.17c0,1.35-1.11,2.46-2.46,2.46h-.02Zm-1.2-1.67c.26,.42,.68,.67,1.22,.67,.81,0,1.46-.66,1.47-1.46v-17.17h-2.92v16.89l.24,1.07Zm-77.27,1.67c-1.36,0-2.46-1.1-2.46-2.46v-4.43h4.92v4.43c0,1.36-1.1,2.46-2.46,2.46Zm-1.46-5.89v3.43c0,.81,.66,1.46,1.46,1.46s1.46-.66,1.46-1.46v-3.43h-2.92Zm-26,5.89h0c-1.35,0-2.46-1.11-2.46-2.46v-4.43h4.92v4.42c0,1.36-1.11,2.46-2.46,2.46Zm-1.46-5.89v3.43c0,.8,.66,1.46,1.46,1.46,.8,0,1.46-.66,1.46-1.46v-3.42h-2.92Zm79.94,5.88c-.42,0-.85-.11-1.23-.33-.75-.44-1.22-1.25-1.22-2.12v-18.16h4.92v18.05l-.34,1.34c-.46,.78-1.28,1.22-2.13,1.22Zm-1.46-19.61v17.16c0,.51,.28,1,.73,1.26,.67,.39,1.54,.18,1.96-.47l.24-1.07v-16.88h-2.92Zm-54.95,15.7h-16.7v-21.58h-2.92v15.7h-4.92v-22.57c0-2.62,1.65-5.02,4.1-5.96l10.64-4.09v13.96h2.92v-13.96l10.64,4.09c2.47,.97,4.07,3.31,4.1,5.96v22.58h-4.93v-15.7h-2.92v21.58Zm-15.7-1h14.7v-21.58h4.92v15.7h2.92v-21.58c-.01-2.23-1.37-4.21-3.45-5.03l-9.27-3.56v13.51h-4.92v-13.5l-9.28,3.57c-2.07,.79-3.45,2.82-3.46,5.03v21.57h2.92v-15.7h4.92v21.58Zm94.19-6.85h-16.7v-15.7h-2.93v3.92h-4.92v-9.02c0-2.59,1.55-4.91,3.94-5.91l2.75-1.14,4.25,3.42c3.04,2.47,7.45,2.47,10.48,0l4.26-3.42,2.75,1.14c2.4,.99,3.94,3.31,3.94,5.91v9.01h-4.9v-3.92h-2.92v15.7Zm-15.7-1h14.7v-15.7h4.92v3.93h2.9v-8.02c0-2.19-1.3-4.15-3.32-4.98l-2.2-.92-3.79,3.05c-3.4,2.76-8.34,2.76-11.74,0l-3.79-3.05-2.2,.92c-2.02,.84-3.32,2.8-3.32,4.98v8.02h2.92v-3.92h4.93v15.7Zm-31.9-.55l-1.74-.75c-1.63-.69-2.69-2.29-2.68-4.07v-4.73c0-2.44,1.99-4.42,4.42-4.42s4.42,1.98,4.42,4.42v4.73c0,1.77-1.05,3.37-2.68,4.07l-1.74,.75Zm0-12.97c-1.89,0-3.42,1.54-3.42,3.42v4.73c0,1.37,.81,2.61,2.08,3.15l1.35,.58,1.35-.58c1.26-.54,2.08-1.77,2.08-3.15v-4.74c0-1.89-1.54-3.42-3.42-3.42Zm39.26-10.95c-1.21,0-2.43-.4-3.42-1.21l-3.01-2.41,6.42-2.69,6.44,2.69-3.01,2.42c-.99,.81-2.2,1.21-3.41,1.21Zm-4.49-3.35l1.7,1.36c1.62,1.32,3.96,1.32,5.58,0l1.7-1.36-4.5-1.88-4.48,1.88Zm16.74-1.02l-8.75-3.64,.61-.53c2.04-1.77,3.21-4.33,3.21-7.03v-2.63c0-4.05-3.3-7.35-7.35-7.35s-7.35,3.3-7.35,7.35v2.63c0,2.7,1.16,5.27,3.21,7.03l.61,.53-8.75,3.64v-13.82c0-6.77,5.51-12.27,12.28-12.27s12.27,5.51,12.27,12.27v13.82Zm-6.9-3.95l5.9,2.46v-12.32c0-6.22-5.06-11.27-11.27-11.27s-11.27,5.06-11.27,11.27v12.32l5.9-2.45c-1.91-1.92-2.98-4.52-2.97-7.25v-2.62c0-4.6,3.75-8.35,8.35-8.35s8.35,3.75,8.35,8.35v2.63c0,2.73-1.07,5.32-2.98,7.24Zm-83.85-.58l-2.29-.88c-2.45-.94-4.09-3.34-4.1-5.96v-6.88h12.77v6.88c0,2.62-1.65,5.02-4.1,5.96l-2.29,.88Zm-5.39-12.72v5.88c0,2.21,1.39,4.23,3.46,5.03l1.93,.74,1.93-.74c2.07-.79,3.45-2.82,3.46-5.03v-5.88h-10.77Zm83.88,12.16l-.49-.2c-2.39-1-3.94-3.32-3.94-5.91v-2.63c0-2.44,1.99-4.42,4.42-4.42s4.42,1.98,4.42,4.42v2.63c0,2.59-1.55,4.91-3.94,5.91l-.49,.2Zm-3.42-6.11c0,2.19,1.31,4.14,3.32,4.98l.1,.04,.1-.04c2.02-.84,3.32-2.8,3.32-4.98v-2.63c0-1.89-1.54-3.42-3.42-3.42s-3.42,1.54-3.42,3.42v2.63Zm-68.82-9.97h-12.49l.23-.66c.41-1.2,1.17-2.23,2.19-2.99l.8-.6v.09c1.19-.65,2.55-.9,3.93-.7,1.69,.24,3.18,1.12,4.2,2.48,.4,.53,.71,1.1,.92,1.72l.23,.66Zm-11.04-1h9.58c-.14-.27-.3-.53-.48-.77-.87-1.16-2.13-1.9-3.56-2.11-1.42-.2-2.84,.16-3.99,1.03l-.24,.18c-.55,.46-1,1.03-1.32,1.67Z"/></g></g><g id="Ebene_3"><g><path class="cls-2" d="M203.1,150.1c4.09,0,7.62,2.88,8.44,6.89l-.02-.05c.12,.35,.19,.73,.19,1.1v11.92c0,2.56,2.07,4.64,4.63,4.64h2.65c4.75,0,8.61,3.85,8.61,8.61h0v5.3h5.3c.73,0,1.32-.59,1.32-1.32s-.59-1.32-1.32-1.32h-1.32c-1.46,0-2.65-1.19-2.65-2.65,0-1.46,1.19-2.65,2.65-2.65h2.65c2.93,0,5.3,2.37,5.3,5.3v2.65c0,2.93-2.37,5.3-5.3,5.3h-8.14c-1.13,1.27-2.75,1.99-4.44,1.99h-31.78c-.37,0-.66-.3-.66-.66v-.67c0-3.4,2.58-6.25,5.96-6.59v-17.25h-3.31c-5.49,0-9.93-4.45-9.93-9.93v-5.3c0-.37,.3-.66,.66-.66h17.88v-3.97c0-.37,.3-.66,.66-.66h1.99Z"/><path class="cls-2" d="M221.64,196.3h-31.79c-.64,0-1.16-.52-1.16-1.16v-.67c0-3.52,2.53-6.46,5.96-7.03v-16.31h-2.81c-5.75,0-10.43-4.68-10.43-10.43v-5.3c0-.64,.52-1.16,1.16-1.16h17.38v-3.48c0-.64,.52-1.16,1.16-1.16h1.99c4.3,0,8.05,3.06,8.92,7.27,.12,.38,.19,.78,.19,1.18v11.92c0,1.1,.43,2.14,1.21,2.92,.78,.78,1.82,1.21,2.92,1.21h2.65c5.02,0,9.11,4.08,9.11,9.11v4.8h4.8c.45,0,.82-.37,.82-.82s-.37-.82-.82-.82h-1.33c-1.74,0-3.15-1.42-3.15-3.15,0-1.73,1.41-3.15,3.15-3.15h2.65c3.2,0,5.8,2.6,5.8,5.8v2.65c0,3.2-2.6,5.8-5.8,5.8h-7.92c-1.21,1.27-2.9,1.99-4.66,1.99Zm-39.07-41.06c-.09,0-.16,.07-.16,.16v5.3c0,5.2,4.23,9.43,9.43,9.43h3.81v18.2l-.45,.05c-3.14,.32-5.51,2.94-5.51,6.09v.67c0,.09,.07,.16,.16,.16h31.79c1.55,0,3.03-.66,4.06-1.82l.15-.17h8.36c2.64,0,4.8-2.15,4.8-4.8v-2.65c0-2.65-2.15-4.8-4.8-4.8h-2.65c-1.18,0-2.15,.96-2.15,2.15,0,1.19,.96,2.15,2.15,2.15h1.32c1.01,0,1.82,.82,1.82,1.82s-.82,1.82-1.82,1.82h-5.8v-5.8c0-4.47-3.64-8.11-8.11-8.11h-2.65c-1.37,0-2.66-.53-3.63-1.5-.97-.97-1.5-2.26-1.5-3.63v-11.92c0-.3-.05-.6-.14-.89h0v-.04l.1-.04-.11,.02c-.77-3.76-4.11-6.49-7.95-6.49h-1.99c-.09,0-.16,.07-.16,.16v4.48h-18.38Z"/></g><g><path class="cls-1" d="M200.45,156.06h-14.79l-2.42,2.42v2.21c0,1.51,.4,3,1.15,4.3h5.8c.37,0,.66,.3,.66,.66s-.3,.66-.66,.66h-4.86c1.63,1.89,4.01,2.98,6.51,2.98h7.95c.37,0,.66,.3,.66,.66v5.3c0,2.3-1.69,4.26-3.97,4.59v8.66c0,.36-.29,.66-.65,.66h-.17c-2.86,.09-5.14,2.43-5.14,5.29h9.93v-7.95c0-.34,.25-.62,.58-.66h.08c2.93,0,5.3-2.38,5.29-5.31,0-1.42-.57-2.78-1.59-3.78-.26-.26-.27-.68-.01-.94,.26-.26,.68-.27,.94-.01,2.61,2.56,2.66,6.75,.1,9.36-1.09,1.11-2.53,1.8-4.07,1.96v7.32h2.65v-.66c0-3.22,2.56-5.86,5.78-5.96h5.47c.37,0,.66,.3,.66,.66s-.3,.66-.66,.66h-5.3c-2.56,0-4.63,2.08-4.63,4.63h0v.66h15.89c1.41,0,2.74-.64,3.62-1.74,.13-.16,.32-.25,.52-.25h8.45c2.2,0,3.97-1.78,3.97-3.97v-2.65c0-2.2-1.78-3.97-3.97-3.97h-2.65c-.73,0-1.32,.59-1.32,1.32s.59,1.32,1.32,1.32h1.32c1.46-.05,2.69,1.1,2.74,2.56,.05,1.46-1.1,2.69-2.56,2.74-.06,0-.12,0-.17,0h-5.96c-.37,0-.66-.3-.66-.66h0v-5.96c0-4.02-3.26-7.28-7.28-7.28h-2.65c-3.29,0-5.96-2.67-5.96-5.96v-6.67l-.02,.02s-.03,.05-.05,.08l-.05,.08h0c-.04,.07-.08,.12-.12,.18l.12-.18c-.05,.08-.11,.16-.17,.24l-.05,.07s-.05,.07-.07,.1c-.06,.08-.12,.16-.19,.24l-.08,.09c-.08,.09-.16,.18-.24,.27-.03,.04-.06,.07-.1,.1-.02,.02-.04,.04-.06,.07s-.05,.05-.07,.08l-.06,.06s-.07,.06-.1,.1l-.06,.06-.08,.08c-.1,.09-.2,.18-.3,.26h-.01l-.04,.04s-.08,.07-.12,.1l-.03,.02c-.1,.08-.2,.15-.3,.23l-.06,.04c-.23,.16-.47,.32-.72,.46l-.05,.03s-.08,.05-.12,.07l-.09,.05s-.09,.04-.13,.07l-.04,.02c-.27,.13-.54,.25-.81,.35h-.03c-.13,.06-.26,.1-.39,.14h-.04c-.14,.06-.28,.1-.42,.13h-.06l-.12,.04-.12,.03-.14,.03h-.05c-.05,.02-.11,.03-.16,.04h-.07c-.15,.04-.29,.06-.44,.07h-.04l-.15,.02h-.1l-.12,.02h-.12c-.05,0-.11,.01-.16,.01h-.03c-.08,0-.16,0-.24,0h-1.99c-.37,0-.66-.3-.66-.66v-10.59Z"/><path class="cls-2" d="M221.64,194.97h-16.4v-1.16c0-2.83,2.3-5.13,5.13-5.13h5.3c.09,0,.16-.07,.16-.16s-.07-.16-.16-.16h-5.47c-2.96,.09-5.28,2.48-5.28,5.46v1.16h-3.65v-8.27l.45-.05c1.42-.14,2.76-.79,3.76-1.81,1.14-1.17,1.76-2.71,1.75-4.35-.02-1.63-.67-3.17-1.84-4.31-.06-.06-.17-.06-.23,0-.06,.06-.06,.17,0,.23,1.1,1.08,1.74,2.59,1.74,4.13,0,1.55-.6,3.01-1.69,4.1-1.09,1.1-2.55,1.7-4.1,1.7-.1,.01-.16,.08-.16,.16v8.45h-10.93v-.5c0-3.15,2.47-5.7,5.63-5.79h.18c.08,0,.15-.07,.15-.16v-9.09l.43-.06c2.02-.29,3.54-2.05,3.55-4.09v-5.3c0-.09-.07-.16-.16-.16h-7.95c-2.65,0-5.15-1.15-6.88-3.15l-.71-.83h5.95c.09,0,.16-.07,.16-.16s-.07-.16-.16-.16h-6.09l-.14-.25c-.8-1.38-1.22-2.96-1.22-4.56v-2.42l2.71-2.71h15.5v11.09c0,.09,.08,.16,.17,.16l2.86-.04c.17-.02,.31-.04,.45-.06l.62-.13c.19-.05,.32-.08,.45-.12,.16-.05,.29-.09,.41-.14,.29-.11,.54-.22,.79-.34l.35-.19c.29-.16,.51-.3,.73-.46,.15-.11,.24-.18,.34-.26l.15-.12c.14-.12,.24-.21,.33-.29l.2-.19,.44,.27-.35-.35,.22-.23c.08-.08,.15-.17,.23-.26l.53-.71,.19,.1h.12l-.26-.17,.92-1.44,.07,1.6v6.67c0,3.01,2.45,5.46,5.46,5.46h2.65c4.29,0,7.78,3.49,7.78,7.78v5.96c0,.09,.07,.16,.16,.16h6.12c.57-.02,1.11-.26,1.5-.68,.39-.42,.6-.97,.58-1.54-.04-1.19-1.09-2.12-2.22-2.08h-1.34c-1.01,0-1.83-.82-1.83-1.82s.82-1.82,1.83-1.82h2.65c2.47,0,4.47,2.01,4.47,4.47v2.65c0,2.47-2.01,4.47-4.47,4.47h-8.45c-.05,0-.1,.02-.13,.06-.98,1.22-2.44,1.93-4,1.93Zm-15.4-1h15.39c1.26,0,2.44-.56,3.22-1.55,.22-.28,.55-.46,.91-.44h8.44c1.92,0,3.47-1.56,3.47-3.47v-2.65c0-1.92-1.56-3.47-3.47-3.47h-2.65c-.46,0-.83,.37-.83,.82s.37,.82,.83,.82h1.32c1.69-.04,3.18,1.31,3.24,3.04,.03,.84-.27,1.64-.85,2.26-.58,.61-1.35,.97-2.2,1-.07,0-.14,0-.21,0h-5.94c-.64,0-1.16-.52-1.16-1.16v-5.96c0-3.74-3.04-6.78-6.78-6.78h-2.65c-3.56,0-6.46-2.9-6.46-6.46v-5.18s-.03,.04-.05,.05l-.56,.57c-.11,.1-.21,.19-.32,.28l-.19,.16c-.13,.1-.23,.18-.34,.26-.31,.22-.57,.39-.83,.54l-.41,.22c-.33,.16-.62,.29-.91,.4-.17,.06-.3,.11-.44,.15-.19,.06-.34,.1-.49,.14l-.68,.15c-.23,.04-.38,.06-.54,.08l-1.02,.05h-1.99c-.64,0-1.16-.52-1.16-1.16v-10.09h-14.09l-2.13,2.13v2.01c0,1.33,.33,2.64,.95,3.8h5.51c.64,0,1.16,.52,1.16,1.16s-.52,1.16-1.16,1.16h-3.66c1.46,1.27,3.34,1.98,5.3,1.98h7.95c.64,0,1.16,.52,1.16,1.16v5.3c0,2.39-1.68,4.47-3.97,5v8.24c0,.63-.51,1.15-1.14,1.16h-.17c-2.43,.07-4.37,1.92-4.62,4.29h8.91v-7.45c0-.59,.44-1.08,1.03-1.15h.11c1.31,0,2.51-.51,3.42-1.42s1.4-2.11,1.4-3.4c0-1.28-.53-2.52-1.44-3.42-.46-.45-.47-1.18-.02-1.64,.45-.46,1.19-.47,1.64-.02,1.36,1.33,2.12,3.11,2.14,5.01,.02,1.9-.7,3.7-2.03,5.06-1.06,1.08-2.44,1.8-3.93,2.05v6.38h1.65v-.16c0-3.52,2.75-6.35,6.27-6.46h5.49c.64,0,1.16,.52,1.16,1.16s-.52,1.16-1.16,1.16h-5.3c-2.28,0-4.13,1.85-4.13,4.13v.16Z"/></g><g><path class="cls-1" d="M199.12,170.63h-2.65v7.88c1.54-.31,2.65-1.67,2.65-3.24v-4.63Z"/><path class="cls-2" d="M195.98,179.12v-8.99h3.65v5.13c0,1.8-1.28,3.37-3.05,3.73l-.6,.12Zm1-7.99v6.69c.98-.45,1.65-1.44,1.65-2.56v-4.13h-1.65Z"/></g><g><path class="cls-1" d="M203.1,151.43h-1.32v14.57h1.56c.12,0,.23,0,.34-.02h0c.13,0,.25-.02,.38-.04h0c.06,0,.12-.02,.18-.03l-.16,.02c.15-.02,.31-.05,.46-.08h0s.09-.02,.14-.03l-.08,.02c.06-.01,.13-.03,.19-.04l-.11,.02c.06-.01,.12-.03,.17-.04l-.07,.02,.17-.04-.1,.03c.08-.02,.15-.04,.23-.06l-.12,.03c.06-.01,.12-.03,.17-.05h-.05s.09-.01,.14-.03l-.09,.03c.07-.02,.13-.04,.19-.06l-.11,.03s.09-.03,.13-.04h-.03c.11-.03,.22-.07,.33-.11l.09-.03-.09,.03c.06-.02,.11-.04,.16-.06l-.07,.03c.11-.04,.22-.09,.33-.14l-.09,.04c.06-.03,.13-.06,.19-.09l-.1,.05c.05-.02,.11-.05,.16-.07l-.06,.03s.1-.05,.14-.07l-.08,.04c.05-.03,.11-.05,.16-.08l-.08,.04c.06-.03,.11-.06,.17-.09l-.09,.05c.12-.06,.23-.12,.35-.19l.05-.03-.05,.03,.13-.08-.08,.05c.05-.03,.11-.06,.16-.1l-.08,.05c.05-.03,.1-.06,.15-.09l-.07,.05s.1-.06,.15-.09l-.07,.05c.05-.03,.11-.07,.16-.11l-.09,.06c.05-.03,.1-.07,.15-.1l-.06,.04s.09-.06,.13-.09l-.07,.05s.1-.07,.15-.1l-.08,.05c1.87-1.33,3-3.46,3.06-5.75v-.46c-.01-.13-.02-.25-.03-.38,0-.06-.01-.11-.02-.17l.02,.17c0-.08-.01-.15-.02-.23v.06c-.01-.19-.04-.38-.08-.57-.67-3.42-3.67-5.89-7.15-5.89h0Z"/><path class="cls-2" d="M203.14,166.49h-1.86v-15.57h1.83c3.72,0,6.93,2.65,7.64,6.3,.04,.2,.07,.4,.09,.61h0l.02,.18c.01,.13,.02,.26,.03,.4v.49c-.05,2.42-1.24,4.68-3.18,6.1h0l-.06,.05h-.01l-.1,.08h0l-.05,.03h0l-.09,.06h0l-.23,.15h0l-.08,.05h-.01l-.04,.03c-.15,.09-.26,.15-.38,.21l-.17,.08h0l-.07,.03h0l-.1,.05s-.06,.03-.09,.04h0c-.08,.04-.17,.07-.25,.11h0l-.1,.04h0c-.11,.04-.21,.08-.32,.11l-.15,.05h0l-.09,.02h0l-.06,.02h0l-.12,.03h0l-.18,.04h0l-.12,.03h0l-.09,.02h0c-.22,.04-.38,.07-.55,.09h0c-.16,.02-.3,.04-.43,.05h0c-.15,.01-.25,.02-.36,.02h-.21Zm1.43-.79l-.07-.32,.12,.29v-.09l-.04-.24,.27-.07h0l.27-.07h0l.07-.02c.11-.03,.21-.07,.31-.11h0l.14-.06h0c.08-.03,.16-.07,.24-.1l.05,.11-.05-.11,.39-.19h0c.08-.04,.16-.08,.23-.13h0l.26-.16,.14,.21h0l-.13-.22,.02,.03-.02-.03,.06-.04h0l.14-.1,.05,.07-.05-.07,.06-.04c1.73-1.23,2.8-3.23,2.85-5.36v-.44c0-.1-.02-.22-.03-.34l-.02-.22c-.02-.16-.04-.32-.08-.48-.62-3.18-3.42-5.49-6.66-5.49h-.83v13.57h1.02c.13,0,.24,0,.34-.02h0c.12,0,.24-.02,.35-.04l.18-.03h0c.09-.01,.19-.03,.28-.05v0l.02,.05v-.05l.1,.31-.07-.32v.02l.08,.32Zm1.24-.7l-.02-.05,.02,.05Zm.33-.13l-.03-.06,.03,.06Zm.4-.3l.02,.02-.02-.02Zm.18-.04l-.03-.05,.03,.05Z"/></g><path class="cls-2" d="M195.49,158.05c.91,0,1.66,.74,1.66,1.66s-.74,1.66-1.66,1.66c-.91,0-1.66-.74-1.66-1.66h0c0-.91,.74-1.66,1.65-1.66h0Z"/><g><path class="cls-2" d="M211.66,157.78v0Z"/><polygon class="cls-2" points="211.17 157.91 212.15 157.72 212.16 157.8 211.17 157.91"/></g><g><path class="cls-2" d="M211.63,157.54v.08s0-.05,0-.07h0Z"/><polygon class="cls-2" points="211.15 157.7 211.13 157.6 212.12 157.47 212.13 157.54 211.15 157.7"/></g></g></svg>