<svg xmlns="http://www.w3.org/2000/svg" viewBox="0 0 225 148">
  <title>logo-roche</title>
  <g id="box">
    <rect width="225" height="148" fill="#fff"/>
  </g>
  <g id="roche">
    <g id="layer1">
      <g id="g20076">
        <path id="path19828" d="M131.94,67.37a4.89,4.89,0,0,0-2.82-.8,5,5,0,0,0-3,1V60.37h-3.57V83.91H126V71.65A2,2,0,0,1,128,69.8a2.21,2.21,0,0,1,1.84.87,4.29,4.29,0,0,1,.43,2.47l0,10.62h3.58V72.94c0-3.22-.4-4.36-2-5.57"/>
        <path id="path19830" d="M102.92,75.43a28.6,28.6,0,0,1-.1,3.14c-.12,1.28-.66,2.63-2.15,2.63s-2.07-1.45-2.13-2.69a23.19,23.19,0,0,1-.1-3.08,28.15,28.15,0,0,1,.1-3.25c0-1.31.68-2.6,2.13-2.6s2.13,1.29,2.15,2.58C102.82,72.18,102.92,73.14,102.92,75.43Zm3.44-2.77c-.5-5-3.36-6.09-5.69-6.09-3.32,0-5.33,2.11-5.69,6.09,0,.32-.08.9-.1,2.77,0,1.37.08,2.49.1,2.78.22,3.71,2.35,6,5.69,6s5.47-2.31,5.71-6c0-.27.08-1.41.08-2.78,0-.62,0-2.29-.1-2.77"/>
        <path id="path19832" d="M139.85,73.38c0-.78,0-.94,0-1.17.1-1.4.72-2.57,2.17-2.57,1.71,0,2.11,1.65,2.17,2.57,0,.51.06.83.06,1.17ZM144.19,78a5.11,5.11,0,0,1,0,.57c-.1.8-.41,2.52-2.09,2.52-1.45,0-2-1.31-2.1-2.6,0-.38-.08-.79-.08-2.2h7.74s0-1.15,0-1.84c0-.27,0-.72-.08-1.68A7.74,7.74,0,0,0,146,68.71a4.84,4.84,0,0,0-3.95-1.85c-3.14,0-5.09,2-5.47,5.94a22.25,22.25,0,0,0-.09,2.7c0,1.33.07,2.45.09,2.7.2,3.57,2.31,5.84,5.47,5.84s5.23-2.21,5.46-6h-3.27"/>
        <path id="path19834" d="M83.62,48.44h57.86l22.11,25.9L141.48,99.87H83.62L61.41,74.26Zm59.24-2.94H82.21L57.6,74.09,82.23,102.5h60.64L167.4,74.19,142.87,45.5"/>
        <path id="path19836" d="M84.31,63.47H86a2.56,2.56,0,0,1,2.89,2.71c0,.14,0,.28,0,.55a3.74,3.74,0,0,1,0,.56c-.1,1-.57,2.84-2.71,2.84H84.31Zm8.46,18.88-.36-5.75c-.16-2.57-.82-4.1-2.17-4.88,1-.58,2.21-2,2.19-5,0-4.55-2.83-6.16-6.17-6.2H80.74V83.91h3.57l0-10.68h2c1.15,0,2.44,1,2.64,3.77l.37,5.46a9.48,9.48,0,0,0,.19,1.45H93a7.43,7.43,0,0,1-.18-1.46"/>
        <path id="path19838" d="M116.72,77.87a5.17,5.17,0,0,1,0,.64c-.09,1.29-.53,2.66-2.12,2.66s-2-1.49-2.14-2.58c-.06-.66,0-1.17-.06-3.12a27,27,0,0,1,.09-3.22c.12-1.45.68-2.56,2.11-2.56s2.1,1.27,2.12,2.54c0,0,0,.32.06,1h3.48c0-.24,0-.44,0-.54-.4-4.81-3.34-6-5.64-6-3.28,0-5.26,2.09-5.62,6a27.31,27.31,0,0,0-.1,2.74c0,1.35.08,2.46.1,2.74.22,3.67,2.32,5.92,5.62,5.92s5.3-2.07,5.64-5.92c0-.14,0-.24,0-.34h-3.54"/>
      </g>
    </g>
  </g>
</svg>
