<svg xmlns="http://www.w3.org/2000/svg" viewBox="0 0 225 148">
  <title>logo-db</title>
  <g id="box">
    <rect width="225" height="148" fill="#fff"/>
  </g>
  <g id="db">
    <g>
      <path d="M140.47,49.5H84.59a7,7,0,0,0-7,7v35a7,7,0,0,0,7,7h55.88a7,7,0,0,0,7-7v-35A7,7,0,0,0,140.47,49.5Zm1.87,41.79a1.87,1.87,0,0,1-1.85,2H84.7a1.92,1.92,0,0,1-1.91-2V56.45a1.92,1.92,0,0,1,1.91-2h55.79a1.87,1.87,0,0,1,1.85,2Z"/>
      <path d="M132.21,73.13c2.81-1.41,5.4-3.64,5.4-6.75,0-6-3.33-8.54-9.48-8.54h-13V89.9h12.43c5.78,0,11.26-2.75,11.26-9.28C138.8,76.62,136.13,74.24,132.21,73.13Zm-9.55-10.34h2.18c2.55,0,4.95.83,4.95,3.91,0,2.79-1.88,3.91-4.42,3.91h-2.71ZM125.44,85h-2.78V76.61h2.85c3.08,0,5.17.75,5.17,4S128.22,85,125.44,85Z"/>
      <path d="M99,57.84H87.22V89.9H99c9.77-.08,12.73-6.9,12.73-16.18C111.72,63,107.28,57.84,99,57.84ZM97.53,85H94.78V63.05h1.56c7,0,7.65,5.07,7.65,11.54C104,81.67,101.61,85,97.53,85Z"/>
    </g>
  </g>
</svg>
