<svg xmlns="http://www.w3.org/2000/svg" viewBox="0 0 225 148">
  <title>logo-arvato</title>
  <g id="box">
    <rect width="225" height="148" fill="#fff"/>
  </g>
  <g id="arvato">
    <g>
      <path id="path144" d="M141.14,49.73,136,51.36v4.9h-3.06v4.39H136V71.84c0,3.23,1.68,5.61,5.71,5.61h3.65V73.06h-1.6c-1.87,0-2.61-.89-2.61-2.9V60.65h4.78V56.26h-4.78V49.73Zm17.12,5.86C152.72,55.59,148,59.74,148,67c0,6.26,3.81,11.15,10.22,11.15s10.27-4.9,10.27-11.33c0-7.22-4.53-11.24-10.24-11.24ZM65.83,56c-3.14,0-6.8.2-6.8.2v4S63,60,64.8,60c2.17,0,4,.64,4,3.2v.49l-3.71.11c-5.25.18-8.56,2.7-8.56,7.1a6.57,6.57,0,0,0,6.69,6.95,8.32,8.32,0,0,0,6-2.32l.43,1.89h4.75a22.21,22.21,0,0,1-.4-5.63V63.58c0-5.58-3-7.59-8.09-7.59Zm55.74,0c-3.14,0-6.78.2-6.78.2v4s3.93-.2,5.78-.2c2.16,0,4,.64,4,3.2v.49l-3.71.11c-5.24.18-8.59,2.7-8.59,7.1A6.6,6.6,0,0,0,119,77.88a8.31,8.31,0,0,0,5.94-2.32l.43,1.89h4.73a22.73,22.73,0,0,1-.37-5.63V63.58c0-5.58-3.08-7.59-8.12-7.59Zm-43.06.27V77.45h5.15V62.66a5.31,5.31,0,0,1,3.89-1.4,4.62,4.62,0,0,1,1.46.23V56.26a7,7,0,0,0-5.56,2.22l-.54-2.22Zm12.54,0,8.3,21.19h3.94l8.47-21.19h-5.34L101.52,70,96.78,56.26Zm67.12,3.56c3.19,0,5,3,5,7S161.55,74,158.31,74s-5-3-5-7.16c0-4,1.58-7,4.86-7Zm-89.4,7.67v4.84a5.42,5.42,0,0,1-3.72,1.34,3,3,0,0,1-3.32-3.09c0-1.79,1.25-2.92,4.06-3l3-.09Zm55.76,0v4.84a5.5,5.5,0,0,1-3.75,1.34,3,3,0,0,1-3.32-3.09c0-1.79,1.26-2.92,4.07-3l3-.09Z"/>
      <path id="path184" d="M107,96.74h4.46l-.66,1.53h-5.52V86.43H107V96.74m8.52-10.44a6.07,6.07,0,0,1,3.07.92l-.61,1.39a5,5,0,0,0-2.44-.79c-1.22,0-2,.55-2,1.52,0,2.5,5.58,1.13,5.58,5.49,0,2-1.52,3.44-4.18,3.44h-2.79l.66-1.53h2.08c1.45,0,2.44-.57,2.44-1.78,0-3-5.56-1.39-5.56-5.49,0-1.92,1.46-3.17,3.73-3.17m7.64,3.7-.72,8.27h-1.82l1.2-11.84h1.52l3.41,7.42,3.3-7.42h1.53l1.19,11.84H131l-.77-8.71L127,96.93h-.64l-3.2-7m16.07-.82-1.66,4.74h3.33l-1.67-4.74ZM137,95.46l-1,2.81h-1.83l4.47-11.84h1.21l4.41,11.84h-1.89l-1-2.87h-4.43m22.35,2.87h-1.72V86.43H159l5.67,8.19V86.43h1.72V98.27h-1.2l-5.86-8.47v8.47M153,94.64V86.43h1.71V98.27h-1l-6.09-8.47v8.47h-1.72V86.43h1.41L153,94.56M98.18,91.2h4v1.53h-4v4H103v1.53H96.46V86.43h6.3V88H98.18v3.43m-39.53-5h3.64c2.64,0,3.67,1.36,3.67,2.93a2.75,2.75,0,0,1-1.48,2.42,3,3,0,0,1,2,3c0,1.84-1.23,3.52-4.25,3.52h-3.6V86.43Zm1.72,10.31h1.9c1.49,0,2.53-.69,2.53-1.95,0-1.59-1.32-2.25-3-2.25H61.3l.6-1.38c.88,0,2.4-.15,2.4-1.83,0-.78-.49-1.56-2.13-1.56h-1.8v9M91.3,88V98.27H89.58V88h-3V86.43h8V88H91.3M70.49,91.2h4v1.53h-4v4h4.77v1.53H68.77V86.43h6.3V88H70.49v3.43m9.55,1h.16c1.64,0,2.85-.62,2.85-2.37a2,2,0,0,0-2.17-2H79.46V98.27H77.74V86.43h3.6A3.3,3.3,0,0,1,85,89.94a3.35,3.35,0,0,1-2.36,3.3l3.27,5H83.7l-3.65-5.9"/>
    </g>
  </g>
</svg>
