<svg xmlns="http://www.w3.org/2000/svg" viewBox="0 0 225 148">
  <title>logo-evonik</title>
  <g id="box">
    <rect width="225" height="148" fill="#fff"/>
  </g>
  <g id="evonik">
    <g>
      <path d="M188,79.79H185.2a.57.57,0,0,1-.53-.53A8.39,8.39,0,0,0,183,74.72a7.16,7.16,0,0,0-.53-.64,5.58,5.58,0,0,0-4.22-1.86h-1.82v7a.54.54,0,0,1-.54.54h-2.7a.55.55,0,0,1-.55-.54V63a.55.55,0,0,1,.55-.54h2.7a.54.54,0,0,1,.54.54v5.41h1.71A5.6,5.6,0,0,0,183.66,63a.45.45,0,0,1,.46-.47h3.27a.5.5,0,0,1,.53.52,9.48,9.48,0,0,1-3.74,7.42A11.61,11.61,0,0,1,185.81,72a11.86,11.86,0,0,1,2.84,7.26.52.52,0,0,1-.52.53Z"/>
      <path d="M156.91,66.21a13.73,13.73,0,0,0-9.74,0v13a.54.54,0,0,1-.54.54h-3.2s-.55,0-.59-.32V64.21a.94.94,0,0,1,.26-.43,17.59,17.59,0,0,1,17.32,0,.59.59,0,0,1,.28.48V79.52c-.07.33-.61.27-.61.27h-2.92s-.54.06-.26-.27V66.21Z"/>
      <path d="M164.49,79.79V63a.54.54,0,0,1,.54-.54h2.7a.55.55,0,0,1,.55.54V79.79a.55.55,0,0,1-.55.54H165a.53.53,0,0,1-.51-.54Z"/>
      <path d="M114.7,62.48h3.9a.51.51,0,0,1,.55.54.4.4,0,0,1-.06.22L112.69,80a.6.6,0,0,1-.54.38h-4.89a.48.48,0,0,1-.49-.32l-6.13-16.83V63a.57.57,0,0,1,.49-.54h4a.52.52,0,0,1,.49.38l4.18,13.46,4.5-13.52a.54.54,0,0,1,.44-.32Z"/>
      <path d="M98.3,80.33H84.23c-.22-.27-.38-.38-.49-.54a17.45,17.45,0,0,1-2.27-8.66,17.09,17.09,0,0,1,2.27-8.6.32.32,0,0,1,.54-.05H97.65c.27-.22.82.27.82.27v3s-.55.48-.82.48H86.39A14.43,14.43,0,0,0,85.64,69h11.2a3.19,3.19,0,0,1,.55.7v2.92a1.64,1.64,0,0,1-.55.71H85.58a14.42,14.42,0,0,0,.76,2.7h12c.27,0,.72.49.72.49v3s-.4.54-.72.59Z"/>
      <path d="M134.73,66.45a13.84,13.84,0,0,0-9.74,0v9.42a13.84,13.84,0,0,0,9.74,0Zm-4.6,14.37a17.45,17.45,0,0,1-8.66-2.27.56.56,0,0,1-.27-.44V64.21a.54.54,0,0,1,.27-.43,17.59,17.59,0,0,1,17.32,0,.54.54,0,0,1,.27.43v13.9a.56.56,0,0,1-.27.44,18.35,18.35,0,0,1-8.66,2.27Z"/>
      <path id="KNull" d="M52.85,57.93a13.53,13.53,0,1,0,10.22,22.4H48.92a1,1,0,0,1-.44-.11A9.86,9.86,0,0,1,44.13,67a9.59,9.59,0,0,1,4.35-4.35c.11-.16.27-.16.44-.16h8a1,1,0,0,1,.42.1,9.48,9.48,0,0,1,3.37,2.85.52.52,0,0,1-.11.73.73.73,0,0,1-.36.1H49.71A5.78,5.78,0,0,0,48,74.33,6.21,6.21,0,0,0,49.71,76H68.26a.57.57,0,0,1,.57.47.33.33,0,0,1,0,.21,16.73,16.73,0,1,1,.88-5.31c0,.47,0,.94,0,1.46a.51.51,0,0,1-.52.47H51a.46.46,0,0,1-.47-.31,3.74,3.74,0,0,1,0-3.17.49.49,0,0,1,.47-.31H66.21A13.46,13.46,0,0,0,52.85,57.93Z"/>
      <path d="M101.18,86.28h1.62v3c.82-1,1.63-2,2.38-3H107c-.58.76-1.57,2-2.44,3a40.31,40.31,0,0,0,2.61,3.47h-2c-.81-1.09-1.62-2.17-2.32-3.3v3.3h-1.62Z"/>
      <path d="M107.67,86.28h.21a6.54,6.54,0,0,0,1.67.17,3.56,3.56,0,0,1,2,.38,1.86,1.86,0,0,1,.92,1.73,1.79,1.79,0,0,1-1.19,1.78,28.45,28.45,0,0,0,2,2.6l0-.16H111.5s-1.24-1.46-1.62-2.06l-.06-.11h-.52v2.17h-1.63Zm1.63,3.25h.39c.84,0,1.23-.25,1.23-.79s-.34-.83-1.18-.83h-.44Z"/>
      <path d="M113.56,92.78c.59-1.68,1.57-4.06,2.65-6.5h1.46c.92,2.17,1.57,3.9,2.43,6.5h-1.73l-.5-1.63h-2.13l-.56,1.63Zm4-2.71-.37-1.13A7.85,7.85,0,0,1,117,87.8a2,2,0,0,1-.11.43l-.27.81-.38,1Z"/>
      <path d="M121.26,86.82h4.27v1.09h-2.71v1.62h2.71v1.08h-2.71v2.71H121.2Z"/>
      <path d="M128.24,87.91h-2.17V86.82h6v1.09h-2.16v5.41h-1.62Z"/>
      <path d="M135.81,86.28h4.33v1.63h-2.71v1.62h2.71v1.08h-2.71v2.17h-1.62Z"/>
      <path d="M142.84,86.77V90.4a1.73,1.73,0,0,0,.24,1.19,1.51,1.51,0,0,0,1.12.48,1.55,1.55,0,0,0,1.11-.43,2.13,2.13,0,0,0,.24-1.19V86.82h1.08v3.79a3.38,3.38,0,0,1-.42,1.9,2.69,2.69,0,0,1-2.28.92,2.78,2.78,0,0,1-2.18-.82,2.89,2.89,0,0,1-.53-2V86.82h1.62Zm-.54-2.65h1.63v1.62H142.3Zm2.17,0h1.62v1.62h-1.62Z"/>
      <path d="M148.26,86.28h.36a6.62,6.62,0,0,0,1.68.17,3.59,3.59,0,0,1,2,.38,1.9,1.9,0,0,1,.92,1.73A1.75,1.75,0,0,1,152,90.34a28.29,28.29,0,0,0,2,2.6l.05-.16h-1.83s-1.25-1.46-1.63-2.06l-.05-.11h-.69v2.17h-1.62Zm1.62,3.25h.39c.84,0,1.23-.25,1.23-.79s-.34-.83-1.18-.83h-.44Z"/>
      <path d="M158,86.28h1.62a.6.6,0,0,1,.59.33l2,3.08a11.12,11.12,0,0,1,.86,1.63,6.84,6.84,0,0,1-.21-1.79V86.28H164v6.5h-1.2a.61.61,0,0,1-.58-.33l-1.93-3.08a16.4,16.4,0,0,1-.83-1.68,10.92,10.92,0,0,1,.21,1.79v3.3H158Z"/>
      <path d="M165.57,86.82h4.33v1.09h-2.71V89h2.71v1.08h-2.71v1.62h2.71v1.09h-4.33Z"/>
      <path d="M173.15,86.77V90.4a1.72,1.72,0,0,0,.23,1.19,1.53,1.53,0,0,0,1.12.48,1.59,1.59,0,0,0,1.12-.43,2.21,2.21,0,0,0,.23-1.19V86.82h1.08v3.79a3.38,3.38,0,0,1-.42,1.9,2.69,2.69,0,0,1-2.28.92,2.78,2.78,0,0,1-2.18-.82,2.89,2.89,0,0,1-.53-2V86.82h1.63Z"/>
      <path d="M178.5,86.82h4.39v1.09h-2.71V89h2.71v1.08h-2.71v1.62h2.71v1.09h-4.33v-6Z"/>
      <path d="M184.56,91.21a2.85,2.85,0,0,0,1.84.65c.71,0,1-.22,1-.65s-.22-.49-.81-.81l-.54-.27c-1.08-.54-1.46-1-1.46-1.84,0-1.19.92-2,2.43-2a3.53,3.53,0,0,1,1.79.43v1.41a2.76,2.76,0,0,0-1.68-.6c-.65,0-1,.22-1,.6s.16.43.6.65l.54.27a3.52,3.52,0,0,1,1.24.76,1.81,1.81,0,0,1,.49,1.29c0,1.25-1,1.95-2.49,1.95a4.58,4.58,0,0,1-1.89-.43Z"/>
    </g>
  </g>
</svg>
