<svg xmlns="http://www.w3.org/2000/svg" viewBox="0 0 225 148">
  <title>logo-vorwerk</title>
  <g id="box">
    <rect width="225" height="148" fill="#fff"/>
  </g>
  <g id="vorwerk">
    <g id="g6441">
      <path id="path5617" d="M152.92,59.22h-2.43a22.13,22.13,0,0,0-36.36,1.16,22,22,0,0,0-36.35-1H75.34A24,24,0,0,1,114.13,57a24.07,24.07,0,0,1,38.8,2.33"/>
      <path id="path5621" d="M153,88.61A24.06,24.06,0,0,1,114.13,91a24,24,0,0,1-38.81-2.39v-.11h2.4a22,22,0,0,0,36.41-.89,22.09,22.09,0,0,0,36.42,1h2.37"/>
      <path id="path5625" d="M67.4,74.55c0-3.72,2.38-6.75,5.39-6.75s5.39,3,5.39,6.75S75.8,81.3,72.79,81.3,67.4,78.28,67.4,74.55Zm-4.15,0a9.54,9.54,0,1,1,9.54,9.67,9.6,9.6,0,0,1-9.54-9.67" fill-rule="evenodd"/>
      <path id="path5627" d="M163.57,83.7h3.93V65.44h-3.93Z"/>
      <path id="path5631" d="M54.13,78.83,49.59,65.44H45.1L51.93,83.7h3.85L62.5,65.44H58.81L54.14,78.86v0"/>
      <path id="path5635" d="M128.7,65.44V83.7h13.19V80.78h-9.26V75.71h7.86V72.79h-7.86V68.35h8.88V65.44H128.7"/>
      <path id="path5639" d="M113.9,72l2.95,11.71h3.9l5.12-18.26h-3.52L119.06,78.1l-2.87-12.66h-3.7l-3.11,12.72-2.91-12.72h-4.38l5.07,18.26H111L113.9,72"/>
      <path id="path5643" d="M91.05,74.9l5,8.8h4.9l-4.71-7c1.23-.46,3.92-2.18,3.92-5.28a5.9,5.9,0,0,0-6.21-6H85.46V83.7h3.93V68.23h3.39a3.18,3.18,0,0,1,3.35,3.32c0,2.18-1.91,3.36-4,3.36a6.9,6.9,0,0,1-1.06,0"/>
      <path id="path5647" d="M151,74.9l5,8.8h4.91l-4.71-7c1.24-.46,3.93-2.18,3.93-5.28a5.9,5.9,0,0,0-6.21-6h-8.45V83.7h3.93V68.23h3.37a3.18,3.18,0,0,1,3.35,3.32c0,2.18-1.91,3.36-4,3.36a6.82,6.82,0,0,1-1.05,0"/>
      <path id="path5651" d="M168,73.78l6.69,9.92h5.24l-7.63-10.14,6.78-8.12h-4.71L168,73.78"/>
    </g>
  </g>
</svg>
