<svg xmlns="http://www.w3.org/2000/svg" viewBox="0 0 225 148">
  <title>logo-telekom</title>
  <g id="box">
    <rect width="225" height="148" fill="#fff"/>
  </g>
  <g id="Telekom">
    <polygon id="polygon24160" points="32.56 79.56 40.26 79.56 40.26 71.86 32.56 71.86 32.56 79.56"/>
    <polygon id="polygon24162" points="53.88 79.56 61.57 79.56 61.57 71.86 53.88 71.86 53.88 79.56"/>
    <polygon id="polygon24164" points="75.39 79.56 83.08 79.56 83.08 71.86 75.39 71.86 75.39 79.56"/>
    <polygon id="polygon24166" points="95.32 79.56 103.01 79.56 103.01 71.86 95.32 71.86 95.32 79.56"/>
    <path id="path24168" d="M116.63,67.38c0,1.14-.09,1.58-.36,1.85a1.86,1.86,0,0,1-1.15.26h-.27v.79H120a6.75,6.75,0,0,0,5-1.76A7.48,7.48,0,0,0,127.17,63a8.27,8.27,0,0,0-1.67-5.1,6.66,6.66,0,0,0-5.46-2.2h-5.19v.59h.27a1.86,1.86,0,0,1,1.15.26c.27.27.36.71.36,1.86v9Zm2.17-9.07c0-1,.09-1.23.26-1.49a2.29,2.29,0,0,1,1.58-.44c3.07,0,4.3,1.93,4.3,6.57s-1.14,6.49-4.3,6.49c-1.58,0-1.84-.26-1.84-1.93Z"/>
    <path id="path24170" d="M136.77,65.15c-.09-3.24-1.67-5.26-4.13-5.26-2.27,0-3.94,2.19-3.94,5.26,0,3.33,1.67,5.44,4.21,5.44,1.66,0,2.8-.88,3.68-2.81l-.61-.35c-.79,1.66-1.58,2.28-2.72,2.28-1.75,0-2.46-1.32-2.54-4.56Zm-6-.79c0-2.28.79-3.68,2-3.68s1.93,1.4,1.93,3.68Z"/>
    <path id="path24172" d="M145.24,70.28l3-.18v-.61h-.32c-.88,0-1.06-.35-1.06-1.82V60l-3.35.08v.7h.41c.9,0,1.17.35,1.17,1.75v2.72a5.23,5.23,0,0,1-.63,2.81,2.2,2.2,0,0,1-2,1.31,1.16,1.16,0,0,1-1.07-.7A4.22,4.22,0,0,1,141.1,67V60l-3.16.09v.7h.23c1,0,1.15.35,1.15,1.75v3.77c0,1.67.09,2.37.53,3.07a2.33,2.33,0,0,0,2.12,1c1.51,0,2.48-.79,3.27-2.45v2.28Z"/>
    <path id="path24174" d="M152.15,61h3v-.79h-3V56.47h-.6c-.26,2.62-.86,3.49-2.75,3.92V61h1.57V67.1c0,1.59.18,2.21.61,2.74a2.32,2.32,0,0,0,1.92.8c1.74,0,2.6-1.15,2.6-3.27v-.44h-.78v.26c0,1.59-.45,2.47-1.33,2.47a1,1,0,0,1-1.06-.79,7.57,7.57,0,0,1-.18-1.77V61Z"/>
    <path id="path24176" d="M162.81,60.22h-.71c0,.34-.17.52-.26.52s-.27-.09-.35-.09a3.78,3.78,0,0,0-2.12-.61,2.66,2.66,0,0,0-2.9,2.68c0,1.48.79,2.34,2.55,3a5.52,5.52,0,0,1,1.94.77,1.82,1.82,0,0,1,.88,1.56,1.7,1.7,0,0,1-1.76,1.73,2.78,2.78,0,0,1-2.29-1.21,6.21,6.21,0,0,1-.88-2h-.62v3.75h.62l.09-.18c.09-.35.26-.44.35-.44a.3.3,0,0,1,.26.09,4.31,4.31,0,0,0,2.53.8,3.29,3.29,0,0,0,3.24-2.77,2.93,2.93,0,0,0-1.19-2.9,7.36,7.36,0,0,0-2.46-1.06c-1.41-.45-1.85-.89-1.85-1.69a1.6,1.6,0,0,1,1.67-1.59c1.41,0,2.2.89,2.55,2.83h.71V60.22Z"/>
    <path id="path24178" d="M171.66,67.41c-.62,1.57-1.4,2.28-2.54,2.28-1.67,0-2.46-1.41-2.46-4.56,0-3,.88-4.47,2.54-4.47a2.07,2.07,0,0,1,1.9,1.08l0,.07a1,1,0,0,0-1.15,1A1.09,1.09,0,0,0,171.44,64a1.36,1.36,0,0,0,.83-1.27A3,3,0,0,0,169,59.87c-2.63,0-4.47,2.19-4.47,5.26,0,3.24,1.66,5.43,4.2,5.43,1.67,0,2.81-.87,3.6-2.89l-.7-.26Z"/>
    <path id="path24180" d="M180,70.28h3.36v-.59h-.26c-.95,0-1.12-.35-1.12-1.84V64.34c0-1.93-.17-2.63-.69-3.33a2.4,2.4,0,0,0-2.07-1,3,3,0,0,0-2.77,2V55.5l-3.35.18v.59h.26c.95,0,1.12.35,1.12,1.77v9.79c0,1.51-.17,1.86-1.12,1.86h-.26v.59h4.73v-.59h-.44c-1,0-1.13-.34-1.13-1.78V65.63a6.91,6.91,0,0,1,.52-3,2.09,2.09,0,0,1,1.83-1.26,1.07,1.07,0,0,1,1,.59A3.67,3.67,0,0,1,180,64v6.26Z"/>
    <path id="path24182" d="M192.44,65.15c-.09-3.24-1.67-5.26-4.12-5.26-2.28,0-3.95,2.19-3.95,5.26,0,3.33,1.67,5.44,4.21,5.44,1.66,0,2.8-.88,3.68-2.81l-.61-.35c-.79,1.66-1.58,2.28-2.72,2.28-1.75,0-2.46-1.32-2.54-4.56Zm-6-.79c0-2.28.79-3.68,2-3.68s1.93,1.4,1.93,3.68Z"/>
    <path id="path24184" d="M121.17,78.37h.34c2.19-.07,3.16,1.07,3.6,4.31l.61-.09-.09-5H114.85l-.09,5,.61.09a8.06,8.06,0,0,1,.53-2.54,2.89,2.89,0,0,1,2.81-1.77h.48v11a5.41,5.41,0,0,1-.31,1.84,1.77,1.77,0,0,1-1.14.22h-.52v.78h5.92V91.4h-.4a1.92,1.92,0,0,1-1.23-.22,5.56,5.56,0,0,1-.34-1.84Z"/>
    <path id="path24186" d="M133.87,87.05c-.09-3.24-1.66-5.26-4-5.26s-4,2.2-4,5.26c0,3.34,1.66,5.44,4.2,5.44,1.67,0,2.81-.88,3.77-2.81l-.7-.35c-.79,1.67-1.49,2.28-2.71,2.28-1.76,0-2.46-1.31-2.46-4.56Zm-6-.79c0-2.27.79-3.68,2-3.68s1.93,1.41,1.93,3.68Z"/>
    <path id="path24188" d="M138.34,77.48l-3.16.17v.52h.26c.86,0,1.12.36,1.12,1.77v9.8c0,1.5-.26,1.85-1.12,1.85H135v.59h4.74v-.59h-.36c-.85,0-1-.35-1-1.84V77.48Z"/>
    <path id="path24190" d="M148.86,87.05c-.08-3.24-1.66-5.26-4-5.26s-3.94,2.2-3.94,5.26c0,3.34,1.57,5.44,4.12,5.44,1.66,0,2.8-.88,3.77-2.81l-.71-.35c-.7,1.67-1.49,2.28-2.71,2.28-1.67,0-2.46-1.31-2.46-4.56Zm-6-.79c0-2.27.79-3.68,2-3.68s1.93,1.41,1.93,3.68Z"/>
    <path id="path24192" d="M160,92.18V91.4h-.17c-.69,0-1-.35-1.74-1.39l-2.6-4.17,2.34-2.17c1-.78,1.22-1,1.83-1H160v-.59H155.7v.59h.19c.69,0,.94.18.94.53a1.74,1.74,0,0,1-.59,1l-2.91,2.55V77.36l-3.15.18v.63h.26c.95,0,1.12.36,1.12,1.77v9.8c0,1.5-.17,1.85-1.12,1.85H150v.59h4.74v-.59h-.25c-1,0-1.14-.34-1.14-1.77V88l.88-.76,3.13,4.9Z"/>
    <path id="path24194" d="M165.26,81.8c-2.72,0-4.47,2.11-4.47,5.35s1.75,5.35,4.38,5.35,4.47-2.19,4.47-5.35-1.75-5.35-4.38-5.35Zm-.09.71A1.93,1.93,0,0,1,167,83.82a8.24,8.24,0,0,1,.53,3.33c0,3.07-.79,4.65-2.37,4.65s-2.28-1.58-2.28-4.74a8.05,8.05,0,0,1,.53-3.24,2,2,0,0,1,1.75-1.31Z"/>
    <path id="path24196" d="M182.74,92.18h3.15v-.59h-.34c-.86,0-1-.35-1-1.84V85.81a4.51,4.51,0,0,0-.6-2.72A2.47,2.47,0,0,0,181.75,82a2.78,2.78,0,0,0-2.68,2c-.52-1.41-1.3-2-2.51-2a2.61,2.61,0,0,0-2.51,1.84V82l-3.15.09v.64h.18c1,0,1.2.35,1.2,1.74v5.12c0,1.48-.19,1.83-1.2,1.83h-.38v.78h4.74V91.4h-.27c-.94,0-1.12-.36-1.12-1.85V86.84a6.56,6.56,0,0,1,.43-3.07,1.64,1.64,0,0,1,1.47-1,1.16,1.16,0,0,1,1.12.7c.25.52.34,1,.34,2.8v6h3.16v-.59h-.07c-.95,0-1.12-.34-1.12-1.77V87.2a5.7,5.7,0,0,1,.43-3,1.75,1.75,0,0,1,1.55-1,1,1,0,0,1,1,.59,5,5,0,0,1,.35,2.45v5.92Z"/>
    <path id="path24198" d="M91.76,57.45h.8c5.4,0,7.87,3,8.94,11.19l1.68-.18-.27-12.78H75.66L75.4,68.46l1.59.18a20,20,0,0,1,1.33-6.39,7.49,7.49,0,0,1,7.16-4.8h1.15V85.19c0,2.93-.17,3.91-.77,4.53a4.28,4.28,0,0,1-2.86.89H81.7v1.77h15V90.61H95.4a4.28,4.28,0,0,1-2.86-.89c-.6-.62-.78-1.6-.78-4.53Z"/>
  </g>
</svg>
