<svg xmlns="http://www.w3.org/2000/svg" xmlns:xlink="http://www.w3.org/1999/xlink" viewBox="0 0 225 148">
  <defs>
    <clipPath id="clip-path">
      <path d="M67.13,101.51c0-.52,0-.59,1-.61s1.85.33,1.85,1.58-.76,1.66-2,1.66h-.81Zm0,3H68c1.5,0,2.33.75,2.33,2,0,1.45-1,1.84-2,1.84s-1.16-.18-1.16-.93Zm1.46,4.3c1.84,0,3-.66,3-2.35a2.19,2.19,0,0,0-2.19-2.21v0a2,2,0,0,0,1.8-1.86,1.67,1.67,0,0,0-.75-1.49,3.82,3.82,0,0,0-2.14-.44h-3.5v.35c1.06.07,1.09.1,1.09.78v6.13c0,.68,0,.7-1.09.77v.35Z" clip-rule="evenodd"/>
    </clipPath>
    <clipPath id="clip-path-2">
      <path d="M78,102.93v.35c.58,0,.7.1.92.63.6,1.45,1.61,4,1.9,4.85a1.79,1.79,0,0,1,.09.6,2.62,2.62,0,0,1-.29,1c-.18.4-.39.51-.53.51s-.23,0-.44-.26a.56.56,0,0,0-.37-.16.68.68,0,0,0-.53.67.78.78,0,0,0,.85.63c.48,0,1.1-.15,1.71-1.93.75-2.15,1.86-5.1,2.23-5.94.22-.48.3-.58.9-.62v-.35H82.09v.35l.63.06c.2,0,.23.17.17.41-.18.73-.81,2.55-1.34,4h0c-.55-1.46-1-2.78-1.48-4-.07-.21-.1-.35.18-.37l.52,0v-.35H78" clip-rule="evenodd"/>
    </clipPath>
    <clipPath id="clip-path-3">
      <path d="M92.23,102.79l.15,1c.8-.71,1.16-1,1.6-1a.58.58,0,0,1,.64.59.64.64,0,0,1-.56.68.5.5,0,0,1-.24-.06,1.66,1.66,0,0,0-.75-.27c-.28,0-.69.32-.69,1.25v3.88H91.24V104c0-.44-.07-.5-.39-.55l-.46-.06v-.3l1.84-.3" clip-rule="evenodd"/>
    </clipPath>
    <clipPath id="clip-path-4">
      <path d="M85.67,105.22c0-.49.18-2,1.44-2s1.26,1.15,1.26,1.63c0,.23-.07.38-.41.38Zm3.48.46H85.66c0,1.26.28,2.72,1.78,2.72a1.73,1.73,0,0,0,1.57-.93l.4.21A2.29,2.29,0,0,1,87.2,109c-2,0-2.8-1.15-2.8-3.07s.9-3.16,2.79-3.16a2.24,2.24,0,0,1,2.44,2.43C89.63,105.62,89.4,105.68,89.15,105.68Z" clip-rule="evenodd"/>
    </clipPath>
    <clipPath id="clip-path-5">
      <path d="M76.15,107.14a1.16,1.16,0,0,1-1.23,1.23,1.1,1.1,0,0,1-1.12-1.25c0-.57.27-.86,1-1.11a10.12,10.12,0,0,0,1.4-.58Zm1.09.66c0,.44.07.5.38.55l.46.06v.3l-1.84.31-.11-.73a3.7,3.7,0,0,1-1.8.73,1.66,1.66,0,0,1-1.75-1.72,1.42,1.42,0,0,1,1.13-1.45,9.26,9.26,0,0,0,2.44-.92v-.51c0-1-.56-1.21-1-1.21s-1,.29-1.25,1.19c-.06.2-.13.34-.38.34s-.68-.19-.68-.57c0-.67,1.08-1.39,2.45-1.39,1.83,0,2,.91,2,1.62v3.4Z" clip-rule="evenodd"/>
    </clipPath>
    <clipPath id="clip-path-6">
      <path d="M107.71,102.79l.15,1c.8-.71,1.16-1,1.6-1a.58.58,0,0,1,.64.59.64.64,0,0,1-.56.68.5.5,0,0,1-.24-.06,1.66,1.66,0,0,0-.75-.27c-.28,0-.69.32-.69,1.25v3.88h-1.14V104c0-.44-.07-.5-.39-.55l-.46-.06v-.3l1.84-.3" clip-rule="evenodd"/>
    </clipPath>
    <clipPath id="clip-path-7">
      <path d="M104.93,100.78a6.53,6.53,0,0,0-2.57-.47,4.45,4.45,0,0,0-3.42,1.25,4.31,4.31,0,0,0,3.35,7.5,6.43,6.43,0,0,0,2.66-.58l.17-2h-.36c-.34,1.26-1,2.18-2.54,2.18-2.5,0-3-2.46-3-3.92,0-2,.79-4,3-4a2.08,2.08,0,0,1,2.33,1.94h.36v-1.89" clip-rule="evenodd"/>
    </clipPath>
    <clipPath id="clip-path-8">
      <path d="M111.71,105.91c0-1.68.54-2.69,1.64-2.69s1.65,1,1.65,2.69-.52,2.69-1.65,2.69S111.71,107.58,111.71,105.91Zm1.64-3.12c-1.94,0-2.9,1.15-2.9,3.12s1,3.11,2.9,3.11,2.91-1.15,2.91-3.11S115.31,102.79,113.35,102.79Z" clip-rule="evenodd"/>
    </clipPath>
    <clipPath id="clip-path-9">
      <path d="M116.87,103.09v.3l.46.07c.32,0,.39.1.39.54v7.77h1.14v-3a3.21,3.21,0,0,0,1.38.28c1.64,0,3.05-.75,3.05-3.25,0-.86-.16-3-2.37-3a3.82,3.82,0,0,0-2.06.9l-.16-.9-1.83.3Zm2,1.89a1.35,1.35,0,0,1,.16-.69,1.53,1.53,0,0,1,1.44-.85c.49,0,1.56.32,1.56,2.4,0,1.78-.55,2.76-1.77,2.76a1.31,1.31,0,0,1-1.3-.89,2.15,2.15,0,0,1-.09-.74Z" clip-rule="evenodd"/>
    </clipPath>
    <clipPath id="clip-path-10">
      <path d="M124.75,108.33a3.74,3.74,0,0,0,2.39.73c2.14,0,3-1.23,3-2.46,0-1.43-1-2.11-2.39-2.63l-.39-.15c-.81-.3-1.49-.82-1.49-1.55a1.44,1.44,0,0,1,1.56-1.54c1,0,1.62.6,1.81,1.82h.38v-1.71a3.61,3.61,0,0,0-2.06-.53c-1.48,0-2.79.74-2.79,2.34,0,1.27,1,1.94,2.29,2.38l.22.09c.53.21,1.68.76,1.68,1.84a1.57,1.57,0,0,1-1.74,1.67c-1.14,0-1.89-.88-2.19-2.24h-.39l.12,1.94" clip-rule="evenodd"/>
    </clipPath>
    <clipPath id="clip-path-11">
      <path d="M160.36,105.22c0-.49.18-2,1.44-2s1.26,1.15,1.26,1.63c0,.23-.07.38-.41.38Zm3.47.46h-3.49c0,1.26.28,2.72,1.79,2.72a1.71,1.71,0,0,0,1.56-.93l.4.21a2.28,2.28,0,0,1-2.21,1.34c-2,0-2.8-1.15-2.8-3.07s.9-3.16,2.79-3.16a2.24,2.24,0,0,1,2.45,2.43C164.32,105.62,164.09,105.68,163.83,105.68Z" clip-rule="evenodd"/>
    </clipPath>
    <clipPath id="clip-path-12">
      <path d="M141.52,105.22c0-.49.18-2,1.44-2s1.26,1.15,1.26,1.63c0,.23-.07.38-.41.38Zm3.48.46h-3.49c0,1.26.28,2.72,1.78,2.72a1.71,1.71,0,0,0,1.56-.93l.41.21a2.3,2.3,0,0,1-2.21,1.34c-2,0-2.8-1.15-2.8-3.07s.9-3.16,2.79-3.16a2.24,2.24,0,0,1,2.44,2.43C145.48,105.62,145.25,105.68,145,105.68Z" clip-rule="evenodd"/>
    </clipPath>
    <clipPath id="clip-path-13">
      <path d="M154.65,105.75c0,1.24.3,2.65,1.78,2.65a1.71,1.71,0,0,0,1.56-.93l.41.21a2.3,2.3,0,0,1-2.21,1.34c-2,0-2.8-1.15-2.8-3.07,0-1.61.74-3.16,2.94-3.16,1.31,0,2.11.62,2.11,1.18s-.47.62-.71.62-.31-.13-.38-.32c-.24-.65-.59-1-1.15-1-.84,0-1.55.72-1.55,2.53" clip-rule="evenodd"/>
    </clipPath>
    <clipPath id="clip-path-14">
      <path d="M132.31,105.75c0,1.24.31,2.65,1.78,2.65a1.73,1.73,0,0,0,1.57-.93l.4.21a2.29,2.29,0,0,1-2.21,1.34c-2,0-2.8-1.15-2.8-3.07,0-1.61.75-3.16,2.95-3.16,1.31,0,2.11.62,2.11,1.18s-.48.62-.72.62-.3-.13-.37-.32c-.25-.65-.6-1-1.16-1-.83,0-1.55.72-1.55,2.53" clip-rule="evenodd"/>
    </clipPath>
    <clipPath id="clip-path-15">
      <path d="M147,104v4.86h1.14V105a1.27,1.27,0,0,1,.13-.66,1.66,1.66,0,0,1,1.44-.88c.82,0,1.27.46,1.27,1.52v3.9h1.13v-4.14a1.7,1.7,0,0,0-1.78-1.93,3.91,3.91,0,0,0-2.21.92l-.17-.92-1.8.3v.3l.46.07c.31,0,.39.1.39.54" clip-rule="evenodd"/>
    </clipPath>
    <clipPath id="clip-path-16">
      <path d="M138.32,101.69a.7.7,0,0,0,.74-.73.74.74,0,1,0-1.47,0,.7.7,0,0,0,.73.73" clip-rule="evenodd"/>
    </clipPath>
    <clipPath id="clip-path-17">
      <path d="M137.77,104v4.86h1.12l0-6-.09-.07-1.9.3v.31l.46.06c.31.05.39.11.39.54" clip-rule="evenodd"/>
    </clipPath>
    <clipPath id="clip-path-18">
      <path d="M119.76,40.2a2.32,2.32,0,0,1,.71,1.68,2.35,2.35,0,0,1-2.35,2.35h-5.39V36.49H118a2.26,2.26,0,0,1,1.73,3.71Zm-5.19,2.37h3.32a.74.74,0,1,0,0-1.47h-3.32Zm0-3.13h3.23a.65.65,0,1,0,0-1.29h-3.23Z"/>
    </clipPath>
    <clipPath id="clip-path-19">
      <path d="M116.23,47.7l-1.36,2.81h2.72ZM121,53.46h-2l-.62-1.29h-4.34l-.62,1.29h-2l3.87-7.75h1.8Z"/>
    </clipPath>
    <clipPath id="clip-path-20">
      <polygon points="111.38 55.12 113.6 55.12 116.23 58.65 118.86 55.12 121.08 55.12 117.15 60.16 117.15 62.87 115.31 62.87 115.31 60.16 111.38 55.12" clip-rule="evenodd"/>
    </clipPath>
    <clipPath id="clip-path-21">
      <polygon points="129.13 55.12 129.13 56.78 123.97 56.78 123.97 58.07 128.95 58.07 128.95 59.73 123.97 59.73 123.97 61.2 129.13 61.2 129.13 62.87 122.12 62.87 122.12 55.12 129.13 55.12" clip-rule="evenodd"/>
    </clipPath>
    <clipPath id="clip-path-22">
      <path d="M136.12,56.78h-2.68v1.47h2.68a.74.74,0,1,0,0-1.47Zm-1.29,3.13h-1.39v3H131.6V55.12h4.71a2.4,2.4,0,0,1,.67,4.7l2.27,3H137Z"/>
    </clipPath>
    <clipPath id="clip-path-23">
      <path d="M107.47,57.1l-1.36,2.81h2.72Zm4.77,5.77h-2l-.62-1.3H105.3l-.62,1.3h-2l3.87-7.75h1.8Z"/>
    </clipPath>
    <clipPath id="clip-path-24">
      <path d="M101,58.83a2.35,2.35,0,0,1-1.63,4h-5.4V55.12h5.31a2.27,2.27,0,0,1,2.25,2.26A2.23,2.23,0,0,1,101,58.83Zm-5.18,2.38H99.1a.74.74,0,0,0,0-1.48H95.77v1.48Zm0-3.13H99a.65.65,0,1,0,0-1.3H95.78Z"/>
    </clipPath>
    <clipPath id="clip-path-25">
      <polygon points="119.74 64.53 119.74 66.19 114.57 66.19 114.57 67.48 119.55 67.47 119.55 69.13 114.57 69.13 114.57 70.61 119.74 70.61 119.74 72.27 112.73 72.27 112.73 64.53 119.74 64.53" clip-rule="evenodd"/>
    </clipPath>
    <clipPath id="clip-path-26">
      <path d="M112.73,81.86V74.11h5.17a2.41,2.41,0,0,1,.89,4.63l2.33,3.12h-2.21l-2.22-3h-2.12v3Zm5.71-5.35a.75.75,0,0,0-.73-.74h-3.14v1.48h3.14A.73.73,0,0,0,118.44,76.51Z"/>
    </clipPath>
    <clipPath id="clip-path-27">
      <path d="M144.18,57.38a28,28,0,0,0-55.89,0c0,.59.09,1.18.16,1.75a28,28,0,0,0,27.79,24.52,24.56,24.56,0,0,1-24.47-22.8c0-.57-.07-1.15-.07-1.73s0-1.16.07-1.74a24.55,24.55,0,0,1,24.46-22.79A28,28,0,0,1,144,59.13c.07.57.12,1.15.16,1.72,0-.57,0-1.15,0-1.73s0-1.16,0-1.74" clip-rule="evenodd"/>
    </clipPath>
    <clipPath id="clip-path-28">
      <path d="M88.29,60.85a28,28,0,0,0,55.89,0c0-.58-.09-1.17-.16-1.74a28,28,0,0,0-27.79-24.52A24.55,24.55,0,0,1,140.7,57.38c0,.58.07,1.16.07,1.74s0,1.16-.07,1.73a24.56,24.56,0,0,1-24.47,22.8A28,28,0,0,1,88.45,59.11c-.07-.57-.13-1.15-.16-1.73q-.06.87-.06,1.74c0,.58,0,1.16.06,1.73" clip-rule="evenodd"/>
    </clipPath>
  </defs>
  <title>logo-bayer-cropscience</title>
  <g id="box">
    <rect width="225" height="148" fill="#fff"/>
  </g>
  <g id="bayer-cropscience">
    <g>
      <path d="M67.13,101.51c0-.52,0-.59,1-.61s1.85.33,1.85,1.58-.76,1.66-2,1.66h-.81Zm0,3H68c1.5,0,2.33.75,2.33,2,0,1.45-1,1.84-2,1.84s-1.16-.18-1.16-.93Zm1.46,4.3c1.84,0,3-.66,3-2.35a2.19,2.19,0,0,0-2.19-2.21v0a2,2,0,0,0,1.8-1.86,1.67,1.67,0,0,0-.75-1.49,3.82,3.82,0,0,0-2.14-.44h-3.5v.35c1.06.07,1.09.1,1.09.78v6.13c0,.68,0,.7-1.09.77v.35Z" fill-rule="evenodd"/>
      <g clip-path="url(#clip-path)">
        <rect x="63.56" y="99.2" width="9.34" height="10.94"/>
      </g>
    </g>
    <g>
      <path d="M78,102.93v.35c.58,0,.7.1.92.63.6,1.45,1.61,4,1.9,4.85a1.79,1.79,0,0,1,.09.6,2.62,2.62,0,0,1-.29,1c-.18.4-.39.51-.53.51s-.23,0-.44-.26a.56.56,0,0,0-.37-.16.68.68,0,0,0-.53.67.78.78,0,0,0,.85.63c.48,0,1.1-.15,1.71-1.93.75-2.15,1.86-5.1,2.23-5.94.22-.48.3-.58.9-.62v-.35H82.09v.35l.63.06c.2,0,.23.17.17.41-.18.73-.81,2.55-1.34,4h0c-.55-1.46-1-2.78-1.48-4-.07-.21-.1-.35.18-.37l.52,0v-.35H78" fill-rule="evenodd"/>
      <g clip-path="url(#clip-path-2)">
        <rect x="76.7" y="101.66" width="8.99" height="11.39"/>
      </g>
    </g>
    <g>
      <path d="M92.23,102.79l.15,1c.8-.71,1.16-1,1.6-1a.58.58,0,0,1,.64.59.64.64,0,0,1-.56.68.5.5,0,0,1-.24-.06,1.66,1.66,0,0,0-.75-.27c-.28,0-.69.32-.69,1.25v3.88H91.24V104c0-.44-.07-.5-.39-.55l-.46-.06v-.3l1.84-.3" fill-rule="evenodd"/>
      <g clip-path="url(#clip-path-3)">
        <rect x="89.11" y="101.51" width="6.78" height="8.63"/>
      </g>
    </g>
    <g>
      <path d="M85.67,105.22c0-.49.18-2,1.44-2s1.26,1.15,1.26,1.63c0,.23-.07.38-.41.38Zm3.48.46H85.66c0,1.26.28,2.72,1.78,2.72a1.73,1.73,0,0,0,1.57-.93l.4.21A2.29,2.29,0,0,1,87.2,109c-2,0-2.8-1.15-2.8-3.07s.9-3.16,2.79-3.16a2.24,2.24,0,0,1,2.44,2.43C89.63,105.62,89.4,105.68,89.15,105.68Z" fill-rule="evenodd"/>
      <g clip-path="url(#clip-path-4)">
        <rect x="83.12" y="101.51" width="7.79" height="8.78"/>
      </g>
    </g>
    <g>
      <path d="M76.15,107.14a1.16,1.16,0,0,1-1.23,1.23,1.1,1.1,0,0,1-1.12-1.25c0-.57.27-.86,1-1.11a10.12,10.12,0,0,0,1.4-.58Zm1.09.66c0,.44.07.5.38.55l.46.06v.3l-1.84.31-.11-.73a3.7,3.7,0,0,1-1.8.73,1.66,1.66,0,0,1-1.75-1.72,1.42,1.42,0,0,1,1.13-1.45,9.26,9.26,0,0,0,2.44-.92v-.51c0-1-.56-1.21-1-1.21s-1,.29-1.25,1.19c-.06.2-.13.34-.38.34s-.68-.19-.68-.57c0-.67,1.08-1.39,2.45-1.39,1.83,0,2,.91,2,1.62v3.4Z" fill-rule="evenodd"/>
      <g clip-path="url(#clip-path-5)">
        <rect x="71.3" y="101.51" width="8.06" height="8.79"/>
      </g>
    </g>
    <g>
      <path d="M107.71,102.79l.15,1c.8-.71,1.16-1,1.6-1a.58.58,0,0,1,.64.59.64.64,0,0,1-.56.68.5.5,0,0,1-.24-.06,1.66,1.66,0,0,0-.75-.27c-.28,0-.69.32-.69,1.25v3.88h-1.14V104c0-.44-.07-.5-.39-.55l-.46-.06v-.3l1.84-.3" fill-rule="evenodd"/>
      <g clip-path="url(#clip-path-6)">
        <rect x="104.6" y="101.51" width="6.78" height="8.63"/>
      </g>
    </g>
    <g>
      <path d="M104.93,100.78a6.53,6.53,0,0,0-2.57-.47,4.45,4.45,0,0,0-3.42,1.25,4.31,4.31,0,0,0,3.35,7.5,6.43,6.43,0,0,0,2.66-.58l.17-2h-.36c-.34,1.26-1,2.18-2.54,2.18-2.5,0-3-2.46-3-3.92,0-2,.79-4,3-4a2.08,2.08,0,0,1,2.33,1.94h.36v-1.89" fill-rule="evenodd"/>
      <g clip-path="url(#clip-path-7)">
        <rect x="96.56" y="99.03" width="9.84" height="11.3"/>
      </g>
    </g>
    <g>
      <path d="M111.71,105.91c0-1.68.54-2.69,1.64-2.69s1.65,1,1.65,2.69-.52,2.69-1.65,2.69S111.71,107.58,111.71,105.91Zm1.64-3.12c-1.94,0-2.9,1.15-2.9,3.12s1,3.11,2.9,3.11,2.91-1.15,2.91-3.11S115.31,102.79,113.35,102.79Z" fill-rule="evenodd"/>
      <g clip-path="url(#clip-path-8)">
        <rect x="109.18" y="101.52" width="8.36" height="8.78"/>
      </g>
    </g>
    <g>
      <path d="M116.87,103.09v.3l.46.07c.32,0,.39.1.39.54v7.77h1.14v-3a3.21,3.21,0,0,0,1.38.28c1.64,0,3.05-.75,3.05-3.25,0-.86-.16-3-2.37-3a3.82,3.82,0,0,0-2.06.9l-.16-.9-1.83.3Zm2,1.89a1.35,1.35,0,0,1,.16-.69,1.53,1.53,0,0,1,1.44-.85c.49,0,1.56.32,1.56,2.4,0,1.78-.55,2.76-1.77,2.76a1.31,1.31,0,0,1-1.3-.89,2.15,2.15,0,0,1-.09-.74Z" fill-rule="evenodd"/>
      <g clip-path="url(#clip-path-9)">
        <rect x="115.6" y="101.51" width="8.96" height="11.54"/>
      </g>
    </g>
    <g>
      <path d="M124.75,108.33a3.74,3.74,0,0,0,2.39.73c2.14,0,3-1.23,3-2.46,0-1.43-1-2.11-2.39-2.63l-.39-.15c-.81-.3-1.49-.82-1.49-1.55a1.44,1.44,0,0,1,1.56-1.54c1,0,1.62.6,1.81,1.82h.38v-1.71a3.61,3.61,0,0,0-2.06-.53c-1.48,0-2.79.74-2.79,2.34,0,1.27,1,1.94,2.29,2.38l.22.09c.53.21,1.68.76,1.68,1.84a1.57,1.57,0,0,1-1.74,1.67c-1.14,0-1.89-.88-2.19-2.24h-.39l.12,1.94" fill-rule="evenodd"/>
      <g clip-path="url(#clip-path-10)">
        <rect x="123.35" y="99.03" width="8.05" height="11.3"/>
      </g>
    </g>
    <g>
      <path d="M160.36,105.22c0-.49.18-2,1.44-2s1.26,1.15,1.26,1.63c0,.23-.07.38-.41.38Zm3.47.46h-3.49c0,1.26.28,2.72,1.79,2.72a1.71,1.71,0,0,0,1.56-.93l.4.21a2.28,2.28,0,0,1-2.21,1.34c-2,0-2.8-1.15-2.8-3.07s.9-3.16,2.79-3.16a2.24,2.24,0,0,1,2.45,2.43C164.32,105.62,164.09,105.68,163.83,105.68Z" fill-rule="evenodd"/>
      <g clip-path="url(#clip-path-11)">
        <rect x="157.81" y="101.51" width="7.79" height="8.78"/>
      </g>
    </g>
    <g>
      <path d="M141.52,105.22c0-.49.18-2,1.44-2s1.26,1.15,1.26,1.63c0,.23-.07.38-.41.38Zm3.48.46h-3.49c0,1.26.28,2.72,1.78,2.72a1.71,1.71,0,0,0,1.56-.93l.41.21a2.3,2.3,0,0,1-2.21,1.34c-2,0-2.8-1.15-2.8-3.07s.9-3.16,2.79-3.16a2.24,2.24,0,0,1,2.44,2.43C145.48,105.62,145.25,105.68,145,105.68Z" fill-rule="evenodd"/>
      <g clip-path="url(#clip-path-12)">
        <rect x="138.97" y="101.51" width="7.79" height="8.78"/>
      </g>
    </g>
    <g>
      <path d="M154.65,105.75c0,1.24.3,2.65,1.78,2.65a1.71,1.71,0,0,0,1.56-.93l.41.21a2.3,2.3,0,0,1-2.21,1.34c-2,0-2.8-1.15-2.8-3.07,0-1.61.74-3.16,2.94-3.16,1.31,0,2.11.62,2.11,1.18s-.47.62-.71.62-.31-.13-.38-.32c-.24-.65-.59-1-1.15-1-.84,0-1.55.72-1.55,2.53" fill-rule="evenodd"/>
      <g clip-path="url(#clip-path-13)">
        <rect x="152.11" y="101.52" width="7.61" height="8.78"/>
      </g>
    </g>
    <g>
      <path d="M132.31,105.75c0,1.24.31,2.65,1.78,2.65a1.73,1.73,0,0,0,1.57-.93l.4.21a2.29,2.29,0,0,1-2.21,1.34c-2,0-2.8-1.15-2.8-3.07,0-1.61.75-3.16,2.95-3.16,1.31,0,2.11.62,2.11,1.18s-.48.62-.72.62-.3-.13-.37-.32c-.25-.65-.6-1-1.16-1-.83,0-1.55.72-1.55,2.53" fill-rule="evenodd"/>
      <g clip-path="url(#clip-path-14)">
        <rect x="129.78" y="101.52" width="7.6" height="8.78"/>
      </g>
    </g>
    <g>
      <path d="M147,104v4.86h1.14V105a1.27,1.27,0,0,1,.13-.66,1.66,1.66,0,0,1,1.44-.88c.82,0,1.27.46,1.27,1.52v3.9h1.13v-4.14a1.7,1.7,0,0,0-1.78-1.93,3.91,3.91,0,0,0-2.21.92l-.17-.92-1.8.3v.3l.46.07c.31,0,.39.1.39.54" fill-rule="evenodd"/>
      <g clip-path="url(#clip-path-15)">
        <rect x="144.83" y="101.51" width="8.52" height="8.63"/>
      </g>
    </g>
    <g>
      <path d="M138.32,101.69a.7.7,0,0,0,.74-.73.74.74,0,1,0-1.47,0,.7.7,0,0,0,.73.73" fill-rule="evenodd"/>
      <g clip-path="url(#clip-path-16)">
        <rect x="136.31" y="98.93" width="4.03" height="4.03"/>
      </g>
    </g>
    <g>
      <path d="M137.77,104v4.86h1.12l0-6-.09-.07-1.9.3v.31l.46.06c.31.05.39.11.39.54" fill-rule="evenodd"/>
      <g clip-path="url(#clip-path-17)">
        <rect x="135.64" y="101.52" width="4.54" height="8.62"/>
      </g>
    </g>
    <g>
      <path d="M119.76,40.2a2.32,2.32,0,0,1,.71,1.68,2.35,2.35,0,0,1-2.35,2.35h-5.39V36.49H118a2.26,2.26,0,0,1,1.73,3.71Zm-5.19,2.37h3.32a.74.74,0,1,0,0-1.47h-3.32Zm0-3.13h3.23a.65.65,0,1,0,0-1.29h-3.23Z"/>
      <g clip-path="url(#clip-path-18)">
        <rect x="109.9" y="33.66" width="13.4" height="13.4"/>
      </g>
    </g>
    <g>
      <path d="M116.23,47.7l-1.36,2.81h2.72ZM121,53.46h-2l-.62-1.29h-4.34l-.62,1.29h-2l3.87-7.75h1.8Z"/>
      <g clip-path="url(#clip-path-19)">
        <rect x="108.63" y="42.89" width="15.2" height="13.4"/>
      </g>
    </g>
    <g>
      <polygon points="111.38 55.12 113.6 55.12 116.23 58.65 118.86 55.12 121.08 55.12 117.15 60.16 117.15 62.87 115.31 62.87 115.31 60.16 111.38 55.12" fill-rule="evenodd"/>
      <g clip-path="url(#clip-path-20)">
        <rect x="108.55" y="52.29" width="15.36" height="13.4"/>
      </g>
    </g>
    <g>
      <polygon points="129.13 55.12 129.13 56.78 123.97 56.78 123.97 58.07 128.95 58.07 128.95 59.73 123.97 59.73 123.97 61.2 129.13 61.2 129.13 62.87 122.12 62.87 122.12 55.12 129.13 55.12" fill-rule="evenodd"/>
      <g clip-path="url(#clip-path-21)">
        <rect x="119.29" y="52.29" width="12.66" height="13.4"/>
      </g>
    </g>
    <g>
      <path d="M136.12,56.78h-2.68v1.47h2.68a.74.74,0,1,0,0-1.47Zm-1.29,3.13h-1.39v3H131.6V55.12h4.71a2.4,2.4,0,0,1,.67,4.7l2.27,3H137Z"/>
      <g clip-path="url(#clip-path-22)">
        <rect x="128.77" y="52.29" width="13.31" height="13.4"/>
      </g>
    </g>
    <g>
      <path d="M107.47,57.1l-1.36,2.81h2.72Zm4.77,5.77h-2l-.62-1.3H105.3l-.62,1.3h-2l3.87-7.75h1.8Z"/>
      <g clip-path="url(#clip-path-23)">
        <rect x="99.87" y="52.29" width="15.2" height="13.4"/>
      </g>
    </g>
    <g>
      <path d="M101,58.83a2.35,2.35,0,0,1-1.63,4h-5.4V55.12h5.31a2.27,2.27,0,0,1,2.25,2.26A2.23,2.23,0,0,1,101,58.83Zm-5.18,2.38H99.1a.74.74,0,0,0,0-1.48H95.77v1.48Zm0-3.13H99a.65.65,0,1,0,0-1.3H95.78Z"/>
      <g clip-path="url(#clip-path-24)">
        <rect x="91.1" y="52.3" width="13.4" height="13.4"/>
      </g>
    </g>
    <g>
      <polygon points="119.74 64.53 119.74 66.19 114.57 66.19 114.57 67.48 119.55 67.47 119.55 69.13 114.57 69.13 114.57 70.61 119.74 70.61 119.74 72.27 112.73 72.27 112.73 64.53 119.74 64.53" fill-rule="evenodd"/>
      <g clip-path="url(#clip-path-25)">
        <rect x="109.9" y="61.7" width="12.66" height="13.4"/>
      </g>
    </g>
    <g>
      <path d="M112.73,81.86V74.11h5.17a2.41,2.41,0,0,1,.89,4.63l2.33,3.12h-2.21l-2.22-3h-2.12v3Zm5.71-5.35a.75.75,0,0,0-.73-.74h-3.14v1.48h3.14A.73.73,0,0,0,118.44,76.51Z"/>
      <g clip-path="url(#clip-path-26)">
        <rect x="109.9" y="71.29" width="14.05" height="13.4"/>
      </g>
    </g>
    <g>
      <path d="M144.18,57.38a28,28,0,0,0-55.89,0c0,.59.09,1.18.16,1.75a28,28,0,0,0,27.79,24.52,24.56,24.56,0,0,1-24.47-22.8c0-.57-.07-1.15-.07-1.73s0-1.16.07-1.74a24.55,24.55,0,0,1,24.46-22.79A28,28,0,0,1,144,59.13c.07.57.12,1.15.16,1.72,0-.57,0-1.15,0-1.73s0-1.16,0-1.74" fill-rule="evenodd"/>
      <g clip-path="url(#clip-path-27)">
        <rect x="85.46" y="28.29" width="61.6" height="58.19"/>
      </g>
    </g>
    <g>
      <path d="M88.29,60.85a28,28,0,0,0,55.89,0c0-.58-.09-1.17-.16-1.74a28,28,0,0,0-27.79-24.52A24.55,24.55,0,0,1,140.7,57.38c0,.58.07,1.16.07,1.74s0,1.16-.07,1.73a24.56,24.56,0,0,1-24.47,22.8A28,28,0,0,1,88.45,59.11c-.07-.57-.13-1.15-.16-1.73q-.06.87-.06,1.74c0,.58,0,1.16.06,1.73" fill-rule="evenodd"/>
      <g clip-path="url(#clip-path-28)">
        <rect x="85.41" y="31.76" width="61.6" height="58.19"/>
      </g>
    </g>
  </g>
</svg>
