<svg xmlns="http://www.w3.org/2000/svg" viewBox="0 0 225 148">
  <title>logo-lidl</title>
  <g id="box">
    <rect width="225" height="148" fill="#fff"/>
  </g>
  <g id="lidl">
    <g>
      <path d="M73.5,35v78h78V35Zm75.92,75.92H75.58V37.08h73.84Z" fill="#fff"/>
      <path d="M75.58,110.92h73.84V37.08H75.58Zm37-69.68a32.69,32.69,0,1,1-32.69,32.7A32.7,32.7,0,0,1,112.54,41.24Z"/>
      <path d="M119.68,71.4h-.42v4.68h.5C121.87,76.09,121.87,71.4,119.68,71.4Z" fill="#fff"/>
      <path d="M112.54,106.62A32.69,32.69,0,1,0,79.85,73.94,32.69,32.69,0,0,0,112.54,106.62Zm14.52-29h1.56v-7.8h-1.56V67.76h10.4v2.08h-2.08V77l5.72-3.31v6h-14ZM103.89,60.82a3.66,3.66,0,1,1-3.66,3.65A3.65,3.65,0,0,1,103.89,60.82Zm-20.51,9V67.76h10.4v2.08H92.22V77l5.72-3.31v1.91l6.69-6.7,5.79,5.8L113,72.1V69.84h-1.56V67.76h9.65c7.2,0,7.13,12,0,12h-9.65V77.64H113v-3.3l-9.33,9.35-1.12-1.13,1.72-1.72-4.67-4.68-1.68,1.69v1.87H83.38V77.64h2.08v-7.8Z" fill="#fff"/>
      <path d="M83.38,77.64v2.08H97.94V77.85l1.68-1.69,4.67,4.68-1.72,1.72,1.12,1.13L113,74.34v3.3h-1.56v2.08h9.65c7.13,0,7.2-12,0-12h-9.65v2.08H113V72.1l-2.6,2.61-5.79-5.8-6.69,6.7V73.7L92.22,77V69.84h1.56V67.76H83.38v2.08h2.08v7.8Zm35.88-6.24h.42c2.19,0,2.19,4.69.08,4.68h-.5Z"/>
      <path d="M103.89,68.13a3.66,3.66,0,1,0-3.66-3.66A3.66,3.66,0,0,0,103.89,68.13Z"/>
      <polygon points="141.1 73.7 135.38 77.01 135.38 69.84 137.46 69.84 137.46 67.76 127.06 67.76 127.06 69.84 128.62 69.84 128.62 77.64 127.06 77.64 127.06 79.72 141.1 79.72 141.1 73.7"/>
    </g>
  </g>
</svg>
