<svg xmlns="http://www.w3.org/2000/svg" viewBox="0 0 225 148">
  <title>logo-wfbb</title>
  <g id="box">
    <rect width="225" height="148" fill="#fff"/>
  </g>
  <g id="wfbb">
    <g>
      <path id="Fill-1" d="M138.51,75.37V90.7a.64.64,0,0,1-1.28,0V75.35a.64.64,0,0,1,1.28,0" fill-rule="evenodd"/>
      <path id="Fill-3" d="M47,55.06a1.29,1.29,0,0,1,0,.35L44.12,67.17a.83.83,0,0,1-.84.68.8.8,0,0,1-.84-.7L40.12,57.1,37.8,67.15a.8.8,0,0,1-.84.7.84.84,0,0,1-.85-.68L33.29,55.41a1,1,0,0,1-.06-.35.62.62,0,0,1,.64-.57.61.61,0,0,1,.62.46L37,65.33l2.32-10.14a.85.85,0,0,1,1.68,0l2.32,10.14L45.75,55a.61.61,0,0,1,.62-.46.62.62,0,0,1,.63.57" fill-rule="evenodd"/>
      <path id="Fill-5" d="M50.13,58.8v8.43a.64.64,0,0,1-1.28,0v-8.4a.64.64,0,0,1,1.28,0m.1-3.14a.82.82,0,0,1-1.63,0,.82.82,0,0,1,1.63,0" fill-rule="evenodd"/>
      <path id="Fill-7" d="M57,58.33a.62.62,0,0,1,.52.62.58.58,0,0,1-.62.57,11.32,11.32,0,0,0-1.18-.13,1.27,1.27,0,0,0-1.29,1.39v6.45a.61.61,0,0,1-.64.63.62.62,0,0,1-.64-.63V60.75a2.39,2.39,0,0,1,2.5-2.55,6.86,6.86,0,0,1,1.35.13" fill-rule="evenodd"/>
      <path id="Fill-9" d="M60.75,55.19v3.18h2.08a.63.63,0,0,1,.64.64.66.66,0,0,1-.64.64H60.75v5.57c-.11,1,.36,1.44,1.18,1.44.51,0,.68-.09.92-.09a.57.57,0,0,1,.62.59.6.6,0,0,1-.54.6,5.32,5.32,0,0,1-1,.09,2.28,2.28,0,0,1-2.42-2.65V55.12a.49.49,0,0,1,.53-.63.6.6,0,0,1,.63.63" fill-rule="evenodd"/>
      <path id="Fill-11" d="M70.42,58.71a.58.58,0,0,1,.38.54.57.57,0,0,1-.58.58,1.31,1.31,0,0,1-.45-.1,4.46,4.46,0,0,0-1.72-.35c-.84,0-1.71.47-1.71,1.34,0,.7.57,1.07,1.22,1.35l1.63.68A2.54,2.54,0,0,1,71,65.16a2.73,2.73,0,0,1-3,2.69,5.74,5.74,0,0,1-2.54-.56.56.56,0,0,1,.22-1.09,1.46,1.46,0,0,1,.43.13,5.08,5.08,0,0,0,1.83.35c1.11,0,1.86-.65,1.86-1.48,0-.65-.55-1.19-1.61-1.61L66.81,63a2.38,2.38,0,0,1-1.7-2.31A2.63,2.63,0,0,1,68,58.21a6.21,6.21,0,0,1,2.39.5" fill-rule="evenodd"/>
      <path id="Fill-13" d="M79.06,58.8a.6.6,0,0,1,.35.54.55.55,0,0,1-.58.57,1.65,1.65,0,0,1-.66-.2,4.25,4.25,0,0,0-1.66-.34,2,2,0,0,0-2.16,2.25v2.82a2,2,0,0,0,2.16,2.25,4.45,4.45,0,0,0,1.66-.33,1.7,1.7,0,0,1,.64-.21.58.58,0,0,1,.6.6.63.63,0,0,1-.35.54,5.09,5.09,0,0,1-2.52.57,3.21,3.21,0,0,1-3.47-3.42V61.62a3.22,3.22,0,0,1,3.47-3.42,5.58,5.58,0,0,1,2.52.6" fill-rule="evenodd"/>
      <path id="Fill-15" d="M82.42,55.19v3.69a5.18,5.18,0,0,1,2.4-.7c2.12,0,3.34,1.23,3.34,3.46v5.58a.62.62,0,0,1-.64.63.61.61,0,0,1-.64-.63V61.54a2,2,0,0,0-2.18-2.18,3.89,3.89,0,0,0-2.28.81v7s-.15.63-.52.63-.54-.63-.54-.63V55.12a.62.62,0,0,1,.64-.63.6.6,0,0,1,.63.63" fill-rule="evenodd"/>
      <path id="Fill-17" d="M93.78,63.47c-1.36,0-2.35.45-2.35,1.67s1,1.65,2.41,1.65a7,7,0,0,0,2-.3v-3Zm3.3-2.5v5.69a.76.76,0,0,1-.54.76,8.73,8.73,0,0,1-2.7.43c-2.21,0-3.69-.8-3.69-2.84s1.7-2.81,3.67-2.81h2V61c0-.94-.73-1.59-2-1.59a4,4,0,0,0-1.87.43,1.49,1.49,0,0,1-.64.2.59.59,0,0,1-.58-.58.57.57,0,0,1,.3-.51,5.67,5.67,0,0,1,2.73-.71c1.84,0,3.32.91,3.32,2.76Z" fill-rule="evenodd"/>
      <path id="Fill-19" d="M103.3,54.58a.6.6,0,0,1,.52.58.55.55,0,0,1-.58.53c-.24,0-.43-.09-.93-.09a1.38,1.38,0,0,0-1.41,1.24v1.53h2.29a.63.63,0,0,1,.63.64.65.65,0,0,1-.63.64H100.9v7.57c.1.39-.18.63-.54.63a.78.78,0,0,1-.73-.63V57a2.47,2.47,0,0,1,2.62-2.48,5.52,5.52,0,0,1,1,.09" fill-rule="evenodd"/>
      <path id="Fill-21" d="M107.28,55.19v3.18h2.24a.63.63,0,0,1,.63.64.65.65,0,0,1-.63.64h-2.24v5.57c0,1,.51,1.44,1.34,1.44.5,0,.67-.09.91-.09a.57.57,0,0,1,.62.59.59.59,0,0,1-.54.6,5.32,5.32,0,0,1-1,.09A2.46,2.46,0,0,1,106,65.2V55.12a.69.69,0,0,1,.69-.63.61.61,0,0,1,.64.63" fill-rule="evenodd"/>
      <path id="Fill-23" d="M117.19,58.71a.59.59,0,0,1,.37.54.57.57,0,0,1-.58.58,1.31,1.31,0,0,1-.45-.1,4.42,4.42,0,0,0-1.72-.35c-.84,0-1.7.47-1.7,1.34,0,.7.56,1.07,1.22,1.35l1.62.68a2.53,2.53,0,0,1,1.85,2.41,2.72,2.72,0,0,1-3,2.69,5.75,5.75,0,0,1-2.55-.56.56.56,0,0,1,.23-1.09,1.33,1.33,0,0,1,.42.13,5.2,5.2,0,0,0,1.84.35c1.1,0,1.85-.65,1.85-1.48,0-.65-.54-1.19-1.61-1.61L113.58,63a2.37,2.37,0,0,1-1.71-2.31,2.63,2.63,0,0,1,2.92-2.49,6.3,6.3,0,0,1,2.4.5" fill-rule="evenodd"/>
      <path id="Fill-25" d="M123.58,54.58a.6.6,0,0,1,.52.58.55.55,0,0,1-.58.53c-.24,0-.43-.09-.93-.09a1.2,1.2,0,0,0-1.29,1.24v1.53h2.17a.63.63,0,0,1,.63.64.65.65,0,0,1-.63.64H121.3v7.57a.63.63,0,0,1-.66.63.6.6,0,0,1-.62-.63V57a2.33,2.33,0,0,1,2.51-2.48,5.52,5.52,0,0,1,1,.09" fill-rule="evenodd"/>
      <path id="Fill-27" d="M131.43,55.69a.8.8,0,0,1-.8.8.81.81,0,0,1-.81-.8.8.8,0,0,1,.81-.79.79.79,0,0,1,.8.79m-4.82,6.08v2.6a2.34,2.34,0,0,0,4.67,0V61.71a2.34,2.34,0,0,0-4.67,0m1.53-6a.81.81,0,0,1-.81.8.8.8,0,0,1-.8-.8.79.79,0,0,1,.8-.79.8.8,0,0,1,.81.79m4.42,6.08v2.52a3.62,3.62,0,0,1-7.23,0V61.8a3.62,3.62,0,0,1,7.23,0" fill-rule="evenodd"/>
      <path id="Fill-29" d="M138.74,58.34a.61.61,0,0,1,.52.61.58.58,0,0,1-.62.57,11.32,11.32,0,0,0-1.18-.13,1.28,1.28,0,0,0-1.29,1.4v6.44a.61.61,0,0,1-.64.63.62.62,0,0,1-.64-.63V60.75a2.38,2.38,0,0,1,2.5-2.54,6.24,6.24,0,0,1,1.35.13" fill-rule="evenodd"/>
      <path id="Fill-31" d="M142.12,61.56v3a2,2,0,0,0,2.24,2.15,7.45,7.45,0,0,0,2.22-.32V60.15a3.6,3.6,0,0,0-2.22-.82,2,2,0,0,0-2.24,2.16m5.73-6.3V66.61a.78.78,0,0,1-.56.77,8.55,8.55,0,0,1-2.93.49c-2.1,0-3.52-1.13-3.52-3.41V61.61a3.15,3.15,0,0,1,3.39-3.42,4.24,4.24,0,0,1,2.35.74V55.12a.6.6,0,0,1,.63-.63.62.62,0,0,1,.64.63" fill-rule="evenodd"/>
      <path id="Fill-33" d="M151.25,61.77v.64h4.46V61.7a2.23,2.23,0,0,0-4.46,0m5.74-.11v1.11a.8.8,0,0,1-.83.8h-4.91v1a2,2,0,0,0,2.2,2.19,5.5,5.5,0,0,0,2.08-.43,1.38,1.38,0,0,1,.45-.11.59.59,0,0,1,.6.58.55.55,0,0,1-.36.53,7.69,7.69,0,0,1-2.77.6A3.22,3.22,0,0,1,150,64.42v-2.8a3.46,3.46,0,0,1,6.92,0" fill-rule="evenodd"/>
      <path id="Fill-35" d="M163.17,58.33a.62.62,0,0,1,.52.62.58.58,0,0,1-.62.57,11.32,11.32,0,0,0-1.18-.13,1.27,1.27,0,0,0-1.29,1.39v6.45a.61.61,0,0,1-.64.63.62.62,0,0,1-.64-.63V60.75a2.39,2.39,0,0,1,2.5-2.55,6.86,6.86,0,0,1,1.35.13" fill-rule="evenodd"/>
      <path id="Fill-37" d="M172.28,58.8v7.82a.77.77,0,0,1-.6.75,9,9,0,0,1-2.79.45c-2.26,0-3.4-1.2-3.4-3.26V58.84a.6.6,0,0,1,.63-.63.62.62,0,0,1,.64.63v5.71A2,2,0,0,0,169,66.71a8.17,8.17,0,0,0,2.22-.34V58.84a.62.62,0,0,1,.64-.63.6.6,0,0,1,.63.63" fill-rule="evenodd"/>
      <path id="Fill-39" d="M181.84,61.56v5.66s-.21.63-.56.63-.5-.63-.5-.63V61.53a2,2,0,0,0-2.23-2.17,7.87,7.87,0,0,0-2.23.34v7.52a.61.61,0,0,1-.64.63.62.62,0,0,1-.63-.63V59.46a.78.78,0,0,1,.63-.78,9.48,9.48,0,0,1,2.83-.47c2.28,0,3.46,1.23,3.46,3.32" fill-rule="evenodd"/>
      <path id="Fill-41" d="M185.45,61.56v3a2,2,0,0,0,2.24,2.15,3.58,3.58,0,0,0,2.23-.83V59.67a7.26,7.26,0,0,0-2.23-.34,2,2,0,0,0-2.24,2.16m5.18-2.79a.78.78,0,0,1,.56.76v8.88a3.37,3.37,0,0,1-3.61,3.54,6.46,6.46,0,0,1-2.84-.62.58.58,0,0,1-.32-.53.56.56,0,0,1,.61-.58.91.91,0,0,1,.36.08,5.09,5.09,0,0,0,2.19.48,2.16,2.16,0,0,0,2.34-2.33V67.11a4.14,4.14,0,0,1-2.33.74,3.1,3.1,0,0,1-3.41-3.39V61.61a3.14,3.14,0,0,1,3.48-3.4,8.38,8.38,0,0,1,2.9.49" fill-rule="evenodd"/>
      <path id="Fill-43" d="M35.68,83.23v4.88h2.54a2.33,2.33,0,0,0,2.56-2.44A2.53,2.53,0,0,0,38,83.23Zm0-5.74V82h2.26a2.28,2.28,0,0,0,2.51-2.21,2.13,2.13,0,0,0-2.31-2.25Zm2.48-1.27a3.26,3.26,0,0,1,3.6,3.42A3,3,0,0,1,40,82.39a3.36,3.36,0,0,1,2.16,3.16c0,2.2-1.43,3.63-3.88,3.63h-3a.8.8,0,0,1-.82-.8V77a.79.79,0,0,1,.82-.79Z" fill-rule="evenodd"/>
      <path id="Fill-45" d="M48.24,80a.6.6,0,0,1,.52.61.58.58,0,0,1-.62.57A11.32,11.32,0,0,0,47,81a1.28,1.28,0,0,0-1.29,1.4v6.44a.61.61,0,0,1-.64.63.62.62,0,0,1-.64-.63V82.38a2.38,2.38,0,0,1,2.5-2.54,6.18,6.18,0,0,1,1.35.13" fill-rule="evenodd"/>
      <path id="Fill-47" d="M53.85,84.93c-1.37,0-2.36.44-2.36,1.67s1,1.64,2.41,1.64a7.45,7.45,0,0,0,2-.29v-3Zm3.29-2.29v5.69a.76.76,0,0,1-.54.76,8.68,8.68,0,0,1-2.7.43c-2.22,0-3.7-.8-3.7-2.84s1.71-2.81,3.68-2.81h2V82.64c0-.94-.74-1.59-2-1.59a4.05,4.05,0,0,0-1.88.43,1.41,1.41,0,0,1-.63.2.58.58,0,0,1-.29-1.09,5.74,5.74,0,0,1,2.74-.71c1.84,0,3.32.91,3.32,2.76Z" fill-rule="evenodd"/>
      <path id="Fill-49" d="M66.49,83.23v5.62a.62.62,0,0,1-.64.63.61.61,0,0,1-.64-.63V83.17A2,2,0,0,0,63,81a8.24,8.24,0,0,0-2.23.34v7.52s-.14.63-.51.63-.55-.63-.55-.63V81.09a.79.79,0,0,1,.63-.78,9.48,9.48,0,0,1,2.83-.46c2.28,0,3.46,1.22,3.46,3.31" fill-rule="evenodd"/>
      <path id="Fill-51" d="M69.89,83.23v3a2,2,0,0,0,2.24,2.14,7.45,7.45,0,0,0,2.22-.32V81.79A3.58,3.58,0,0,0,72.13,81a2,2,0,0,0-2.24,2.16m5.73-6.27v11.4a.77.77,0,0,1-.56.76,8.55,8.55,0,0,1-2.93.49c-2.1,0-3.52-1.12-3.52-3.41V83.24A3.14,3.14,0,0,1,72,79.83a4.23,4.23,0,0,1,2.35.73V76.75a.6.6,0,0,1,.63-.63.62.62,0,0,1,.64.63" fill-rule="evenodd"/>
      <path id="Fill-53" d="M79,83.23v.64h4.46v-.71a2.23,2.23,0,0,0-4.46,0m5.74.11v1.11a.8.8,0,0,1-.83.8h-4.7v1a2,2,0,0,0,2.2,2.19,5.5,5.5,0,0,0,2.08-.43,1.44,1.44,0,0,1,.45-.11.58.58,0,0,1,.6.57.54.54,0,0,1-.36.54,7.6,7.6,0,0,1-2.77.6A3.23,3.23,0,0,1,78,86.08V83.26a3.46,3.46,0,0,1,6.92,0" fill-rule="evenodd"/>
      <path id="Fill-55" d="M93.68,83.23v5.62a.62.62,0,0,1-.64.63.6.6,0,0,1-.63-.63V83.17A2,2,0,0,0,90.18,81a8.31,8.31,0,0,0-2.24.34v7.52a.6.6,0,0,1-.63.63.62.62,0,0,1-.64-.63V81.09a.79.79,0,0,1,.63-.78,9.48,9.48,0,0,1,2.83-.46c2.28,0,3.46,1.22,3.46,3.31" fill-rule="evenodd"/>
      <path id="Fill-57" d="M97.5,81.74v6.33a7.58,7.58,0,0,0,2.24.32A2,2,0,0,0,102,86.21V83.12a2,2,0,0,0-2.23-2.18,3.56,3.56,0,0,0-2.24.83m0-4.92v3.7a4.33,4.33,0,0,1,2.34-.73,3.14,3.14,0,0,1,3.4,3.43v2.82a3.16,3.16,0,0,1-3.51,3.43,8.57,8.57,0,0,1-3-.48.79.79,0,0,1-.55-.77V76.75a.62.62,0,0,1,.63-.63.61.61,0,0,1,.64.63" fill-rule="evenodd"/>
      <path id="Fill-59" d="M112.37,80.47v7.78a.77.77,0,0,1-.6.75,9,9,0,0,1-2.78.46c-2.27,0-3.41-1.21-3.41-3.27V80.48s.18-.63.56-.63.5.63.5.63v5.7a2,2,0,0,0,2.24,2.16A7.85,7.85,0,0,0,111.1,88V80.48a.62.62,0,0,1,.64-.63.6.6,0,0,1,.63.63" fill-rule="evenodd"/>
      <path id="Fill-61" d="M118.77,80a.6.6,0,0,1,.52.61.58.58,0,0,1-.62.57,11.32,11.32,0,0,0-1.18-.13,1.28,1.28,0,0,0-1.29,1.4v6.44a.61.61,0,0,1-.64.63.62.62,0,0,1-.64-.63V82.38a2.38,2.38,0,0,1,2.5-2.54,6.18,6.18,0,0,1,1.35.13" fill-rule="evenodd"/>
      <path id="Fill-63" d="M122.15,83.23v3a2,2,0,0,0,2.24,2.14,3.56,3.56,0,0,0,2.22-.83V81.3a7.16,7.16,0,0,0-2.22-.34,2,2,0,0,0-2.24,2.16m5.17-2.79a.79.79,0,0,1,.56.76V90a3.37,3.37,0,0,1-3.61,3.53,6.49,6.49,0,0,1-2.84-.62.58.58,0,0,1-.31-.52.56.56,0,0,1,.6-.59.91.91,0,0,1,.36.08,5.1,5.1,0,0,0,2.19.49A2.16,2.16,0,0,0,126.61,90V88.74a4.13,4.13,0,0,1-2.33.75,3.11,3.11,0,0,1-3.41-3.4V83.24a3.14,3.14,0,0,1,3.48-3.39,8.37,8.37,0,0,1,2.9.48" fill-rule="evenodd"/>
      <path id="Fill-65" d="M160.47,77.26a1.86,1.86,0,0,1-.08.45l-2.64,10.77a1.21,1.21,0,0,1-1.21,1,1.2,1.2,0,0,1-1.22-1l-1.87-8-1.87,8a1.23,1.23,0,0,1-2.42,0l-2.64-10.77a1.83,1.83,0,0,1-.07-.45.9.9,0,0,1,.93-.87.92.92,0,0,1,.92.67l2,8.5,1.87-8.15a1.25,1.25,0,0,1,2.46,0l1.88,8.15,2-8.5a.91.91,0,0,1,.91-.67.93.93,0,0,1,1,.87" fill-rule="evenodd"/>
      <path id="Fill-67" d="M169.42,76.43a1,1,0,0,1,0,1.91h-4.57v3.4h4.55a1,1,0,1,1,0,1.91h-4.55v5.23a1,1,0,1,1-1.91,0V77.58a1.15,1.15,0,0,1,1.14-1.15Z" fill-rule="evenodd"/>
      <path id="Fill-69" d="M174.62,83.65v3.83h2.14a1.88,1.88,0,0,0,2.11-1.92,2,2,0,0,0-2.19-1.91Zm0-5.31v3.4h1.94a1.73,1.73,0,0,0,2-1.69,1.66,1.66,0,0,0-1.85-1.71Zm2.11-1.7c2.4,0,3.84,1.31,3.84,3.49a3,3,0,0,1-1.44,2.57,3.3,3.3,0,0,1,1.8,3c0,2.29-1.45,3.69-4.09,3.69h-3a1.11,1.11,0,0,1-1.15-1.11V77.75a1.11,1.11,0,0,1,1.15-1.11Z" fill-rule="evenodd"/>
      <path id="Fill-71" d="M185.45,83.65v3.83h2.15a1.88,1.88,0,0,0,2.11-1.92,2,2,0,0,0-2.2-1.91Zm0-5.31v3.4h2a1.72,1.72,0,0,0,1.95-1.69,1.66,1.66,0,0,0-1.85-1.71Zm2.11-1.7c2.41,0,3.84,1.31,3.84,3.49A3,3,0,0,1,190,82.7a3.32,3.32,0,0,1,1.8,3c0,2.29-1.45,3.69-4.1,3.69h-3a1.12,1.12,0,0,1-1.16-1.11V77.75a1.12,1.12,0,0,1,1.16-1.11Z" fill-rule="evenodd"/>
    </g>
  </g>
</svg>
