<svg xmlns="http://www.w3.org/2000/svg" viewBox="0 0 225 148">
  <title>logo-innogy</title>
  <g id="box">
    <rect width="225" height="148" fill="#fff"/>
  </g>
  <g id="innogy">
    <g>
      <path d="M122.3,41.5a2.73,2.73,0,0,0-2-.73c-1.8,0-4.41,1.1-7.9,2.66l-.93.44c-1.25.59-3.58,1.7-4.34,1.94a7.65,7.65,0,0,1-2,.45,1,1,0,0,1-1-1.09,3.92,3.92,0,0,1,.14-1,15.88,15.88,0,0,1,2.16-4.75c.18-.29.32-.5.1-.72a.38.38,0,0,0-.3-.11c-.08,0-.27,0-1,.87a18.29,18.29,0,0,0-1.79,2.32c-1.68,2.65-1.86,5.08-.47,6.35a3.12,3.12,0,0,0,2.2.74c2.16,0,5.23-1.37,8.48-2.82h0c1.71-.76,3.33-1.49,4.7-2a13,13,0,0,1,1.6-.45h0a.34.34,0,0,1,.32.07c.06.06.06.17,0,.3-.27.8-1.32,2.69-5.33,6.39l-.42.39a7.59,7.59,0,0,1,2.67,1.36,28.78,28.78,0,0,0,5.15-5.93,5,5,0,0,0,.84-2.62,2.76,2.76,0,0,0-.82-2.06"/>
      <path d="M163.07,104.35a2.55,2.55,0,0,0-2.38,1.38L156,116.47l-5.12-10.74a2.42,2.42,0,0,0-2.37-1.38c-.88,0-1.5.25-1.5,1a2,2,0,0,0,.25.63l6.62,13.36c.12.38.25.5,0,.88-.88,1.5-1.75,2.75-3.38,2.75-1,0-1.37-.75-2.12-.75s-1.37.87-1.37,1.87,1.37,2.12,3.49,2.12c3.63,0,5.5-3.12,7.12-6.49l6.74-14c.38-.88,0-1.38-1.24-1.38m-20.23-.12h-.25a1.83,1.83,0,0,0-1.75,1.5,7.94,7.94,0,0,0-5.25-1.88,8.16,8.16,0,0,0-8.24,8.25,7.87,7.87,0,0,0,8.24,8,9.71,9.71,0,0,0,5.12-1.5c-.12,3.13-1.74,4.75-5.12,4.75a6.49,6.49,0,0,1-4.74-1.87c-.13-.13-.25-.38-.63-.38A1.8,1.8,0,0,0,128.6,123c0,1.62,3.25,3.24,6.87,3.24,5.87,0,8.37-3.49,8.37-9.11V105.23c0-.63-.25-1-1-1M97,103.85a10.34,10.34,0,0,0-6.24,2c-.13-1-.5-1.62-1.88-1.62h-.37c-.63,0-.88.37-.88,1V119c0,.87.63,1.25,1.63,1.25s1.5-.38,1.5-1.25v-8.75a2,2,0,0,1,.87-1.62,7.83,7.83,0,0,1,4.62-1.75c3,0,4.5,1.63,4.5,4.5V119c0,.87.49,1.25,1.49,1.25s1.63-.38,1.63-1.25v-7.75c0-4.87-2.25-7.37-6.87-7.37m-19.48,0a11.07,11.07,0,0,0-6.37,2c-.12-1.12-.62-1.62-1.75-1.62H69c-.63,0-1,.25-1,1V119c0,.87.62,1.25,1.62,1.25s1.5-.38,1.5-1.25v-8.75a1.8,1.8,0,0,1,1-1.62,7.77,7.77,0,0,1,4.5-1.75c3.12,0,4.49,1.63,4.49,4.5V119c0,1,.62,1.25,1.62,1.25s1.5-.38,1.5-1.25v-7.75c0-4.74-2.25-7.37-6.74-7.37m35-67.82a5.53,5.53,0,0,1-5.62-5.62,5.46,5.46,0,0,1,5.62-5.63,5.63,5.63,0,1,1,0,11.25m0,3a8.8,8.8,0,0,0,8.62-8.61,8.56,8.56,0,1,0-17.11,0A8.77,8.77,0,0,0,112.49,39m0,50A4.43,4.43,0,0,1,108,84.37V58a4.62,4.62,0,0,1,4.49-4.75A4.49,4.49,0,0,1,117.11,58V84.37A4.46,4.46,0,0,1,112.49,89m0,3a7.73,7.73,0,0,0,7.62-7.62V58A7.56,7.56,0,1,0,105,58V84.37A7.7,7.7,0,0,0,112.49,92M62.67,120.22c1.12,0,1.75-.5,1.75-1.63V106a1.58,1.58,0,0,0-1.75-1.75c-1,0-1.5.75-1.5,1.75v12.61c0,1,.5,1.63,1.5,1.63m0-19.11a2.17,2.17,0,0,0,2.25-2.25,2.31,2.31,0,0,0-2.25-2.13,2.39,2.39,0,0,0-2.12,2.13,2.3,2.3,0,0,0,2.12,2.25m52.94,19.48c5,0,8.87-3.49,8.87-8.24,0-5-3.87-8.5-8.87-8.5s-9,3.5-9,8.5,3.87,8.24,9,8.24m0-2.87c-3.49,0-5.74-2.25-5.74-5.37a5.75,5.75,0,0,1,11.49,0c0,3.12-2.25,5.37-5.75,5.37m20.36-.5c-3.5,0-5.5-2.12-5.5-5.12a5.15,5.15,0,0,1,5.5-5.37,5.94,5.94,0,0,1,4.12,1.75,1.91,1.91,0,0,1,.75,1.37v4.37a2.09,2.09,0,0,1-.75,1.5,6,6,0,0,1-4.12,1.5"/>
    </g>
  </g>
</svg>
