<svg xmlns="http://www.w3.org/2000/svg" viewBox="0 0 225 148">
  <title>logo-audi</title>
  <g id="box">
    <rect width="225" height="148" fill="#fff"/>
  </g>
  <g id="audi">
    <path id="Pfad_23778" data-name="Pfad 23778" d="M109.62,108.15a12.39,12.39,0,0,1-6.41-1.62,5.58,5.58,0,0,1-2.92-4.86V92.88h5.88v8.22a3.46,3.46,0,0,0,6.9,0V92.88h5.82v8.79a5.56,5.56,0,0,1-2.9,4.86A12.24,12.24,0,0,1,109.62,108.15Zm22.37-.34c-3.93,0-7.57-1.31-9.74-3.51a5.81,5.81,0,0,1-1.84-4.15,6.52,6.52,0,0,1,.91-3.42,7.24,7.24,0,0,1,2.48-2.41A16,16,0,0,1,132,92.43h1.14l-4.62-5.12h7.09c.37.45.79.94,1.24,1.46l.07.08c2.81,3.28,6.66,7.77,6.66,11.24,0,4.26-5.19,7.72-11.58,7.72ZM132,96c-3.07,0-5.57,1.79-5.57,4s2.55,4,5.57,4a6.71,6.71,0,0,0,3.89-1.16,3.28,3.28,0,0,0,0-5.65A6.64,6.64,0,0,0,132,96ZM77.38,107.75H70.55L82,90.35l-2.09-2.53h7.78l13.8,19.93H94.28l-2-3.1h-13Zm8.29-13.67h0l-3.92,6.52h8Zm65.68,13.67H145V92.88h6.39ZM76.58,79.4H76.3A19.68,19.68,0,0,1,58.5,51.9a19.67,19.67,0,0,1,4.27-6.18A19.69,19.69,0,0,1,76.64,40h.23a19.62,19.62,0,0,1,11.65,4.05A19.61,19.61,0,0,1,100.46,40h.27a19.61,19.61,0,0,1,11.71,4.05,19.73,19.73,0,0,1,12-4.12h.26A19.89,19.89,0,0,1,136.42,44a19.67,19.67,0,0,1,12-4.17h.27a19.3,19.3,0,0,1,7.62,1.65,19.77,19.77,0,0,1,10.34,10.65,19.53,19.53,0,0,1,1.46,7.7,19.29,19.29,0,0,1-1.62,7.56,19.69,19.69,0,0,1-4.26,6.18A20,20,0,0,1,156,77.75a19.56,19.56,0,0,1-7.62,1.52h-.23a19.83,19.83,0,0,1-11.71-4,19.73,19.73,0,0,1-12,4.12h-.26a19.6,19.6,0,0,1-11.7-4,19.75,19.75,0,0,1-12,4.11h-.27a19.59,19.59,0,0,1-6.25-1.12,19.92,19.92,0,0,1-5.4-2.93A19.58,19.58,0,0,1,76.58,79.4Zm12-7h0a17.65,17.65,0,0,0,11.7,4.68h.45a16.86,16.86,0,0,0,6.38-1.28,18.13,18.13,0,0,0,5.46-3.48,17.17,17.17,0,0,0,11.7,4.75h.24A16.78,16.78,0,0,0,131,75.83a19,19,0,0,0,5.48-3.52,17.43,17.43,0,0,0,11.71,4.74h.24a18,18,0,0,0,12.84-5.44,16,16,0,0,0,4.64-11.76,21.88,21.88,0,0,0-1.53-7.62,15.84,15.84,0,0,0-3.7-5.44,18.33,18.33,0,0,0-12-4.66,12.77,12.77,0,0,1-.88-1.52,18.76,18.76,0,0,0-11.2,4.18l.12,2.47a18.87,18.87,0,0,0-5.54-3.68,17.2,17.2,0,0,0-6.55-1.45h-.06a8.27,8.27,0,0,0-.82-1.52,18.78,18.78,0,0,0-11.2,4.18l.12,2.34a17.84,17.84,0,0,0-12-5,5.9,5.9,0,0,0-.68-1.2c-.07-.11-.14-.21-.2-.32a18.68,18.68,0,0,0-6,1.17,19.32,19.32,0,0,0-5.17,2.94l.13,2.47a17.5,17.5,0,0,0-12-5h-.07A7.71,7.71,0,0,0,76,40.67,19,19,0,0,0,57.64,59.4a19.63,19.63,0,0,0,1.14,6.71,10.76,10.76,0,0,0,1.77.31,17.44,17.44,0,0,0,15.82,10.7h.29a17.21,17.21,0,0,0,10.15-3.29,13.82,13.82,0,0,0,1.71-1.34l.06,0ZM73,75.73h0A16.47,16.47,0,0,1,76.64,43.2h.23a16.54,16.54,0,0,1,11.27,4.62h0l-.9,0c-.49,0-1,0-1.58,0a18.7,18.7,0,0,0-4.12,11.51,19.63,19.63,0,0,0,1.14,6.71,11,11,0,0,0,1.77.32,18.24,18.24,0,0,0,3.68,5.5l-2.28-.06A15,15,0,0,1,76.71,75h-.28a17.47,17.47,0,0,1-2.6-.25,6.53,6.53,0,0,0-.58.7l-.24.31ZM76.58,45.1a14.38,14.38,0,0,0-10.15,4.19,14.46,14.46,0,0,0-.19,20.39,14.41,14.41,0,0,0,10.19,4.4h.44a14.18,14.18,0,0,0,8-2.54,19.37,19.37,0,0,1-3-5.63,19.61,19.61,0,0,1-1-6.58,19.89,19.89,0,0,1,4-11.7,14,14,0,0,0-8-2.54Zm68.25,30.57h0a16.85,16.85,0,0,1-7.65-4,16.64,16.64,0,0,0,3.46-5.44,18.09,18.09,0,0,0,1.28-6.33,17.39,17.39,0,0,0-1.22-6.58,17.18,17.18,0,0,0-3.59-5.63,16.41,16.41,0,0,1,11.29-4.5h.35a16.52,16.52,0,0,1,9.8,3.5,14.56,14.56,0,0,1,5.33,7,3.26,3.26,0,0,0-.89,1.27,15.57,15.57,0,0,1,.76,4.93A15.3,15.3,0,0,1,148.48,74.9h-.23a17.34,17.34,0,0,1-2.59-.25c-.17.23-.35.46-.54.67a4.19,4.19,0,0,0-.28.34ZM148.63,45a15.88,15.88,0,0,0-8.54,2.53,19.9,19.9,0,0,1,3,5.68,19.57,19.57,0,0,1,1,6.53A20.13,20.13,0,0,1,143.05,66a19,19,0,0,1-2.9,5.4,15.06,15.06,0,0,0,8.1,2.6h.23a14.47,14.47,0,0,0,10.34-24.58,14.47,14.47,0,0,0-10.19-4.4ZM120.85,75.67h0a16.18,16.18,0,0,1-7.59-4A17.78,17.78,0,0,0,118,59.85a17.42,17.42,0,0,0-4.81-12.21,16.17,16.17,0,0,1,11.28-4.5h.24A16.6,16.6,0,0,1,136,47.82h-2.47a18.88,18.88,0,0,0-3,18.23,11.7,11.7,0,0,0,1.77.31,18.39,18.39,0,0,0,3.6,5.38l-2.08.06a16.59,16.59,0,0,1-9.32,3.1h-.24a17.47,17.47,0,0,1-2.6-.25,6.73,6.73,0,0,0-.59.71h0l0,0-.2.26Zm3.44-30.57a14.17,14.17,0,0,0-8.18,2.6,19.32,19.32,0,0,1,3,5.62,19.57,19.57,0,0,1,1,6.53,20.13,20.13,0,0,1-1.09,6.25,19.56,19.56,0,0,1-2.9,5.4,15.08,15.08,0,0,0,8.1,2.59h.22a15.2,15.2,0,0,0,8.19-2.53,19.9,19.9,0,0,1-3-5.68,19.67,19.67,0,0,1-1-6.54,20.12,20.12,0,0,1,1.09-6.24,19,19,0,0,1,2.9-5.4,14.57,14.57,0,0,0-8-2.6ZM96.87,75.6h0a16.59,16.59,0,0,1-7.59-4,17.54,17.54,0,0,0,4.81-11.76,17.13,17.13,0,0,0-4.81-12.21,16.14,16.14,0,0,1,11.22-4.5h.23a16.16,16.16,0,0,1,6.1,1.26,17.92,17.92,0,0,1,5.1,3.36l-2.34.06a18.66,18.66,0,0,0-4.11,11.52,19.71,19.71,0,0,0,1.13,6.71,11.83,11.83,0,0,0,1.78.31,17.28,17.28,0,0,0,3.6,5.38h-2.21a15.16,15.16,0,0,1-9.23,3.1h-.26a17.48,17.48,0,0,1-2.6-.26q-.31.35-.6.72l-.22.3Zm3.6-1.45h.11a15.56,15.56,0,0,0,8.25-2.6,19.73,19.73,0,0,1-2.89-18.4,19.27,19.27,0,0,1,2.89-5.4,14.42,14.42,0,0,0-16.52,0,19.22,19.22,0,0,1,3,5.64,19.73,19.73,0,0,1-.1,12.83,20,20,0,0,1-2.93,5.39,14.55,14.55,0,0,0,8,2.53h.12Zm36.2-3h0a16.44,16.44,0,0,1-.19-22.78,12.94,12.94,0,0,1,3.42,5.31,3.33,3.33,0,0,0-.89,1.27,15.89,15.89,0,0,1,.77,4.94,14.92,14.92,0,0,1-3.1,9.24v2Zm-.19-19.75h0a14.49,14.49,0,0,0-2.53,8,14.33,14.33,0,0,0,2.53,8.41,15,15,0,0,0,2.53-8A14.18,14.18,0,0,0,136.48,51.36ZM88.58,71h0a7.91,7.91,0,0,1-.91-1c-.12-.15-.26-.33-.41-.5C85.07,67,84,62.42,84,59.4a17,17,0,0,1,4.55-11.07A12.74,12.74,0,0,1,92,53.58a3.26,3.26,0,0,0-.89,1.27,15.86,15.86,0,0,1,.76,4.93,14.42,14.42,0,0,1-3.22,9.12L88.58,71Zm0-19.55h0a14.61,14.61,0,0,0-2.6,8,14.87,14.87,0,0,0,2.6,8.42,14.3,14.3,0,0,0,0-16.45Zm24,19.55h0a16.44,16.44,0,0,1-.06-22.65,15.24,15.24,0,0,1,3.42,5.31,3.22,3.22,0,0,0-.89,1.27,15.86,15.86,0,0,1,.76,4.93A17.59,17.59,0,0,1,112.63,69l-.06,2Zm-.06-19.49h0a14.45,14.45,0,0,0-2.53,8,14.22,14.22,0,0,0,2.53,8.35,14.45,14.45,0,0,0,2.53-8A14.71,14.71,0,0,0,112.5,51.49Z"/>
  </g>
</svg>
