<svg xmlns="http://www.w3.org/2000/svg" viewBox="0 0 225 148">
  <title>logo-vattenfall</title>
  <g id="box">
    <rect width="225" height="148" fill="#fff"/>
  </g>
  <g id="vattenfall">
    <g>
      <g id="Group-33">
        <path id="Fill-1" d="M182.2,61.4A12.6,12.6,0,0,0,169.6,74h25.21A12.61,12.61,0,0,0,182.2,61.4" fill-rule="evenodd"/>
        <path id="Fill-3" d="M182.2,86.6A12.6,12.6,0,0,1,169.6,74h25.21A12.61,12.61,0,0,1,182.2,86.6" fill-rule="evenodd"/>
      </g>
      <polygon id="Fill-5" points="68.9 67.26 57.28 67.26 57.28 70.28 61.23 70.28 61.23 81.67 64.95 81.67 64.95 70.28 68.9 70.28 68.9 67.26" fill-rule="evenodd"/>
      <polygon id="Fill-7" points="70.06 67.26 70.06 70.28 74.02 70.28 74.02 81.67 77.74 81.67 77.74 70.28 81.69 70.28 81.69 67.26 70.06 67.26" fill-rule="evenodd"/>
      <polygon id="Fill-9" points="110.52 81.67 110.52 67.26 106.8 67.26 106.8 75.88 100.39 67.26 96.8 67.26 96.8 81.67 100.52 81.67 100.52 73.15 106.92 81.67 110.52 81.67" fill-rule="evenodd"/>
      <polygon id="Fill-11" points="83.55 81.67 87.27 81.67 94.24 81.67 94.24 78.65 87.27 78.65 87.27 75.63 93.31 75.63 93.31 72.61 87.27 72.61 87.27 70.28 94.24 70.28 94.24 67.26 83.55 67.26 83.55 81.67" fill-rule="evenodd"/>
      <polygon id="Fill-13" points="113.31 81.67 117.26 81.67 117.26 75.63 123.3 75.63 123.3 72.61 117.26 72.61 117.26 70.28 124.23 70.28 124.23 67.26 113.31 67.26 113.31 81.67" fill-rule="evenodd"/>
      <polygon id="Fill-15" points="42.03 67.26 37.98 77.25 37.95 77.25 33.9 67.26 30.2 67.26 36.11 81.67 39.82 81.67 45.74 67.26 42.03 67.26" fill-rule="evenodd"/>
      <polygon id="Fill-17" points="151.9 81.67 162.36 81.67 162.36 78.42 155.62 78.42 155.62 67.26 151.9 67.26 151.9 81.67" fill-rule="evenodd"/>
      <polygon id="Fill-19" points="140.04 81.67 150.5 81.67 150.5 78.42 143.76 78.42 143.76 67.26 140.04 67.26 140.04 81.67" fill-rule="evenodd"/>
      <path id="Fill-21" d="M129,76.09l1.95-4.88h0l2,4.88Zm6.15,5.58h3.67l-6-14.41h-3.69l-6,14.41h3.68l1-2.56h6.31Z" fill-rule="evenodd"/>
      <path id="Fill-23" d="M49.16,76.09l2-4.88h0l2,4.88Zm6.15,5.58H59L53,67.26h-3.7l-6,14.41H47l1-2.56h6.3Z" fill-rule="evenodd"/>
    </g>
  </g>
</svg>
