<svg xmlns="http://www.w3.org/2000/svg" viewBox="0 0 225 148">
  <title>logo-daimler</title>
  <g id="box">
    <rect width="225" height="148" fill="#fff"/>
  </g>
  <g id="daimler">
    <g>
      <path d="M44.15,64H38.41c-4.08,0-4.19.26-4,1.48h1.37c1.27,0,1.55.17,1.55,1.27V80.14c0,1.9-.53,2.09-3.57,2.26a2.31,2.31,0,0,0,0,1.11H44.42c8.1,0,11.45-3.91,11.45-9.76C55.87,67.69,52.32,64,44.15,64Zm0,18c-2.64,0-3.26-.28-3.26-2h0V65.68H43.8c5.44,0,8.28,3.17,8.28,8.62C52.08,80.4,49,82,44.14,82Z"/>
      <path d="M78.91,82.24c-1.45,0-1.76-.25-2.07-1L70.29,66.31a7.13,7.13,0,0,1-.74-2.09l-1.11,0c-1.33,0-1.7.46-2.64,2.64l-5.61,13.3c-.77,1.81-1,2-3.21,2.26a2.59,2.59,0,0,0,0,1.11h8.11c.71,0,.91-.46.71-1.28H63.37c-1.56,0-1.56-.42-.91-2.1L63.62,77h7.32l1.78,4.28c.32.74,0,1-3.09,1.08a2.59,2.59,0,0,0,0,1.11h9.19c.74,0,.91-.45.74-1.27ZM64.24,75.49l3-7.38,3.09,7.38Z"/>
      <path d="M89.39,82.24c-1.19,0-1.48-.2-1.48-1.19V67.57c0-1.19.37-1.72,2.83-1.9a2.27,2.27,0,0,0,0-1.1H82.65c-1.19,0-1.36.54-1.19,1.27h1.36c1.3,0,1.56.18,1.56,1.2V80.59c0,1.16-.55,1.45-2.81,1.81a1.62,1.62,0,0,0,0,1.11h8.61c.85,0,.93-.45.74-1.27Z"/>
      <path d="M122.09,80.92l-1.36-13.83c-.09-.82.08-1.28,2.71-1.45a1.73,1.73,0,0,0,0-1.1l-6.74,0-6.55,13.64L103,64.57H97.31c-1.19,0-1.36.62-1.19,1.27,2.81.08,3,.4,2.9,1.31L97.85,80.47c-.08,1.19-.34,1.76-3.45,1.93a2.27,2.27,0,0,0,0,1.1h9.3c.79,0,.91-.45.7-1.27h-1.52c-3,0-3-.28-2.92-1.4l.91-12.73,7.83,15.47c.65,0,.88-.17,1.39-1.19l6.81-14.29,1.28,12.36c.14,1.38-.26,1.7-2.64,1.84l-1.53.08a1.87,1.87,0,0,0,0,1.1h10c.79,0,.88-.45.79-1.27C122.63,81.91,122.18,81.83,122.09,80.92Z"/>
      <path d="M143.07,77.21H143L142.18,79c-1.2,2.56-1.48,2.7-3.58,2.7h-1.82c-.8,0-1.29-.26-1.29-1.19V67.94c0-1.84.57-2.09,3.54-2.27a2.27,2.27,0,0,0,0-1.1h-8.77c-1.19,0-1.36.54-1.19,1.27h1.35c1.2,0,1.56.18,1.56,1.2V80c0,1.85-.62,2.21-3.37,2.38a2.77,2.77,0,0,0,0,1.11h13.83a39.56,39.56,0,0,1,1.47-5.1C144.21,77.56,143.83,77.21,143.07,77.21Z"/>
      <path d="M163,77.21h-.09L162.1,79c-1.19,2.55-1.47,2.7-3.58,2.7h-2.43c-1.93,0-2.19-.43-2.19-1.45v-5h3c.74,0,1.1.25,1.47,2.47a1.43,1.43,0,0,0,1,0c-.09-1.84-.09-3.8,0-5.58.06-.88-.25-1.07-.82-1.07h-.34L158,72.49c-.09.74-.26,1-1.11,1h-3V66.23h4.54c1.56,0,2.15.45,2.63,2.18l.38,1.28h.19c.76,0,1-.48.91-1.29-.19-1.21-.36-2.54-.45-3.82l-13.48,0c-1.25,0-1.36.54-1.25,1.27h1.36c1.27,0,1.52.18,1.52,1.2v13.1c0,1.9-.54,2.1-3.54,2.26a1.76,1.76,0,0,0,0,1.11h15.64a40.23,40.23,0,0,1,1.48-5.1C164.11,77.59,163.75,77.21,163,77.21Z"/>
      <path d="M191.26,82.27c-2.47,0-3.71-.25-7.45-3.26-1.07-.88-3.21-2.83-3.21-2.83a5.75,5.75,0,0,0,3.84-5.3c0-3.88-3-6.46-8.46-6.46-4,0-5.67,0-7,.11l0,0c-1.16.09-1.36.63-1.16,1.37h1.36c1.16,0,1.56.17,1.56,1.28v13.1c0,1.73-.57,2-3,2.18a2.76,2.76,0,0,0,0,1.11h8.93c.82,0,.91-.45.82-1.27H176c-1.48,0-1.73-.28-1.73-1.1V77h1.9c1.73,0,1.78.1,2.49,1.37a12.86,12.86,0,0,0,2.7,3.26A8.69,8.69,0,0,0,187.79,84C190.8,84,191.51,83.26,191.26,82.27Zm-15.63-6.91h-1.36v-9.3h1c3.21,0,5.47,1.19,5.47,5S178.44,75.36,175.63,75.36Z"/>
    </g>
  </g>
</svg>
