<svg xmlns="http://www.w3.org/2000/svg" viewBox="0 0 225 148">
  <title>logo-tuev</title>
  <g id="box">
    <rect width="225" height="148" fill="#fff"/>
  </g>
  <g id="tuev">
    <g id="g6">
      <path id="path8" d="M72.62,92.42l-1.06,4.75a12.11,12.11,0,0,1-3.51,6.61,8.61,8.61,0,0,1-5.87,2.11q-3.41,0-4.91-2.11t-.54-6.61l1.05-4.75H63.6l-.9,4a7,7,0,0,0-.26,2.12c0,.58.43.88,1.17.91a1.74,1.74,0,0,0,1.59-.91,7.23,7.23,0,0,0,.69-2.12l.9-4h5.79"/>
      <path id="path10" d="M126.7,105h6.53l1.45-6.28h.12l1.35,6.28h7.56l-2.39-6.46a3,3,0,0,0-.4-.7c-.15-.19-.29-.35-.42-.49l0-.16A6.19,6.19,0,0,0,145.21,92a6.6,6.6,0,0,0-.1-4,4.19,4.19,0,0,0-2.19-2.21,8.51,8.51,0,0,0-3.58-.67h-7.9L126.81,105m9.76-14.4h.51a2.51,2.51,0,0,1,1.41.28q.54.33.3,1.44a1.93,1.93,0,0,1-1,1.4,3.46,3.46,0,0,1-1.55.28h-.45Z" fill-rule="evenodd"/>
      <path id="path12" d="M90.36,105h6.12l1.45-6.47a19.37,19.37,0,0,0,.31-2c.07-.66.12-1.33.17-2h.19L102,105h6.22l4.41-19.87h-6.22L105.11,91a20,20,0,0,0-.41,2.54c-.08.84-.14,1.68-.19,2.51h-.2l-3.38-11H94.68L90.26,105"/>
      <path id="path14" d="M122.25,84.57a9.62,9.62,0,0,0-4.76,1.33,12.82,12.82,0,0,0-4,3.69A15.75,15.75,0,0,0,111,95.23a11.9,11.9,0,0,0,0,5.66,6.44,6.44,0,0,0,2.38,3.61,6.94,6.94,0,0,0,4.18,1.27,9.84,9.84,0,0,0,4.76-1.27,12.13,12.13,0,0,0,4-3.61,15.47,15.47,0,0,0,2.48-5.66,11.93,11.93,0,0,0,0-5.64,6.45,6.45,0,0,0-6.52-5m-1.51,6.76a2,2,0,0,1,1.93,1.18,4.51,4.51,0,0,1,.18,2.82,5.92,5.92,0,0,1-1.48,2.86,3.4,3.4,0,0,1-2.4,1.1,2.08,2.08,0,0,1-1.92-1.1,4.16,4.16,0,0,1-.19-2.86,6.09,6.09,0,0,1,1.42-2.82A3.4,3.4,0,0,1,120.74,91.33Z" fill-rule="evenodd"/>
      <path id="path16" d="M143.43,105h7.12a8.52,8.52,0,0,0,4.3-1.19,11,11,0,0,0,3.48-3.33,15.1,15.1,0,0,0,2.16-5.13,11.76,11.76,0,0,0,.09-5.89,5.48,5.48,0,0,0-2.53-3.31,8.88,8.88,0,0,0-4.47-1h-5.73L143.41,105m8.7-13.6h.34a2.41,2.41,0,0,1,2.18.93,3.84,3.84,0,0,1,.2,3,5,5,0,0,1-1.56,2.8,3.86,3.86,0,0,1-2.51.86h-.34Z" fill-rule="evenodd"/>
      <polyline id="polyline18" points="59.51 85.1 65.25 85.1 63.85 91.37 55.75 91.37 52.5 104.97 45.27 104.97 48.52 91.38 44.5 91.56 46.02 85.1 59.51 85.1"/>
      <path id="path20" d="M84.35,85.1h7L81.37,105H75.73l-2.86-13.6H67l1.4-6.27h10l1.12,9.06a14.54,14.54,0,0,1,.11,1.47,9.39,9.39,0,0,1-.09,1.49h.15a10,10,0,0,1,.34-1.49c.16-.49.34-1,.55-1.46l3.74-9"/>
      <path id="path22" d="M111.42,63.48C117.22,51,129.35,42.11,144,42.11a36.5,36.5,0,0,1,36.49,36.5c0,9-3.67,16.72-9,23.08a.51.51,0,0,1-.75.14.49.49,0,0,1,0-.73l0,0c5-6,7.61-14.06,7.61-22.45A34.31,34.31,0,0,0,144,44.29c-13.79,0-26.17,7.91-31.63,19.62a.57.57,0,0,1-.74.28.53.53,0,0,1-.22-.71"/>
    </g>
  </g>
</svg>
