<svg xmlns="http://www.w3.org/2000/svg" xmlns:xlink="http://www.w3.org/1999/xlink" viewBox="0 0 225 148">
  <defs>
    <clipPath id="clip-path">
      <path d="M85.38,104c0-.52,0-.6,1-.61s1.87.33,1.87,1.59-.77,1.67-2,1.67h-.81Zm0,3.08h.87c1.52,0,2.35.75,2.35,2.05,0,1.46-1,1.85-2,1.85s-1.17-.18-1.17-.94Zm1.47,4.33c1.86,0,3.05-.67,3.05-2.37a2.21,2.21,0,0,0-2.21-2.23v0a2,2,0,0,0,1.82-1.88,1.72,1.72,0,0,0-.75-1.5A4,4,0,0,0,86.6,103H83.07v.36c1.07.07,1.1.1,1.1.78v6.17c0,.69,0,.71-1.1.78v.36Z" clip-rule="evenodd"/>
    </clipPath>
    <clipPath id="clip-path-2">
      <path d="M96.42,111.4h-1l-.12-.73a4.6,4.6,0,0,1-2.23.87,1.59,1.59,0,0,1-1.73-1.83v-3.22c0-.44-.08-.5-.4-.55l-.46-.06v-.3l1.92-.31.08.08v4.14c0,1,.53,1.4,1.23,1.4a1.69,1.69,0,0,0,1.51-.92,2,2,0,0,0,.09-.73v-2.75c0-.44-.07-.5-.39-.55l-.46-.06v-.3l1.92-.31.08.08v6.05" clip-rule="evenodd"/>
    </clipPath>
    <clipPath id="clip-path-3">
      <path d="M101.69,107.12V105.7a2.79,2.79,0,0,0-1.58-.42c-1.32,0-2.21.62-2.22,1.78s.83,1.47,1.84,1.77c.55.17,1.32.45,1.32,1.28a1,1,0,0,1-1.13,1c-1,0-1.54-.72-1.79-1.76h-.35l.12,1.6a3,3,0,0,0,1.91.59c1.45,0,2.28-.77,2.28-1.81s-.66-1.56-1.92-2c-.5-.16-1.3-.42-1.3-1.1a1,1,0,0,1,1.1-1,1.39,1.39,0,0,1,1.36,1.41h.36" clip-rule="evenodd"/>
    </clipPath>
    <clipPath id="clip-path-4">
      <path d="M104.25,102.67a.73.73,0,0,0-.75.76.71.71,0,0,0,.75.73.7.7,0,0,0,.74-.73.71.71,0,0,0-.74-.76" clip-rule="evenodd"/>
    </clipPath>
    <clipPath id="clip-path-5">
      <path d="M102.83,105.58l1.92-.31.08.08v6.05h-1.15v-4.91c0-.44-.07-.5-.39-.55l-.46-.06v-.3" clip-rule="evenodd"/>
    </clipPath>
    <clipPath id="clip-path-6">
      <path d="M111.91,107.21v4.19h-1.14v-3.94c0-1.07-.46-1.53-1.29-1.53a1.69,1.69,0,0,0-1.45.88,1.32,1.32,0,0,0-.12.67v3.92h-1.15v-4.91c0-.44-.07-.5-.39-.55l-.46-.06v-.3l1.82-.31.17.93a3.88,3.88,0,0,1,2.22-.93,1.71,1.71,0,0,1,1.79,1.94" clip-rule="evenodd"/>
    </clipPath>
    <clipPath id="clip-path-7">
      <path d="M123.09,107.12V105.7a2.77,2.77,0,0,0-1.58-.42c-1.31,0-2.2.62-2.22,1.78s.83,1.47,1.85,1.77c.55.17,1.31.45,1.31,1.28a1,1,0,0,1-1.13,1c-1,0-1.54-.72-1.78-1.76h-.36l.13,1.6a3,3,0,0,0,1.9.59c1.45,0,2.28-.77,2.28-1.81s-.66-1.56-1.91-2c-.5-.16-1.31-.42-1.31-1.1a1,1,0,0,1,1.1-1,1.39,1.39,0,0,1,1.36,1.41h.36" clip-rule="evenodd"/>
    </clipPath>
    <clipPath id="clip-path-8">
      <path d="M128.22,107.12V105.7a2.74,2.74,0,0,0-1.57-.42c-1.32,0-2.21.62-2.22,1.78s.83,1.47,1.84,1.77c.55.17,1.32.45,1.32,1.28a1,1,0,0,1-1.14,1c-1,0-1.53-.72-1.78-1.76h-.35l.12,1.6a3,3,0,0,0,1.9.59c1.46,0,2.29-.77,2.29-1.81s-.66-1.56-1.92-2c-.5-.16-1.31-.42-1.31-1.1a1,1,0,0,1,1.1-1,1.4,1.4,0,0,1,1.37,1.41h.35" clip-rule="evenodd"/>
    </clipPath>
    <clipPath id="clip-path-9">
      <path d="M114.33,107.73c0-.5.18-2,1.45-2s1.27,1.16,1.27,1.63c0,.24-.07.39-.41.39Zm3.5.47h-3.51c0,1.27.28,2.73,1.79,2.73a1.74,1.74,0,0,0,1.58-.93l.4.21a2.28,2.28,0,0,1-2.22,1.34c-2,0-2.82-1.16-2.82-3.08s.9-3.19,2.81-3.19a2.25,2.25,0,0,1,2.46,2.45C118.32,108.14,118.09,108.2,117.83,108.2Z" clip-rule="evenodd"/>
    </clipPath>
    <clipPath id="clip-path-10">
      <path d="M132.53,110.85a3.8,3.8,0,0,0,2.41.73c2.16,0,3-1.23,3-2.48,0-1.44-1-2.12-2.4-2.65l-.39-.14c-.82-.31-1.51-.83-1.51-1.56a1.44,1.44,0,0,1,1.57-1.55c1.05,0,1.63.59,1.83,1.83h.38v-1.72a3.68,3.68,0,0,0-2.08-.54c-1.49,0-2.81.74-2.81,2.35,0,1.28,1,2,2.31,2.41l.22.08c.54.21,1.7.77,1.7,1.86a1.59,1.59,0,0,1-1.76,1.68c-1.15,0-1.9-.89-2.21-2.26h-.39l.12,2" clip-rule="evenodd"/>
    </clipPath>
    <clipPath id="clip-path-11">
      <path d="M153.16,105.42v.36l.59.06c.2,0,.24.16.19.33-.1.39-.33,1.1-.61,1.88l-.82,2.26h0l-.75-2.06-.72-2.06c-.08-.23,0-.33.2-.35l.55-.06v-.36H149v.36c.58,0,.69.1.87.55.33.8.61,1.6.91,2.44l.94,2.63h.88l1.09-3c.35-1,.71-1.76.88-2.15s.31-.5.88-.52v-.36h-2.32" clip-rule="evenodd"/>
    </clipPath>
    <clipPath id="clip-path-12">
      <path d="M174.9,107.12v-1.43a2.83,2.83,0,0,0-1.57-.41c-1.32,0-2.21.62-2.23,1.78,0,1,.83,1.46,1.85,1.77.55.17,1.32.45,1.32,1.28a1,1,0,0,1-1.14,1c-1,0-1.54-.72-1.78-1.75H171l.13,1.59a2.92,2.92,0,0,0,1.9.59c1.45,0,2.28-.77,2.28-1.81s-.66-1.56-1.91-1.95c-.5-.16-1.31-.41-1.31-1.1a1,1,0,0,1,1.1-1,1.4,1.4,0,0,1,1.37,1.41h.35" clip-rule="evenodd"/>
    </clipPath>
    <clipPath id="clip-path-13">
      <path d="M140.08,107.73c0-.5.18-2,1.45-2s1.27,1.16,1.27,1.63c0,.23-.07.39-.41.39Zm3.5.47h-3.51c0,1.26.28,2.73,1.79,2.73a1.73,1.73,0,0,0,1.58-.94l.4.22a2.29,2.29,0,0,1-2.22,1.34c-2,0-2.82-1.16-2.82-3.09s.9-3.18,2.81-3.18a2.25,2.25,0,0,1,2.46,2.45C144.07,108.13,143.84,108.2,143.58,108.2Z" clip-rule="evenodd"/>
    </clipPath>
    <clipPath id="clip-path-14">
      <path d="M160.26,108.25c0,1.26.3,2.67,1.79,2.67a1.73,1.73,0,0,0,1.58-.93l.4.21a2.29,2.29,0,0,1-2.22,1.35c-2,0-2.82-1.16-2.82-3.09,0-1.62.75-3.18,3-3.18,1.32,0,2.13.62,2.13,1.18s-.48.62-.72.62-.31-.12-.38-.31c-.25-.66-.6-1.07-1.16-1.07-.84,0-1.56.74-1.56,2.55" clip-rule="evenodd"/>
    </clipPath>
    <clipPath id="clip-path-15">
      <path d="M166.18,107.73c0-.5.18-2,1.45-2s1.27,1.16,1.27,1.63c0,.23-.07.39-.41.39Zm3.5.47h-3.51c0,1.26.28,2.73,1.79,2.73a1.73,1.73,0,0,0,1.58-.94l.4.22a2.29,2.29,0,0,1-2.22,1.34c-2,0-2.82-1.16-2.82-3.09s.9-3.18,2.8-3.18a2.25,2.25,0,0,1,2.47,2.45C170.17,108.13,169.94,108.2,169.68,108.2Z" clip-rule="evenodd"/>
    </clipPath>
    <clipPath id="clip-path-16">
      <path d="M146.51,105.28l.15,1c.8-.71,1-1,1.46-1a.59.59,0,0,1,.64.6.61.61,0,0,1-.56.66.53.53,0,0,1-.23-.05c-.35-.2-.42-.26-.62-.26s-.69.32-.69,1.26v3.91h-1.14v-4.9c0-.44-.07-.5-.39-.55l-.47-.06v-.31l1.86-.3" clip-rule="evenodd"/>
    </clipPath>
    <clipPath id="clip-path-17">
      <path d="M157.15,102.68a.73.73,0,0,0-.75.76.71.71,0,0,0,.75.73.71.71,0,0,0,.74-.73.71.71,0,0,0-.74-.76" clip-rule="evenodd"/>
    </clipPath>
    <clipPath id="clip-path-18">
      <path d="M155.73,105.58l1.92-.3.08.07v6.05h-1.14v-4.9c0-.44-.08-.5-.39-.55l-.47-.06v-.31" clip-rule="evenodd"/>
    </clipPath>
    <clipPath id="clip-path-19">
      <path d="M52,104c0-.52,0-.6,1-.61s1.87.33,1.87,1.59-.77,1.67-2,1.67H52Zm0,3.08h.88c1.52,0,2.35.75,2.35,2.05,0,1.46-1,1.85-2,1.85S52,110.79,52,110Zm1.48,4.33c1.86,0,3.05-.67,3.05-2.37a2.21,2.21,0,0,0-2.21-2.23v0c1.15-.24,1.82-.94,1.82-1.88a1.71,1.71,0,0,0-.76-1.51,3.84,3.84,0,0,0-2.15-.43H49.7v.35c1.07.07,1.1.1,1.1.78v6.18c0,.68,0,.7-1.1.78v.35Z" clip-rule="evenodd"/>
    </clipPath>
    <clipPath id="clip-path-20">
      <path d="M62.93,105.43v.35c.58,0,.71.1.92.63.61,1.46,1.62,4,1.91,4.89a1.58,1.58,0,0,1,.1.6,2.66,2.66,0,0,1-.29,1c-.18.4-.4.51-.54.51s-.23,0-.45-.26a.53.53,0,0,0-.36-.17.7.7,0,0,0-.54.69.79.79,0,0,0,.86.63c.48,0,1.1-.15,1.72-2,.76-2.16,1.87-5.13,2.25-6,.22-.49.29-.58.9-.62v-.35H67.08v.35l.63.06c.21,0,.23.17.17.41-.18.73-.82,2.57-1.35,4h0c-.56-1.47-1.05-2.8-1.5-4.08-.07-.21-.1-.35.18-.37l.53,0v-.35H62.93" clip-rule="evenodd"/>
    </clipPath>
    <clipPath id="clip-path-21">
      <path d="M77.29,105.28l.15,1c.8-.71,1.17-1,1.61-1a.59.59,0,0,1,.65.6.64.64,0,0,1-.56.68.51.51,0,0,1-.25-.06,1.65,1.65,0,0,0-.76-.27c-.28,0-.69.32-.69,1.26v3.91H76.29v-4.9c0-.44-.07-.5-.39-.55l-.46-.06v-.3l1.85-.31" clip-rule="evenodd"/>
    </clipPath>
    <clipPath id="clip-path-22">
      <path d="M70.68,107.73c0-.5.19-2,1.46-2s1.27,1.16,1.27,1.63c0,.24-.08.39-.42.39Zm3.51.47H70.67c0,1.27.28,2.73,1.8,2.73A1.72,1.72,0,0,0,74,110l.41.21a2.3,2.3,0,0,1-2.23,1.34c-2,0-2.82-1.16-2.82-3.08s.91-3.19,2.81-3.19a2.26,2.26,0,0,1,2.47,2.45C74.68,108.14,74.44,108.2,74.19,108.2Z" clip-rule="evenodd"/>
    </clipPath>
    <clipPath id="clip-path-23">
      <path d="M61.09,109.66a1.17,1.17,0,0,1-1.23,1.25,1.11,1.11,0,0,1-1.13-1.26c0-.57.27-.87,1-1.13a10.31,10.31,0,0,0,1.41-.58Zm1.1.67c0,.44.07.5.39.55l.46.06v.31l-1.85.3-.11-.73a3.72,3.72,0,0,1-1.82.74,1.67,1.67,0,0,1-1.76-1.74,1.43,1.43,0,0,1,1.13-1.45,9.25,9.25,0,0,0,2.46-.93v-.52c0-1-.56-1.22-1-1.22s-1,.3-1.26,1.2c-.06.21-.13.34-.39.34s-.68-.18-.68-.57c0-.67,1.08-1.39,2.46-1.39,1.85,0,2,.91,2,1.62Z" clip-rule="evenodd"/>
    </clipPath>
    <clipPath id="clip-path-24">
      <path d="M116.74,42.75a2.35,2.35,0,0,1-1.64,4h-5.39V39H115a2.26,2.26,0,0,1,1.73,3.71Zm-5.19,2.38h3.32a.74.74,0,0,0,0-1.48h-3.32Zm0-3.14h3.23a.65.65,0,0,0,0-1.29h-3.23Z"/>
    </clipPath>
    <clipPath id="clip-path-25">
      <path d="M113.21,50.25l-1.36,2.81h2.72ZM118,56h-2l-.62-1.29H111L110.42,56h-2l3.87-7.74h1.8Z"/>
    </clipPath>
    <clipPath id="clip-path-26">
      <polygon points="108.36 57.67 110.58 57.67 113.21 61.2 115.84 57.67 118.06 57.67 114.13 62.72 114.13 65.42 112.29 65.42 112.29 62.72 108.36 57.67" clip-rule="evenodd"/>
    </clipPath>
    <clipPath id="clip-path-27">
      <polygon points="126.11 57.67 126.11 59.33 120.95 59.33 120.95 60.62 125.92 60.62 125.92 62.28 120.95 62.28 120.95 63.76 126.11 63.76 126.11 65.42 119.1 65.42 119.1 57.67 126.11 57.67" clip-rule="evenodd"/>
    </clipPath>
    <clipPath id="clip-path-28">
      <path d="M133.1,59.33h-2.68v1.48h2.68a.74.74,0,0,0,0-1.48Zm-1.29,3.14h-1.39v3h-1.84V57.67h4.71a2.4,2.4,0,0,1,.67,4.7l2.27,3.05H134Z"/>
    </clipPath>
    <clipPath id="clip-path-29">
      <path d="M104.45,59.65l-1.36,2.82h2.72Zm4.77,5.77h-2l-.62-1.29h-4.34l-.62,1.29h-2l3.87-7.75h1.8Z"/>
    </clipPath>
    <clipPath id="clip-path-30">
      <path d="M97.94,61.39a2.33,2.33,0,0,1,.71,1.68,2.36,2.36,0,0,1-2.34,2.36h-5.4V57.68h5.31a2.26,2.26,0,0,1,1.72,3.71Zm-5.19,2.37h3.33a.74.74,0,0,0,0-1.47H92.75v1.47Zm0-3.13H96a.65.65,0,1,0,0-1.29H92.75Z"/>
    </clipPath>
    <clipPath id="clip-path-31">
      <polygon points="116.72 67.08 116.72 68.74 111.55 68.74 111.55 70.03 116.53 70.03 116.53 71.69 111.55 71.69 111.55 73.16 116.72 73.16 116.72 74.82 109.71 74.82 109.71 67.08 116.72 67.08" clip-rule="evenodd"/>
    </clipPath>
    <clipPath id="clip-path-32">
      <path d="M109.71,84.41V76.67h5.17a2.4,2.4,0,0,1,.89,4.62l2.33,3.12h-2.22l-2.21-3h-2.12v3Zm5.71-5.34a.74.74,0,0,0-.73-.74h-3.14V79.8h3.14A.73.73,0,0,0,115.42,79.07Z"/>
    </clipPath>
    <clipPath id="clip-path-33">
      <path d="M141.16,59.94a28,28,0,0,0-55.89,0c0,.59.09,1.17.16,1.75A28,28,0,0,0,113.21,86.2,24.55,24.55,0,0,1,88.75,63.41c0-.58-.07-1.15-.07-1.74s0-1.16.06-1.73a24.57,24.57,0,0,1,24.47-22.8A28,28,0,0,1,141,61.69c.07.57.12,1.14.16,1.72,0-.58.05-1.15.05-1.74s0-1.16-.05-1.73" clip-rule="evenodd"/>
    </clipPath>
    <clipPath id="clip-path-34">
      <path d="M85.27,63.41a28,28,0,0,0,55.89,0c0-.59-.09-1.17-.16-1.75a28,28,0,0,0-27.79-24.52,24.56,24.56,0,0,1,24.47,22.8c0,.57.06,1.15.06,1.73s0,1.16-.06,1.74A24.55,24.55,0,0,1,113.21,86.2,28,28,0,0,1,85.43,61.66c-.07-.57-.13-1.14-.16-1.72,0,.57-.06,1.15-.06,1.73s0,1.16.06,1.74" clip-rule="evenodd"/>
    </clipPath>
  </defs>
  <title>logo-bayer-businesscience</title>
  <g id="box">
    <rect width="225" height="148" fill="#fff"/>
  </g>
  <g id="bayer-businesscience">
    <g>
      <g>
        <path d="M85.38,104c0-.52,0-.6,1-.61s1.87.33,1.87,1.59-.77,1.67-2,1.67h-.81Zm0,3.08h.87c1.52,0,2.35.75,2.35,2.05,0,1.46-1,1.85-2,1.85s-1.17-.18-1.17-.94Zm1.47,4.33c1.86,0,3.05-.67,3.05-2.37a2.21,2.21,0,0,0-2.21-2.23v0a2,2,0,0,0,1.82-1.88,1.72,1.72,0,0,0-.75-1.5A4,4,0,0,0,86.6,103H83.07v.36c1.07.07,1.1.1,1.1.78v6.17c0,.69,0,.71-1.1.78v.36Z" fill-rule="evenodd"/>
        <g clip-path="url(#clip-path)">
          <rect x="80.6" y="100.49" width="11.77" height="13.38"/>
        </g>
      </g>
      <g>
        <path d="M96.42,111.4h-1l-.12-.73a4.6,4.6,0,0,1-2.23.87,1.59,1.59,0,0,1-1.73-1.83v-3.22c0-.44-.08-.5-.4-.55l-.46-.06v-.3l1.92-.31.08.08v4.14c0,1,.53,1.4,1.23,1.4a1.69,1.69,0,0,0,1.51-.92,2,2,0,0,0,.09-.73v-2.75c0-.44-.07-.5-.39-.55l-.46-.06v-.3l1.92-.31.08.08v6.05" fill-rule="evenodd"/>
        <g clip-path="url(#clip-path-2)">
          <rect x="87.97" y="102.81" width="10.92" height="11.21"/>
        </g>
      </g>
      <g>
        <path d="M101.69,107.12V105.7a2.79,2.79,0,0,0-1.58-.42c-1.32,0-2.21.62-2.22,1.78s.83,1.47,1.84,1.77c.55.17,1.32.45,1.32,1.28a1,1,0,0,1-1.13,1c-1,0-1.54-.72-1.79-1.76h-.35l.12,1.6a3,3,0,0,0,1.91.59c1.45,0,2.28-.77,2.28-1.81s-.66-1.56-1.92-2c-.5-.16-1.3-.42-1.3-1.1a1,1,0,0,1,1.1-1,1.39,1.39,0,0,1,1.36,1.41h.36" fill-rule="evenodd"/>
        <g clip-path="url(#clip-path-3)">
          <rect x="95.31" y="102.82" width="9.24" height="11.21"/>
        </g>
      </g>
      <g>
        <path d="M104.25,102.67a.73.73,0,0,0-.75.76.71.71,0,0,0,.75.73.7.7,0,0,0,.74-.73.71.71,0,0,0-.74-.76" fill-rule="evenodd"/>
        <g clip-path="url(#clip-path-4)">
          <rect x="101.03" y="100.21" width="6.42" height="6.42"/>
        </g>
      </g>
      <g>
        <path d="M102.83,105.58l1.92-.31.08.08v6.05h-1.15v-4.91c0-.44-.07-.5-.39-.55l-.46-.06v-.3" fill-rule="evenodd"/>
        <g clip-path="url(#clip-path-5)">
          <rect x="100.36" y="102.8" width="6.94" height="11.06"/>
        </g>
      </g>
      <g>
        <path d="M111.91,107.21v4.19h-1.14v-3.94c0-1.07-.46-1.53-1.29-1.53a1.69,1.69,0,0,0-1.45.88,1.32,1.32,0,0,0-.12.67v3.92h-1.15v-4.91c0-.44-.07-.5-.39-.55l-.46-.06v-.3l1.82-.31.17.93a3.88,3.88,0,0,1,2.22-.93,1.71,1.71,0,0,1,1.79,1.94" fill-rule="evenodd"/>
        <g clip-path="url(#clip-path-6)">
          <rect x="103.44" y="102.81" width="10.94" height="11.06"/>
        </g>
      </g>
      <g>
        <path d="M123.09,107.12V105.7a2.77,2.77,0,0,0-1.58-.42c-1.31,0-2.2.62-2.22,1.78s.83,1.47,1.85,1.77c.55.17,1.31.45,1.31,1.28a1,1,0,0,1-1.13,1c-1,0-1.54-.72-1.78-1.76h-.36l.13,1.6a3,3,0,0,0,1.9.59c1.45,0,2.28-.77,2.28-1.81s-.66-1.56-1.91-2c-.5-.16-1.31-.42-1.31-1.1a1,1,0,0,1,1.1-1,1.39,1.39,0,0,1,1.36,1.41h.36" fill-rule="evenodd"/>
        <g clip-path="url(#clip-path-7)">
          <rect x="116.72" y="102.82" width="9.24" height="11.21"/>
        </g>
      </g>
      <g>
        <path d="M128.22,107.12V105.7a2.74,2.74,0,0,0-1.57-.42c-1.32,0-2.21.62-2.22,1.78s.83,1.47,1.84,1.77c.55.17,1.32.45,1.32,1.28a1,1,0,0,1-1.14,1c-1,0-1.53-.72-1.78-1.76h-.35l.12,1.6a3,3,0,0,0,1.9.59c1.46,0,2.29-.77,2.29-1.81s-.66-1.56-1.92-2c-.5-.16-1.31-.42-1.31-1.1a1,1,0,0,1,1.1-1,1.4,1.4,0,0,1,1.37,1.41h.35" fill-rule="evenodd"/>
        <g clip-path="url(#clip-path-8)">
          <rect x="121.85" y="102.82" width="9.24" height="11.21"/>
        </g>
      </g>
      <g>
        <path d="M114.33,107.73c0-.5.18-2,1.45-2s1.27,1.16,1.27,1.63c0,.24-.07.39-.41.39Zm3.5.47h-3.51c0,1.27.28,2.73,1.79,2.73a1.74,1.74,0,0,0,1.58-.93l.4.21a2.28,2.28,0,0,1-2.22,1.34c-2,0-2.82-1.16-2.82-3.08s.9-3.19,2.81-3.19a2.25,2.25,0,0,1,2.46,2.45C118.32,108.14,118.09,108.2,117.83,108.2Z" fill-rule="evenodd"/>
        <g clip-path="url(#clip-path-9)">
          <rect x="110.58" y="102.81" width="10.21" height="11.21"/>
        </g>
      </g>
      <g>
        <path d="M132.53,110.85a3.8,3.8,0,0,0,2.41.73c2.16,0,3-1.23,3-2.48,0-1.44-1-2.12-2.4-2.65l-.39-.14c-.82-.31-1.51-.83-1.51-1.56a1.44,1.44,0,0,1,1.57-1.55c1.05,0,1.63.59,1.83,1.83h.38v-1.72a3.68,3.68,0,0,0-2.08-.54c-1.49,0-2.81.74-2.81,2.35,0,1.28,1,2,2.31,2.41l.22.08c.54.21,1.7.77,1.7,1.86a1.59,1.59,0,0,1-1.76,1.68c-1.15,0-1.9-.89-2.21-2.26h-.39l.12,2" fill-rule="evenodd"/>
        <g clip-path="url(#clip-path-10)">
          <rect x="129.94" y="100.3" width="10.47" height="13.74"/>
        </g>
      </g>
      <g>
        <path d="M153.16,105.42v.36l.59.06c.2,0,.24.16.19.33-.1.39-.33,1.1-.61,1.88l-.82,2.26h0l-.75-2.06-.72-2.06c-.08-.23,0-.33.2-.35l.55-.06v-.36H149v.36c.58,0,.69.1.87.55.33.8.61,1.6.91,2.44l.94,2.63h.88l1.09-3c.35-1,.71-1.76.88-2.15s.31-.5.88-.52v-.36h-2.32" fill-rule="evenodd"/>
        <g clip-path="url(#clip-path-11)">
          <rect x="146.56" y="102.96" width="11.38" height="10.91"/>
        </g>
      </g>
      <g>
        <path d="M174.9,107.12v-1.43a2.83,2.83,0,0,0-1.57-.41c-1.32,0-2.21.62-2.23,1.78,0,1,.83,1.46,1.85,1.77.55.17,1.32.45,1.32,1.28a1,1,0,0,1-1.14,1c-1,0-1.54-.72-1.78-1.75H171l.13,1.59a2.92,2.92,0,0,0,1.9.59c1.45,0,2.28-.77,2.28-1.81s-.66-1.56-1.91-1.95c-.5-.16-1.31-.41-1.31-1.1a1,1,0,0,1,1.1-1,1.4,1.4,0,0,1,1.37,1.41h.35" fill-rule="evenodd"/>
        <g clip-path="url(#clip-path-12)">
          <rect x="168.53" y="102.81" width="9.24" height="11.21"/>
        </g>
      </g>
      <g>
        <path d="M140.08,107.73c0-.5.18-2,1.45-2s1.27,1.16,1.27,1.63c0,.23-.07.39-.41.39Zm3.5.47h-3.51c0,1.26.28,2.73,1.79,2.73a1.73,1.73,0,0,0,1.58-.94l.4.22a2.29,2.29,0,0,1-2.22,1.34c-2,0-2.82-1.16-2.82-3.09s.9-3.18,2.81-3.18a2.25,2.25,0,0,1,2.46,2.45C144.07,108.13,143.84,108.2,143.58,108.2Z" fill-rule="evenodd"/>
        <g clip-path="url(#clip-path-13)">
          <rect x="136.33" y="102.81" width="10.21" height="11.21"/>
        </g>
      </g>
      <g>
        <path d="M160.26,108.25c0,1.26.3,2.67,1.79,2.67a1.73,1.73,0,0,0,1.58-.93l.4.21a2.29,2.29,0,0,1-2.22,1.35c-2,0-2.82-1.16-2.82-3.09,0-1.62.75-3.18,3-3.18,1.32,0,2.13.62,2.13,1.18s-.48.62-.72.62-.31-.12-.38-.31c-.25-.66-.6-1.07-1.16-1.07-.84,0-1.56.74-1.56,2.55" fill-rule="evenodd"/>
        <g clip-path="url(#clip-path-14)">
          <rect x="156.52" y="102.81" width="10.02" height="11.2"/>
        </g>
      </g>
      <g>
        <path d="M166.18,107.73c0-.5.18-2,1.45-2s1.27,1.16,1.27,1.63c0,.23-.07.39-.41.39Zm3.5.47h-3.51c0,1.26.28,2.73,1.79,2.73a1.73,1.73,0,0,0,1.58-.94l.4.22a2.29,2.29,0,0,1-2.22,1.34c-2,0-2.82-1.16-2.82-3.09s.9-3.18,2.8-3.18a2.25,2.25,0,0,1,2.47,2.45C170.17,108.13,169.94,108.2,169.68,108.2Z" fill-rule="evenodd"/>
        <g clip-path="url(#clip-path-15)">
          <rect x="162.43" y="102.81" width="10.21" height="11.21"/>
        </g>
      </g>
      <g>
        <path d="M146.51,105.28l.15,1c.8-.71,1-1,1.46-1a.59.59,0,0,1,.64.6.61.61,0,0,1-.56.66.53.53,0,0,1-.23-.05c-.35-.2-.42-.26-.62-.26s-.69.32-.69,1.26v3.91h-1.14v-4.9c0-.44-.07-.5-.39-.55l-.47-.06v-.31l1.86-.3" fill-rule="evenodd"/>
        <g clip-path="url(#clip-path-16)">
          <rect x="142.19" y="102.81" width="9.04" height="11.05"/>
        </g>
      </g>
      <g>
        <path d="M157.15,102.68a.73.73,0,0,0-.75.76.71.71,0,0,0,.75.73.71.71,0,0,0,.74-.73.71.71,0,0,0-.74-.76" fill-rule="evenodd"/>
        <g clip-path="url(#clip-path-17)">
          <rect x="153.94" y="100.21" width="6.42" height="6.42"/>
        </g>
      </g>
      <g>
        <path d="M155.73,105.58l1.92-.3.08.07v6.05h-1.14v-4.9c0-.44-.08-.5-.39-.55l-.47-.06v-.31" fill-rule="evenodd"/>
        <g clip-path="url(#clip-path-18)">
          <rect x="153.26" y="102.81" width="6.94" height="11.05"/>
        </g>
      </g>
      <g>
        <path d="M52,104c0-.52,0-.6,1-.61s1.87.33,1.87,1.59-.77,1.67-2,1.67H52Zm0,3.08h.88c1.52,0,2.35.75,2.35,2.05,0,1.46-1,1.85-2,1.85S52,110.79,52,110Zm1.48,4.33c1.86,0,3.05-.67,3.05-2.37a2.21,2.21,0,0,0-2.21-2.23v0c1.15-.24,1.82-.94,1.82-1.88a1.71,1.71,0,0,0-.76-1.51,3.84,3.84,0,0,0-2.15-.43H49.7v.35c1.07.07,1.1.1,1.1.78v6.18c0,.68,0,.7-1.1.78v.35Z" fill-rule="evenodd"/>
        <g clip-path="url(#clip-path-19)">
          <rect x="47.23" y="100.49" width="11.77" height="13.38"/>
        </g>
      </g>
      <g>
        <path d="M62.93,105.43v.35c.58,0,.71.1.92.63.61,1.46,1.62,4,1.91,4.89a1.58,1.58,0,0,1,.1.6,2.66,2.66,0,0,1-.29,1c-.18.4-.4.51-.54.51s-.23,0-.45-.26a.53.53,0,0,0-.36-.17.7.7,0,0,0-.54.69.79.79,0,0,0,.86.63c.48,0,1.1-.15,1.72-2,.76-2.16,1.87-5.13,2.25-6,.22-.49.29-.58.9-.62v-.35H67.08v.35l.63.06c.21,0,.23.17.17.41-.18.73-.82,2.57-1.35,4h0c-.56-1.47-1.05-2.8-1.5-4.08-.07-.21-.1-.35.18-.37l.53,0v-.35H62.93" fill-rule="evenodd"/>
        <g clip-path="url(#clip-path-20)">
          <rect x="60.46" y="102.96" width="11.42" height="13.83"/>
        </g>
      </g>
      <g>
        <path d="M77.29,105.28l.15,1c.8-.71,1.17-1,1.61-1a.59.59,0,0,1,.65.6.64.64,0,0,1-.56.68.51.51,0,0,1-.25-.06,1.65,1.65,0,0,0-.76-.27c-.28,0-.69.32-.69,1.26v3.91H76.29v-4.9c0-.44-.07-.5-.39-.55l-.46-.06v-.3l1.85-.31" fill-rule="evenodd"/>
        <g clip-path="url(#clip-path-21)">
          <rect x="72.97" y="102.81" width="9.19" height="11.05"/>
        </g>
      </g>
      <g>
        <path d="M70.68,107.73c0-.5.19-2,1.46-2s1.27,1.16,1.27,1.63c0,.24-.08.39-.42.39Zm3.51.47H70.67c0,1.27.28,2.73,1.8,2.73A1.72,1.72,0,0,0,74,110l.41.21a2.3,2.3,0,0,1-2.23,1.34c-2,0-2.82-1.16-2.82-3.08s.91-3.19,2.81-3.19a2.26,2.26,0,0,1,2.47,2.45C74.68,108.14,74.44,108.2,74.19,108.2Z" fill-rule="evenodd"/>
        <g clip-path="url(#clip-path-22)">
          <rect x="66.94" y="102.81" width="10.21" height="11.21"/>
        </g>
      </g>
      <g>
        <path d="M61.09,109.66a1.17,1.17,0,0,1-1.23,1.25,1.11,1.11,0,0,1-1.13-1.26c0-.57.27-.87,1-1.13a10.31,10.31,0,0,0,1.41-.58Zm1.1.67c0,.44.07.5.39.55l.46.06v.31l-1.85.3-.11-.73a3.72,3.72,0,0,1-1.82.74,1.67,1.67,0,0,1-1.76-1.74,1.43,1.43,0,0,1,1.13-1.45,9.25,9.25,0,0,0,2.46-.93v-.52c0-1-.56-1.22-1-1.22s-1,.3-1.26,1.2c-.06.21-.13.34-.39.34s-.68-.18-.68-.57c0-.67,1.08-1.39,2.46-1.39,1.85,0,2,.91,2,1.62Z" fill-rule="evenodd"/>
        <g clip-path="url(#clip-path-23)">
          <rect x="55.03" y="102.81" width="10.48" height="11.21"/>
        </g>
      </g>
      <g>
        <path d="M116.74,42.75a2.35,2.35,0,0,1-1.64,4h-5.39V39H115a2.26,2.26,0,0,1,1.73,3.71Zm-5.19,2.38h3.32a.74.74,0,0,0,0-1.48h-3.32Zm0-3.14h3.23a.65.65,0,0,0,0-1.29h-3.23Z"/>
        <g clip-path="url(#clip-path-24)">
          <rect x="106.88" y="36.21" width="13.4" height="13.4"/>
        </g>
      </g>
      <g>
        <path d="M113.21,50.25l-1.36,2.81h2.72ZM118,56h-2l-.62-1.29H111L110.42,56h-2l3.87-7.74h1.8Z"/>
        <g clip-path="url(#clip-path-25)">
          <rect x="105.61" y="45.44" width="15.2" height="13.4"/>
        </g>
      </g>
      <g>
        <polygon points="108.36 57.67 110.58 57.67 113.21 61.2 115.84 57.67 118.06 57.67 114.13 62.72 114.13 65.42 112.29 65.42 112.29 62.72 108.36 57.67" fill-rule="evenodd"/>
        <g clip-path="url(#clip-path-26)">
          <rect x="105.53" y="54.84" width="15.36" height="13.4"/>
        </g>
      </g>
      <g>
        <polygon points="126.11 57.67 126.11 59.33 120.95 59.33 120.95 60.62 125.92 60.62 125.92 62.28 120.95 62.28 120.95 63.76 126.11 63.76 126.11 65.42 119.1 65.42 119.1 57.67 126.11 57.67" fill-rule="evenodd"/>
        <g clip-path="url(#clip-path-27)">
          <rect x="116.27" y="54.84" width="12.66" height="13.4"/>
        </g>
      </g>
      <g>
        <path d="M133.1,59.33h-2.68v1.48h2.68a.74.74,0,0,0,0-1.48Zm-1.29,3.14h-1.39v3h-1.84V57.67h4.71a2.4,2.4,0,0,1,.67,4.7l2.27,3.05H134Z"/>
        <g clip-path="url(#clip-path-28)">
          <rect x="125.75" y="54.84" width="13.31" height="13.4"/>
        </g>
      </g>
      <g>
        <path d="M104.45,59.65l-1.36,2.82h2.72Zm4.77,5.77h-2l-.62-1.29h-4.34l-.62,1.29h-2l3.87-7.75h1.8Z"/>
        <g clip-path="url(#clip-path-29)">
          <rect x="96.85" y="54.84" width="15.2" height="13.4"/>
        </g>
      </g>
      <g>
        <path d="M97.94,61.39a2.33,2.33,0,0,1,.71,1.68,2.36,2.36,0,0,1-2.34,2.36h-5.4V57.68h5.31a2.26,2.26,0,0,1,1.72,3.71Zm-5.19,2.37h3.33a.74.74,0,0,0,0-1.47H92.75v1.47Zm0-3.13H96a.65.65,0,1,0,0-1.29H92.75Z"/>
        <g clip-path="url(#clip-path-30)">
          <rect x="88.08" y="54.85" width="13.4" height="13.4"/>
        </g>
      </g>
      <g>
        <polygon points="116.72 67.08 116.72 68.74 111.55 68.74 111.55 70.03 116.53 70.03 116.53 71.69 111.55 71.69 111.55 73.16 116.72 73.16 116.72 74.82 109.71 74.82 109.71 67.08 116.72 67.08" fill-rule="evenodd"/>
        <g clip-path="url(#clip-path-31)">
          <rect x="106.88" y="64.25" width="12.66" height="13.4"/>
        </g>
      </g>
      <g>
        <path d="M109.71,84.41V76.67h5.17a2.4,2.4,0,0,1,.89,4.62l2.33,3.12h-2.22l-2.21-3h-2.12v3Zm5.71-5.34a.74.74,0,0,0-.73-.74h-3.14V79.8h3.14A.73.73,0,0,0,115.42,79.07Z"/>
        <g clip-path="url(#clip-path-32)">
          <rect x="106.88" y="73.84" width="14.05" height="13.4"/>
        </g>
      </g>
      <g>
        <path d="M141.16,59.94a28,28,0,0,0-55.89,0c0,.59.09,1.17.16,1.75A28,28,0,0,0,113.21,86.2,24.55,24.55,0,0,1,88.75,63.41c0-.58-.07-1.15-.07-1.74s0-1.16.06-1.73a24.57,24.57,0,0,1,24.47-22.8A28,28,0,0,1,141,61.69c.07.57.12,1.14.16,1.72,0-.58.05-1.15.05-1.74s0-1.16-.05-1.73" fill-rule="evenodd"/>
        <g clip-path="url(#clip-path-33)">
          <rect x="82.44" y="30.84" width="61.6" height="58.19"/>
        </g>
      </g>
      <g>
        <path d="M85.27,63.41a28,28,0,0,0,55.89,0c0-.59-.09-1.17-.16-1.75a28,28,0,0,0-27.79-24.52,24.56,24.56,0,0,1,24.47,22.8c0,.57.06,1.15.06,1.73s0,1.16-.06,1.74A24.55,24.55,0,0,1,113.21,86.2,28,28,0,0,1,85.43,61.66c-.07-.57-.13-1.14-.16-1.72,0,.57-.06,1.15-.06,1.73s0,1.16.06,1.74" fill-rule="evenodd"/>
        <g clip-path="url(#clip-path-34)">
          <rect x="82.39" y="34.31" width="61.6" height="58.19"/>
        </g>
      </g>
    </g>
  </g>
</svg>
