<svg xmlns="http://www.w3.org/2000/svg" viewBox="0 0 225 148">
  <title>logo-siemens</title>
  <g id="box">
    <rect width="225" height="148" fill="#fff"/>
  </g>
  <g id="siemens">
    <g id="Ebene_1">
      <path d="M191.05,62.09v4.8a19,19,0,0,0-6.63-1.42,5.29,5.29,0,0,0-2.74.63,1.78,1.78,0,0,0-1,1.52c0,.8.78,1.51,2.34,2.15l4.5,2.19c3.65,1.74,5.46,4.05,5.46,7a6.76,6.76,0,0,1-2.9,5.75,12.61,12.61,0,0,1-7.73,2.15,36.84,36.84,0,0,1-4-.2,32,32,0,0,1-4.06-.76v-5a23.75,23.75,0,0,0,7.57,1.41c2.71,0,4.05-.79,4.05-2.37,0-.79-.55-1.43-1.67-1.93l-5-2.13a10.42,10.42,0,0,1-4.12-3,6.9,6.9,0,0,1-1.33-4.18,6.33,6.33,0,0,1,2.78-5.36,12.33,12.33,0,0,1,7.4-2,28.23,28.23,0,0,1,3.43.25c1.28.18,2.52.39,3.7.65Z" fill-rule="evenodd"/>
      <path d="M49.37,62.09v4.79a19.24,19.24,0,0,0-6.63-1.41,5.33,5.33,0,0,0-2.75.62,1.82,1.82,0,0,0-1,1.53c0,.8.78,1.51,2.34,2.15L45.81,72q5.44,2.61,5.45,7a6.8,6.8,0,0,1-2.89,5.75,12.64,12.64,0,0,1-7.74,2.15,34.76,34.76,0,0,1-4-.2,30.82,30.82,0,0,1-4-.76v-5a23.84,23.84,0,0,0,7.56,1.41c2.71,0,4.06-.78,4.06-2.37,0-.79-.55-1.43-1.66-1.93l-5-2.13a10.11,10.11,0,0,1-4.12-3,6.78,6.78,0,0,1-1.34-4.18,6.35,6.35,0,0,1,2.79-5.37,12.35,12.35,0,0,1,7.39-2,28.38,28.38,0,0,1,3.44.25C47,61.61,48.18,61.83,49.37,62.09Z" fill-rule="evenodd"/>
      <polygon points="54.59 61.66 61.83 61.66 61.83 86.29 54.59 86.29 54.59 61.66" fill-rule="evenodd"/>
      <polygon points="85.59 61.66 85.59 66.3 74.58 66.3 74.87 71.8 84.14 71.8 84.14 75.86 74.87 75.86 74.87 81.36 85.88 81.36 85.88 86.29 67.62 86.29 67.62 61.66 85.59 61.66" fill-rule="evenodd"/>
      <polygon points="119.78 61.66 119.78 86.29 113.11 86.29 113.11 70.06 105.85 86.58 101.62 86.58 94.86 70.06 94.86 86.29 89.94 86.29 89.94 61.66 98.85 61.66 104.94 76.74 111.31 61.66 119.78 61.66" fill-rule="evenodd"/>
      <polygon points="143.25 61.66 143.25 66.3 132.53 66.3 132.53 71.8 142.09 71.8 142.09 75.86 132.53 75.86 132.53 81.36 143.54 81.36 143.54 86.29 125.57 86.29 125.57 61.66 143.25 61.66" fill-rule="evenodd"/>
      <polygon points="169.03 61.66 169.03 86.29 161.21 86.29 152.52 70.49 152.52 86.29 147.59 86.29 147.59 61.66 155.64 61.66 164.11 77.18 164.11 61.66 169.03 61.66" fill-rule="evenodd"/>
    </g>
  </g>
</svg>
