<svg xmlns="http://www.w3.org/2000/svg" viewBox="0 0 225 148">
  <title>logo-basf</title>
  <g id="box">
    <rect width="225" height="148" fill="#fff"/>
  </g>
  <g id="BASF">
    <g>
      <path id="Pfad_23760" data-name="Pfad 23760" d="M179,99.33v-1a2.55,2.55,0,0,0,.66.16,1,1,0,0,0,.91-.61l.45-1.15L178.39,90h1.26l2,5.52h0L183.53,90h1.17l-2.93,7.65c-.51,1.31-1,1.8-2,1.8A2.54,2.54,0,0,1,179,99.33Zm-21.87,0V90h1.11v.91h0a2.29,2.29,0,0,1,2.15-1.07c2.07,0,3.1,1.65,3.1,3.55s-1,3.51-3.07,3.51a2.58,2.58,0,0,1-2.18-1.05h0v3.48Zm1.07-6c0,1.33.6,2.55,2.13,2.55s2-1.29,2-2.6-.65-2.5-2.09-2.5-2.06,1.28-2.06,2.55Zm-29.41-1.25c0-2.7,1.54-4.9,4.41-4.9a3.56,3.56,0,0,1,3.83,3h-1.23a2.46,2.46,0,0,0-2.61-2c-2.22,0-3.16,1.83-3.16,3.77,0,2.12.94,3.9,3.17,3.9a2.64,2.64,0,0,0,2.69-2.58v-.11h1.24A3.81,3.81,0,0,1,133.31,97h-.18c-2.89,0-4.3-2.14-4.3-4.85Zm-58.22,0c0-2.7,1.54-4.9,4.41-4.9a3.56,3.56,0,0,1,3.83,3H77.62a2.46,2.46,0,0,0-2.61-2c-2.22,0-3.16,1.83-3.16,3.77,0,2.12.94,3.9,3.17,3.9a2.63,2.63,0,0,0,2.69-2.57v-.12H79A3.79,3.79,0,0,1,75.1,97h-.18c-2.9,0-4.31-2.14-4.31-4.85Zm98.5,3.74a3,3,0,0,1-2.38,1c-1.22,0-2.23-.54-2.23-1.89,0-1.52,1.14-1.85,2.29-2.07s2.27-.16,2.27-1-.8-1.13-1.5-1.13c-.94,0-1.64.29-1.69,1.28h-1.1c.06-1.67,1.35-2.25,2.86-2.25,1.21,0,2.52.27,2.52,1.85v3.47c0,.52,0,.75.36.75a1,1,0,0,0,.34-.06v.86a1.49,1.49,0,0,1-.8.18c-.58,0-.94-.31-.94-1ZM167,93.72c-.73.13-1.35.39-1.35,1.21s.62,1,1.3,1c1.46,0,2.06-.92,2.06-1.53V93.26a5.51,5.51,0,0,1-2,.46Zm-28.87-.34c0-2,1.13-3.53,3.27-3.53s3.28,1.55,3.28,3.53a3.21,3.21,0,0,1-2.86,3.51,3,3,0,0,1-.42,0c-2.14,0-3.27-1.55-3.27-3.52Zm1.17,0c0,1.63.94,2.55,2.1,2.55s2.1-.92,2.1-2.55-.94-2.56-2.1-2.56-2.1.92-2.1,2.56Zm-19.51,2.48a3,3,0,0,1-2.37,1c-1.23,0-2.23-.54-2.23-1.89,0-1.53,1.13-1.85,2.28-2.07s2.27-.16,2.27-1-.79-1.13-1.5-1.13c-.94,0-1.63.29-1.68,1.28h-1.11c.06-1.67,1.35-2.26,2.85-2.26,1.22,0,2.54.28,2.54,1.86v3.47c0,.52,0,.75.35.75a.92.92,0,0,0,.33-.06v.86a1.44,1.44,0,0,1-.79.18C120.19,96.9,119.82,96.59,119.82,95.86Zm-2.07-2.14c-.73.13-1.36.39-1.36,1.21s.63,1,1.31,1c1.46,0,2.06-.91,2.06-1.52V93.26a5.61,5.61,0,0,1-2,.46Zm-9.54-.26c0-2,1.05-3.61,3.19-3.61,1.52,0,2.75.71,2.9,2.32h-1.14a1.59,1.59,0,0,0-1.67-1.35c-1.6,0-2.1,1.27-2.1,2.64s.56,2.47,2,2.47a1.75,1.75,0,0,0,1.85-1.63v0h1.13a2.8,2.8,0,0,1-3,2.63h0c-2.06,0-3.16-1.43-3.16-3.44Zm-21-.1a3.25,3.25,0,0,1,3-3.5h.2c2.39,0,3.12,2.23,3,3.86h-5a2,2,0,0,0,1.74,2.21,2.17,2.17,0,0,0,.36,0,1.62,1.62,0,0,0,1.75-1.32H93.3a2.7,2.7,0,0,1-2.88,2.29c-2.15,0-3.17-1.48-3.23-3.55Zm1.17-.63h3.88a2,2,0,0,0-1.95-1.9,1.93,1.93,0,0,0-1.93,1.9Zm-28.47.63a3.26,3.26,0,0,1,3-3.5h.2c2.39,0,3.12,2.23,3.06,3.86H61.07a2,2,0,0,0,1.73,2.21,2.26,2.26,0,0,0,.37,0,1.61,1.61,0,0,0,1.74-1.32H66a2.71,2.71,0,0,1-2.88,2.29c-2.16,0-3.17-1.48-3.24-3.55Zm1.17-.63h3.88a1.94,1.94,0,0,0-3.88,0Zm115.29,4V92.18a1.27,1.27,0,0,0-1.18-1.36H175a1.9,1.9,0,0,0-2,1.79,1.22,1.22,0,0,0,0,.33v3.81h-1.11V90h1v1.07h0a2.37,2.37,0,0,1,2.19-1.23c1.77,0,2.32,1,2.32,2.47v4.44Zm-22,0V92.32c0-.83-.22-1.5-1.3-1.5a1.64,1.64,0,0,0-1.76,1.5.89.89,0,0,0,0,.23v4.2h-1.11V92.32c0-.87-.27-1.5-1.26-1.5a1.83,1.83,0,0,0-1.8,1.73v4.2H146V90h1v1h0a2.51,2.51,0,0,1,2.18-1.15A1.81,1.81,0,0,1,151.11,91a2.53,2.53,0,0,1,2.11-1.15c1.34,0,2.24.57,2.24,2v5Zm-31.71,0V87.44h1.1v9.31Zm-16.9,0V90h1.11v6.75Zm-2.84,0V92.32c0-.83-.23-1.5-1.3-1.5a1.64,1.64,0,0,0-1.76,1.5.89.89,0,0,0,0,.23v4.2H98.74V92.32c0-.87-.28-1.5-1.27-1.5a1.83,1.83,0,0,0-1.8,1.73v4.2H94.56V90h1v1h0a2.51,2.51,0,0,1,2.18-1.15A1.79,1.79,0,0,1,99.66,91a2.53,2.53,0,0,1,2.11-1.15c1.35,0,2.25.57,2.25,2v5Zm-18.13,0V92.18a1.27,1.27,0,0,0-1.18-1.36h-.19a1.9,1.9,0,0,0-2,1.79,1.82,1.82,0,0,0,0,.33v3.81H80.3V87.44h1.11V91h0a2.3,2.3,0,0,1,2.13-1.15c1.77,0,2.32,1,2.32,2.47v4.43Zm-27.3,0V92.18a1.27,1.27,0,0,0-1.18-1.36h-.19a1.9,1.9,0,0,0-2,1.79,1.82,1.82,0,0,0,0,.33v3.81H53V87.44h1.11V91h0a2.29,2.29,0,0,1,2.13-1.15c1.77,0,2.32,1,2.32,2.47v4.43Zm-9.67,0V88.48h-3.1v-1h7.45v1h-3.1v8.26Zm57.94-8V87.44h1.11v1.35Zm35.52-22.25h8c0,3.32,3.13,3.63,4.06,3.63,1.46,0,3.2-.7,3.2-2.16a2.33,2.33,0,0,0-1.74-2c-1-.37-5.15-1.47-6.14-1.78-.21-.07-6.84-1.51-6.84-6.93,0-3.37,2.58-8,10.9-8,7.59,0,10.79,3.94,10.79,8.2h-7.7c0-1.92-1.79-2.8-3.35-2.8.5,0-2.94-.27-2.94,1.82,0,1.63,2.67,2.17,3.47,2.41,1.6.46,4.77,1.14,6.68,1.91a6.9,6.9,0,0,1,4.55,6.42c0,3-2,8.58-11.35,8.58-8.51,0-11.55-4.94-11.55-9.35Zm-46.4,8.63V50.1h14c5.13,0,7.47,3.42,7.47,6.54,0,2.25-.86,3.7-3.18,5.06,2.92,1.08,4.52,3,4.52,6,0,3.6-2.62,7.43-8.79,7.43Zm7.64-5.66h5a2.43,2.43,0,0,0,2.61-2.22v-.21A2.17,2.17,0,0,0,107.91,65h-5.4Zm0-9.54h4.07c1.85,0,2.6-.87,2.6-2.13a1.86,1.86,0,0,0-1.8-1.94h-4.87Zm62.93,15.2,0-25.08h19.23v6.62H173.17v4.41h10.29v6.32H173.13v7.72Zm-30.87,0-1.21-3.75h-7.74l-1,3.73h-8.22l9.22-25h8.07l9.21,25Zm-7.4-9.25h4.56l-2.43-8.36Z"/>
      <path id="Pfad_23761" data-name="Pfad 23761" d="M40.29,75.22V48.55H67V75.22Zm8.5-8.5h9.67V57.05H48.79ZM75.16,67V56.76H85.42V67Z"/>
    </g>
  </g>
</svg>
