<svg xmlns="http://www.w3.org/2000/svg" viewBox="0 0 225 148">
  <title>logo-randstad</title>
  <g id="box">
    <rect width="225" height="148" fill="#fff"/>
  </g>
  <g id="randstad">
    <g id="layer1">
      <g id="g31225">
        <path id="path38" d="M44.72,75.57,39.19,70a1.74,1.74,0,0,0-1.26-.52H28.65V73H38.81a2.89,2.89,0,0,1,3,2.92V86.11h3.47V76.74a1.75,1.75,0,0,0-.52-1.25"/>
        <path id="path42" d="M54.55,69.44a1.72,1.72,0,0,0-1.26.52l-5.53,5.53a1.75,1.75,0,0,0-.52,1.25v9.37H50.7V75.88A2.9,2.9,0,0,1,53.6,73H63.83V69.52h-9.3"/>
        <path id="path46" d="M88.1,69.08A5,5,0,0,0,83.82,72l0,0h-.27V69.52H80.78V86.11h3.1V78.57c0-4.22,1.81-6.95,4.61-6.95a4.57,4.57,0,0,1,1.59.26V69.25A8,8,0,0,0,88.14,69"/>
        <path id="path50" d="M176.63,70.73c-1.09-1.09-2.74-1.61-5-1.61a10.9,10.9,0,0,0-5.49,1.53l.15,2.4a8.08,8.08,0,0,1,4.84-1.65,4.38,4.38,0,0,1,3.23,1,4.61,4.61,0,0,1,1.08,3.48v0h-.11c-1.22-.06-2.08-.06-3.28-.06-2,0-4.78.56-6.36,2.15a4.47,4.47,0,0,0-1.33,3.28,4.84,4.84,0,0,0,1.31,3.59,6.56,6.56,0,0,0,4.74,1.56,6.11,6.11,0,0,0,5.11-2.51h.28v2.19h2.56V76C178.31,73.54,177.76,71.83,176.63,70.73Zm-1.24,7.36v1.58a4.49,4.49,0,0,1-1.22,3.25,4.9,4.9,0,0,1-3.55,1.31,3.55,3.55,0,0,1-2.44-1,2.57,2.57,0,0,1-.78-1.87c0-3,4.14-3.35,5.92-3.35.33,0,.66,0,1,0s.65,0,1,0h.1"/>
        <path id="path54" d="M101.9,70.73c-1.1-1.09-2.75-1.61-5.05-1.61a10.9,10.9,0,0,0-5.49,1.53l.15,2.4a8.05,8.05,0,0,1,4.84-1.65,4.35,4.35,0,0,1,3.22,1,4.61,4.61,0,0,1,1.08,3.48v0h0c-1.22-.06-2.08-.06-3.28-.06-2,0-4.78.56-6.36,2.15a4.47,4.47,0,0,0-1.33,3.28A4.88,4.88,0,0,0,91,84.87a6.57,6.57,0,0,0,4.75,1.56,6.11,6.11,0,0,0,5.11-2.51H101v2.19h2.55V76C103.57,73.54,103,71.83,101.9,70.73Zm-1.25,7.36v1.58a4.53,4.53,0,0,1-1.21,3.25,4.92,4.92,0,0,1-3.55,1.31,3.56,3.56,0,0,1-2.45-1,2.56,2.56,0,0,1-.77-1.87c0-3,4.13-3.35,5.91-3.35.33,0,.67,0,1,0s.65,0,1,0h.1"/>
        <path id="path58" d="M119.16,70.57A6.66,6.66,0,0,0,109.35,72l0,.06H109V69.52H106.3V86.11h2.92V78.44a9,9,0,0,1,1.23-5.07,4.43,4.43,0,0,1,3.91-2c2.6.16,3.61,1.87,3.61,6.1v8.61h2.92v-10c0-2.51-.61-4.37-1.79-5.56"/>
        <path id="path62" d="M147.16,76.46c-1.58-.72-3.08-1.4-3.08-3,0-1.3,1.2-2.15,3-2.15a9.32,9.32,0,0,1,3.18.81l.23-2.45a12.17,12.17,0,0,0-3.73-.64,6.21,6.21,0,0,0-4.51,1.57A4.75,4.75,0,0,0,141,74.09c0,2.56,2.21,3.64,4.16,4.59,1.59.78,3.1,1.52,3.1,2.95a2.21,2.21,0,0,1-.63,1.62,3.86,3.86,0,0,1-2.62.9A8.41,8.41,0,0,1,141.24,83l-.15,2.52a9.72,9.72,0,0,0,4.5.88,6.42,6.42,0,0,0,4-1.24,4.75,4.75,0,0,0,1.77-3.89c0-2.93-2.22-3.94-4.18-4.84"/>
        <path id="path66" d="M161.32,84.15a2.59,2.59,0,0,1-1.84-.74,3.22,3.22,0,0,1-.86-2.37V71.71H163V69.34h-4.37V64.51l-2.74.92v3.91h-3.82v2.37h3.64v10a4.7,4.7,0,0,0,1.22,3.48,5.32,5.32,0,0,0,3.88,1.28,9.76,9.76,0,0,0,2.56-.43V83.62a3.89,3.89,0,0,1-2,.53"/>
        <path id="path70" d="M193.44,61.5V71.71h-.23l0,0c-1.09-1.76-2.93-2.65-5.49-2.65a6.56,6.56,0,0,0-4.83,1.88,9.14,9.14,0,0,0-2.34,6.55,10.25,10.25,0,0,0,2.5,7.24,6.3,6.3,0,0,0,4.63,1.82,6.69,6.69,0,0,0,5.67-2.72l0,0h.27v2.19h2.73V61.5Zm0,16.26a7.32,7.32,0,0,1-1.86,5.1,4.34,4.34,0,0,1-3.17,1.29,3.94,3.94,0,0,1-2.91-1.24,7.67,7.67,0,0,1-1.83-5.24,7.14,7.14,0,0,1,1.66-5.13,4.06,4.06,0,0,1,3-1.23,4.39,4.39,0,0,1,3.22,1.31,7.28,7.28,0,0,1,1.85,5.14"/>
        <path id="path74" d="M136,61.5V71.71h-.23l0,0c-1.09-1.76-2.94-2.65-5.49-2.65a6.56,6.56,0,0,0-4.83,1.88,9.14,9.14,0,0,0-2.35,6.55,10.26,10.26,0,0,0,2.51,7.24,6.27,6.27,0,0,0,4.63,1.82,6.66,6.66,0,0,0,5.66-2.72l0,0h.28v2.19h2.73V61.5Zm.08,16.26a7.32,7.32,0,0,1-1.86,5.1,4.35,4.35,0,0,1-3.17,1.29,3.94,3.94,0,0,1-2.91-1.24,7.62,7.62,0,0,1-1.83-5.24A7.14,7.14,0,0,1,128,72.54a4.06,4.06,0,0,1,3-1.23,4.39,4.39,0,0,1,3.22,1.31,7.28,7.28,0,0,1,1.85,5.14"/>
      </g>
    </g>
  </g>
</svg>
