<svg xmlns="http://www.w3.org/2000/svg" viewBox="0 0 225 148">
  <title>logo-airbus</title>
  <g id="box">
    <rect width="225" height="148" fill="#fff"/>
  </g>
  <g id="airbus">
    <path id="path28794" d="M123,81h-8.31V76.3h8.3a2.33,2.33,0,1,1,0,4.66m-8.29-13.8h8.11a2,2,0,0,1,2,2,2.06,2.06,0,0,1-2.1,2h-8.06ZM128,73.82a5.65,5.65,0,0,0,2.15-4.9,6.9,6.9,0,0,0-7.06-6.75H109V86.11h14.63a7.33,7.33,0,0,0,7.52-7A6,6,0,0,0,128,73.82M149.55,62V75.47c0,4.12-2.39,5.85-5.33,5.85s-5.31-1.72-5.31-5.84V62h-6V75.51c0,8.62,5,11.13,11.3,11.13s11.31-2.51,11.31-11.13V62Zm20.92,9.38c-4.83-1-6.47-1.52-6.47-3,0-1.35,1.75-2,4.52-2a16.56,16.56,0,0,1,7.6,2.22L178,63.64a26.66,26.66,0,0,0-10.63-2.28c-5.85,0-9.5,3.42-9.5,7.6s3,6,9,7.28c4.62,1,5.87,1.56,5.87,3s-1.85,2-4.36,2a23.91,23.91,0,0,1-9.3-2.34l-1.78,4.75a26.71,26.71,0,0,0,11.52,2.93c7.24,0,10.2-3.46,10.2-7.5,0-3.59-2.49-6.36-8.53-7.67M58.1,62.17,46,86.11h7.19L55,82.29h8.28L60.66,77H57.4l3.08-6.59,7.77,15.73h7.18L62.86,62.17Zm48.63,7.9c0-4.36-3-7.9-9.15-7.9H85V86.11h5.82v-19H98A2.68,2.68,0,0,1,101,70c0,1.56-.92,2.8-3,2.8H93l7.49,13.3h5.91s-5.12-8.68-5.09-8.69a7.27,7.27,0,0,0,5.43-7.36m-30,16h6V62.17h-6Z"/>
  </g>
</svg>
