<svg xmlns="http://www.w3.org/2000/svg" viewBox="0 0 225 148">
  <title>logo-gasag</title>
  <g id="box">
    <rect width="225" height="148" fill="#fff"/>
  </g>
  <g id="gasag">
    <path id="path14018" d="M48.75,71c0-1.25.07-2.76,2.21-3.06,1-.14,2.56-.1,6.07-.17l1.81.13h8.68V66.39c0-.22,0-.5-.33-.52l-.59,0c-1.92-.09-6.6-.3-10.08-.29-.73,0-8.44,0-10.76.23-2.82.31-3.32,2.07-3.48,2.93a34.22,34.22,0,0,0-.28,5.1,34.08,34.08,0,0,0,.41,5.68,3.58,3.58,0,0,0,3.1,2.71c1.9.2,5.7.26,10.34.26A91.83,91.83,0,0,0,66,82.1c1.16-.23,2.68-2.73,2.68-2.73V73.11c0-.2,0-.38-.37-.38h-11c-.51,0-.57.07-.57.55v1.28c0,.46.08.54.56.54H61.5c1.49,0,1.69,0,2,.14s.32.75.32,1.61c0,2.06-1.29,1.87-2.54,1.87H56.75c-1.5,0-4.24,0-5.14,0s-1.67,0-2.25-.68-.62-1.87-.62-4.57V71ZM163.1,71c-.11-1.25,0-2.77,2.11-3.07,1-.14,6.09-.18,6.09-.18l1.83.13h8.62V66.39c.06-.22.08-.5-.27-.52l-.58,0c-1.93-.09-6.61-.3-10.09-.29-.73,0-8.44,0-10.76.23-2.82.3-3.32,2.07-3.47,2.93a32.79,32.79,0,0,0-.29,5.1,34.19,34.19,0,0,0,.41,5.68,3.58,3.58,0,0,0,3.1,2.71c1.9.19,5.7.26,10.34.26a91.83,91.83,0,0,0,10.11-.36c1.16-.23,2.75-2.73,2.75-2.73V73.11c0-.2-.05-.38-.36-.38h-11c-.5,0-.57.07-.57.55v1.27c0,.47.08.55.56.55h4.28c1.48,0,1.68,0,2,.14s.32.74.32,1.61c0,2.06-1.28,1.87-2.54,1.87H171s-4.24,0-5.15,0-1.67,0-2.25-.68-.63-1.88-.64-4.59L163.1,71Zm-85.28.24c0-1.24.06-2.82,2.2-3.11,1-.14,2.56-.1,6.07-.18,2.86-.06,6.12,0,7.08.07.27,0,.37.23.37.54v3.65c0,.45-.1.54-.56.54H81c-.49,0-.56.07-.56.55v1.41c0,.47.08.55.56.55H93c.45,0,.57,0,.57.55v6.27H97V66.45c0-.32-.07-.5-.34-.52s-6.41-.31-11.14-.31-8.79,0-10.47.11-3.93.48-3.93,3.3V82.19h6.68v-11Zm43.65,10.83c-1.4,0-5.73.24-8.31.24-5.77,0-12-.43-13.16-.51a.35.35,0,0,1-.2-.24V79.86s6.67.06,11.74-.12c1.7-.06,5.45-.24,6.68-.32s2-.3,2-1.66c0-.9-.22-1.21-.67-1.36a62.16,62.16,0,0,0-8.43-1c-5.4-.44-8.7-.81-9.29-.9-2.73-.42-2.5-2.74-2.5-4.31,0-2-.2-4,2.91-4.32,1-.11,4.63-.34,10.19-.34,3.55,0,9.45.23,11.76.37.35,0,.33.36.33.51v1.4S120,67.71,114,67.71a64,64,0,0,0-8.87.5,1.07,1.07,0,0,0-1,1.15c0,.57,0,1,1.13,1.18,1.29.2,3.54.14,9.18.61s6.64.58,7,.62c3.22.33,4,1,4,5,0,2.38.29,5.16-4,5.31m6.5.14h6.75v-11c0-1.25.06-2.83,2.21-3.12,1-.14,2.56-.1,6.07-.18,2.85-.06,6.11,0,7.08.07.26,0,.37.23.36.54v3.64c0,.46-.09.55-.56.55h-12c-.49,0-.55.07-.55.55v1.41c0,.47.07.55.55.55h12c.44,0,.56,0,.56.55v6.27h3.34V66.45c0-.32,0-.5-.25-.52s-6.41-.31-11.14-.31-8.79,0-10.47.11-3.94.48-4,3.3V82.1Z"/>
  </g>
</svg>
