<svg xmlns="http://www.w3.org/2000/svg" viewBox="0 0 225 148">
  <title>logo-amg</title>
  <g id="box">
    <rect width="225" height="148" fill="#fff"/>
  </g>
  <g id="amg">
    <path id="path3280" d="M36,81.35a.42.42,0,0,1-.35-.67L46.1,67.09a1.36,1.36,0,0,1,1-.59H59.39c.49,0,.67.4.29.88L49.57,80.47a2,2,0,0,1-1.39.88H36m15.75,0a.42.42,0,0,1-.35-.67L61.87,67.09a1.4,1.4,0,0,1,1-.59h5.62c.49,0,.66.4.29.88L58.65,80.47a2,2,0,0,1-1.39.88H51.74m9.59,0a.42.42,0,0,1-.35-.67l10.5-13.59a1.32,1.32,0,0,1,1-.59h4.19c.49,0,.67.4.29.88L66.82,80.47a2,2,0,0,1-1.38.88H61.28m11.57,0a2,2,0,0,0,1.39-.88L84.35,67.38c.37-.48.2-.88-.29-.88H81.19a1.34,1.34,0,0,0-1,.59L69.72,80.68a.42.42,0,0,0,.35.67H72.8m7.11,0a2,2,0,0,0,1.39-.88L91.41,67.38c.37-.48.19-.88-.3-.88h-2a1.32,1.32,0,0,0-1,.59L77.63,80.68a.42.42,0,0,0,.34.67h2m9.91.15H85s-.52-.48-.35-.79L95.12,67.1a1.41,1.41,0,0,1,1-.6h22.59a1,1,0,0,1,.94,1.12V80.49a1,1,0,0,1-.83,1H115c-.48-.13-.86-1-.86-1v-1.9c0-.52,0-.73-.57-.73H93.81c-.36,0-.62.27-.88.58l-.06.08-1.5,2a2,2,0,0,1-1.4.88h-.14Zm9.78-11.21a.89.89,0,0,0-.63.39l-2.32,3c-.16.22-.06.4.19.4h16.74c.53,0,.57-.21.57-.73V71.27c0-.72,0-1-.57-1h-14M142,76.89a2.13,2.13,0,0,1-1.18.52H137a2.13,2.13,0,0,1-1.17-.51l-7.1-4.5c-.4-.26-.74-.08-.74.4v7.67a.88.88,0,0,1-.88.88h-3.7a.87.87,0,0,1-.87-.87V67.4s.29-.89.78-.9h4a2.09,2.09,0,0,1,1.18.49l9.82,6.35a1.05,1.05,0,0,0,1.22,0L149.35,67a3.45,3.45,0,0,1,1.19-.34h4a.87.87,0,0,1,.86.87v13a.87.87,0,0,1-.86.87h-3.7a.89.89,0,0,1-.89-.89V72.73c0-.49-.33-.67-.74-.41L142,76.86h0m47.41-3.58a.89.89,0,0,0-.88-.88H174a.89.89,0,0,0-.88.88v1.26a.9.9,0,0,0,.89.89h9.14c.61,0,.58.26.58,1v.15c0,.7,0,.85-.58.85H164.58a.87.87,0,0,1-.87-.88V71.17a.88.88,0,0,1,.88-.88h24a.89.89,0,0,0,.89-.88v-2a.89.89,0,0,0-.89-.88H159.13a.89.89,0,0,0-.88.88V80.47a.89.89,0,0,0,.88.88h29.45a.89.89,0,0,0,.89-.88v-7.3"/>
  </g>
</svg>
